<svg width="280" height="280" viewBox="0 0 280 280" fill="none" xmlns="http://www.w3.org/2000/svg">
<g clip-path="url(#clip0_129_16559)">
<path d="M234.291 76.1968L234.303 77.1645L235.27 77.1845C239.697 77.2758 243.91 79.0962 247.01 82.2566L247.01 82.2567C250.111 85.417 251.851 89.6659 251.858 94.0939L252 221.768C252.006 226.261 250.225 230.573 247.051 233.755C243.877 236.937 239.57 238.728 235.076 238.735L45.1029 239C40.6096 239.006 36.2983 237.227 33.1178 234.053C29.9371 230.88 28.1473 226.573 28.1423 222.078L28 94.412C28 94.412 28 94.4119 28 94.4119C27.9963 90.8581 29.1099 87.393 31.1833 84.5065L30.374 83.9251L31.1833 84.5064C33.2566 81.6199 36.1849 79.458 39.5536 78.3268L39.5678 78.322L39.5819 78.3168C41.4542 77.6248 43.4343 77.2703 45.4303 77.2696H45.4313L123.61 77.1607L124.383 77.1596L124.577 76.4108C126.717 68.1216 131.108 60.5853 137.263 54.6348L137.269 54.629C146.127 45.9249 158.046 41.0452 170.463 41.0396L170.464 41.0396L198.89 41C203.383 40.9939 207.694 42.773 210.874 45.9458L210.874 45.946C214.055 49.1192 215.845 53.4265 215.85 57.9202V57.923C215.85 57.9595 215.85 58.0064 215.851 58.0557V58.0559V58.0562V58.0564V58.0566V58.0569V58.0571V58.0574V58.0576V58.0579V58.0581V58.0584V58.0586V58.0589V58.0591V58.0593V58.0596V58.0598V58.0601V58.0603V58.0606V58.0608V58.0611V58.0613V58.0616V58.0618V58.062V58.0623V58.0625V58.0628V58.063V58.0633V58.0635V58.0638V58.064V58.0643V58.0645V58.0647V58.065V58.0652V58.0655V58.0657V58.066V58.0662V58.0665V58.0667V58.067V58.0672V58.0674V58.0677V58.0679V58.0682V58.0684V58.0687V58.0689V58.0692V58.0694V58.0697V58.0699V58.0701V58.0704V58.0706V58.0709V58.0711V58.0714V58.0716V58.0719V58.0721V58.0724V58.0726V58.0728V58.0731V58.0733V58.0736V58.0738V58.0741V58.0743V58.0746V58.0748V58.0751V58.0753V58.0755V58.0758V58.076V58.0763V58.0765V58.0768V58.077V58.0773V58.0775V58.0778V58.078V58.0782V58.0785V58.0787V58.079V58.0792V58.0795V58.0797V58.08V58.0802V58.0805V58.0807V58.0809V58.0812V58.0814V58.0817V58.0819V58.0822V58.0824V58.0827V58.0829V58.0832V58.0834V58.0836V58.0839V58.0841V58.0844V58.0846V58.0849V58.0851V58.0854V58.0856V58.0859V58.0861V58.0863V58.0866V58.0868V58.0871V58.0873V58.0876V58.0878V58.0881V58.0883V58.0886V58.0888V58.089V58.0893V58.0895V58.0898V58.09V58.0903V58.0905V58.0908V58.091V58.0913V58.0915V58.0917V58.092V58.0922V58.0925V58.0927V58.093V58.0932V58.0935V58.0937V58.094V58.0942V58.0944V58.0947V58.0949V58.0952V58.0954V58.0957V58.0959V58.0962V58.0964V58.0967V58.0969V58.0971V58.0974V58.0976V58.0979V58.0981V58.0984V58.0986V58.0989V58.0991V58.0994V58.0996V58.0998V58.1001V58.1003V58.1006V58.1008V58.1011V58.1013V58.1016V58.1018V58.1021V58.1023V58.1026V58.1028V58.103V58.1033V58.1035V58.1038V58.104V58.1043V58.1045V58.1048V58.105V58.1052V58.1055V58.1057V58.106V58.1062V58.1065V58.1067V58.107V58.1072V58.1075V58.1077V58.108V58.1082V58.1084V58.1087V58.1089V58.1092V58.1094V58.1097V58.1099V58.1102V58.1104V58.1107V58.1109V58.1111V58.1114V58.1116V58.1119V58.1121V58.1124V58.1126V58.1129V58.1131V58.1134V58.1136V58.1138V58.1141V58.1143V58.1146V58.1148V58.1151V58.1153V58.1156V58.1158V58.1161V58.1163V58.1165V58.1168V58.117V58.1173V58.1175V58.1178V58.118V58.1183V58.1185V58.1188V58.119V58.1192V58.1195V58.1197V58.12V58.1202V58.1205V58.1207V58.121V58.1212V58.1215V58.1217V58.1219V58.1222V58.1224V58.1227V58.1229V58.1232V58.1234V58.1237V58.1239V58.1242V58.1244V58.1246V58.1249V58.1251V58.1254V58.1256V58.1259V58.1261V58.1264V58.1266V58.1269V58.1271V58.1273V58.1276V58.1278V58.1281V58.1283V58.1286V58.1288V58.1291V58.1293V58.1296V58.1298V58.13V58.1303V58.1305V58.1308V58.131V58.1313V58.1315V58.1318V58.132V58.1323V58.1325V58.1327V58.133V58.1332V58.1335V58.1337V58.134V58.1342V58.1345V58.1347V58.135V58.1352V58.1354V58.1357V58.1359V58.1362V58.1364V58.1367V58.1369V58.1372V58.1374V58.1377V58.1379V58.1381V58.1384V58.1386V58.1389V58.1391V58.1394V58.1396V58.1399V58.1401V58.1404V58.1406V58.1408V58.1411V58.1413V58.1416V58.1418V58.1421V58.1423V58.1426V58.1428V58.1431V58.1433V58.1435V58.1438V58.144V58.1443V58.1445V58.1448V58.145V58.1453V58.1455V58.1458V58.146V58.1462V58.1465V58.1467V58.147V58.1472V58.1475V58.1477V58.148V58.1482V58.1485V58.1487V58.1489V58.1492V58.1494V58.1497V58.1499V58.1502V58.1504V58.1507V58.1509V58.1512V58.1514V58.1516V58.1519V58.1521V58.1524V58.1526V58.1529V58.1531V58.1534V58.1536V58.1539V58.1541V58.1543V58.1546V58.1548V58.1551V58.1553V58.1556V58.1558V58.1561V58.1563V58.1566V58.1568V58.157V58.1573V58.1575V58.1578V58.158V58.1583V58.1585V58.1588V58.159V58.1593V58.1595V58.1597V58.16V58.1602V58.1605V58.1607V58.161V58.1612V58.1615V58.1617V58.162V58.1622V58.1625V58.1627V58.1629V58.1632V58.1634V58.1637V58.1639V58.1642V58.1644V58.1647V58.1649V58.1651V58.1654V58.1656V58.1659V58.1661V58.1664V58.1666V58.1669V58.1671V58.1674V58.1676V58.1679V58.1681V58.1683V58.1686V58.1688V58.1691V58.1693V58.1696V58.1698V58.1701V58.1703V58.1706V58.4635V59.4648L216.852 59.4635L217.331 59.4629L217.331 59.4629C221.792 59.4564 226.075 61.21 229.249 64.3428L229.25 64.343C232.426 67.4759 234.237 71.7353 234.291 76.1968Z" fill="#23A094" stroke="black" stroke-width="2" stroke-miterlimit="10"/>
<path d="M140.358 218.052C141.193 214.398 143.242 211.134 146.169 208.795C149.097 206.459 152.73 205.184 156.475 205.182L235.09 205.072L235.108 221.79L140.219 221.922V221.755C140.219 221.074 140.176 220.396 140.091 219.722C140.119 219.426 140.16 219.14 140.215 218.86C140.239 218.585 140.293 218.321 140.358 218.052Z" fill="black"/>
<path d="M140.072 219.721C140.157 220.396 140.199 221.075 140.199 221.754V221.922L45.3047 222.054L45.2861 205.337L123.644 205.228C127.676 205.222 131.573 206.691 134.599 209.36C137.625 212.03 139.572 215.714 140.072 219.721Z" fill="black"/>
<path d="M45.1631 94.3815L45.2868 205.337L45.3054 222.054L140.201 221.922L235.089 221.79L235.071 205.072L234.948 94.1171L217.585 94.1412" stroke="black" stroke-width="2" stroke-linecap="round" stroke-linejoin="round"/>
<path d="M140.2 220.912L140.197 218.861L140.181 204.134L140.076 110.626L140.051 87.8674L140.05 86.3123" stroke="black" stroke-width="2" stroke-linecap="round" stroke-linejoin="round"/>
<path d="M199.828 76.4314L217.398 76.4069L217.525 190.406L163.085 190.483C157.049 190.49 151.263 192.9 147 197.177C142.736 201.456 140.346 207.255 140.353 213.297L140.362 220.912" stroke="black" stroke-width="2" stroke-linecap="round" stroke-linejoin="round"/>
<path d="M199.105 174.216L170.707 174.256C154.249 174.278 140.324 187.654 140.343 204.133L140.346 207.232" stroke="black" stroke-width="2" stroke-linecap="round" stroke-linejoin="round"/>
<path d="M198.976 57.9437L170.578 57.9832C154.117 58.0061 140.193 71.388 140.211 87.8668L140.215 90.9592" stroke="black" stroke-width="2" stroke-linecap="round" stroke-linejoin="round"/>
<path d="M198.976 58.1953L198.996 76.4325L199.105 174.216" stroke="black" stroke-width="2" stroke-linecap="round" stroke-linejoin="round"/>
<path d="M164.418 78.8848L161.114 78.8896C155.543 78.8988 150.205 81.1227 146.27 85.0719C142.337 89.0212 140.131 94.3728 140.137 99.9494L140.143 105.775" stroke="black" stroke-width="2" stroke-linecap="round" stroke-linejoin="round"/>
<path d="M164.43 90.5427L161.127 90.5475C155.557 90.5551 150.218 92.7777 146.284 96.7261C142.349 100.674 140.142 106.025 140.148 111.601L140.156 117.428" stroke="black" stroke-width="2" stroke-linecap="round" stroke-linejoin="round"/>
<path d="M164.487 139.686L161.182 139.69C155.611 139.699 150.272 141.924 146.338 145.873C142.405 149.822 140.199 155.174 140.205 160.75L140.211 166.57" stroke="black" stroke-width="2" stroke-linecap="round" stroke-linejoin="round"/>
<path d="M164.499 151.337L161.194 151.342C155.626 151.354 150.291 153.58 146.359 157.53C142.427 161.478 140.223 166.828 140.23 172.402L140.236 178.228" stroke="black" stroke-width="2" stroke-linecap="round" stroke-linejoin="round"/>
<path d="M164.442 101.686L161.139 101.691C155.57 101.703 150.233 103.929 146.301 107.88C142.369 111.829 140.165 117.181 140.173 122.756L140.179 128.577" stroke="black" stroke-width="2" stroke-linecap="round" stroke-linejoin="round"/>
<path d="M45.7944 205.336L123.644 205.228C127.678 205.222 131.574 206.692 134.599 209.36C137.625 212.03 139.571 215.715 140.073 219.722C140.158 220.396 140.2 221.075 140.201 221.755" stroke="black" stroke-width="2" stroke-linecap="round" stroke-linejoin="round"/>
<path d="M234.312 205.073L156.475 205.181C152.729 205.184 149.096 206.458 146.169 208.795C143.241 211.134 141.191 214.397 140.357 218.052C140.291 218.322 140.238 218.585 140.196 218.859C140.155 219.135 140.101 219.459 140.072 219.722C139.984 220.396 139.941 221.074 139.943 221.754" stroke="black" stroke-width="2" stroke-linecap="round" stroke-linejoin="round"/>
<path d="M45.6704 94.2073L123.52 94.0988C125.691 94.095 127.842 94.5194 129.85 95.3481C131.857 96.1767 133.681 97.393 135.218 98.9278C136.757 100.463 137.977 102.286 138.811 104.293C139.644 106.301 140.074 108.453 140.077 110.626" stroke="black" stroke-width="2" stroke-linecap="round" stroke-linejoin="round"/>
<path d="M121.964 134.297L122.006 171.608L58.5789 171.697L58.5656 159.806L58.5083 108.199L121.935 108.111L121.964 134.297Z" stroke="black" stroke-width="2" stroke-linecap="round" stroke-linejoin="round"/>
<path d="M58.1733 183.445L107.435 183.375" stroke="black" stroke-width="2" stroke-linecap="round" stroke-linejoin="round"/>
<path d="M58.7329 159.805C58.7329 159.805 63.9889 136.842 75.4373 137.741C83.8742 138.405 80.8267 148.649 88.9453 147.854C99.406 146.829 93.7693 128.492 105.451 124.187C116.5 120.123 121.659 134.297 121.659 134.297" stroke="black" stroke-width="2" stroke-linecap="round" stroke-linejoin="round"/>
</g>
<defs>
<clipPath id="clip0_129_16559">
<rect width="226" height="200" fill="white" transform="translate(27 40)"/>
</clipPath>
</defs>
</svg>
