<svg width="280" height="280" viewBox="0 0 280 280" fill="none" xmlns="http://www.w3.org/2000/svg">
<g clip-path="url(#clip0_6_8054)">
<path d="M243.706 121.914L243.661 121.709C242.678 117.222 240.55 113.069 237.484 109.658L237.334 109.491L237.269 109.277C236.766 107.594 236.092 105.967 235.26 104.421C233.034 100.351 229.801 96.9246 225.874 94.4713C221.945 92.0176 217.455 90.6199 212.833 90.4127L212.83 90.4125C210.839 90.3174 208.842 90.4475 206.88 90.7999L206.667 90.8382L206.457 90.7851L205.874 90.6373C204.366 90.3002 202.831 90.0889 201.287 90.0056L200.63 89.9701L200.403 89.352C199.392 86.6014 197.869 84.0693 195.914 81.8907L195.913 81.8898L182.566 66.9801C181.523 65.8147 180.365 64.7577 179.11 63.8253L178.743 63.5525L178.709 63.0962C178.285 57.3473 175.744 51.9634 171.581 47.9921L171.581 47.992C167.419 44.0206 161.935 41.7456 156.195 41.6091L156.193 41.609L132.225 41.0073L132.225 41.0073C128.736 40.9195 125.272 41.6232 122.093 43.066C118.913 44.5089 116.099 46.6537 113.86 49.3409C111.621 52.028 110.016 55.1881 109.164 58.5852C108.312 61.9824 108.236 65.5288 108.94 68.9596L108.941 68.9606L109.265 70.5493L109.405 71.2351L108.809 71.6015C107.841 72.1964 106.919 72.8644 106.053 73.6003L90.2748 87.0009C90.2747 87.0009 90.2747 87.001 90.2746 87.001C89.0792 88.0167 87.9897 89.1515 87.0227 90.3883L86.6302 90.8903L86.0094 90.7466C82.0931 89.8404 78.0224 89.8401 74.1059 90.7459L73.5207 90.8947L73.3063 90.9492L73.0889 90.9082C66.6448 89.6927 59.9801 90.9071 54.3727 94.3188C48.7654 97.7307 44.6097 103.1 42.7038 109.398L42.6395 109.61L42.4915 109.776C39.4317 113.192 37.3043 117.345 36.3164 121.83L36.2714 122.034L36.1485 122.203C29.291 131.632 29.157 145.505 36.5106 160.826L35.6091 161.258L36.5106 160.826C39.03 166.075 47.1346 180.389 53.5744 189.044C53.5747 189.044 53.5751 189.044 53.5754 189.045L52.7732 189.642C55.4654 193.242 61.3476 202.6 65.9933 210.196L243.706 121.914ZM243.706 121.914L243.829 122.083M243.706 121.914L243.829 122.083M243.829 122.083C250.691 131.511 250.872 145.384 243.479 160.703L243.479 160.704C240.952 165.958 232.859 180.32 226.424 188.926L226.421 188.931C223.728 192.575 217.794 202.007 213.158 209.561L213.01 209.801L213.01 210.084L213.011 215.614C213.011 215.614 213.011 215.614 213.011 215.614C213.011 215.614 213.011 215.614 213.011 215.614C213.01 221.784 210.568 227.7 206.221 232.063C201.875 236.425 195.98 238.876 189.835 238.88H189.834M243.829 122.083L189.834 238.88M189.834 238.88L90.1769 239C90.1765 239 90.176 239 90.1756 239M189.834 238.88L90.1756 239M90.1756 239C84.0294 239 78.1339 236.551 73.7865 232.191L90.1756 239Z" fill="#F1F333" stroke="black" stroke-width="2" stroke-miterlimit="10"/>
<path d="M174.759 148.582C174.759 148.582 186.421 140.257 192.738 127.607C199.055 114.956 201.03 110.621 204.889 111.506C212.023 113.131 205.736 125.57 203.603 130.367C200.844 136.548 193.555 147.444 193.555 147.444" stroke="black" stroke-width="2" stroke-linecap="round" stroke-linejoin="round"/>
<path d="M204.243 129.391C204.243 129.391 210.597 117.142 212.534 114.259C215.127 110.355 218.987 111.913 219.983 113.774C221.121 115.884 219.825 120.273 217.881 124.994C215.936 129.715 207.833 146.784 204.11 151.99" stroke="black" stroke-width="2" stroke-linecap="round" stroke-linejoin="round"/>
<path d="M217.858 125.001C217.858 125.001 221.258 120.771 224.824 123.374C227.697 125.469 226.936 128.245 224.667 134.594C222.399 140.94 215.758 155.732 211.22 159.961" stroke="black" stroke-width="2" stroke-linecap="round" stroke-linejoin="round"/>
<path d="M187.235 144.608C187.235 144.608 203.68 151.143 213.326 163.131" stroke="black" stroke-width="2" stroke-linecap="round" stroke-linejoin="round"/>
<path d="M224.178 135.728C224.178 135.728 226.77 131.99 230.338 134.917C233.444 137.466 230.339 146.947 228.237 151.344C226.134 155.739 218.348 169.554 212.521 177.362C206.693 185.172 193.239 207.627 193.239 207.627L193.24 220.798L146.065 220.804C146.065 220.804 145.596 199.849 145.593 184.235C145.591 168.618 154.342 155.938 160.667 148.136C166.992 140.335 169.463 134.767 171.679 130.735C174.273 126.021 181.081 129.107 180.109 134.471C179.138 139.835 170.876 156.911 170.876 156.911C175.908 162.194 178.857 169.129 179.173 176.43" stroke="black" stroke-width="2" stroke-linecap="round" stroke-linejoin="round"/>
<path d="M186.273 161.099C186.273 161.099 194.048 167.28 196.317 173.461" stroke="black" stroke-width="2" stroke-linecap="round" stroke-linejoin="round"/>
<path d="M105.237 148.704C105.237 148.704 93.5719 140.383 87.2444 127.728C80.917 115.072 78.9486 110.752 75.0884 111.63C67.9638 113.258 74.2535 125.702 76.388 130.498C79.1482 136.671 86.4406 147.565 86.4406 147.565" stroke="black" stroke-width="2" stroke-linecap="round" stroke-linejoin="round"/>
<path d="M75.7379 129.492C75.7379 129.492 69.388 117.245 67.4424 114.362C64.8481 110.459 60.9882 112.011 59.9858 113.872C58.8551 115.99 60.1525 120.378 62.0984 125.091C64.0444 129.804 72.1442 146.885 75.8771 152.082" stroke="black" stroke-width="2" stroke-linecap="round" stroke-linejoin="round"/>
<path d="M62.1282 125.129C62.1282 125.129 58.7196 120.908 55.1613 123.503C52.2815 125.607 53.0509 128.383 55.3213 134.731C57.5914 141.078 64.236 155.867 68.7754 160.088" stroke="black" stroke-width="2" stroke-linecap="round" stroke-linejoin="round"/>
<path d="M92.7792 144.727C92.7792 144.727 76.3363 151.258 66.6948 163.259" stroke="black" stroke-width="2" stroke-linecap="round" stroke-linejoin="round"/>
<path d="M55.8349 135.865C55.8349 135.865 53.2408 132.128 49.675 135.05C46.569 137.599 49.6768 147.086 51.781 151.473C53.8851 155.861 61.6678 169.69 67.5045 177.489C73.3412 185.288 86.7953 207.749 86.7953 207.749L86.7969 220.919L134.44 220.913L134.434 184.31C134.433 168.703 125.677 156.017 119.35 148.211C113.023 140.404 110.542 134.844 108.325 130.812C105.738 126.091 98.9302 129.186 99.9036 134.55C100.877 139.914 109.143 156.988 109.143 156.988C104.112 162.268 101.165 169.203 100.852 176.501" stroke="black" stroke-width="2" stroke-linecap="round" stroke-linejoin="round"/>
<path d="M93.7326 161.264C93.7326 161.264 85.9526 167.446 83.6841 173.621" stroke="black" stroke-width="2" stroke-linecap="round" stroke-linejoin="round"/>
<path d="M153.447 119.911L167.051 78.6015L181.31 94.5327L153.447 119.911Z" stroke="black" stroke-width="2" stroke-linecap="round" stroke-linejoin="round"/>
<path d="M139.828 101.695L156.681 59.7421L131.068 59.0953L139.828 101.695Z" stroke="black" stroke-width="2" stroke-linecap="round" stroke-linejoin="round"/>
<path d="M130.756 132.594L119.734 88.0424L102.885 102.351L130.756 132.594Z" stroke="black" stroke-width="2" stroke-linecap="round" stroke-linejoin="round"/>
</g>
<defs>
<clipPath id="clip0_6_8054">
<rect width="220" height="200" fill="white" transform="translate(30 40)"/>
</clipPath>
</defs>
</svg>
