<svg width="280" height="280" viewBox="0 0 280 280" fill="none" xmlns="http://www.w3.org/2000/svg">
<path d="M122.877 210.389L122.635 209.734L121.937 209.736L120.207 209.74H120.207L33.6303 209.928C33.6302 209.928 33.6302 209.928 33.6301 209.928C31.8183 209.931 29.7535 208.839 27.9823 206.199C26.2253 203.579 25.0251 199.759 25.0243 195.363L25 56.0739C24.9992 51.6783 26.1979 47.8523 27.9547 45.2248L27.9547 45.2248C29.7262 42.5751 31.7924 41.4722 33.6046 41.4682L248.37 41C250.182 40.9961 252.246 42.0892 254.018 44.7297L254.018 44.7301C255.776 47.3481 256.974 51.1686 256.976 55.5643C256.976 55.5644 256.976 55.5645 256.976 55.5646L257 194.854C257 199.249 255.801 203.077 254.045 205.703C252.273 208.353 250.207 209.456 248.393 209.461L159.149 209.655H159.149L157.419 209.659L156.724 209.661L156.483 210.313L155.889 211.922L155.889 211.922L148.044 233.195C145.194 240.921 134.172 240.935 131.324 233.235L123.472 211.998L122.877 210.389Z" fill="#FF90E8" stroke="black" stroke-width="2"/>
<path d="M82.0579 187.141L81.5094 184.142L78.747 185.409C76.7499 186.325 74.5688 186.797 72.1738 186.801C68.168 186.809 64.7716 185.472 61.8498 182.839C58.8783 180.161 56.3125 176.061 54.2256 170.45C50.0409 159.199 48.0037 142.491 48 121.012C47.9963 99.9685 49.9322 83.4752 54.0638 72.3191C56.1236 66.7574 58.6734 62.6779 61.6563 60.0024C64.5899 57.371 68.0356 56.0094 72.1512 56C76.2258 55.9911 79.6512 57.31 82.5756 59.8904C85.5482 62.513 88.1029 66.5319 90.1747 72.0489C94.3314 83.1167 96.3213 99.5979 96.3248 120.905C96.3289 143.991 94.0014 161.613 89.1706 172.821L88.7847 173.716L89.1325 174.625C91.6406 181.178 94.2894 187.075 96.5756 192.062L83.7189 196C83.495 194.787 83.2542 193.518 83.0059 192.205C82.6965 190.571 82.3749 188.875 82.0579 187.141ZM76.8603 138.047L81.5075 137.376C81.5069 135.043 81.5501 132.588 81.5957 129.986L81.6025 129.597C81.6504 126.858 81.6989 123.966 81.6981 120.938C81.695 102.761 80.7711 89.6738 79.3852 81.0803C78.6952 76.8023 77.8726 73.5169 76.9335 71.2435C76.4674 70.1156 75.9181 69.1001 75.2411 68.3282C74.5702 67.5634 73.5369 66.7845 72.153 66.7876C70.7692 66.7905 69.7363 67.574 69.0657 68.3419C68.3891 69.1166 67.8399 70.1346 67.3745 71.2646C66.4359 73.5422 65.6144 76.8314 64.9258 81.112C63.543 89.7118 62.6234 102.803 62.6265 120.98C62.6298 139.247 63.5539 152.724 64.9374 161.683C65.6261 166.144 66.445 169.598 67.372 171.991C67.8311 173.177 68.3685 174.241 69.0268 175.051C69.6623 175.832 70.7069 176.724 72.1722 176.721C73.2824 176.718 74.1685 176.198 74.7939 175.615C75.4045 175.047 75.887 174.315 76.2818 173.553C77.0737 172.025 77.7567 169.893 78.3545 167.253L78.4623 166.777L78.3755 166.297C77.8367 163.319 77.2846 160.254 76.7215 157.128C74.3864 144.169 71.8619 130.16 69.3274 116.882L71.6313 116.468C73.1167 124.017 74.9084 131.254 76.8603 138.047ZM135.175 96.6717L136.804 102.942L139.603 97.0949C143.682 88.5758 146.033 81.7828 146.032 76.2499C146.032 74.3591 145.716 72.4226 144.74 70.8853C143.668 69.1938 141.938 68.2196 139.788 68.2243C137.444 68.2297 135.336 69.177 133.949 71.3362C132.685 73.3041 132.19 76.0234 132.19 79.285C132.191 83.6822 133.428 89.9469 135.175 96.6717ZM155.845 140.985C159.439 126.986 162.287 111.028 165.102 87.2123L177.813 88.9688C171.108 120.915 166.031 140.807 160.437 155.801L160.014 156.933L160.672 157.943C166.672 167.158 171.937 174.478 175.937 179.529L165.199 187.786C161.924 183.566 158.774 178.875 155.727 174.248L153.769 171.275L151.785 174.238C146.265 182.481 139.557 186.824 131.674 186.842C124.639 186.857 119.126 184.011 115.32 179.224C111.471 174.384 109.251 167.399 109.25 159.05C109.247 143.967 114.979 130.272 125.215 111.559L125.712 110.65L125.392 109.666C121.143 96.6414 118.727 85.8113 118.725 78.2546C118.724 70.9111 120.482 65.5919 123.782 62.102C127.061 58.6335 132.246 56.5699 139.979 56.5527C146.171 56.539 150.706 58.6909 153.702 61.8733C156.723 65.083 158.334 69.5073 158.335 74.2784C158.335 78.9312 156.975 84.0588 154.101 90.3227C151.225 96.5933 146.899 103.863 141.104 112.78L140.462 113.769L140.853 114.88C144.171 124.307 148.07 133.902 151.386 141.369L154.149 147.591L155.845 140.985ZM131.916 127.155L129.568 121.481L127.497 127.271C124.132 136.676 122.324 144.732 122.326 155.84C122.328 162.886 123.353 167.654 125.217 170.727C127.209 174.013 130.047 175.174 132.834 175.168C137.834 175.157 142.903 171.326 147.852 162.821L148.533 161.651L147.883 160.466C141.728 149.248 136.34 137.85 131.916 127.155ZM209.249 127.991L207.045 127.996L206.885 130.207C205.413 150.578 204.292 170.464 203.521 185.448L190.041 185.478C194.169 149.951 199.134 100.316 202.886 57.653L223.904 57.6066C226.19 84.8381 232.983 150.805 237 185.374L223.357 185.404C222.898 173.668 221.784 152.852 220.331 130.197L220.187 127.967L217.964 127.972L209.249 127.991ZM207.465 114.122L207.28 116.678L209.829 116.672L216.994 116.656L219.51 116.651L219.36 114.125C218.388 97.8475 217.22 81.9255 216.25 69.8947L216.073 67.7044L213.887 67.709L213.305 67.7105L211.147 67.7152L210.945 69.8781C209.784 82.4572 208.622 98.0366 207.465 114.122Z" fill="#FF90E8" stroke="black" stroke-width="2"/>
</svg>
