<svg width="112" height="165" viewBox="0 0 112 165" fill="none" xmlns="http://www.w3.org/2000/svg">
<path d="M83.5213 163.899H44.5664V121.605C44.8094 118.424 48.4941 111.142 62.8042 111.142C71.8744 111.142 77.0893 113.217 80.0062 115.259C81.4676 116.282 82.3673 117.306 82.8946 118.082C83.1592 118.471 83.3285 118.796 83.4279 119.024C83.4767 119.136 83.5059 119.219 83.5213 119.269V163.899ZM83.5331 119.313C83.533 119.313 83.5321 119.309 83.5309 119.303C83.5326 119.31 83.5332 119.313 83.5331 119.313Z" fill="#90A8ED" stroke="black" stroke-width="2" stroke-linecap="round" stroke-linejoin="round"/>
<path d="M52 163L52 127" stroke="black" stroke-width="2" stroke-linecap="round" stroke-linejoin="round"/>
<path d="M76 163L76 127" stroke="black" stroke-width="2" stroke-linecap="round" stroke-linejoin="round"/>
<path d="M57.748 112.825C59.2689 115.343 64.0154 118.868 70.8379 112.825C64.7736 111.045 59.5846 112.084 57.748 112.825Z" fill="#FF90E8" stroke="black" stroke-width="2" stroke-linecap="round" stroke-linejoin="round"/>
<path d="M44.7566 1.52147C26.3516 3.42944 21.2215 18.8793 20.9571 26.3662C18.5048 36.2888 13.4206 40.08 6.28074 46.838C-0.859043 53.5955 -0.660749 67.5088 6.28074 73.8689C13.1642 80.1757 16.5371 86.0918 18.9138 90.2607L18.9738 90.3658C21.3538 94.5397 18.3788 107.459 24.7254 114.018C31.0719 120.574 41.5831 119.782 54.4745 114.018C67.3664 108.254 77.2828 116.005 83.6293 117.397C89.9757 118.788 98.1071 120.181 107.032 105.67C115.957 91.1604 107.429 69.8939 104.652 63.1359C101.876 56.3785 101.281 44.254 104.652 28.5523C108.024 12.8507 96.3221 6.09273 81.4478 5.89378C66.5729 5.6954 67.7629 -0.863647 44.7566 1.52147Z" fill="#FF90E8" stroke="black" stroke-width="2" stroke-linecap="round" stroke-linejoin="round"/>
<path d="M47.1367 79.7325C48.8892 78.3741 53.4243 76.4729 57.5494 79.7325" stroke="black" stroke-width="2" stroke-linecap="round" stroke-linejoin="round"/>
<path d="M30.4769 75.2703C38.4238 75.2703 44.8659 68.8142 44.8659 60.8502C44.8659 52.8863 38.4238 46.4302 30.4769 46.4302C22.5301 46.4302 16.0879 52.8863 16.0879 60.8502C16.0879 68.8142 22.5301 75.2703 30.4769 75.2703Z" fill="white" stroke="black" stroke-width="2"/>
<path d="M73.3158 75.2703C81.2626 75.2703 87.7048 68.8142 87.7048 60.8502C87.7048 52.8863 81.2626 46.4302 73.3158 46.4302C65.3689 46.4302 58.9268 52.8863 58.9268 60.8502C58.9268 68.8142 65.3689 75.2703 73.3158 75.2703Z" fill="white" stroke="black" stroke-width="2"/>
<path d="M30.4768 72.3782C36.8298 72.3782 41.9799 67.2169 41.9799 60.8502C41.9799 54.4835 36.8298 49.3223 30.4768 49.3223C24.1238 49.3223 18.9736 54.4835 18.9736 60.8502C18.9736 67.2169 24.1238 72.3782 30.4768 72.3782Z" fill="black"/>
<path d="M73.3166 72.3782C79.6696 72.3782 84.8198 67.2169 84.8198 60.8502C84.8198 54.4835 79.6696 49.3223 73.3166 49.3223C66.9636 49.3223 61.8135 54.4835 61.8135 60.8502C61.8135 67.2169 66.9636 72.3782 73.3166 72.3782Z" fill="black"/>
</svg>
