<svg width="128" height="177" viewBox="0 0 128 177" fill="none" xmlns="http://www.w3.org/2000/svg">
<path d="M116.277 176H6.94708C7.53782 168.135 13.2581 150.069 32.7926 133.963H100.369C106.317 140.363 117.249 157.129 116.277 176Z" fill="#98282A" stroke="black" stroke-width="2"/>
<path d="M114.294 113.079C119.601 116.584 121.237 120.851 121.392 122.548V133.188H5.89751C2.07439 106.337 15.0055 99.4827 24.0009 91.8446C32.9968 84.2066 28.9484 73.6454 19.7282 77.0165C10.1029 80.2531 6.49724 92.2198 5.89751 97.7971C2.74922 93.6421 -1.9735 84.8785 3.53615 70.2744C9.04579 55.6702 24.451 52.9767 29.7358 51.5152C35.0207 50.0537 37.6068 40.5061 30.6354 36.3511C17.4117 29.6986 9.08336 39.6438 6.57235 45.4507C-1.41131 29.049 13.9933 11.7458 29.1731 20.0615C44.3535 28.3715 44.803 25.23 55.148 13.9914C65.4931 2.75826 78.4242 15.1169 82.4721 18.1519C86.52 21.1814 92.8165 19.2719 92.1423 12.8714C91.3324 3.43583 80.785 1.67186 75.6128 1.97425C120.365 -5.21583 105.073 29.609 103.162 33.876C101.25 38.1486 101.925 45.2267 107.997 43.8772C122.659 40.551 119.878 26.0868 116.655 19.2719C130.148 33.428 120.478 47.3602 115.755 52.1872C111.098 56.9526 111.471 62.698 111.698 66.1978L111.707 66.3434C111.932 69.8264 111.82 74.547 119.466 78.3661C127.112 82.1851 127 87.2416 127 89.4871C127 91.7326 125.988 96.2236 118.791 98.9227C111.595 101.616 108.784 104.651 108.784 106.673C108.784 107.91 107.66 108.694 114.294 113.079Z" fill="#F1F333"/>
<path d="M121.392 133.496C121.392 133.395 121.392 133.294 121.392 133.188V133.496ZM121.392 133.188C121.392 129.447 121.392 122.548 121.392 122.548C121.237 120.851 119.601 116.584 114.294 113.079C107.66 108.694 108.784 107.91 108.784 106.673C108.784 104.651 111.595 101.616 118.791 98.9227C125.988 96.2236 127 91.7327 127 89.4872C127 87.2417 127.112 82.1851 119.466 78.3661C111.82 74.547 111.932 69.8265 111.707 66.3434C111.483 62.8604 111.033 57.0198 115.755 52.1872C120.478 47.3602 130.148 33.428 116.655 19.2719C119.878 26.0868 122.659 40.551 107.997 43.8772C101.925 45.2268 101.25 38.1486 103.162 33.876C105.073 29.609 120.365 -5.21583 75.6128 1.97425C80.785 1.67186 91.3324 3.43583 92.1423 12.8714C92.8165 19.2719 86.52 21.1814 82.4721 18.1519C78.4242 15.1169 65.4931 2.75826 55.148 13.9914C44.803 25.2301 44.3535 28.3715 29.1731 20.0615C13.9933 11.7458 -1.41131 29.049 6.57235 45.4507C9.08336 39.6438 17.4117 29.6986 30.6354 36.3511C37.6068 40.5061 35.0207 50.0537 29.7359 51.5152C24.451 52.9767 9.04579 55.6702 3.53615 70.2744C-1.9735 84.8785 2.74922 93.6421 5.89751 97.7972C6.49724 92.2198 10.1029 80.2532 19.7282 77.0165C28.9484 73.6455 32.9968 84.2066 24.0009 91.8446C15.0055 99.4827 2.07439 106.337 5.89751 133.188H121.392Z" stroke="black" stroke-width="2" stroke-linejoin="round"/>
<path d="M63.7048 166.797L76.9953 128.578C77.2722 127.783 77.4874 126.949 77.4134 126.114C77.2413 124.155 76.2038 121.943 72.9143 123.107C73.4389 121.013 74.4658 116.595 74.3761 115.693C74.2634 114.573 72.1274 112.44 70.3282 115.693C69.9157 114.237 68.4842 111.986 66.055 114.685C65.3056 113.448 63.3562 111.718 61.5576 114.685C60.8077 112.961 58.8364 110.754 56.947 115.693C55.5883 119.249 47.8261 139.296 41.0088 156.885L63.7048 166.797Z" fill="#F1F333" stroke="black" stroke-width="2"/>
<path d="M63.7048 166.797L60.77 175.236H33.8955C35.8315 170.241 38.3481 163.751 41.0082 156.885L63.7048 166.797Z" fill="#98282A" stroke="black" stroke-width="2"/>
<path d="M59.702 86.8152C61.5961 86.8152 63.1316 85.2811 63.1316 83.3888C63.1316 81.4964 61.5961 79.9624 59.702 79.9624C57.8079 79.9624 56.2725 81.4964 56.2725 83.3888C56.2725 85.2811 57.8079 86.8152 59.702 86.8152Z" fill="black"/>
<path d="M77.7489 86.8152C79.643 86.8152 81.1785 85.2811 81.1785 83.3888C81.1785 81.4964 79.643 79.9624 77.7489 79.9624C75.8548 79.9624 74.3193 81.4964 74.3193 83.3888C74.3193 85.2811 75.8548 86.8152 77.7489 86.8152Z" fill="black"/>
<path d="M59.7012 92.9814H77.7491" stroke="black" stroke-width="2" stroke-linecap="round"/>
<path d="M61.6692 114.405L57.0586 131.647" stroke="black" stroke-width="2"/>
<path d="M66.0552 114.629L61.333 132.543" stroke="black" stroke-width="2"/>
<path d="M70.6091 115.189L65.3242 133.332" stroke="black" stroke-width="2"/>
<path d="M73.0828 123.051C71.4523 127.923 68.0675 137.868 67.5726 138.725C66.9543 139.795 66.4482 141.648 64.8177 141.872C63.1873 142.096 58.2398 143.894 55.541 148.833" stroke="black" stroke-width="2"/>
<path d="M26.3623 175.235L31.3098 154.791" stroke="black" stroke-width="2" stroke-linecap="round"/>
<path d="M103.161 175.011L99.5635 156.476" stroke="black" stroke-width="2" stroke-linecap="round"/>
</svg>
