<svg width="104" height="164" viewBox="0 0 104 164" fill="none" xmlns="http://www.w3.org/2000/svg">
<path d="M48.1445 117.922C48.1445 113.252 51.9121 109.477 56.5521 109.477H85.1972V163H48.1445V117.922Z" fill="#98282A" stroke="black" stroke-width="2"/>
<path d="M58.4175 135.075H48.1406V152.797H58.4175V135.075Z" fill="#FF90E8" stroke="black" stroke-width="2"/>
<path d="M84.6924 138.852H57.79V157.864H84.6924V138.852Z" fill="#FF90E8" stroke="black" stroke-width="2"/>
<path d="M58.2055 119.124C58.2055 118.69 57.8547 118.341 57.4219 118.341C56.9885 118.341 56.6377 118.69 56.6377 119.124H58.2055ZM56.6377 162.368V163.157H58.2055V162.368H56.6377ZM56.6377 119.124V162.368H58.2055V119.124H56.6377Z" fill="black"/>
<path fill-rule="evenodd" clip-rule="evenodd" d="M70.1993 44.0274C70.8443 41.3789 71.1861 38.612 71.1861 35.7663C71.1861 16.4489 55.4264 0.783203 35.9854 0.783203C16.5445 0.783203 0.78418 16.4489 0.78418 35.7663C0.78418 54.3623 15.3774 69.5659 33.8013 70.6873C33.1557 73.3358 32.8139 76.1027 32.8139 78.9485C32.8139 98.2658 48.5741 113.932 68.0151 113.932C87.4561 113.932 103.216 98.2658 103.216 78.9485C103.216 60.3525 88.6231 45.1488 70.1993 44.0274Z" fill="#FF90E8"/>
<path d="M70.1993 44.0275L69.4381 43.8415L69.2147 44.76L70.1521 44.8164L70.1993 44.0275ZM33.8013 70.6874L34.5624 70.8734L34.7859 69.9549L33.8484 69.8985L33.8013 70.6874ZM70.4025 35.7663C70.4025 38.5501 70.0685 41.255 69.4381 43.8415L70.961 44.2134C71.6206 41.5086 71.9703 38.6797 71.9703 35.7663H70.4025ZM35.9854 1.57216C55.0009 1.57216 70.4025 16.8886 70.4025 35.7663H71.9703C71.9703 16.0038 55.8519 0 35.9854 0V1.57216ZM1.56838 35.7663C1.56838 16.8886 16.97 1.57216 35.9854 1.57216V0C16.119 0 0 16.0038 0 35.7663H1.56838ZM33.8484 69.8985C15.8293 68.8053 1.56838 53.9341 1.56838 35.7663H0C0 54.785 14.9255 70.3268 33.7535 71.4707L33.8484 69.8985ZM33.5981 78.9486C33.5981 76.1648 33.932 73.46 34.5624 70.8734L33.0395 70.4958C32.3794 73.2064 32.0302 76.0352 32.0302 78.9486H33.5981ZM68.0151 113.143C48.9996 113.143 33.5981 97.8264 33.5981 78.9486H32.0302C32.0302 98.7111 48.1486 114.715 68.0151 114.715V113.143ZM102.432 78.9486C102.432 97.8264 87.0306 113.143 68.0151 113.143V114.715C87.8816 114.715 104 98.7111 104 78.9486H102.432ZM70.1521 44.8164C88.1712 45.9096 102.432 60.7808 102.432 78.9486H104C104 59.9299 89.075 44.3882 70.247 43.2442L70.1521 44.8164Z" fill="black"/>
<path d="M79.9206 76.5181C83.2077 76.5181 85.8724 75.2724 85.8724 73.7358C85.8724 72.1993 83.2077 70.9536 79.9206 70.9536C76.6335 70.9536 73.9688 72.1993 73.9688 73.7358C73.9688 75.2724 76.6335 76.5181 79.9206 76.5181Z" fill="white" stroke="black" stroke-width="2" stroke-linecap="round" stroke-linejoin="round"/>
<path d="M67.5778 68.3023C68.0791 68.3023 68.4856 67.8942 68.4856 67.3909C68.4856 66.8875 68.0791 66.4795 67.5778 66.4795C67.0764 66.4795 66.6699 66.8875 66.6699 67.3909C66.6699 67.8942 67.0764 68.3023 67.5778 68.3023Z" fill="black"/>
<path d="M90.191 68.3023C90.6924 68.3023 91.0989 67.8942 91.0989 67.3909C91.0989 66.8875 90.6924 66.4795 90.191 66.4795C89.6896 66.4795 89.2832 66.8875 89.2832 67.3909C89.2832 67.8942 89.6896 68.3023 90.191 68.3023Z" fill="black"/>
</svg>
