<svg width="128" height="177" viewBox="0 0 128 177" fill="none" xmlns="http://www.w3.org/2000/svg">
<path d="M116.277 176H6.94708C7.53782 168.135 13.2581 150.07 32.7926 133.964H100.369C106.317 140.364 117.249 157.13 116.277 176Z" fill="#98282A" stroke="black" stroke-width="2"/>
<path d="M114.294 113.079C119.601 116.585 121.237 120.852 121.392 122.549V133.188H5.89751C2.07439 106.337 15.0055 99.4832 24.0009 91.8451C32.9968 84.207 28.9484 73.6459 19.7282 77.017C10.1029 80.2536 6.49724 92.2203 5.89751 97.7976C2.74922 93.6426 -1.9735 84.879 3.53615 70.2749C9.04579 55.6707 24.451 52.9772 29.7359 51.5157C35.0207 50.0542 37.6068 40.5066 30.6354 36.3516C17.4117 29.6991 9.08336 39.6443 6.57235 45.4512C-1.41131 29.0495 13.9933 11.7463 29.1731 20.062C44.3535 28.372 44.803 25.2305 55.148 13.9918C65.4931 2.75875 78.4242 15.1174 82.4721 18.1524C86.52 21.1819 92.8165 19.2724 92.1423 12.8719C91.3324 3.43631 80.785 1.67235 75.6128 1.97473C120.365 -5.21534 105.073 29.6095 103.162 33.8765C101.25 38.1491 101.925 45.2272 107.997 43.8777C122.659 40.5514 119.878 26.0873 116.655 19.2724C130.148 33.4285 120.478 47.3607 115.755 52.1877C111.098 56.9531 111.471 62.6984 111.698 66.1983L111.707 66.3439C111.932 69.8269 111.82 74.5475 119.466 78.3665C127.112 82.1856 127 87.2421 127 89.4876C127 91.7331 125.988 96.2241 118.791 98.9232C111.595 101.617 108.784 104.652 108.784 106.673C108.784 107.911 107.66 108.695 114.294 113.079Z" fill="#F1F333"/>
<path d="M121.392 133.496C121.392 133.395 121.392 133.295 121.392 133.188V133.496ZM121.392 133.188C121.392 129.447 121.392 122.549 121.392 122.549C121.237 120.852 119.601 116.585 114.294 113.079C107.66 108.695 108.784 107.911 108.784 106.673C108.784 104.652 111.595 101.617 118.791 98.9232C125.988 96.2241 127 91.7331 127 89.4876C127 87.2421 127.112 82.1856 119.466 78.3665C111.82 74.5475 111.932 69.8269 111.707 66.3439C111.483 62.8609 111.033 57.0203 115.755 52.1877C120.478 47.3607 130.148 33.4285 116.655 19.2724C119.878 26.0873 122.659 40.5515 107.997 43.8777C101.925 45.2272 101.25 38.1491 103.162 33.8765C105.073 29.6095 120.365 -5.21534 75.6128 1.97473C80.785 1.67235 91.3324 3.43631 92.1423 12.8719C92.8165 19.2724 86.52 21.1819 82.4721 18.1524C78.4242 15.1174 65.4931 2.75875 55.148 13.9918C44.803 25.2305 44.3535 28.372 29.1731 20.062C13.9933 11.7463 -1.41131 29.0495 6.57235 45.4512C9.08336 39.6443 17.4117 29.6991 30.6354 36.3516C37.6068 40.5066 35.0207 50.0542 29.7359 51.5157C24.451 52.9772 9.04579 55.6707 3.53615 70.2749C-1.9735 84.879 2.74922 93.6426 5.89751 97.7977C6.49724 92.2203 10.1029 80.2536 19.7282 77.017C28.9484 73.6459 32.9968 84.2071 24.0009 91.8451C15.0055 99.4832 2.07439 106.337 5.89751 133.188H121.392Z" stroke="black" stroke-width="2" stroke-linejoin="round"/>
<path d="M63.7048 166.797L76.9953 128.579C77.2722 127.784 77.4874 126.949 77.4134 126.115C77.2413 124.155 76.2038 121.943 72.9143 123.108C73.4389 121.014 74.4658 116.595 74.3761 115.694C74.2634 114.574 72.1274 112.44 70.3282 115.694C69.9157 114.238 68.4842 111.987 66.055 114.686C65.3056 113.448 63.3562 111.718 61.5576 114.686C60.8077 112.961 58.8364 110.755 56.947 115.694C55.5883 119.25 47.8261 139.297 41.0088 156.886L63.7048 166.797Z" fill="#F1F333" stroke="black" stroke-width="2"/>
<path d="M63.7048 166.797L60.77 175.236H33.8955C35.8315 170.241 38.3481 163.751 41.0082 156.886L63.7048 166.797Z" fill="#98282A" stroke="black" stroke-width="2"/>
<path d="M59.702 86.8157C61.5961 86.8157 63.1316 85.2816 63.1316 83.3893C63.1316 81.4969 61.5961 79.9629 59.702 79.9629C57.8079 79.9629 56.2725 81.4969 56.2725 83.3893C56.2725 85.2816 57.8079 86.8157 59.702 86.8157Z" fill="black"/>
<path d="M77.7489 86.8157C79.643 86.8157 81.1785 85.2816 81.1785 83.3893C81.1785 81.4969 79.643 79.9629 77.7489 79.9629C75.8548 79.9629 74.3193 81.4969 74.3193 83.3893C74.3193 85.2816 75.8548 86.8157 77.7489 86.8157Z" fill="black"/>
<path d="M59.7012 92.9819H77.7491" stroke="black" stroke-width="2" stroke-linecap="round"/>
<path d="M61.6692 114.406L57.0586 131.647" stroke="black" stroke-width="2"/>
<path d="M66.0552 114.63L61.333 132.543" stroke="black" stroke-width="2"/>
<path d="M70.6091 115.189L65.3242 133.333" stroke="black" stroke-width="2"/>
<path d="M73.0828 123.052C71.4523 127.924 68.0675 137.869 67.5726 138.725C66.9543 139.795 66.4482 141.649 64.8177 141.873C63.1873 142.096 58.2398 143.894 55.541 148.833" stroke="black" stroke-width="2"/>
<path d="M26.3623 175.236L31.3098 154.791" stroke="black" stroke-width="2" stroke-linecap="round"/>
<path d="M103.161 175.012L99.5635 156.477" stroke="black" stroke-width="2" stroke-linecap="round"/>
</svg>
