<svg width="88" height="159" viewBox="0 0 88 159" fill="none" xmlns="http://www.w3.org/2000/svg">
<path d="M26.4443 121.041C26.4443 118.83 28.2348 117.041 30.4431 117.041H57.5581C59.7664 117.041 61.5569 118.83 61.5569 121.041V158H26.4443V121.041Z" fill="#FFC900" stroke="black" stroke-width="2"/>
<path d="M42.4622 120.284C47.5526 120.284 51.6792 116.158 51.6792 111.069C51.6792 105.979 47.5526 101.854 42.4622 101.854C37.3717 101.854 33.2451 105.979 33.2451 111.069C33.2451 116.158 37.3717 120.284 42.4622 120.284Z" fill="#23A094" stroke="black" stroke-width="2"/>
<path d="M86.9945 60.5205V60.5261C87.1488 85.0146 84.0828 99.0105 77.1331 106.921C70.2212 114.792 59.2776 116.849 42.9633 116.849C27.3876 116.849 17.0464 114.792 10.5053 106.938C3.91335 99.0218 1 85.0146 1 60.5205C1 35.9359 3.77774 21.1095 10.3912 12.408C16.9441 3.78558 27.4215 1 43.481 1C59.9586 1 70.6434 3.75735 77.323 12.3684C84.0619 21.053 86.8916 35.8738 86.9945 60.5205Z" fill="#23A094" stroke="black" stroke-width="2"/>
<path d="M53.2572 126.971C53.2572 126.53 52.9034 126.18 52.4677 126.18C52.0319 126.18 51.6787 126.53 51.6787 126.971H53.2572ZM51.6787 157.336V158.127H53.2572V157.336H51.6787ZM51.6787 126.971V157.336H53.2572V126.971H51.6787Z" fill="black"/>
<path d="M30.8585 104.004C32.5715 104.004 33.9602 102.616 33.9602 100.903C33.9602 99.1906 32.5715 97.8022 30.8585 97.8022C29.1455 97.8022 27.7568 99.1906 27.7568 100.903C27.7568 102.616 29.1455 104.004 30.8585 104.004Z" fill="black"/>
<path d="M40.8976 104.004C42.6106 104.004 43.9992 102.616 43.9992 100.903C43.9992 99.1906 42.6106 97.8022 40.8976 97.8022C39.1846 97.8022 37.7959 99.1906 37.7959 100.903C37.7959 102.616 39.1846 104.004 40.8976 104.004Z" fill="black"/>
<path d="M41.0872 106.576H31.2222C30.6599 106.576 30.2041 107.032 30.2041 107.594V107.594C30.2041 108.156 30.6599 108.612 31.2222 108.612H41.0872C41.6494 108.612 42.1053 108.156 42.1053 107.594V107.594C42.1053 107.032 41.6494 106.576 41.0872 106.576Z" fill="black"/>
</svg>
