<svg width="86" height="183" viewBox="0 0 86 183" fill="none" xmlns="http://www.w3.org/2000/svg">
<path d="M20.6464 121.289H65.3493C66.0955 121.289 66.7023 121.895 66.7023 122.645V182H19.2939V122.645C19.2939 121.894 19.9005 121.289 20.6464 121.289Z" fill="#98282A" stroke="black" stroke-width="2"/>
<path d="M25.1475 169.335V170.117H26.7165V169.335H25.1475ZM26.7165 140.25C26.7165 139.817 26.365 139.469 25.932 139.469C25.499 139.469 25.1475 139.817 25.1475 140.25H26.7165ZM26.7165 169.335V140.25H25.1475V169.335H26.7165Z" fill="black"/>
<path d="M60.8517 140.25C60.8517 139.817 60.5001 139.469 60.0672 139.469C59.6342 139.469 59.2832 139.817 59.2832 140.25H60.8517ZM59.2832 169.329V170.117H60.8517V169.329H59.2832ZM59.2832 140.25V169.329H60.8517V140.25H59.2832Z" fill="black"/>
<path d="M50.8204 124.275C50.8204 127.941 47.4155 131.077 42.9998 131.077C38.5836 131.077 35.1787 127.941 35.1787 124.275C35.1787 120.609 38.5836 117.473 42.9998 117.473C47.4155 117.473 50.8204 120.609 50.8204 124.275Z" fill="#FF90E8" stroke="black" stroke-width="2"/>
<path d="M73.8807 51.4796C70.5556 54.0355 68.9972 58.1181 69.0304 62.1293C69.0635 66.1383 70.6859 70.1922 73.8729 72.7087C80.8213 78.2011 85 85.4936 85 93.4435C85 101.801 80.3827 109.433 72.7873 115.005C65.192 120.576 54.6623 124.046 43 124.046C31.3371 124.046 20.8075 120.576 13.2127 115.005C5.61675 109.433 1 101.801 1 93.4435C1 85.4936 5.17818 78.2017 12.1266 72.7093C18.4579 67.7173 18.4573 57.3364 12.1266 52.3366C5.17818 46.8447 1 39.5522 1 31.6023C1 23.2447 5.61675 15.6126 13.2127 10.0409C20.8075 4.46969 31.3371 1 43 1C54.6623 1 65.192 4.46969 72.7873 10.0409C80.3827 15.6126 85 23.2447 85 31.6023C85 39.5235 80.3445 46.5113 73.8807 51.4796Z" fill="#FF90E8" stroke="black" stroke-width="2"/>
<path d="M26.5037 100.145C27.3024 100.145 27.9498 99.4964 27.9498 98.6966C27.9498 97.8969 27.3024 97.2485 26.5037 97.2485C25.705 97.2485 25.0576 97.8969 25.0576 98.6966C25.0576 99.4964 25.705 100.145 26.5037 100.145Z" fill="black"/>
<path d="M59.4949 100.144C60.2936 100.144 60.941 99.4958 60.941 98.6961C60.941 97.8963 60.2936 97.248 59.4949 97.248C58.6963 97.248 58.0488 97.8963 58.0488 98.6961C58.0488 99.4958 58.6963 100.144 59.4949 100.144Z" fill="black"/>
<path d="M25.5664 105.418H60.4276" stroke="black" stroke-width="2" stroke-linecap="round"/>
</svg>
