<svg width="970" height="547" viewBox="0 0 970 547" fill="none" xmlns="http://www.w3.org/2000/svg">
<g clip-path="url(#clip0_106_10004)">
<path d="M969.893 0.966309H0.216797V546.409H969.893V0.966309Z" fill="#FFC900"/>
<path d="M113.06 176.143C134.099 173.525 152.302 168.989 164.621 161.51C183.081 150.313 190.324 132.666 191.999 119.725C198.713 68.013 132.218 63.9763 53.0221 68.5349C-10.5199 72.1893 -47.2052 66.9688 -74.5833 77.9391C-98.7072 87.6008 -104.981 106.115 -106.097 124.423C-107.008 139.364 -99.7429 162.203 -81.819 166.731C-52.1491 174.231 6.66216 179.267 52.5078 179.267C64.9591 179.267 77.381 178.981 89.3254 178.267C90.2069 214.047 101.63 259.899 135.134 275.987C135.568 276.193 135.972 275.634 135.641 275.281C104.414 241.884 111.628 193.099 113.06 176.143Z" fill="white" stroke="black" stroke-width="3.03024" stroke-miterlimit="10" stroke-linecap="round" stroke-linejoin="round"/>
<path d="M77.1442 335.856L25.0765 320.738C24.8635 320.672 24.9076 320.37 25.1206 320.357L83.1605 318.21C84.0566 314.452 84.7251 310.607 85.1733 306.687L117.87 297.621C121.638 296.496 123.563 292.512 123.563 288.915C123.563 288.901 123.563 288.886 123.563 288.871C123.335 284.776 120.404 281.423 115.894 281.371L84.6591 280.613C77.5482 234.211 37.8658 198.689 -10.0221 198.689C-62.9418 198.689 -105.842 242.064 -105.842 295.569C-105.842 349.076 -62.9418 392.451 -10.0221 392.451C28.676 392.443 62.0191 369.253 77.1442 335.856Z" fill="#FFC900" stroke="black" stroke-width="3.03024" stroke-miterlimit="10" stroke-linecap="round" stroke-linejoin="round"/>
<path d="M28.8167 288.211C33.3646 288.211 37.0514 284.483 37.0514 279.887C37.0514 275.29 33.3646 271.564 28.8167 271.564C24.2688 271.564 20.582 275.29 20.582 279.887C20.582 284.483 24.2688 288.211 28.8167 288.211Z" fill="black"/>
<path d="M170.424 213.75C181.839 157.48 231.086 115.157 290.118 115.157C357.597 115.157 412.295 170.464 412.295 238.684C412.295 306.902 357.597 362.21 290.118 362.21C243.942 362.21 203.752 336.314 182.978 298.101C186.989 298.593 191.228 298.616 195.576 298.124C212.84 296.153 226.583 286.521 230.374 274.939H173.289C171.239 268.184 169.748 261.169 168.874 253.97C149.716 259.197 131.696 246.169 131.696 235.089C131.689 222.213 144.882 215.066 170.424 213.75C177.278 213.397 187.239 213.383 193.101 213.404L170.424 213.75Z" fill="#FF90E8"/>
<path d="M170.424 213.75C177.278 213.397 187.239 213.383 193.101 213.404M170.424 213.75C181.839 157.48 231.086 115.157 290.118 115.157C357.597 115.157 412.295 170.464 412.295 238.684C412.295 306.902 357.597 362.21 290.118 362.21C243.942 362.21 203.752 336.314 182.978 298.101C186.989 298.593 191.228 298.616 195.576 298.124C212.84 296.153 226.583 286.521 230.374 274.939H173.289C171.239 268.184 169.748 261.169 168.874 253.97C149.716 259.197 131.696 246.169 131.696 235.089C131.689 222.213 144.882 215.066 170.424 213.75Z" stroke="black" stroke-width="3.03024" stroke-miterlimit="10" stroke-linecap="round" stroke-linejoin="round"/>
<path d="M254.511 234.051C259.059 234.051 262.747 230.324 262.747 225.727C262.747 221.13 259.059 217.405 254.511 217.405C249.964 217.405 246.276 221.13 246.276 225.727C246.276 230.324 249.964 234.051 254.511 234.051Z" fill="black"/>
<path d="M137.36 383.401C110.857 384.643 86.8061 387.238 67.8536 392.223C38.7492 399.878 25.2168 422.927 25.2168 449.442C25.2168 475.956 33.4974 495.283 67.8536 511.042C81.5758 517.336 112.73 517.761 137.36 517.622C163.652 517.475 204.028 519.669 239.606 517.622C353.998 511.042 372.179 482.017 372.179 449.442C373.7 437.743 363.089 415.351 343.392 403.231C323.695 391.11 309.681 391.047 279.481 388.414C247.432 385.613 215.314 382.408 186.277 382.408C175.28 382.408 164.423 382.517 153.844 382.798C147.351 351.562 125.497 329.268 96.7965 334.717C136.692 350.739 137.36 383.401 137.36 383.401Z" fill="white" stroke="black" stroke-width="3.03024" stroke-miterlimit="10" stroke-linecap="round" stroke-linejoin="round"/>
<path d="M560.05 407.002C558.654 410.803 549.839 418.715 531.696 418.751C517.775 440.568 493.526 455.008 465.943 455.008C422.756 455.008 387.752 419.612 387.752 375.951C387.752 332.297 422.756 296.893 465.943 296.893C509.128 296.893 544.132 332.29 544.132 375.951C544.132 379.113 543.949 382.237 543.588 385.304C563.194 391.267 561.982 401.731 560.05 407.002Z" fill="#90A8ED" stroke="black" stroke-width="3.03024" stroke-miterlimit="10" stroke-linecap="round" stroke-linejoin="round"/>
<path d="M504.97 414.144C515.489 417.497 524.356 418.77 531.695 418.755L504.97 414.144Z" fill="#90A8ED"/>
<path d="M504.97 414.144C515.489 417.497 524.356 418.77 531.695 418.755" stroke="black" stroke-width="3.03024" stroke-miterlimit="10" stroke-linecap="round" stroke-linejoin="round"/>
<path d="M543.594 385.307C537.16 383.351 528.469 381.874 516.825 381.227L543.594 385.307Z" fill="#90A8ED"/>
<path d="M543.594 385.307C537.16 383.351 528.469 381.874 516.825 381.227" stroke="black" stroke-width="3.03024" stroke-miterlimit="10" stroke-linecap="round" stroke-linejoin="round"/>
<path d="M504.941 430.405C506.079 440.148 472.06 436.669 468.534 422.501L504.941 430.405Z" fill="white" stroke="black" stroke-width="3.03024" stroke-miterlimit="10" stroke-linecap="round" stroke-linejoin="round"/>
<path d="M479.325 394.902C483.557 394.902 486.987 391.432 486.987 387.152C486.987 382.873 483.557 379.402 479.325 379.402C475.095 379.402 471.663 382.873 471.663 387.152C471.663 391.432 475.095 394.902 479.325 394.902Z" fill="black"/>
<path d="M499.659 190.279C544.051 183.846 566.741 156.862 574.33 125.111C582.601 90.5166 554.496 59.3555 484.137 60.9363C434.456 62.054 397.625 90.1931 397.625 126.288C397.625 161.986 431.482 192.758 482.455 191.684C486.672 265.961 513.439 280.865 546.078 261.409C517.429 260.903 506.814 250.461 502.429 227.087C499.696 209.139 499.659 190.279 499.659 190.279Z" fill="white" stroke="black" stroke-width="3.03024" stroke-miterlimit="10" stroke-linecap="round" stroke-linejoin="round"/>
<path d="M515.622 689.064C577.773 680.055 609.542 642.275 620.168 597.823C631.748 549.388 592.399 505.76 493.89 507.972C424.334 509.537 372.766 548.935 372.766 599.47C372.766 649.45 420.169 692.532 491.534 691.029C497.439 795.024 534.917 815.891 580.611 788.653C540.502 787.942 525.64 773.324 519.499 740.598C515.673 715.468 515.622 689.064 515.622 689.064Z" fill="#FF7051" stroke="black" stroke-width="3.03024" stroke-miterlimit="10" stroke-linecap="round" stroke-linejoin="round"/>
<path d="M593.753 196.684C576.247 195.205 563.685 193.537 557.648 202.492C553.158 209.139 554.275 222.528 575.77 224.66C576.467 231.551 577.826 238.242 579.773 244.675L632.128 246.102C633.384 246.139 633.898 247.755 632.884 248.52L595.714 276.608C614.725 302.563 645.217 319.408 679.597 319.49C736.401 319.622 782.681 274.409 784.408 217.006C786.222 156.654 738.003 107.229 678.553 107.95C627.133 108.575 585.136 146.192 576.747 195.529" fill="#FFC900"/>
<path d="M593.753 196.684C576.247 195.205 563.685 193.537 557.648 202.492C553.158 209.139 554.275 222.528 575.77 224.66C576.467 231.551 577.826 238.242 579.773 244.675L632.128 246.102C633.384 246.139 633.898 247.755 632.884 248.52L595.714 276.608C614.725 302.563 645.217 319.408 679.597 319.49C736.401 319.622 782.681 274.409 784.408 217.006C786.222 156.654 738.003 107.229 678.553 107.95C627.133 108.575 585.136 146.192 576.747 195.529" stroke="black" stroke-width="3.03024" stroke-miterlimit="10" stroke-linecap="round" stroke-linejoin="round"/>
<path d="M631.738 214.17C636.043 214.17 639.532 210.641 639.532 206.288C639.532 201.935 636.043 198.405 631.738 198.405C627.434 198.405 623.944 201.935 623.944 206.288C623.944 210.641 627.434 214.17 631.738 214.17Z" fill="black"/>
<path d="M637.431 449.022C658.352 459.536 687.39 465.868 724.633 465.352C823.407 463.977 849.837 444.5 859.864 385.921C862.943 367.921 847.84 348.384 815.327 338.502C792.246 331.487 756.001 333.752 724.633 334.281C652.843 335.495 594.362 345.061 596.853 395.361C597.689 412.325 606.681 428.412 623.914 440.876C610.171 453.536 559.249 458.956 559.249 458.956C559.249 458.956 603.463 476.073 637.431 449.022Z" fill="white" stroke="black" stroke-width="3.03024" stroke-miterlimit="10" stroke-linecap="round" stroke-linejoin="round"/>
<path d="M916.344 298.895C913.75 305.256 911.663 311.88 910.144 318.719L935.199 335.373L907.219 342.512C907.191 343.615 907.176 344.726 907.176 345.843C907.176 398.622 940.019 443.65 986.166 461.172V230.507C963.07 239.28 943.302 254.94 929.324 275.014C908.983 266.249 904.576 266.249 900.909 267.418C898.242 268.264 891.418 273.586 893.923 282.367C896.436 291.145 916.344 298.895 916.344 298.895Z" fill="#98282A" stroke="black" stroke-width="3.03024" stroke-miterlimit="10" stroke-linecap="round" stroke-linejoin="round"/>
<path d="M953.178 309.228C957.495 309.228 960.995 305.69 960.995 301.324C960.995 296.959 957.495 293.419 953.178 293.419C948.862 293.419 945.363 296.959 945.363 301.324C945.363 305.69 948.862 309.228 953.178 309.228Z" fill="black"/>
<path d="M873.762 216.13C876.289 216.445 878.809 216.592 881.307 216.571C928.915 216.1 961.987 182.888 960.106 146.83C959.577 136.771 956.882 127.896 953.488 120.33C942.821 96.566 923.025 82.434 881.315 77.6032C860.673 75.2135 839.619 73.2724 823.913 87.6103C808.921 101.294 799.686 120.874 801.53 145.116C803.654 173.049 830.136 202.291 859.335 212.651C845.07 253.746 839.289 288.606 870.311 305.025C846.752 271.688 873.762 216.13 873.762 216.13Z" fill="white" stroke="black" stroke-width="3.03024" stroke-miterlimit="10" stroke-linecap="round" stroke-linejoin="round"/>
<path d="M893.011 727.497C964.974 727.497 1023.31 669.159 1023.31 597.196C1023.31 525.233 964.974 466.896 893.011 466.896C821.048 466.896 762.711 525.233 762.711 597.196C762.711 669.159 821.048 727.497 893.011 727.497Z" fill="#FFC900" stroke="black" stroke-width="3.03024"/>
<path d="M709.753 65.6215C771.204 65.6215 821.021 15.8053 821.021 -45.6462C821.021 -107.098 771.204 -156.914 709.753 -156.914C648.302 -156.914 598.485 -107.098 598.485 -45.6462C598.485 15.8053 648.302 65.6215 709.753 65.6215Z" fill="#90A8ED" stroke="black" stroke-width="3.03024"/>
<path d="M306.271 41.1171C386.601 41.1171 451.722 -24.0038 451.722 -104.334C451.722 -184.665 386.601 -249.786 306.271 -249.786C225.94 -249.786 160.819 -184.665 160.819 -104.334C160.819 -24.0038 225.94 41.1171 306.271 41.1171Z" fill="#98282A" stroke="black" stroke-width="3.03024"/>
<path d="M9.30804 41.1823C84.618 41.1823 145.669 -19.8685 145.669 -95.1785C145.669 -170.489 84.618 -231.539 9.30804 -231.539C-66.0019 -231.539 -127.053 -170.489 -127.053 -95.1785C-127.053 -19.8685 -66.0019 41.1823 9.30804 41.1823Z" fill="#FF7051" stroke="black" stroke-width="3.03024"/>
</g>
<defs>
<clipPath id="clip0_106_10004">
<rect width="969.677" height="545.443" fill="white" transform="translate(0.216797 0.966309)"/>
</clipPath>
</defs>
</svg>
