<svg width="971" height="547" viewBox="0 0 971 547" fill="none" xmlns="http://www.w3.org/2000/svg">
<g clip-path="url(#clip0_122_16391)">
<path d="M970.258 0.983154H0.581055V546.426H970.258V0.983154Z" fill="white"/>
<path d="M38.3505 297.23C38.3505 298.791 38.0089 300.254 37.4028 301.538H23.3354C22.7294 300.254 22.3877 298.791 22.3877 297.23C22.3877 292.192 25.9594 288.111 30.3692 288.111C34.7788 288.111 38.3505 292.192 38.3505 297.23Z" fill="#F1F333" stroke="black" stroke-width="3.03024" stroke-miterlimit="10"/>
<path d="M970.258 0.983154H0.581055V546.426H970.258V0.983154Z" fill="#90A8ED"/>
<path d="M459.571 165.693H357.202V324.319H459.571V165.693Z" fill="#F1F333" stroke="black" stroke-width="3.03024" stroke-miterlimit="10" stroke-linecap="round"/>
<path d="M471.215 165.693H459.571V324.319H471.215V165.693Z" fill="white" stroke="black" stroke-width="3.03024" stroke-miterlimit="10" stroke-linecap="round" stroke-linejoin="round"/>
<path d="M479.443 165.693H471.216V324.319H479.443V165.693Z" fill="white" stroke="black" stroke-width="3.03024" stroke-miterlimit="10" stroke-linecap="round" stroke-linejoin="round"/>
<path d="M487.668 165.693H479.44V324.319H487.668V165.693Z" fill="white" stroke="black" stroke-width="3.03024" stroke-miterlimit="10" stroke-linecap="round" stroke-linejoin="round"/>
<path d="M494.328 165.693H487.669V324.319H494.328V165.693Z" fill="white" stroke="black" stroke-width="3.03024" stroke-miterlimit="10" stroke-linecap="round" stroke-linejoin="round"/>
<path d="M364.943 195.933H378.951C379.67 186.834 368.799 184.145 365.663 191.872C362.527 199.599 366.58 211.054 379.867 204.773" stroke="black" stroke-width="3.03024" stroke-miterlimit="10" stroke-linecap="round"/>
<path d="M382.656 196.434H389.762" stroke="black" stroke-width="3.03024" stroke-miterlimit="10"/>
<path d="M395.14 188.004V206.087H400.875C401.17 205.859 403.216 204.503 403.216 202.026C403.216 197.102 400.072 196.61 399.875 196.466C403.913 194.382 402.905 183.11 392.224 189.057" stroke="black" stroke-width="3.03024" stroke-miterlimit="10" stroke-linecap="round"/>
<path d="M399.875 196.528H395.141" stroke="black" stroke-width="3.03024" stroke-miterlimit="10"/>
<path d="M412.952 205.297C415.186 205.297 416.997 201.617 416.997 197.078C416.997 192.538 415.186 188.858 412.952 188.858C410.717 188.858 408.906 192.538 408.906 197.078C408.906 201.617 410.717 205.297 412.952 205.297Z" stroke="black" stroke-width="3.03024" stroke-miterlimit="10" stroke-linecap="round"/>
<path d="M431.02 197.222C431.679 200.941 428.83 204.797 425.762 204.797C423.512 204.797 422.732 201.661 422.732 197.222C422.732 192.782 422.55 188.858 424.838 188.858C427.133 188.858 429.989 191.351 431.02 197.222Z" stroke="black" stroke-width="3.03024" stroke-miterlimit="10" stroke-linecap="round"/>
<path d="M435.898 187.343V207.471" stroke="black" stroke-width="3.03024" stroke-miterlimit="10" stroke-linecap="round"/>
<path d="M446.313 188.858L435.896 198.04" stroke="black" stroke-width="3.03024" stroke-miterlimit="10" stroke-linecap="round"/>
<path d="M437.207 196.89L446.798 203.746" stroke="black" stroke-width="3.03024" stroke-miterlimit="10" stroke-linecap="round"/>
<path d="M871.965 151.74C864.389 163.483 830.299 157.233 815.716 156.096C801.512 151.929 817.231 125.983 838.254 115.377C859.276 104.771 882.571 116.703 882.571 123.521C882.571 130.339 879.541 139.998 871.965 151.74Z" fill="#23A094" stroke="black" stroke-width="3.03024"/>
<path d="M947.865 99.0768L943.122 90.774C942.259 89.2664 940.471 88.5543 938.812 89.0543L903.161 99.895L867.882 110.622L802.057 130.644C802.057 130.644 800.163 144.727 797.853 156.053L942.888 111.63C948.19 110.008 950.615 103.887 947.865 99.0768ZM944.925 418.161L550.775 231.733L774.012 163.356C774.406 157.515 775.921 149.705 778.164 140.985C778.217 139.917 778.277 138.871 778.338 137.856L518.321 216.938C511.495 206.537 499.927 199.878 483.943 199.037C458.898 197.719 436.921 216.847 434.754 243.384C434.648 244.619 434.595 245.854 434.58 247.081H454.708C454.307 211.165 503.056 213.203 508.927 239.377C512.957 257.172 505.351 271.353 491.882 275.482L494.579 292.58C510.889 287.717 522.889 274.641 525.275 250.778C525.518 248.384 525.631 246.036 525.631 243.748L937.918 437.426C939.539 438.183 941.471 437.683 942.516 436.229L947.721 428.979C950.365 425.29 949.024 420.108 944.925 418.161ZM525.04 232.619C524.881 232.619 524.722 232.612 524.571 232.581C522.707 232.362 521.268 230.771 521.268 228.847C521.268 227.635 521.836 226.559 522.73 225.869C523.366 225.369 524.169 225.074 525.04 225.074C527.124 225.074 528.813 226.763 528.813 228.847C528.813 230.93 527.124 232.619 525.04 232.619Z" fill="black"/>
<path d="M857.502 324.643C857.502 324.643 851.888 320.514 840.01 317.757C828.131 314.999 800.268 311.78 780.784 313.386C766.671 315.06 766.269 312.977 760.277 310.257C754.285 307.537 739.891 300.492 736.058 305.537C732.224 310.583 739.891 322.984 748.36 328.416C737.914 340.552 729.77 354.627 732.914 364.907C736.058 375.187 756.55 361.688 758.315 356.294C751.391 375.187 755.686 396.922 775.11 377.081C775.11 377.081 773.564 402.157 792.39 388.771C794.685 386.233 795.428 386.634 795.428 386.634C795.428 386.634 791.632 406.732 804.874 403.55C810.897 401.588 814.495 397.945 819.51 386.748C824.525 375.551 830.003 363.801 830.003 363.801L863.744 379.763C863.744 379.763 877.305 377.634 880.562 367.415C879.312 365.112 857.502 324.643 857.502 324.643Z" fill="#23A094"/>
<path d="M857.396 324.457C834.548 310.094 775.413 313.101 768.254 314.283C759.77 315.677 739.959 332.419 733.157 354.184C726.823 374.441 748.3 370.577 757.444 357.623C763.148 349.54 771.163 326.116 784.762 322.555" stroke="black" stroke-width="3.03024" stroke-miterlimit="10" stroke-linecap="round"/>
<path d="M757.921 356.912C747.633 382.912 763.383 394.419 776.011 375.814C783.337 365.018 789.39 329.534 813.359 325.716" stroke="black" stroke-width="3.03024" stroke-miterlimit="10" stroke-linecap="round"/>
<path d="M778.071 372.124C769.844 390.624 784.609 401.129 795.965 384.471C801.844 375.842 807.51 344.731 828.616 342.549" stroke="black" stroke-width="3.03024" stroke-miterlimit="10" stroke-linecap="round"/>
<path d="M797.155 382.449C789.17 413.623 811.018 405.555 817.192 391.889C825.018 374.556 831.685 359.427 831.685 359.427" stroke="black" stroke-width="3.03024" stroke-miterlimit="10" stroke-linecap="round"/>
<path d="M768.254 314.28C749.065 304.242 735.459 299.371 735.096 308.719C734.732 318.068 748.853 328.817 748.853 328.817" stroke="black" stroke-width="3.03024" stroke-miterlimit="10"/>
<path d="M891.902 247.877L951.712 346.17L880.865 367.988L857.396 324.451L891.902 247.877Z" fill="#23A094" stroke="black" stroke-width="3.03024" stroke-miterlimit="10"/>
<path d="M911.176 279.546L979.273 221.729L979.333 300.333L941.789 329.863L911.176 279.546Z" fill="#F4F4F0" stroke="black" stroke-width="3.03024" stroke-miterlimit="10"/>
<path d="M837.238 62.3225L855.109 -6.59242L933.895 -18.7134L903.464 75.1707L837.238 62.3225Z" fill="#F4F4F0" stroke="black" stroke-width="3.03024" stroke-miterlimit="10"/>
<path d="M807.76 102.921L805.889 56.3384L916.038 76.9895L903.159 99.8981L900.705 104.269L878.675 112.731C878.675 112.731 874.44 111.852 867.88 110.625" fill="#23A094"/>
<path d="M807.76 102.921L805.889 56.3384L916.038 76.9895L903.159 99.8981L900.705 104.269L878.675 112.731C878.675 112.731 874.44 111.852 867.88 110.625" stroke="black" stroke-width="3.03024" stroke-miterlimit="10"/>
<path d="M842.07 158.387C842.07 172.758 838.706 184.402 832.267 184.402C825.828 184.402 821.911 172.751 821.911 158.387C821.911 144.024 829.638 132.372 832.267 132.372C834.623 132.372 842.07 144.016 842.07 158.387Z" fill="#23A094" stroke="black" stroke-width="3.03024" stroke-miterlimit="10"/>
<path d="M820.526 160.119C818.087 174.278 813.89 185.732 805.822 183.952C797.746 182.172 796.564 170.786 799.011 156.627C801.451 142.468 810.67 132.855 814.549 133.491C817.988 134.105 822.965 145.961 820.526 160.119Z" fill="#23A094" stroke="black" stroke-width="3.03024" stroke-miterlimit="10"/>
<path d="M862.918 154.853C862.918 169.784 861.509 181.178 853.123 181.178C845.934 181.178 842.562 169.701 842.562 154.769C842.562 139.838 847.487 130.603 853.123 130.603C858.979 130.603 862.918 139.921 862.918 154.853Z" fill="#23A094" stroke="black" stroke-width="3.03024" stroke-miterlimit="10"/>
<path d="M884.055 149.781C884.055 164.713 881.782 176.061 873.388 176.061C866.199 176.061 864.161 164.637 864.161 149.706C864.161 134.774 867.661 126.312 873.547 126.312C878.646 126.312 884.055 134.85 884.055 149.781Z" fill="#23A094" stroke="black" stroke-width="3.03024" stroke-miterlimit="10"/>
<path d="M620.128 359.561H244.249C240.946 359.561 238.265 356.879 238.265 353.576C238.265 350.273 240.946 347.591 244.249 347.591H620.128C623.431 347.591 626.113 350.273 626.113 353.576C626.113 356.879 623.431 359.561 620.128 359.561Z" fill="#23A094" stroke="black" stroke-width="3.03024" stroke-miterlimit="10"/>
<path d="M614.333 359.558H247.22V555.514H614.333V359.558Z" fill="#23A094" stroke="black" stroke-width="3.03024" stroke-miterlimit="10"/>
<path d="M247.22 444.333H614.333" stroke="black" stroke-width="3.03024" stroke-miterlimit="10"/>
<path d="M304.013 53.9449C304.142 50.998 304.4 43.8617 304.4 43.8617C304.709 35.7952 289.351 28.5813 281.635 25.9827C289.094 22.9523 298.78 9.46733 277.847 -20.229C251.681 -57.3495 180.122 -33.8651 162.698 -24.7744C145.274 -15.6837 136.941 15.3763 151.759 43.8693C171.561 79.414 200.962 71.3915 212.553 62.5735C214.538 84.3685 233.09 95.4364 255.848 80.0049C248.522 106.656 267.537 125.83 295.748 105.254C299.172 132.693 325.376 106.732 336.278 129.004C342.762 120.633 343.762 104.77 342.353 101.512C340.937 98.2242 328.929 92.785 316.793 100.421C324.672 87.0502 325.763 77.8307 322.27 73.2172C316.96 66.2022 298.188 71.8763 290.726 76.2323C301.619 63.3234 303.915 56.2554 304.013 53.9449Z" fill="white"/>
<path d="M304.4 43.8617V43.8693M304.4 43.8617C304.4 43.8617 304.142 50.998 304.013 53.9449C303.915 56.2554 301.619 63.3234 290.726 76.2323C298.188 71.8763 316.96 66.2022 322.27 73.2172C325.763 77.8307 324.672 87.0502 316.793 100.421C328.929 92.785 340.937 98.2242 342.353 101.512C343.762 104.77 342.762 120.633 336.278 129.004C325.376 106.732 299.172 132.693 295.748 105.254C267.537 125.83 248.522 106.656 255.848 80.0049C233.09 95.4364 214.538 84.3685 212.553 62.5735C200.962 71.3915 171.561 79.414 151.759 43.8693C136.941 15.3763 145.274 -15.6837 162.698 -24.7744C180.122 -33.8651 251.681 -57.3495 277.847 -20.229C298.78 9.46733 289.094 22.9523 281.635 25.9827C289.351 28.5813 304.709 35.7952 304.4 43.8617Z" stroke="black" stroke-width="3.03024" stroke-miterlimit="10" stroke-linecap="round" stroke-linejoin="round"/>
<path d="M573.236 155.475C602.137 163.49 607.501 141.233 602.198 133.528C621.705 136.081 625.758 133.559 625.819 128.271C625.887 121.498 605.766 115.658 605.766 115.658C626.553 118.908 648.333 119.074 641.97 111.218C636.47 104.431 626.659 99.0897 618.379 96.3019C639.932 98.7564 658.848 99.6276 659.462 90.2566C660.075 80.8856 639.636 72.1812 632.978 70.0828C674.871 70.507 704.915 32.3795 702.84 6.28902C701.287 -30.8847 661.325 -58.2562 583.145 -22.4994C504.965 13.2575 540.005 57.2115 567.297 74.719C550.888 76.3781 533.964 96.0898 555.161 115.089C527.305 104.287 512.927 134.877 512.935 158.597C527.942 142.922 541.419 146.649 573.236 155.475Z" fill="white"/>
<path d="M576.388 114.794C576.388 114.794 595.819 124.263 602.198 133.528L576.388 114.794ZM602.198 133.528C607.501 141.233 602.137 163.49 573.236 155.475C541.419 146.649 527.942 142.922 512.935 158.597C512.927 134.877 527.305 104.287 555.161 115.089C533.964 96.0898 550.888 76.3781 567.297 74.719C540.005 57.2115 504.965 13.2575 583.145 -22.4994C661.325 -58.2562 701.287 -30.8847 702.84 6.28902C704.915 32.3795 674.871 70.507 632.978 70.0828C639.636 72.1812 660.075 80.8856 659.462 90.2566C658.848 99.6276 639.932 98.7564 618.379 96.3019C626.659 99.0897 636.47 104.431 641.97 111.218C648.333 119.074 626.553 118.908 605.766 115.658C605.766 115.658 625.887 121.498 625.819 128.271C625.758 133.559 621.705 136.081 602.198 133.528Z" stroke="black" stroke-width="3.03024" stroke-miterlimit="10" stroke-linecap="round" stroke-linejoin="round"/>
<path d="M376.156 156.086C366.466 140.465 390.671 135.488 374.375 115.988C365.232 105.049 368.769 95.1706 371.739 90.5343C376.3 83.4208 375.595 80.9663 374.141 76.7694C371.83 70.0953 358.171 66.4288 369.982 52.1184C374.141 47.3837 376.542 43.4065 374.141 37.9142C371.739 32.4219 365.535 31.0962 365.156 24.0887C364.777 17.0813 373.497 17.2707 371.739 10.4527C369.982 3.63462 363.451 4.39218 363.641 -4.13037" stroke="black" stroke-width="3.03024" stroke-miterlimit="10" stroke-linecap="round"/>
<path d="M400.103 155.025C387.77 136.669 400.133 135.465 403.072 127.639C404.739 123.208 401.451 118.624 397.747 112.117C394.966 107.231 389.777 100.435 399.853 87.5038C408.474 76.4359 386.012 68.2466 396.118 53.2015C399.853 46.6262 402.428 41.702 401.14 33.1795C399.853 24.657 392.807 23.8994 392.05 13.1042C391.444 4.46798 397 -2.86773 399.853 -5.45605" stroke="black" stroke-width="3.03024" stroke-miterlimit="10" stroke-linecap="round"/>
<path d="M431.14 153.389C437.64 135.443 420.86 134.2 423.216 124.822C424.898 118.148 433.011 116.625 429.224 108.655C426.383 102.678 415.474 98.8299 425.678 86.1559C437.079 71.9971 409.322 69.8759 421.83 53.1869C429.224 42.0809 428.14 37.1568 425.678 30.5281C423.216 23.8995 415.156 18.5966 415.345 7.42255C415.497 -1.51666 419.731 -7.16048 421.83 -8.86499" stroke="black" stroke-width="3.03024" stroke-miterlimit="10" stroke-linecap="round"/>
<path d="M455.86 157.012C448.852 140.572 468.549 138.822 454.193 123.466C443.087 111.58 453.807 106.58 455.693 100.24C458.216 91.7852 450.64 89.5276 448.019 83.1641C443.784 72.8841 463.375 66.0584 448.519 54.7935C440.155 48.52 440.625 36.9672 444.322 31.6643C448.019 26.3614 458.572 22.0054 454.193 11.2102C450.69 2.57402 446.152 -3.62535 444.322 -5.64551" stroke="black" stroke-width="3.03024" stroke-miterlimit="10" stroke-linecap="round"/>
<path d="M476.009 152.375C470.827 137.216 485.759 137.314 475.342 123.663C465.479 110.732 476.032 105.255 478.486 99.1108C481.63 91.2549 476.229 88.8989 473.38 81.043C470.464 72.9901 489.198 65.5281 471.812 54.7935C464.206 49.8457 470.191 40.1868 475.342 32.0431C480.494 23.8993 468.751 17.6494 468.751 9.1269C468.751 2.30886 470.792 -4.31979 471.812 -6.78186" stroke="black" stroke-width="3.03024" stroke-miterlimit="10" stroke-linecap="round"/>
<path d="M43.8299 58.3739C44.542 46.912 35.7012 43.8666 35.7012 43.8666C17.3016 34.4112 -10.5301 39.9268 -22.146 43.8666C-65.7159 32.9077 -155.466 17.5655 -165.908 43.8666V249.628C-165.908 262.779 -132.962 263.135 -128.757 244.605C-120.477 265.635 -91.834 263.264 -87.2356 243.295C-60.9558 261.166 -53.206 256.302 -38.8805 228.841C4.74732 275.226 26.5575 245.136 34.3073 215.833C65.8445 269.703 101.185 239.878 114.063 206.765C147.57 257.878 181.6 217.667 184.888 200.061C207.614 250.12 234.417 223.053 244.795 205.97C253.992 225.947 272.787 233.06 284.605 227.257C299.59 219.901 316.536 186.266 316.536 186.266C316.536 186.266 327.703 193.364 334.081 201.182C332.96 175.077 321.9 150.402 308.9 148.97C295.9 147.538 281.598 165.38 273.795 181.948C276.075 146.289 258.166 143.986 248.341 150.372C237.114 157.668 224.076 170.993 224.076 170.993C224.076 170.993 228.356 151.394 214.622 144.198C199.864 136.463 185.107 142.046 173.501 154.229C178.229 127.865 177.373 116.395 166.911 105.365C156.456 94.3352 132.237 98.4942 114.328 114.395C114.76 83.8809 108.738 61.5253 66.1854 88.1763C68.6172 64.5328 67.6172 56.2224 43.8299 58.3739Z" fill="white" stroke="black" stroke-width="3.03024" stroke-miterlimit="10" stroke-linecap="round" stroke-linejoin="round"/>
<path d="M-165.833 340.256C-152.954 312.113 -127.372 323.06 -121.001 339.62C-110.811 320.643 -98.2056 320.643 -81.6833 335.847C-75.9031 296.363 -52.146 320.272 -39.4948 335.961C-32.6767 287.417 -5.54086 322.431 9.47397 336.772C9.36792 296.356 32.4128 311.507 50.8897 324.53C53.6245 280.273 85.1695 308.871 97.7222 319.181C109.033 284.379 125.57 284 145.956 300.788C157.145 268.22 170.69 276.546 192.356 292.788C206.977 238.812 239.105 286.841 239.105 286.841C239.105 286.841 248.742 258.084 260.635 256.319C279.915 253.455 292.922 267.561 306.256 279.932C305.453 281.167 273.423 272.197 273.423 272.197C273.423 272.197 280.241 302.53 273.196 310.363C266.15 318.196 253.772 316.159 234.575 310.25C230.939 330.014 230.144 344.893 190.046 330.355C194.137 355.574 197.546 402.036 130.183 370.226C132.57 405.664 129.615 441.338 52.8291 397.149C62.8289 437.588 60.2153 452.239 45.3292 453.943C26.7084 456.072 -21.1239 424.52 -21.1239 424.52C-21.1239 424.52 -0.972771 467.155 -13.2831 472.231C-30.0934 479.163 -74.9637 435.77 -74.9637 435.77C-74.9637 435.77 -35.207 493.018 -89.1604 468.375C-74.191 491.435 -88.1377 503.132 -88.1377 503.132H-165.833V340.256Z" fill="white" stroke="black" stroke-width="3.03024" stroke-miterlimit="10" stroke-linecap="round" stroke-linejoin="round"/>
<path d="M380.423 309.163C380.764 308.444 381.832 308.534 382.044 309.3C386.68 325.837 377.642 342.64 372.453 338.291C366.711 333.473 375.627 319.269 380.423 309.163Z" fill="white" stroke="black" stroke-width="3.03024" stroke-miterlimit="10" stroke-linecap="round" stroke-linejoin="round"/>
<path d="M416.11 300.769C416.284 299.845 417.678 299.762 417.974 300.663C423.565 317.701 418.61 341.405 411.519 336.897C406.156 333.488 413.61 313.875 416.11 300.769Z" fill="white" stroke="black" stroke-width="3.03024" stroke-miterlimit="10" stroke-linecap="round" stroke-linejoin="round"/>
<path d="M507.67 315.055C507.563 314.593 508.071 314.245 508.473 314.495C521.578 322.442 520.215 333.35 516.518 333.025C512.957 332.714 509.101 321.313 507.67 315.055Z" fill="white" stroke="black" stroke-width="3.03024" stroke-miterlimit="10" stroke-linecap="round" stroke-linejoin="round"/>
<path d="M337.187 294.182C337.104 293.674 336.49 293.439 336.089 293.765C323.498 303.916 323.316 315.644 327.756 317.863C332.006 319.984 339.695 309.522 337.187 294.182Z" fill="white" stroke="black" stroke-width="3.03024" stroke-miterlimit="10" stroke-linecap="round" stroke-linejoin="round"/>
<path d="M336.884 237.647C336.596 236.389 335.195 235.738 334.059 236.351C324.483 241.495 319.597 257.298 326.074 260.479C332.604 263.692 338.778 245.942 336.884 237.647Z" fill="white" stroke="black" stroke-width="3.03024" stroke-miterlimit="10" stroke-linecap="round" stroke-linejoin="round"/>
<path d="M859.775 382.127C865.677 381.028 877.866 375.407 880.866 367.991" stroke="black" stroke-width="3.03024" stroke-miterlimit="10"/>
<path d="M867.88 110.627L802.056 130.649C802.056 130.649 800.162 144.732 797.851 156.057C796.973 160.353 796.041 164.246 795.117 166.83C790.458 179.913 774.185 175.633 773.92 167.171C773.882 166.019 773.913 164.746 774.011 163.36C774.405 157.519 775.92 149.709 778.162 140.99C778.215 139.922 778.276 138.876 778.337 137.861C779.829 113.846 784.238 103.506 805.889 102.945C806.488 102.93 807.124 102.922 807.76 102.922C824.146 102.907 852.449 107.748 867.88 110.627Z" fill="#23A094" stroke="black" stroke-width="3.03024" stroke-miterlimit="10"/>
</g>
<defs>
<clipPath id="clip0_122_16391">
<rect width="969.677" height="545.443" fill="white" transform="translate(0.580078 0.983154)"/>
</clipPath>
</defs>
</svg>
