<svg width="970" height="547" viewBox="0 0 970 547" fill="none" xmlns="http://www.w3.org/2000/svg">
<g clip-path="url(#clip0_106_10107)">
<path d="M969.677 0.949707H0V546.393H969.677V0.949707Z" fill="#FFC900"/>
<path d="M941.369 493.606C941.369 499.091 935.558 502.628 930.695 500.106C915.021 491.97 893.65 482.932 867.689 481.243C829.606 478.758 816.781 492.197 776.63 493.659C731.101 495.318 709.987 462.425 650.799 461.372C591.823 460.326 569.672 490.348 522.484 487.038C479.856 484.046 473.689 467.743 438.046 470.478C405.759 472.962 392.494 491.78 361.889 494.485C333.745 496.969 316.806 476.303 274.966 477.924C238.308 479.349 241.868 496.644 200.46 497.795C170.658 498.621 148.697 480.682 108.569 482.068C84.5619 482.894 49.7899 507.734 37.3734 503.591C32.9266 502.106 28.2676 500.136 28.2676 495.447V48.2818C38.881 48.2212 53.9337 48.2818 73.7969 50.7666C97.6298 53.7438 116.016 64.842 147.477 66.4935C201.271 69.3268 217.013 45.797 269.171 44.1455C313.874 42.4864 323.829 64.1602 381.759 63.183C436.993 62.2512 450.47 42.5395 488.553 43.3122C529.12 44.1379 545.673 73.1676 602.793 73.9403C664.049 74.7661 689.723 47.0924 712.896 46.6227C753.464 45.797 761.736 71.4555 823.826 71.4555C890.052 71.4555 893.362 44.9637 917.369 44.9637C927.748 44.9637 936.134 47.0469 941.377 48.2742C941.369 196.718 941.369 345.162 941.369 493.606Z" fill="white" stroke="black" stroke-width="3.03024" stroke-miterlimit="10"/>
<path d="M923.986 62.7046V477.673C905.236 469.613 887.062 465.075 868.828 463.878C865.343 463.651 861.896 463.537 858.578 463.537C840.783 463.537 827.897 466.779 815.45 469.908C803.685 472.87 792.58 475.673 776.004 476.264C775.11 476.294 774.209 476.317 773.322 476.317C756.709 476.317 743.975 470.666 727.861 463.499C707.907 454.636 685.294 444.583 651.113 443.969C650.007 443.954 648.893 443.946 647.802 443.946C621.371 443.946 601.735 449.59 584.713 455.628C584.652 455.651 584.592 455.666 584.531 455.696C578.766 403.387 561.138 384.607 546.608 378.516C524.131 368.35 461.609 369.107 441.011 376.008C424.595 381.516 419.231 391.917 417.731 395.902C400.52 385.243 380.566 382.152 366.172 387.72C350.059 393.947 339.839 416.28 339.839 431.212C339.832 446.719 339.763 464.954 343.786 475.082C340.157 474.022 336.362 472.65 332.173 471.135C318.976 466.37 302.552 460.439 279.628 460.439C277.871 460.439 276.075 460.469 274.287 460.545C252.697 461.378 241.432 467.302 232.372 472.052C224.001 476.446 217.395 479.915 199.978 480.408C199.463 480.423 198.948 480.423 198.456 480.423C188.092 480.423 178.183 477.468 166.706 474.052C151.851 469.62 135.002 464.598 112.964 464.598C111.321 464.598 109.639 464.62 107.972 464.681C92.6088 465.211 76.1092 472.431 61.5489 478.802C56.7838 480.885 50.3446 483.703 45.6553 485.332V65.8939C53.0642 66.1742 61.7307 66.7727 71.6472 68.0151C80.2833 69.0908 88.2604 71.4695 97.5102 74.2119C111.018 78.227 126.328 82.7799 146.57 83.8481C149.85 84.0223 153.108 84.1132 156.275 84.1132C182.873 84.1132 200.744 78.0982 218.031 72.2801C233.447 67.0984 248.008 62.197 269.727 61.5076H269.818C271.219 61.447 272.613 61.4243 273.977 61.4243C289.658 61.4243 299.825 64.8182 312.688 69.1135C328.809 74.4846 347.066 80.5906 378.005 80.5906C379.338 80.5906 380.679 80.5754 382.05 80.5603C414.118 80.0224 433.989 73.4316 449.958 68.1439C462.564 63.9697 472.526 60.6667 486.374 60.6667C486.972 60.6667 487.586 60.6743 488.192 60.6895C503.033 60.9849 513.979 66.0378 527.843 72.4392C545.623 80.6436 567.751 90.8479 602.553 91.3252C603.531 91.3328 604.508 91.3403 605.47 91.3403C646.075 91.3403 672.219 79.8557 691.309 71.4771C700.316 67.5227 708.097 64.0985 713.248 64C713.771 63.9849 714.293 63.9849 714.793 63.9849C728.498 63.9849 737.202 67.7272 749.247 72.9089C765.732 79.9997 786.254 88.8328 823.821 88.8328C870.063 88.8328 890.32 76.4088 903.721 68.1893C910.926 63.7803 913.57 62.3485 917.365 62.3485C919.691 62.3485 921.903 62.4849 923.986 62.7046Z" fill="#23A094" stroke="black" stroke-width="3.03024" stroke-miterlimit="10"/>
<path d="M474.364 457.122C466.386 454.66 457.411 452.781 445.79 452.781C442.873 452.781 439.828 452.895 436.714 453.137C416.995 454.652 403.259 461.236 391.138 467.046C380.979 471.917 372.208 476.122 360.352 477.16C359.299 477.25 358.23 477.303 357.192 477.303C352.722 477.303 348.39 476.447 343.784 475.091C339.762 464.97 339.828 446.728 339.836 431.221C339.836 416.29 350.063 393.949 366.169 387.73C382.267 381.495 405.336 386.101 423.737 400.025C442.138 413.941 462.788 432.342 474.364 457.122Z" fill="#FF7051" stroke="black" stroke-width="3.03024" stroke-miterlimit="10" stroke-linecap="round" stroke-linejoin="round"/>
<path d="M516.615 351.906V372.08C502.343 370.686 486.154 370.527 471.935 371.375V351.83C479.169 353.497 486.715 354.383 494.449 354.383C502.07 354.383 509.487 353.527 516.615 351.906Z" fill="#FFC900" stroke="black" stroke-width="3.03024" stroke-miterlimit="10" stroke-linecap="round" stroke-linejoin="round"/>
<path d="M584.53 455.707C581.212 456.881 577.985 458.086 574.826 459.252C559.394 464.964 546.069 469.904 529.698 469.904C527.728 469.904 525.712 469.828 523.704 469.691C506.038 468.449 495.615 464.654 485.532 460.972C481.911 459.654 478.25 458.32 474.364 457.124C462.781 432.344 442.139 413.943 423.738 400.026C421.783 398.541 419.776 397.17 417.73 395.913C419.23 391.928 424.594 381.527 441.01 376.019C447.775 373.762 459.04 372.156 471.941 371.375C486.153 370.519 502.35 370.686 516.622 372.08C528.842 373.269 539.651 375.375 546.613 378.527C561.135 384.617 578.765 403.397 584.53 455.707Z" fill="black" stroke="black" stroke-width="3.03024" stroke-miterlimit="10" stroke-linecap="round" stroke-linejoin="round"/>
<path d="M103.919 464.978C110.237 456.395 112.434 431.653 107.752 416.661C103.616 403.418 93.677 392.653 60.564 400.1C59.7383 365.328 59.7383 126.917 59.7383 126.917C59.7383 126.917 93.677 126.917 96.9875 100.425C120.169 105.395 178.94 117.811 208.742 116.152C238.544 114.493 264.347 88.1983 328.777 102.91C404.935 120.296 434.737 86.3499 477.789 89.668C520.841 92.9861 582.743 113.902 623.485 109.539C669.84 104.569 711.156 72.8502 765.867 95.4633C827.956 121.129 877.622 96.2891 877.622 96.2891C877.622 96.2891 886.729 120.296 912.395 121.955C912.395 136.856 910.736 422.456 910.736 422.456C910.736 422.456 894.146 416.736 881.76 424.115C873.124 429.251 865.124 445.402 874.805 464.402" stroke="black" stroke-width="3.03024" stroke-miterlimit="10"/>
<path d="M912.401 438.755C905.5 433.627 894.508 428.862 888.553 433.354C882.599 437.839 897.152 445.46 904.583 447.551C914.326 450.285 915.015 458.717 906.045 457.899C894.962 456.891 886.167 446.725 886.167 446.725" stroke="black" stroke-width="3.03024" stroke-miterlimit="10" stroke-linecap="round" stroke-linejoin="round"/>
<path d="M898.856 427.621V468.885" stroke="black" stroke-width="3.03024" stroke-miterlimit="10" stroke-linecap="round" stroke-linejoin="round"/>
<path d="M909.054 67.9939V108.705" stroke="black" stroke-width="3.03024" stroke-miterlimit="10" stroke-linecap="round" stroke-linejoin="round"/>
<path d="M918.463 72.6218C918.463 72.6218 898.19 75.9854 896.751 82.0231C894.948 89.6215 902.236 88.6821 911.561 86.1746C920.887 83.667 922.901 91.5911 917.749 95.1062C909.363 100.826 897.372 99.8107 897.372 99.8107" stroke="black" stroke-width="3.03024" stroke-miterlimit="10" stroke-linecap="round" stroke-linejoin="round"/>
<path d="M74.8584 75.6938V116.246" stroke="black" stroke-width="3.03024" stroke-miterlimit="10" stroke-linecap="round" stroke-linejoin="round"/>
<path d="M88.1307 84.3703C80.646 79.4007 67.4417 77.6962 63.7372 81.181C60.0328 84.6657 64.4342 91.8095 77.3809 94.0822C91.7594 96.6049 89.3049 108.37 72.8583 106.612C63.1463 105.574 56.3965 101.574 56.3965 101.574" stroke="black" stroke-width="3.03024" stroke-miterlimit="10" stroke-linecap="round" stroke-linejoin="round"/>
<path d="M79.4268 407.753V456.426" stroke="black" stroke-width="3.03024" stroke-miterlimit="10" stroke-linecap="round" stroke-linejoin="round"/>
<path d="M91.6995 411.127C78.927 408.711 60.7532 418.87 59.7305 427.218C58.7078 435.566 70.4196 435.407 81.4421 430.135C93.5176 424.362 103.108 430.877 94.4191 441.498C84.283 453.892 69.8742 453.164 69.8742 453.164" stroke="black" stroke-width="3.03024" stroke-miterlimit="10" stroke-linecap="round" stroke-linejoin="round"/>
<path d="M296.747 119.253L302.687 125.693L311.936 128.746L303.429 134.852L307.065 145.253L295.922 138.405L287.172 145.253L290.391 134.602L283.952 128.746L294.679 128.579L296.747 119.253Z" fill="white" stroke="black" stroke-width="3.03024" stroke-miterlimit="10" stroke-linecap="round" stroke-linejoin="round"/>
<path d="M262.71 162.618L268.422 172.534L278.02 173.83L268.748 178.034L270.369 188.276L260.771 180.405L249.021 187.413L255.49 176.852L247.407 170.383L258.399 172.216L262.71 162.618Z" fill="white" stroke="black" stroke-width="3.03024" stroke-miterlimit="10" stroke-linecap="round" stroke-linejoin="round"/>
<path d="M259.975 341.994L265.028 352.66L277.762 353.812L270.649 358.516L276.959 368.379L264.914 363.675L251.604 374.114L254.702 362.645L243.801 359.66L253.899 355.183L259.975 341.994Z" fill="white" stroke="black" stroke-width="3.03024" stroke-miterlimit="10" stroke-linecap="round" stroke-linejoin="round"/>
<path d="M292.223 390.987L289.535 402.04L280.39 407.926H289.603L287.262 417.775L296.618 409.131L309.095 416.214L302.215 406.79L309.663 399.351L299.383 401.896L292.223 390.987Z" fill="white" stroke="black" stroke-width="3.03024" stroke-miterlimit="10" stroke-linecap="round" stroke-linejoin="round"/>
<path d="M820.751 135.085L816.425 148.54L804.6 149.987L813.925 154.41L810.463 164.986L821.614 155.85L834.114 161.91L829.887 154.312L840.462 147.873L825.273 146.911L820.751 135.085Z" fill="white" stroke="black" stroke-width="3.03024" stroke-miterlimit="10" stroke-linecap="round" stroke-linejoin="round"/>
<path d="M850.81 196.435L857.704 204.889H868.454L861.083 211.177L870.636 221.207L857.825 216.98L851.659 226.768L849.848 216.132L838.121 216.98L847.909 208.882L850.81 196.435Z" fill="white" stroke="black" stroke-width="3.03024" stroke-miterlimit="10" stroke-linecap="round" stroke-linejoin="round"/>
<path d="M863.984 266.77C863.984 266.77 856.855 274.868 856.128 280.186C853.348 281.034 845.009 286.716 845.009 286.716L859.151 290.701L857.825 302.428L867.978 291.913L880.181 300.496L873.417 286.231L884.175 280.307L868.34 279.58L863.984 266.77Z" fill="white" stroke="black" stroke-width="3.03024" stroke-miterlimit="10" stroke-linecap="round" stroke-linejoin="round"/>
<path d="M855.024 336.005L850.243 344.672L834.668 346.975L845.009 354.232L839.978 362.02L852.721 355.649L862.986 364.671L859.266 352.641L871.834 349.278L856.433 347.149L855.024 336.005Z" fill="white" stroke="black" stroke-width="3.03024" stroke-miterlimit="10" stroke-linecap="round" stroke-linejoin="round"/>
<path d="M813.486 394.81L806.032 408.847L791.744 410.468L800.564 416.802L796.215 426.498L809.138 416.93L817.956 426.498L816.472 414.817L826.04 409.968L813.366 407.234L813.486 394.81Z" fill="white" stroke="black" stroke-width="3.03024" stroke-miterlimit="10" stroke-linecap="round" stroke-linejoin="round"/>
<path d="M718.004 306.507C737.391 306.507 753.109 290.789 753.109 271.401C753.109 252.014 737.391 236.296 718.004 236.296C698.615 236.296 682.898 252.014 682.898 271.401C682.898 290.789 698.615 306.507 718.004 306.507Z" stroke="black" stroke-width="3.03024" stroke-miterlimit="10" stroke-linecap="round" stroke-linejoin="round"/>
<path d="M701.52 256.567H736.322L733.314 261.764C732.89 262.499 732.663 263.325 732.655 264.173L732.443 285.71C732.443 285.71 719.921 287.703 719.921 295.574C719.921 287.93 707.285 283.157 707.285 283.157V265.211C707.285 264.059 706.875 262.946 706.141 262.059L701.52 256.567Z" fill="white" stroke="black" stroke-width="3.03024" stroke-miterlimit="10" stroke-linecap="round" stroke-linejoin="round"/>
<path d="M711.763 256.567V285.354" stroke="black" stroke-width="3.03024" stroke-miterlimit="10"/>
<path d="M718.914 256.567L719.914 295.581" stroke="black" stroke-width="3.03024" stroke-miterlimit="10"/>
<path d="M725.329 256.567L726.412 287.589" stroke="black" stroke-width="3.03024" stroke-miterlimit="10"/>
<path d="M228.864 312.739C250.087 312.739 267.295 295.532 267.295 274.308C267.295 253.083 250.087 235.877 228.864 235.877C207.638 235.877 190.433 253.083 190.433 274.308C190.433 295.532 207.638 312.739 228.864 312.739Z" stroke="black" stroke-width="3.03024" stroke-miterlimit="10" stroke-linecap="round" stroke-linejoin="round"/>
<path d="M203.501 277.524C203.501 269.608 210.637 260.707 216.455 260.707C220.713 260.707 225.607 262.82 225.485 260.904C225.22 256.714 222.001 255.426 219.402 254.623C220.251 250.836 227.243 249.381 233.538 252.002C235.894 252.987 235.5 261.101 235.5 261.101C235.5 261.101 244.659 258.676 248.652 261.298C251.932 263.449 253.629 266.547 253.939 269.737C254.129 271.623 253.644 272.54 251.432 272.775C247.356 273.199 241.652 273.676 241.652 273.676V276.949L247.932 278.684V293.57L241.099 294.441C240.091 294.57 239.114 294.873 238.205 295.342C236.258 296.35 232.879 298.395 230.531 301.486C228.803 298.569 225.569 296.433 223.599 295.327C222.622 294.782 221.546 294.433 220.432 294.297L209.842 292.979V279.827L216.584 277.6C216.584 277.6 216.584 274.775 216.584 273.017C216.584 271.259 212.327 271.055 210.501 272.237C208.668 273.403 203.501 277.524 203.501 277.524Z" fill="black"/>
<path d="M208.046 270.185C209.303 268.094 213.796 263.496 213.796 263.496H228.477C228.477 263.496 228.477 259.632 228.477 259.056C228.477 258.481 227.667 255.344 224.614 255.344C224.614 254.246 224.614 253.572 224.614 253.572H232.136C234.068 253.572 235.333 259.844 232.136 259.844C232.136 260.473 232.136 263.344 232.136 263.344C232.136 263.344 243.841 263.344 245.56 263.344C247.287 263.344 250.992 270.185 250.992 270.185C250.992 270.185 243.727 270.185 241.901 270.185C240.076 270.185 239.03 275.465 239.03 275.465H219.856C219.856 275.465 220.402 270.548 218.031 270.086C213.743 269.245 208.046 270.185 208.046 270.185Z" fill="white"/>
<path d="M217.659 281.756V290.922C215.53 290.544 213.447 290.309 211.682 290.248V281.756H217.659Z" fill="white"/>
<path d="M225.795 281.752V293.032H225.461C223.772 292.358 221.818 291.797 219.825 291.35V281.744H225.795V281.752Z" fill="white"/>
<path d="M239.242 281.756V291.998C238.144 292.316 237.091 292.657 236.129 293.043H234.318V281.763H239.242V281.756Z" fill="white"/>
<path d="M245.075 281.756V290.733C243.833 290.93 242.552 291.18 241.295 291.475V281.756H245.075Z" fill="white"/>
<path d="M232.826 281.756V294.71C231.766 295.43 231.061 296.218 230.864 297.051C230.811 297.21 230.796 297.377 230.796 297.536C230.796 297.369 230.781 297.203 230.735 297.051C230.463 295.922 229.273 294.892 227.554 293.983V281.756H232.826Z" fill="white"/>
<path d="M138.592 440.034C155.562 433.527 162.781 427.534 180.569 421.231C198.356 414.929 206.993 407.815 207.705 404.262C208.417 400.709 169.19 421.231 146.22 440.852" stroke="black" stroke-width="3.03024" stroke-miterlimit="10" stroke-linecap="round" stroke-linejoin="round"/>
<path d="M155.031 433.824C163.523 431.226 187.682 427.059 192.47 426.226C172.895 432.127 165.607 437.127 166.508 439.763C167.41 442.399 204.689 425.953 204.689 425.953" stroke="black" stroke-width="3.03024" stroke-miterlimit="10" stroke-linecap="round" stroke-linejoin="round"/>
<path d="M191.492 431.58C188.871 435.944 191.197 436.989 209.348 430.876C214.105 429.277 220.454 428.307 215.939 438.648" stroke="black" stroke-width="3.03024" stroke-miterlimit="10" stroke-linecap="round" stroke-linejoin="round"/>
<path d="M209.12 454.47C216.4 442.804 240.203 417.039 263.074 415.305C271.278 414.608 254.293 435.433 240.892 440.85C227.491 446.266 218.484 445.221 209.12 454.47Z" stroke="black" stroke-width="3.03024" stroke-miterlimit="10" stroke-linecap="round" stroke-linejoin="round"/>
<path d="M221.879 446.74C221.879 446.74 254.643 418.188 256.378 416.453" stroke="black" stroke-width="3.03024" stroke-miterlimit="10" stroke-linecap="round" stroke-linejoin="round"/>
<path d="M246.369 437.944C249.361 439.217 245.945 444.944 237.938 446.739C246.604 444.073 262.232 438.406 268.8 434.868C276.028 435.141 296.777 434.262 296.777 434.262" stroke="black" stroke-width="3.03024" stroke-miterlimit="10" stroke-linecap="round" stroke-linejoin="round"/>
<path d="M351.883 398.828C342.725 427.107 346.285 456.925 360.361 477.159L351.883 398.828Z" fill="#FF7051"/>
<path d="M351.883 398.828C342.725 427.107 346.285 456.925 360.361 477.159" stroke="black" stroke-width="3.03024" stroke-miterlimit="10" stroke-linecap="round" stroke-linejoin="round"/>
<path d="M377.45 443.767C377.45 439.342 381.057 439.873 378.845 433.759C376.633 427.653 367.292 428.873 362.618 433.411C358.664 437.252 356.451 450.615 366.05 453.244C376.231 456.039 377.45 443.767 377.45 443.767Z" fill="#23A094" stroke="black" stroke-width="3.03024" stroke-miterlimit="10" stroke-linecap="round" stroke-linejoin="round"/>
<path d="M391.028 415.355C395.096 413.559 395.8 416.469 400.694 412.34C405.588 408.211 401.376 401.719 395.664 400.067C390.823 398.666 377.801 402.446 378.543 410.688C379.331 419.423 391.028 415.355 391.028 415.355Z" fill="#FF90E8" stroke="black" stroke-width="3.03024" stroke-miterlimit="10" stroke-linecap="round" stroke-linejoin="round"/>
<path d="M437.893 437.618C441.151 433.864 440.131 427.644 435.614 423.726C431.099 419.808 424.798 419.675 421.539 423.429C418.281 427.182 419.301 433.403 423.818 437.321C428.333 441.239 434.636 441.373 437.893 437.618Z" fill="#FFC900" stroke="black" stroke-width="3.03024" stroke-miterlimit="10" stroke-linecap="round" stroke-linejoin="round"/>
<path d="M527.652 406.391C532.266 397.725 537.175 381.937 537.175 364.551C537.175 354.802 527.554 359.12 527.152 373.4C528.288 360.87 522.91 355.203 516.561 359.135C509.41 363.567 514.44 398.354 514.44 398.354L513.721 401.24L516.834 406.937L527.652 406.391Z" fill="#FF7051" stroke="black" stroke-width="3.03024" stroke-miterlimit="10" stroke-linecap="round" stroke-linejoin="round"/>
<path d="M457.375 372.698C442.89 358.933 427.626 368.198 436.762 380.084C445.519 391.849 503.078 415.621 503.078 415.621C500.889 425.189 511.563 428.962 511.563 428.962C511.563 428.962 501.662 439.492 500.912 445.264C500.162 451.037 506.851 452.711 510.79 447.522C514.73 442.332 522.843 425.007 522.843 425.007C527.783 436.227 523.063 446.408 529.29 447.605C536.654 449.029 538.631 442.832 538.161 433.795C537.676 424.431 531.464 423.25 531.464 423.25C538.828 422.159 538.684 416.666 534.979 413.25C530.426 409.053 523.093 402.076 523.093 402.076C523.093 402.076 519.222 400.591 509.45 396.091C499.669 391.591 474.2 376.228 472.109 371.372C471.337 369.236 471.549 363.372 465.344 361.334C459.587 359.44 452.519 363.402 457.375 372.698Z" fill="#FF7051" stroke="black" stroke-width="3.03024" stroke-miterlimit="10" stroke-linecap="round" stroke-linejoin="round"/>
<path d="M523.085 402.067C523.085 402.067 509.23 401.688 503.078 415.612" stroke="black" stroke-width="3.03024" stroke-miterlimit="10" stroke-linecap="round" stroke-linejoin="round"/>
<path d="M511.555 428.959C511.555 428.959 519.312 423.308 521.691 422.596C524.077 421.884 531.448 423.255 531.448 423.255" stroke="black" stroke-width="3.03024" stroke-miterlimit="10" stroke-linecap="round" stroke-linejoin="round"/>
<path d="M493.525 411.535L494.987 464.276" stroke="black" stroke-width="3.03024" stroke-miterlimit="10" stroke-linecap="round" stroke-linejoin="round"/>
<path d="M483.584 428.318C485.688 428.318 487.394 426.612 487.394 424.507C487.394 422.403 485.688 420.697 483.584 420.697C481.479 420.697 479.773 422.403 479.773 424.507C479.773 426.612 481.479 428.318 483.584 428.318Z" fill="#23A094" stroke="black" stroke-width="3.03024" stroke-miterlimit="10" stroke-linecap="round" stroke-linejoin="round"/>
<path d="M483.387 443.372C485.601 443.372 487.395 441.578 487.395 439.364C487.395 437.151 485.601 435.357 483.387 435.357C481.175 435.357 479.38 437.151 479.38 439.364C479.38 441.578 481.175 443.372 483.387 443.372Z" fill="#23A094" stroke="black" stroke-width="3.03024" stroke-miterlimit="10" stroke-linecap="round" stroke-linejoin="round"/>
<path d="M557.642 465.267L573.34 370.853L586.482 372.512L570.302 460.919L557.642 465.267Z" fill="white" stroke="black" stroke-width="3.03024" stroke-miterlimit="10" stroke-linecap="round" stroke-linejoin="round"/>
<path d="M569.993 390.967L582.387 394.914L583.531 388.642L570.999 384.914L569.993 390.967Z" fill="#23A094" stroke="black" stroke-width="3.03024" stroke-miterlimit="10" stroke-linecap="round" stroke-linejoin="round"/>
<path d="M581.977 371.934L579.985 379.108L579.727 371.669C579.705 371.033 580.205 370.502 580.833 370.48C581.47 370.457 582 370.957 582.023 371.586C582.023 371.707 582 371.828 581.977 371.934Z" fill="black"/>
<path d="M577.105 371.283L575.325 378.783L574.84 371.086C574.802 370.45 575.279 369.904 575.916 369.867C576.552 369.829 577.098 370.306 577.135 370.942C577.135 371.064 577.128 371.177 577.105 371.283Z" fill="black"/>
<path d="M591.098 332.73C582.515 337.465 584.893 345.336 576.757 351.329C568.621 357.321 566.197 366.806 573.333 370.858C580.469 374.911 589.204 373.851 594.401 366.26C597.711 361.434 597.128 353.882 594.045 349.541C591.189 345.518 588.598 338.185 591.098 332.73Z" fill="#FFC900" stroke="black" stroke-width="3.03024" stroke-miterlimit="10" stroke-linecap="round" stroke-linejoin="round"/>
<path d="M102.494 172.831C102.494 172.831 102.494 160.225 102.494 158.369C102.494 156.21 112.441 154.309 113.895 156.809C115.994 160.407 110.176 163.051 101.774 164.331" stroke="white" stroke-width="3.03024" stroke-miterlimit="10" stroke-linecap="round"/>
<path d="M110.426 162.096C117.183 163.255 115.661 169.551 112.176 170.414C108.388 171.346 102.494 170.52 102.494 170.52" stroke="white" stroke-width="3.03024" stroke-miterlimit="10" stroke-linecap="round"/>
<path d="M118.646 160.575C122.979 153.802 127.524 154.886 127.304 158.105C127.085 161.325 120.698 169.969 120.698 169.969H131.698" stroke="white" stroke-width="3.03024" stroke-miterlimit="10" stroke-linecap="round"/>
<path d="M160.758 171.461C160.758 171.461 162.621 165.484 162.955 158.772C164.311 158.037 170.568 156.628 170.568 156.628V171.454" stroke="white" stroke-width="3.03024" stroke-miterlimit="10" stroke-linecap="round"/>
<path d="M162.318 164.552H170.568" stroke="white" stroke-width="3.03024" stroke-miterlimit="10" stroke-linecap="round"/>
<path d="M182.408 163.37C182.408 163.37 186.294 164.12 184.476 167.332C182.658 170.537 175.954 170.491 175.954 170.491V158.416C178.863 156.06 185.234 155.34 185.423 157.764C185.673 160.87 184.719 164.56 175.249 164.56" stroke="white" stroke-width="3.03024" stroke-miterlimit="10" stroke-linecap="round"/>
<path d="M211.924 163.37C211.924 163.37 215.81 164.12 213.992 167.332C212.174 170.537 205.469 170.491 205.469 170.491V158.416C208.378 156.06 214.749 155.34 214.939 157.764C215.189 160.87 214.234 164.56 204.765 164.56" stroke="white" stroke-width="3.03024" stroke-miterlimit="10" stroke-linecap="round"/>
<path d="M201.675 156.628H194.099L191.433 170.484H200.47" stroke="white" stroke-width="3.03024" stroke-miterlimit="10" stroke-linecap="round"/>
<path d="M192.842 163.161H199.425" stroke="white" stroke-width="3.03024" stroke-miterlimit="10" stroke-linecap="round"/>
<path d="M220.183 159.151C222.289 154.462 228.054 156.53 226.296 160.697C224.531 164.871 221.69 170.484 221.69 170.484H228.743" stroke="white" stroke-width="3.03024" stroke-miterlimit="10" stroke-linecap="round"/>
<path d="M594.196 254.634C594.196 302.11 561.031 341.829 516.615 351.905C509.486 353.526 502.07 354.382 494.456 354.382C486.714 354.382 479.176 353.496 471.941 351.829C427.692 341.625 394.716 301.974 394.716 254.634C394.716 239.642 398.026 225.415 403.958 212.658L580.318 203.84C589.128 218.71 594.196 236.081 594.196 254.634Z" fill="#FFC900" stroke="black" stroke-width="3.03024" stroke-miterlimit="10" stroke-linecap="round" stroke-linejoin="round"/>
<path d="M403.943 212.659C409.738 201.803 407.663 197.091 399.86 196.993C389.459 196.864 359.171 207 345.914 192.705C332.657 178.41 342.27 161.031 360.08 153.577C388.368 141.752 417.011 140.578 437.033 138.366C457.048 136.154 484.82 132.502 484.82 132.502C484.82 132.502 473.843 124.086 474.896 118.669C475.949 113.253 488.578 112.654 494.138 131.298C494.138 131.298 528.568 128.593 555.476 127.987C582.392 127.389 611.172 130.389 617.354 139.646C622.49 147.35 616.234 168.872 605.31 174.334C594.386 179.796 579.538 193.175 580.295 203.826" fill="#FF7051"/>
<path d="M403.943 212.659C409.738 201.803 407.663 197.091 399.86 196.993C389.459 196.864 359.171 207 345.914 192.705C332.657 178.41 342.27 161.031 360.08 153.577C388.368 141.752 417.011 140.578 437.033 138.366C457.048 136.154 484.82 132.502 484.82 132.502C484.82 132.502 473.843 124.086 474.896 118.669C475.949 113.253 488.578 112.654 494.138 131.298C494.138 131.298 528.568 128.593 555.476 127.987C582.392 127.389 611.172 130.389 617.354 139.646C622.49 147.35 616.234 168.872 605.31 174.334C594.386 179.796 579.538 193.175 580.295 203.826" stroke="black" stroke-width="3.03024" stroke-miterlimit="10" stroke-linecap="round" stroke-linejoin="round"/>
<path d="M470.98 278.388C474.318 278.388 477.025 275.68 477.025 272.342C477.025 269.003 474.318 266.297 470.98 266.297C467.641 266.297 464.935 269.003 464.935 272.342C464.935 275.68 467.641 278.388 470.98 278.388Z" fill="black"/>
<path d="M513.766 278.388C517.104 278.388 519.811 275.68 519.811 272.342C519.811 269.003 517.104 266.297 513.766 266.297C510.427 266.297 507.721 269.003 507.721 272.342C507.721 275.68 510.427 278.388 513.766 278.388Z" fill="black"/>
<path d="M481.548 290.006H506.417" stroke="black" stroke-width="3.03024" stroke-miterlimit="10" stroke-linecap="round" stroke-linejoin="round"/>
<path d="M483.503 353.96C489.321 367.263 500.071 362.491 501.571 354.377L483.503 353.96Z" fill="black"/>
</g>
<defs>
<clipPath id="clip0_106_10107">
<rect width="969.677" height="545.443" fill="white" transform="translate(0 0.949463)"/>
</clipPath>
</defs>
</svg>
