<svg width="971" height="547" viewBox="0 0 971 547" fill="none" xmlns="http://www.w3.org/2000/svg">
<g clip-path="url(#clip0_106_9633)">
<path d="M970.109 0.983154H0.432617V546.426H970.109V0.983154Z" fill="white"/>
<path d="M1100.91 -18.1688H-87.7041V591.574H1100.91V-18.1688Z" fill="#90A8ED"/>
<path d="M1098.94 -15.6616V589.059H-85.7383V-15.6616H1098.94ZM1102.87 -20.6842H-89.6689V594.081H1102.87V-20.6842Z" fill="black"/>
<path d="M1074.05 432.902H787.029C789.779 417.644 796.288 408.885 820.204 413.185C830.962 381.812 849.295 390.978 863.22 394.852C867.62 372.645 883.311 371.586 900.76 377.936C904.994 363.303 915.569 356.079 926.676 365.595C924.026 354.662 934.96 347.97 945.185 354.487C941.835 347.087 951.002 337.213 965.101 345.853C964.926 333.863 976.025 329.463 986.251 338.446C986.251 332.454 994.884 324.346 1003.7 333.163C1004.05 322.937 1011.11 317.296 1022.56 323.82C1023.27 305.488 1042.3 308.487 1042.3 308.487C1042.3 308.487 1035.43 293.921 1049.17 291.564C1047.02 286.621 1047.78 281.43 1049.24 275.705C1062.09 282.955 1071.12 287.621 1071.12 287.621C1071.12 287.621 1070.38 350.903 1071.53 363.603C1072.82 377.662 1079.33 402.595 1074.05 432.902Z" fill="#FFC900" stroke="black" stroke-width="3.03024" stroke-miterlimit="10" stroke-linecap="round" stroke-linejoin="round"/>
<path d="M1102.87 491.89V597.639H-161.267V432.899H1074.05V432.924C1073.97 433.382 1073.88 433.841 1073.8 434.299C1073.7 434.841 1073.59 435.391 1073.48 435.941C1073.37 436.499 1073.26 437.074 1073.13 437.641C1073.07 437.941 1073.01 438.241 1072.94 438.549C1072.61 440.074 1072.24 441.608 1071.84 443.158C1071.82 443.208 1071.82 443.258 1071.8 443.315C1071.59 444.115 1071.37 444.915 1071.15 445.724C1062.92 475.114 1011.66 489.781 984.385 497.281C984.385 497.281 999.559 501.947 1015.13 502.281C1015.13 502.281 999.759 510.173 998.668 512.356C1037.73 514.339 1056.57 498.181 1064.01 495.797C1071.04 493.547 1092.67 498.064 1102.87 491.89Z" fill="#23A094" stroke="black" stroke-width="3.03024" stroke-miterlimit="10" stroke-linecap="round" stroke-linejoin="round"/>
<path d="M1102.87 101.67V491.886C1092.67 498.062 1071.04 493.545 1064.01 495.795C1056.57 498.179 1037.73 514.336 998.667 512.353C999.758 510.169 1015.12 502.279 1015.12 502.279C999.558 501.945 984.384 497.279 984.384 497.279C1011.66 489.779 1062.92 475.113 1071.15 445.721C1071.37 444.913 1071.59 444.113 1071.8 443.313C1071.82 443.254 1071.82 443.204 1071.84 443.154C1072.24 441.604 1072.61 440.071 1072.94 438.547C1073.01 438.238 1073.07 437.938 1073.13 437.638C1073.26 437.071 1073.37 436.497 1073.48 435.938C1073.59 435.388 1073.7 434.838 1073.8 434.297C1073.88 433.838 1073.97 433.38 1074.05 432.921V432.897C1079.33 402.588 1072.82 377.655 1071.53 363.598C1070.38 350.898 1071.12 287.616 1071.12 287.616C1071.12 287.616 1062.09 282.95 1049.24 275.7C1029.6 264.608 1001.04 247.475 982.242 231.759C958.402 211.818 932.276 180.726 921.402 167.31C923.802 166.177 926.002 164.602 927.81 162.693C938.626 172.469 959.885 172.469 963.402 155.003C966.176 155.386 968.609 155.344 970.742 154.944C977.051 165.51 988.351 181.519 1004.92 197.868L1009.45 111.328L1010.1 98.8286L1034.08 94.3287L1033.59 101.07L1029.17 161.102C1029.05 162.752 1028.98 164.41 1028.95 166.069L1028.07 217.901C1035.39 223.409 1043.36 228.709 1051.99 233.584C1057.15 236.492 1062.54 239.251 1068.17 241.808C1068.17 241.808 1067.92 223.442 1068.27 202.185C1068.54 185.535 1069.19 167.11 1070.62 154.336C1072.9 133.97 1073.47 116.912 1070.24 106.203C1081.59 110.228 1088.05 99.287 1088.05 99.287C1088.05 99.287 1095.14 105.454 1102.87 101.67Z" fill="black"/>
<path d="M1086.26 101.236C1086.26 101.236 1093.31 107.227 1100.99 103.552V-35.6855H802.98C799.522 -35.9634 791.577 -34.5188 787.463 -26.519C783.35 -18.5192 789.177 -7.07499 792.606 -2.35288C788.669 -0.130699 780.797 6.64694 780.797 15.9801C780.797 25.3132 788.669 31.2792 792.606 33.0956C781.98 39.3455 780.714 57.9035 802.98 64.5867C795.772 76.8281 793.747 90.4361 810.063 95.761C802.472 109.369 805.93 125.71 826.638 123.227C827.263 146.243 844.855 150.327 865.345 141.418C862.588 151.601 874.254 171.884 895.078 153.794C895.961 158.485 897.737 161.984 900.053 164.468C900.137 164.568 900.228 164.66 900.328 164.76C900.503 164.934 900.678 165.11 900.861 165.277C901.22 165.61 901.587 165.918 901.97 166.21C902.161 166.36 902.361 166.501 902.561 166.642V166.643C902.953 166.91 903.344 167.151 903.753 167.377C904.37 167.727 904.994 168.018 905.653 168.277C906.028 168.418 906.403 168.543 906.794 168.668C906.903 168.701 907.02 168.734 907.137 168.768C908.777 169.227 910.503 169.418 912.237 169.368C912.277 169.377 912.327 169.377 912.377 169.368L912.853 169.343C913.044 169.334 913.227 169.327 913.427 169.301C913.611 169.284 913.794 169.26 913.986 169.243C914.57 169.177 915.144 169.093 915.727 168.96C915.887 168.927 916.053 168.893 916.22 168.851C916.587 168.768 916.953 168.677 917.32 168.568C917.503 168.527 917.686 168.468 917.87 168.41L918.32 168.26C918.394 168.234 918.461 168.21 918.527 168.184C918.844 168.068 919.161 167.951 919.477 167.818C919.661 167.751 919.836 167.677 920.011 167.601C920.186 167.527 920.361 167.46 920.536 167.368C922.92 166.26 925.103 164.734 926.903 162.877C937.66 172.384 958.786 172.384 962.286 155.401C965.043 155.777 967.469 155.735 969.585 155.344C969.602 155.344 969.61 155.344 969.619 155.335C969.843 155.294 970.069 155.251 970.293 155.201C970.36 155.185 970.435 155.168 970.502 155.151C970.735 155.101 970.969 155.044 971.193 154.977C971.443 154.901 971.702 154.827 971.952 154.744C972.693 154.501 973.385 154.21 974.035 153.868C974.143 153.818 974.252 153.76 974.352 153.701C974.51 153.618 974.659 153.535 974.802 153.444C974.985 153.335 975.169 153.227 975.343 153.101C975.476 153.01 975.602 152.935 975.726 152.835C975.976 152.66 976.226 152.46 976.469 152.26C976.593 152.151 976.719 152.051 976.843 151.935C977.559 151.301 978.193 150.593 978.743 149.835C978.867 149.685 978.976 149.519 979.084 149.352L979.085 149.352C979.309 149.027 979.509 148.702 979.7 148.36C979.793 148.21 979.876 148.052 979.959 147.902C980.685 146.518 981.193 145.018 981.535 143.46C981.585 143.218 981.626 142.993 981.668 142.76C981.726 142.477 981.768 142.202 981.802 141.918C981.826 141.76 981.852 141.585 981.868 141.418C981.893 141.211 981.909 141.003 981.926 140.795V140.793V140.791C981.943 140.625 981.959 140.459 981.968 140.293C981.985 140.085 981.993 139.877 981.993 139.668C982.002 139.41 982.009 139.16 982.009 138.902C982.009 136.693 981.702 134.485 981.118 132.46C1000.43 137.152 1001.46 118.386 997.701 108.502C997.976 108.719 998.259 108.936 998.551 109.136C998.792 109.311 999.042 109.486 999.292 109.644C999.309 109.652 999.318 109.661 999.335 109.669C999.601 109.844 999.876 110.011 1000.16 110.169C1000.42 110.319 1000.68 110.469 1000.96 110.611C1001 110.627 1001.03 110.652 1001.07 110.669C1001.58 110.927 1002.09 111.169 1002.63 111.394C1002.85 111.486 1003.07 111.569 1003.29 111.652C1003.52 111.744 1003.74 111.819 1003.97 111.894L1003.97 111.894C1004.19 111.977 1004.42 112.052 1004.64 112.119C1004.88 112.186 1005.1 112.252 1005.33 112.319C1006.24 112.577 1007.17 112.777 1008.1 112.927C1009.77 113.202 1011.47 113.311 1013.15 113.261H1013.17C1014.22 113.227 1015.28 113.127 1016.31 112.986C1016.54 112.952 1016.77 112.911 1017 112.877C1017.28 112.836 1017.57 112.777 1017.85 112.719C1018.1 112.669 1018.35 112.611 1018.61 112.552C1019.12 112.436 1019.61 112.302 1020.1 112.152C1020.34 112.077 1020.58 112.011 1020.83 111.927C1021.32 111.769 1021.78 111.594 1022.26 111.411C1022.44 111.336 1022.62 111.269 1022.8 111.194C1022.99 111.111 1023.18 111.044 1023.35 110.952C1023.58 110.844 1023.82 110.744 1024.05 110.619C1024.8 110.244 1025.52 109.836 1026.21 109.394C1026.4 109.261 1026.6 109.144 1026.78 109.002C1027.18 108.736 1027.55 108.452 1027.91 108.161C1028.26 107.869 1028.61 107.569 1028.93 107.261C1028.94 107.252 1028.95 107.236 1028.97 107.227C1029.28 106.911 1029.6 106.594 1029.89 106.261C1030.8 105.236 1031.55 104.111 1032.11 102.894C1032.22 102.653 1032.33 102.403 1032.43 102.153C1042.28 116.736 1059.26 112.294 1060.3 102.911C1060.86 103.394 1061.41 103.836 1061.95 104.252C1062.13 104.394 1062.31 104.527 1062.49 104.661C1064.63 106.244 1066.64 107.294 1068.52 107.952L1073.66 108.811C1073.89 108.811 1074.12 108.794 1074.35 108.777C1074.66 108.761 1074.97 108.727 1075.28 108.677C1075.47 108.652 1075.66 108.619 1075.83 108.586C1076.07 108.552 1076.3 108.502 1076.52 108.444C1076.73 108.406 1076.93 108.346 1077.13 108.286L1077.19 108.269C1077.39 108.219 1077.6 108.152 1077.8 108.077C1078.04 107.986 1078.29 107.894 1078.53 107.794C1078.71 107.719 1078.87 107.652 1079.04 107.577C1079.2 107.502 1079.35 107.436 1079.49 107.361C1079.61 107.316 1079.72 107.251 1079.83 107.19L1079.87 107.169C1080.67 106.736 1081.4 106.244 1082.06 105.744C1082.19 105.636 1082.32 105.544 1082.45 105.436C1082.62 105.294 1082.77 105.169 1082.92 105.027L1083.32 104.677L1083.35 104.655C1083.47 104.538 1083.59 104.429 1083.7 104.319L1084.05 103.969C1084.95 103.053 1085.57 102.219 1085.93 101.719C1086.02 101.594 1086.08 101.503 1086.14 101.419C1086.22 101.303 1086.26 101.236 1086.26 101.236Z" fill="#23A094" stroke="black" stroke-width="3.03024" stroke-miterlimit="10" stroke-linecap="round" stroke-linejoin="round"/>
<path d="M839.51 78.1661C841.084 78.1661 842.36 76.89 842.36 75.3161C842.36 73.7421 841.084 72.4662 839.51 72.4662C837.936 72.4662 836.66 73.7421 836.66 75.3161C836.66 76.89 837.936 78.1661 839.51 78.1661Z" fill="black"/>
<path d="M854.245 51.1896C855.695 51.1896 856.871 50.0143 856.871 48.5646C856.871 47.1148 855.695 45.9397 854.245 45.9397C852.795 45.9397 851.621 47.1148 851.621 48.5646C851.621 50.0143 852.795 51.1896 854.245 51.1896Z" fill="black"/>
<path d="M874.304 75.5587C875.667 75.5587 876.771 74.4545 876.771 73.0921C876.771 71.7299 875.667 70.6255 874.304 70.6255C872.941 70.6255 871.838 71.7299 871.838 73.0921C871.838 74.4545 872.941 75.5587 874.304 75.5587Z" fill="black"/>
<path d="M902.036 108.824C903.332 108.824 904.385 107.772 904.385 106.474C904.385 105.176 903.332 104.124 902.036 104.124C900.737 104.124 899.686 105.176 899.686 106.474C899.686 107.772 900.737 108.824 902.036 108.824Z" fill="black"/>
<path d="M911.901 54.2461C913.589 54.2461 914.958 52.8768 914.958 51.1878C914.958 49.4987 913.589 48.1295 911.901 48.1295C910.211 48.1295 908.842 49.4987 908.842 51.1878C908.842 52.8768 910.211 54.2461 911.901 54.2461Z" fill="black"/>
<path d="M938.819 114.107C940.373 114.107 941.635 112.846 941.635 111.29C941.635 109.735 940.373 108.474 938.819 108.474C937.263 108.474 936.002 109.735 936.002 111.29C936.002 112.846 937.263 114.107 938.819 114.107Z" fill="black"/>
<path d="M738.855 70.6313H222.691V171.054H738.855V70.6313Z" fill="#FFC900" stroke="black" stroke-width="3.03024" stroke-miterlimit="10" stroke-linecap="round" stroke-linejoin="round"/>
<path d="M238.208 171.049H222.691V333.005H238.208V171.049Z" fill="#FFC900" stroke="black" stroke-width="3.03024" stroke-miterlimit="10" stroke-linecap="round" stroke-linejoin="round"/>
<path d="M738.856 171.049H722.406V333.005H738.856V171.049Z" fill="#FFC900" stroke="black" stroke-width="3.03024" stroke-miterlimit="10" stroke-linecap="round" stroke-linejoin="round"/>
<path d="M738.855 333.008H222.691V485.329H738.855V333.008Z" fill="#FFC900" stroke="black" stroke-width="3.03024" stroke-miterlimit="10" stroke-linecap="round" stroke-linejoin="round"/>
<path d="M722.404 312.098V333.005H238.207L307.78 312.898L722.404 312.098Z" fill="#FF90E8" stroke="black" stroke-width="3.03024" stroke-miterlimit="10" stroke-linecap="round" stroke-linejoin="round"/>
<path d="M465.61 97.8029H292.014V142.419H465.61V97.8029Z" fill="white" stroke="black" stroke-width="3.03024" stroke-miterlimit="10" stroke-linecap="round" stroke-linejoin="round"/>
<path d="M623.372 98.8328H563.24V142.415H623.372V98.8328Z" fill="white" stroke="black" stroke-width="3.03024" stroke-miterlimit="10" stroke-linecap="round" stroke-linejoin="round"/>
<path d="M317.207 127.156C319.99 117.539 326.34 108.865 326.34 108.865C326.34 108.865 332.59 114.248 332.59 127.822" stroke="black" stroke-width="3.03024" stroke-miterlimit="10" stroke-linecap="round" stroke-linejoin="round"/>
<path d="M320.312 119.145H331.605" stroke="black" stroke-width="3.03024" stroke-miterlimit="10" stroke-linecap="round" stroke-linejoin="round"/>
<path d="M341.072 110.734L342.456 128.717C353.305 128.201 355.53 122.509 355.072 117.601C354.763 114.276 351.93 109.234 341.072 110.734Z" stroke="black" stroke-width="3.03024" stroke-miterlimit="10" stroke-linecap="round" stroke-linejoin="round"/>
<path d="M360.17 109.791L370.727 128.324L376.177 108.616" stroke="black" stroke-width="3.03024" stroke-miterlimit="10" stroke-linecap="round" stroke-linejoin="round"/>
<path d="M385.404 109.462V130.287" stroke="black" stroke-width="3.03024" stroke-miterlimit="10" stroke-linecap="round" stroke-linejoin="round"/>
<path d="M411.845 109.462C401.688 110.462 398.462 115.762 399.396 121.72C400.596 129.362 414.029 124.745 414.029 124.745" stroke="black" stroke-width="3.03024" stroke-miterlimit="10" stroke-linecap="round" stroke-linejoin="round"/>
<path d="M440.652 108.166L426.336 112.799L426.853 130.724L439.927 126.916" stroke="black" stroke-width="3.03024" stroke-miterlimit="10" stroke-linecap="round" stroke-linejoin="round"/>
<path d="M439.001 117.795L427.125 121.804" stroke="black" stroke-width="3.03024" stroke-miterlimit="10" stroke-linecap="round" stroke-linejoin="round"/>
<path d="M590.509 110.723H578.617V119.756C594.934 116.064 592.543 134.597 579.45 129.156" stroke="black" stroke-width="3.03024" stroke-miterlimit="10" stroke-linecap="round" stroke-linejoin="round"/>
<path d="M608.965 113.469C596.732 114.411 595.791 120.452 596.449 123.544C597.374 127.877 603.415 129.285 611.791 125.711" stroke="black" stroke-width="3.03024" stroke-miterlimit="10" stroke-linecap="round" stroke-linejoin="round"/>
<path d="M600.432 106.278L604.039 133.594" stroke="black" stroke-width="3.03024" stroke-miterlimit="10" stroke-linecap="round" stroke-linejoin="round"/>
<path d="M298.557 385.001L317.814 383.468" stroke="black" stroke-width="3.03024" stroke-miterlimit="10" stroke-linecap="round" stroke-linejoin="round"/>
<path d="M308.19 384.238L307.197 407.32" stroke="black" stroke-width="3.03024" stroke-miterlimit="10" stroke-linecap="round" stroke-linejoin="round"/>
<path d="M323.04 382.752L321.414 406.51" stroke="black" stroke-width="3.03024" stroke-miterlimit="10" stroke-linecap="round" stroke-linejoin="round"/>
<path d="M332.846 382.201L331.496 406.5" stroke="black" stroke-width="3.03024" stroke-miterlimit="10" stroke-linecap="round" stroke-linejoin="round"/>
<path d="M322.07 396.88H332.17" stroke="black" stroke-width="3.03024" stroke-miterlimit="10" stroke-linecap="round" stroke-linejoin="round"/>
<path d="M356.33 404.611H342.113L341.756 384.995H354.98" stroke="black" stroke-width="3.03024" stroke-miterlimit="10" stroke-linecap="round" stroke-linejoin="round"/>
<path d="M341.945 395.772H354.121" stroke="black" stroke-width="3.03024" stroke-miterlimit="10" stroke-linecap="round" stroke-linejoin="round"/>
<path d="M384.604 385.355C376.312 385.355 370.928 392.581 371.145 397.539C371.362 402.498 380.071 404.981 387.861 402.288" stroke="black" stroke-width="3.03024" stroke-miterlimit="10" stroke-linecap="round" stroke-linejoin="round"/>
<path d="M393.562 405.09V386.716C393.562 382.749 406.588 381.357 406.255 389.157C405.921 396.957 394.688 396.366 394.688 396.366C399.779 398.482 407.646 405.09 407.646 405.09" stroke="black" stroke-width="3.03024" stroke-miterlimit="10" stroke-linecap="round" stroke-linejoin="round"/>
<path d="M427.328 385.357C427.071 385.323 413.262 386.29 413.262 386.29L412.938 406.94L426.487 405.097" stroke="black" stroke-width="3.03024" stroke-miterlimit="10" stroke-linecap="round" stroke-linejoin="round"/>
<path d="M426.493 395.458L413.652 396.75" stroke="black" stroke-width="3.03024" stroke-miterlimit="10" stroke-linecap="round" stroke-linejoin="round"/>
<path d="M431.229 406.932C431.421 397.29 439.637 384.383 442.845 383.516C445.587 388.407 445.021 406.932 445.021 406.932" stroke="black" stroke-width="3.03024" stroke-miterlimit="10" stroke-linecap="round" stroke-linejoin="round"/>
<path d="M433.127 398.011L444.969 397.411" stroke="black" stroke-width="3.03024" stroke-miterlimit="10" stroke-linecap="round" stroke-linejoin="round"/>
<path d="M451.16 386.148L468.419 385.355" stroke="black" stroke-width="3.03024" stroke-miterlimit="10" stroke-linecap="round" stroke-linejoin="round"/>
<path d="M461.01 386.149V404.632" stroke="black" stroke-width="3.03024" stroke-miterlimit="10" stroke-linecap="round" stroke-linejoin="round"/>
<path d="M474.108 389.096C475.324 387.38 477.483 386.604 479.558 386.963C486.441 388.154 486.267 394.987 483.767 399.837C481.008 405.196 472.308 402.78 472.217 396.746C472.167 392.937 473.067 390.571 474.108 389.096Z" stroke="black" stroke-width="3.03024" stroke-miterlimit="10" stroke-linecap="round" stroke-linejoin="round"/>
<path d="M492.594 404.629C492.594 404.629 492.594 391.946 492.594 386.88C492.594 381.813 506.377 378.73 507.743 386.88C509.293 396.122 493.76 395.396 493.76 395.396L506.319 405.379" stroke="black" stroke-width="3.03024" stroke-miterlimit="10" stroke-linecap="round" stroke-linejoin="round"/>
<path d="M527.8 384.624C520.633 376.765 513.55 388.607 520.841 391.724C525.15 393.565 532.399 396.581 528.7 402.131C523.466 409.964 514.783 401.648 514.783 401.648" stroke="black" stroke-width="3.03024" stroke-miterlimit="10" stroke-linecap="round" stroke-linejoin="round"/>
<path d="M542.824 406.247L551.7 385.355C558.383 387.605 556.841 407.538 556.841 407.538" stroke="black" stroke-width="3.03024" stroke-miterlimit="10" stroke-linecap="round" stroke-linejoin="round"/>
<path d="M546.326 398.008L556.809 397.708" stroke="black" stroke-width="3.03024" stroke-miterlimit="10" stroke-linecap="round" stroke-linejoin="round"/>
<path d="M563.484 407.537L564.051 387.628C564.051 381.345 579.808 380.595 578.684 389.32C577.558 398.044 565.268 398.02 565.268 398.02L578.742 406.303" stroke="black" stroke-width="3.03024" stroke-miterlimit="10" stroke-linecap="round" stroke-linejoin="round"/>
<path d="M594.522 383.272L585.523 385.789L583.898 407.538C583.898 407.538 593.065 405.422 595.089 403.314" stroke="black" stroke-width="3.03024" stroke-miterlimit="10" stroke-linecap="round" stroke-linejoin="round"/>
<path d="M593.467 395.187L584.725 396.445" stroke="black" stroke-width="3.03024" stroke-miterlimit="10" stroke-linecap="round" stroke-linejoin="round"/>
<path d="M663.082 372.483H605.383V415.115H663.082V372.483Z" fill="white" stroke="black" stroke-width="3.03024" stroke-miterlimit="10" stroke-linecap="round" stroke-linejoin="round"/>
<path d="M619.324 385.355V403.081" stroke="black" stroke-width="3.03024" stroke-miterlimit="10" stroke-linecap="round" stroke-linejoin="round"/>
<path d="M630.723 398.86V385.351L644.339 398.86L647.298 381.018" stroke="black" stroke-width="3.03024" stroke-miterlimit="10" stroke-linecap="round" stroke-linejoin="round"/>
<path d="M569.716 199.853C568.459 214.677 553.926 224.853 537.517 225.186C531.034 225.32 524.26 223.91 517.901 220.644C484.46 203.487 474.777 223.577 473.602 240.886C467.002 230.619 452.919 231.503 451.161 240.593C449.402 249.693 463.778 253.502 472.285 245.877C470.818 252.477 477.709 261.135 473.018 274.335C472.942 274.559 472.844 274.802 472.718 275.059C469.761 281.426 454.502 298.376 434.136 295.709C411.629 292.759 404.479 269.835 412.886 261.319C421.303 252.802 436.661 244.593 435.711 223.877C434.761 203.153 453.185 185.904 475.885 184.228C507.125 181.911 520.267 194.004 529.21 192.537C538.15 191.061 542.143 183.911 553.717 183.07C557.692 182.778 560.783 183.87 563.133 185.428C567.866 188.561 570.2 194.194 569.716 199.853Z" fill="black" stroke="black" stroke-width="3.03024" stroke-miterlimit="10" stroke-linecap="round" stroke-linejoin="round"/>
<path d="M455.736 257.55C455.736 257.55 444.928 245.234 438.694 244.591C437.12 247.225 438.92 254.017 440.67 257.217C440.928 257.684 440.753 258.267 440.278 258.5C440.07 258.6 439.853 258.691 439.67 258.767C439.344 258.9 438.978 258.834 438.72 258.6C437.453 257.467 433.52 254.184 430.611 254.541C428.437 258.75 430.778 265.224 433.22 269.417C433.47 269.85 433.32 270.4 432.894 270.658C432.887 270.658 432.887 270.667 432.878 270.667C432.528 270.883 432.078 270.833 431.77 270.55C427.87 266.974 424.228 265.133 422.304 265.274C420.395 265.408 425.104 276.966 427.911 279.624C428.161 279.866 428.261 280.216 428.161 280.55C428.128 280.666 428.095 280.783 428.061 280.891C427.904 281.416 427.32 281.683 426.82 281.457C424.628 280.491 421.161 278.3 421.161 278.3C420.304 282.307 423.52 292.04 437.77 291.4C438.253 287.75 433.404 283.616 431.287 282.007C430.711 281.566 430.437 280.833 430.611 280.124C430.878 279 432.095 278.4 433.144 278.866C435.861 280.083 440.67 282.333 443.428 284.2C444.011 282.483 440.137 278.641 438.103 276.783C437.437 276.174 437.337 275.15 437.878 274.424C438.361 273.767 439.237 273.524 439.994 273.833L449.011 277.591C449.487 275.574 444.903 269.333 442.053 266.4C441.287 265.608 441.294 264.35 442.087 263.583C442.761 262.924 443.794 262.824 444.578 263.35C446.32 264.524 449.587 266.417 452.953 266.708C454.094 263.774 448.727 258.55 448.727 258.55C451.37 255.834 455.736 257.55 455.736 257.55Z" fill="#90A8ED"/>
<path d="M522.502 273.711C514.66 278.703 506.852 281.07 499.303 281.47C493.027 281.794 486.919 280.761 481.11 278.737C478.236 277.744 475.436 276.503 472.72 275.061C472.844 274.803 472.944 274.561 473.02 274.337C477.711 261.137 470.82 252.478 472.286 245.878C463.777 253.504 449.404 249.695 451.161 240.595C452.92 231.504 467.003 230.621 473.603 240.887C474.777 223.579 484.46 203.488 517.902 220.645C524.26 223.912 531.035 225.321 537.518 225.188C545.752 243.345 532.918 267.087 522.502 273.711Z" fill="#98282A" stroke="black" stroke-width="3.03024"/>
<path d="M479.445 240.863C482.579 236.039 489.878 236.822 492.353 240.339" stroke="black" stroke-width="3.03024" stroke-miterlimit="10" stroke-linecap="round" stroke-linejoin="round"/>
<path d="M510.727 242.353C514.26 234.953 523.776 236.286 525.885 241.803" stroke="black" stroke-width="3.03024" stroke-miterlimit="10" stroke-linecap="round" stroke-linejoin="round"/>
<path d="M494.119 254.086H512.895C513.344 260.343 508.361 262.376 503.511 262.319C497.402 262.252 494.119 254.086 494.119 254.086Z" fill="white" stroke="black" stroke-width="3.03024" stroke-miterlimit="10" stroke-linecap="round" stroke-linejoin="round"/>
<path d="M527.573 304.887C512.747 316.734 497.902 312.627 481.11 312.96C477.96 315.819 469.553 318.586 457.144 316.555C452.887 313.363 449.553 307.53 452.053 301.697C454.553 296.697 460.386 293.363 465.386 291.697C470.694 290.223 474.927 289.28 480.144 288.68C480.527 288.639 480.836 288.714 481.11 288.889C482.769 289.906 483.11 294.223 490.31 294.223C496.51 294.223 497.577 289.547 499.302 288.53C499.56 288.373 499.843 288.306 500.16 288.347C503.743 288.873 506.635 289.239 510.385 290.03C517.052 291.697 524.656 297.18 527.573 304.887Z" fill="#FF90E8" stroke="black" stroke-width="3.03024" stroke-miterlimit="10" stroke-linecap="round" stroke-linejoin="round"/>
<path d="M481.111 278.735V288.894C482.769 289.911 483.111 294.227 490.311 294.227C496.511 294.227 497.578 289.552 499.302 288.535V281.468C493.028 281.794 486.919 280.761 481.111 278.735ZM495.744 290.518C495.744 291.094 495.278 291.561 494.702 291.561H484.735C484.152 291.561 483.686 291.094 483.686 290.518V284.102C483.686 283.518 484.152 283.052 484.735 283.052H486.935C487.328 283.052 487.685 283.277 487.869 283.618L489.519 286.835C489.694 287.185 490.052 287.402 490.444 287.402H494.702C495.278 287.402 495.744 287.868 495.744 288.452V290.518Z" fill="black"/>
<path d="M495.743 288.45V290.517C495.743 291.091 495.276 291.557 494.702 291.557H484.736C484.152 291.557 483.686 291.091 483.686 290.517V284.1C483.686 283.517 484.152 283.05 484.736 283.05H486.935C487.326 283.05 487.685 283.274 487.869 283.617L489.519 286.833C489.693 287.183 490.052 287.4 490.443 287.4H494.702C495.276 287.4 495.743 287.867 495.743 288.45Z" fill="#98282A"/>
<path d="M494.97 325.252C474.637 325.919 461.498 320.113 457.471 317.127C459.831 316.363 465.387 314.253 468.72 311.919C472.054 309.586 475.248 306.503 476.429 305.253C481.481 307.597 487.679 309.259 498.303 309.107C527.521 308.691 530.959 302.909 537.937 301.606C545.658 300.163 554.135 301.919 553.094 314.836C552.969 316.384 552.623 317.734 552.11 318.91C547.469 326.164 537.208 327.102 535.854 323.639C535.525 322.796 536.301 322.298 537.333 321.94C535.946 322.237 534.469 322.44 533.302 322.336C527.521 321.816 528.147 320.618 525.437 320.618C522.73 320.618 520.386 324.419 494.97 325.252Z" fill="#98282A"/>
<path d="M544.761 307.441C544.761 307.441 547.469 307.753 549.345 309.107C551.219 310.462 551.619 311.065 553.128 312.531M543.251 313.456C543.251 313.456 544.934 313.721 547.469 314.836C550.073 315.981 551.049 317.899 552.11 318.91L543.251 313.456ZM552.11 318.91C547.469 326.164 537.208 327.102 535.854 323.639C535.213 321.998 538.771 321.658 540.23 321.139C544.72 319.537 537.236 322.689 533.302 322.336C527.521 321.816 528.147 320.618 525.437 320.618C522.73 320.618 520.386 324.419 494.97 325.252C474.637 325.919 461.498 320.113 457.471 317.127C459.831 316.363 465.387 314.253 468.72 311.919C472.054 309.586 475.248 306.503 476.429 305.253C481.481 307.597 487.679 309.259 498.303 309.107C527.521 308.691 530.959 302.909 537.937 301.606C545.658 300.163 554.135 301.919 553.094 314.836C552.969 316.384 552.623 317.734 552.11 318.91Z" stroke="black" stroke-width="3.03024" stroke-linecap="round"/>
<path d="M971.89 385.201C974.914 385.201 977.366 382.239 977.366 378.584C977.366 374.931 974.914 371.968 971.89 371.968C968.866 371.968 966.416 374.931 966.416 378.584C966.416 382.239 968.866 385.201 971.89 385.201Z" fill="#FFC900" stroke="black" stroke-width="3.03024" stroke-miterlimit="10" stroke-linecap="round" stroke-linejoin="round"/>
<path d="M942.078 421.736C943.482 421.736 944.62 420.598 944.62 419.194C944.62 417.791 943.482 416.653 942.078 416.653C940.675 416.653 939.537 417.791 939.537 419.194C939.537 420.598 940.675 421.736 942.078 421.736Z" fill="black"/>
<path d="M926.442 400.961C928.176 400.961 929.584 399.554 929.584 397.819C929.584 396.084 928.176 394.678 926.442 394.678C924.707 394.678 923.301 396.084 923.301 397.819C923.301 399.554 924.707 400.961 926.442 400.961Z" fill="black"/>
<path d="M895.72 408.049C897.086 408.049 898.194 406.941 898.194 405.575C898.194 404.208 897.086 403.099 895.72 403.099C894.352 403.099 893.244 404.208 893.244 405.575C893.244 406.941 894.352 408.049 895.72 408.049Z" fill="black"/>
<path d="M960.992 516.595C966.184 511.578 974.267 511.462 978.817 517.512C979.601 518.554 979.308 520.045 978.217 520.745C969.875 526.078 963.634 521.945 961.018 519.521C960.168 518.737 960.168 517.395 960.992 516.595Z" fill="#FFC900" stroke="black" stroke-width="3.03024" stroke-miterlimit="10" stroke-linecap="round" stroke-linejoin="round"/>
<path d="M834.362 520.665C834.688 519.648 834.105 518.548 833.088 518.239C825.596 515.965 820.546 519.681 820.172 523.522C819.805 527.248 832.488 526.581 834.362 520.665Z" fill="#FFC900" stroke="black" stroke-width="3.03024" stroke-miterlimit="10" stroke-linecap="round" stroke-linejoin="round"/>
<path d="M460.936 507.554C450.012 510.388 451.045 519.654 460.662 521.312C470.269 522.971 471.445 514.429 471.445 514.429C471.445 514.429 465.086 513.088 460.936 507.554Z" fill="#FFC900" stroke="black" stroke-width="3.03024" stroke-miterlimit="10" stroke-linecap="round" stroke-linejoin="round"/>
<path d="M199.26 448.756C199.984 446.832 198.927 444.715 196.967 444.073C190.343 441.915 186.301 444.898 186.027 448.565C185.743 452.132 196.951 454.865 199.26 448.756Z" fill="#FFC900" stroke="black" stroke-width="3.03024" stroke-miterlimit="10" stroke-linecap="round" stroke-linejoin="round"/>
<path d="M130.11 482.399C127.977 474.69 115.902 477.756 116.186 484.165C116.461 490.565 131.035 489.082 130.11 482.399Z" fill="#FFC900" stroke="black" stroke-width="3.03024" stroke-miterlimit="10" stroke-linecap="round" stroke-linejoin="round"/>
<path d="M-5.2859 462.272C-5.64422 461.589 -5.61921 460.747 -5.21089 460.097C-0.977646 453.314 9.50546 456.313 9.87212 460.706C10.2388 465.156 -0.469333 471.389 -5.2859 462.272Z" fill="#FFC900" stroke="black" stroke-width="3.03024" stroke-miterlimit="10" stroke-linecap="round" stroke-linejoin="round"/>
<path d="M28.4195 507.795C28.3611 507.212 28.1111 506.655 27.7028 506.238C23.0196 501.446 14.5948 507.97 16.2697 511.879C17.9613 515.812 29.1194 515.271 28.4195 507.795Z" fill="#FFC900" stroke="black" stroke-width="3.03024" stroke-miterlimit="10" stroke-linecap="round" stroke-linejoin="round"/>
<path d="M53.3691 466.948C53.3691 466.948 57.0024 475.672 61.6856 477.831" stroke="black" stroke-width="3.03024" stroke-miterlimit="10" stroke-linecap="round" stroke-linejoin="round"/>
<path d="M70.8109 458.087C70.8109 458.087 70.6942 463.354 72.6858 466.054" stroke="black" stroke-width="3.03024" stroke-miterlimit="10" stroke-linecap="round" stroke-linejoin="round"/>
<path d="M65.7773 509.424C65.7773 509.424 67.5356 514.65 71.7522 517.467" stroke="black" stroke-width="3.03024" stroke-miterlimit="10" stroke-linecap="round" stroke-linejoin="round"/>
<path d="M77.4854 504.547V509.963" stroke="black" stroke-width="3.03024" stroke-miterlimit="10" stroke-linecap="round" stroke-linejoin="round"/>
<path d="M92.4766 495.208V502" stroke="black" stroke-width="3.03024" stroke-miterlimit="10" stroke-linecap="round" stroke-linejoin="round"/>
<path d="M108.285 455.519C108.285 455.519 114.027 462.595 115.193 466.961" stroke="black" stroke-width="3.03024" stroke-miterlimit="10" stroke-linecap="round" stroke-linejoin="round"/>
<path d="M118.593 450.713L122.334 463.83" stroke="black" stroke-width="3.03024" stroke-miterlimit="10" stroke-linecap="round" stroke-linejoin="round"/>
<path d="M130.767 451.88L130.15 462.07" stroke="black" stroke-width="3.03024" stroke-miterlimit="10" stroke-linecap="round" stroke-linejoin="round"/>
<path d="M488.051 546.184L491.792 559.3" stroke="black" stroke-width="3.03024" stroke-miterlimit="10" stroke-linecap="round" stroke-linejoin="round"/>
<path d="M500.222 547.349L499.605 557.541" stroke="black" stroke-width="3.03024" stroke-miterlimit="10" stroke-linecap="round" stroke-linejoin="round"/>
<path d="M168.242 473.666L177.025 488.265" stroke="black" stroke-width="3.03024" stroke-miterlimit="10" stroke-linecap="round" stroke-linejoin="round"/>
<path d="M178.076 469.339L184.4 483.747" stroke="black" stroke-width="3.03024" stroke-miterlimit="10" stroke-linecap="round" stroke-linejoin="round"/>
<path d="M189.791 466.96C189.791 466.96 190.674 476.717 192.749 479.409" stroke="black" stroke-width="3.03024" stroke-miterlimit="10" stroke-linecap="round" stroke-linejoin="round"/>
<path d="M651.262 547.787C651.262 547.787 652.145 557.546 654.221 560.237" stroke="black" stroke-width="3.03024" stroke-miterlimit="10" stroke-linecap="round" stroke-linejoin="round"/>
<path d="M171.526 506.929C171.526 506.929 180.66 503.529 189.326 506.929" stroke="black" stroke-width="3.03024" stroke-miterlimit="10" stroke-linecap="round" stroke-linejoin="round"/>
<path d="M217.893 511.26L227.501 506.927" stroke="black" stroke-width="3.03024" stroke-miterlimit="10" stroke-linecap="round" stroke-linejoin="round"/>
<path d="M191.268 525.901L207.941 526.485" stroke="black" stroke-width="3.03024" stroke-miterlimit="10" stroke-linecap="round" stroke-linejoin="round"/>
<path d="M259.117 513.489C260.167 513.489 280.191 511.265 280.191 511.265" stroke="black" stroke-width="3.03024" stroke-miterlimit="10" stroke-linecap="round" stroke-linejoin="round"/>
<path d="M293.188 520.978L305.604 517.704" stroke="black" stroke-width="3.03024" stroke-miterlimit="10" stroke-linecap="round" stroke-linejoin="round"/>
<path d="M384.529 511.727L390.146 522.734" stroke="black" stroke-width="3.03024" stroke-miterlimit="10" stroke-linecap="round" stroke-linejoin="round"/>
<path d="M399.287 505.17L400.22 515.477" stroke="black" stroke-width="3.03024" stroke-miterlimit="10" stroke-linecap="round" stroke-linejoin="round"/>
<path d="M418.602 503.062L416.961 512.312" stroke="black" stroke-width="3.03024" stroke-miterlimit="10" stroke-linecap="round" stroke-linejoin="round"/>
<path d="M501.188 514.547L514.361 510.389" stroke="black" stroke-width="3.03024" stroke-miterlimit="10" stroke-linecap="round" stroke-linejoin="round"/>
<path d="M539.844 510.392L545.718 507.685" stroke="black" stroke-width="3.03024" stroke-miterlimit="10" stroke-linecap="round" stroke-linejoin="round"/>
<path d="M579.934 516.833C579.934 516.833 584.8 514.557 590.242 514.55" stroke="black" stroke-width="3.03024" stroke-miterlimit="10" stroke-linecap="round" stroke-linejoin="round"/>
<path d="M622.742 510.389H630.042" stroke="black" stroke-width="3.03024" stroke-miterlimit="10" stroke-linecap="round" stroke-linejoin="round"/>
<path d="M651.949 512.47L663.973 511.395" stroke="black" stroke-width="3.03024" stroke-miterlimit="10" stroke-linecap="round" stroke-linejoin="round"/>
<path d="M683.59 519.55L694.614 518.409" stroke="black" stroke-width="3.03024" stroke-miterlimit="10" stroke-linecap="round" stroke-linejoin="round"/>
<path d="M705.496 499.943L713.079 513.251" stroke="black" stroke-width="3.03024" stroke-miterlimit="10" stroke-linecap="round" stroke-linejoin="round"/>
<path d="M716.23 495.067C716.23 495.067 716.664 503.941 718.947 507.95" stroke="black" stroke-width="3.03024" stroke-miterlimit="10" stroke-linecap="round" stroke-linejoin="round"/>
<path d="M733.554 490.917C733.554 490.917 726.678 497.65 733.554 505.233" stroke="black" stroke-width="3.03024" stroke-miterlimit="10" stroke-linecap="round" stroke-linejoin="round"/>
<path d="M754.029 482.62L751.596 495.07" stroke="black" stroke-width="3.03024" stroke-miterlimit="10" stroke-linecap="round" stroke-linejoin="round"/>
<path d="M765.055 456.845L762.48 469.304" stroke="black" stroke-width="3.03024" stroke-miterlimit="10" stroke-linecap="round" stroke-linejoin="round"/>
<path d="M738.854 516.4C738.854 516.4 744.579 514.683 748.446 515.4" stroke="black" stroke-width="3.03024" stroke-miterlimit="10" stroke-linecap="round" stroke-linejoin="round"/>
<path d="M770.496 521.275C770.496 521.275 774.646 519.416 777.513 519.559" stroke="black" stroke-width="3.03024" stroke-miterlimit="10" stroke-linecap="round" stroke-linejoin="round"/>
<path d="M789.255 489.781C789.255 489.781 784.247 498.23 786.247 501.523" stroke="black" stroke-width="3.03024" stroke-miterlimit="10" stroke-linecap="round" stroke-linejoin="round"/>
<path d="M805.146 487.768L799.562 495.644" stroke="black" stroke-width="3.03024" stroke-miterlimit="10" stroke-linecap="round" stroke-linejoin="round"/>
<path d="M818.313 468.304C818.313 468.304 813.013 479.611 816.455 482.619" stroke="black" stroke-width="3.03024" stroke-miterlimit="10" stroke-linecap="round" stroke-linejoin="round"/>
<path d="M829.053 490.917C829.053 490.917 829.194 500.943 832.777 502.226" stroke="black" stroke-width="3.03024" stroke-miterlimit="10" stroke-linecap="round" stroke-linejoin="round"/>
<path d="M845.66 485.331V495.638" stroke="black" stroke-width="3.03024" stroke-miterlimit="10" stroke-linecap="round" stroke-linejoin="round"/>
<path d="M861.412 469.298V481.322" stroke="black" stroke-width="3.03024" stroke-miterlimit="10" stroke-linecap="round" stroke-linejoin="round"/>
<path d="M878.441 455.987H890.474" stroke="black" stroke-width="3.03024" stroke-miterlimit="10" stroke-linecap="round" stroke-linejoin="round"/>
<path d="M61.877 545.337H73.9099" stroke="black" stroke-width="3.03024" stroke-miterlimit="10" stroke-linecap="round" stroke-linejoin="round"/>
<path d="M906.076 455.981L916.193 455.122" stroke="black" stroke-width="3.03024" stroke-miterlimit="10" stroke-linecap="round" stroke-linejoin="round"/>
<path d="M89.5127 545.337L99.6292 544.479" stroke="black" stroke-width="3.03024" stroke-miterlimit="10" stroke-linecap="round" stroke-linejoin="round"/>
<path d="M893.912 482.621L903.079 481.329" stroke="black" stroke-width="3.03024" stroke-miterlimit="10" stroke-linecap="round" stroke-linejoin="round"/>
<path d="M919.969 479.755H926.126" stroke="black" stroke-width="3.03024" stroke-miterlimit="10" stroke-linecap="round" stroke-linejoin="round"/>
<path d="M929.277 454.271C929.277 454.271 924.268 463.287 927.268 466.295" stroke="black" stroke-width="3.03024" stroke-miterlimit="10" stroke-linecap="round" stroke-linejoin="round"/>
<path d="M112.711 543.62C112.711 543.62 107.703 552.637 110.703 555.646" stroke="black" stroke-width="3.03024" stroke-miterlimit="10" stroke-linecap="round" stroke-linejoin="round"/>
<path d="M949.603 448.394C949.603 448.394 943.444 459.134 946.594 462.134" stroke="black" stroke-width="3.03024" stroke-miterlimit="10" stroke-linecap="round" stroke-linejoin="round"/>
<path d="M133.035 537.749C133.035 537.749 126.877 548.491 130.027 551.491" stroke="black" stroke-width="3.03024" stroke-miterlimit="10" stroke-linecap="round" stroke-linejoin="round"/>
<path d="M964.783 449.251C964.783 449.251 960.917 455.984 961.634 458.843" stroke="black" stroke-width="3.03024" stroke-miterlimit="10" stroke-linecap="round" stroke-linejoin="round"/>
<path d="M148.218 538.608C148.218 538.608 144.351 545.342 145.068 548.199" stroke="black" stroke-width="3.03024" stroke-miterlimit="10" stroke-linecap="round" stroke-linejoin="round"/>
<path d="M893.909 501.516C893.909 501.516 893.476 515.833 900.785 514.975" stroke="black" stroke-width="3.03024" stroke-miterlimit="10" stroke-linecap="round" stroke-linejoin="round"/>
<path d="M911.134 503.801C911.134 503.801 909.942 513.534 915.242 513.677" stroke="black" stroke-width="3.03024" stroke-miterlimit="10" stroke-linecap="round" stroke-linejoin="round"/>
<path d="M927.794 496.576C927.794 496.576 927.644 504.666 926.311 508.742" stroke="black" stroke-width="3.03024" stroke-miterlimit="10" stroke-linecap="round" stroke-linejoin="round"/>
<path d="M943.874 488.349C943.874 488.349 939.724 497.223 940.441 500.373" stroke="black" stroke-width="3.03024" stroke-miterlimit="10" stroke-linecap="round" stroke-linejoin="round"/>
<path d="M966.408 473.99L973.625 472.89" stroke="black" stroke-width="3.03024" stroke-miterlimit="10" stroke-linecap="round" stroke-linejoin="round"/>
<path d="M177.883 539.686L190.031 540.469" stroke="black" stroke-width="3.03024" stroke-miterlimit="10" stroke-linecap="round" stroke-linejoin="round"/>
<path d="M38.6711 432.901H-159.624V307.945C-142.558 301.145 -124.551 312.228 -119.767 327.595C-106.918 326.078 -90.8012 334.644 -90.8012 350.511C-79.9681 350.261 -67.8767 352.277 -62.8435 374.944C-49.2354 366.886 -35.3857 373.186 -31.1025 391.319C-10.4529 385.527 -9.94455 406.935 -9.94455 406.935C-9.94455 406.935 4.41347 398.626 9.95503 416.002C23.8047 414.993 34.1378 421.043 38.6711 432.901Z" fill="#FFC900" stroke="black" stroke-width="3.03024" stroke-miterlimit="10" stroke-linecap="round" stroke-linejoin="round"/>
<path d="M77.1856 160.074H-159.275V55.5511C-134.102 55.5511 -128.677 78.1757 -128.677 78.1757C-104.694 67.3176 -92.2526 83.3756 -90.8942 91.9754C-69.028 84.4755 -56.9616 98.9919 -56.2783 107.808C-43.4619 99.2002 -23.0207 104.867 -22.1207 119.8C-7.31261 109.542 4.39547 123.591 2.40385 130.266C15.5202 118.558 28.8699 127.558 28.5199 137.341C40.9363 128.158 53.4611 138.808 51.5861 146.308C64.8192 143.033 77.1856 160.074 77.1856 160.074Z" fill="white" stroke="black" stroke-width="3.03024" stroke-miterlimit="10" stroke-linecap="round" stroke-linejoin="round"/>
<path d="M190.269 432.895H38.6711C34.1378 421.037 23.8047 414.987 9.95504 415.996C4.41348 398.62 -9.94455 406.929 -9.94455 406.929C-9.94455 406.929 -10.4529 385.521 -31.1025 391.313C-35.3857 373.18 -49.2354 366.88 -62.8435 374.938C-67.8767 352.271 -79.9681 350.255 -90.8012 350.505C-90.8012 334.638 -106.918 326.072 -119.767 327.589C-124.551 312.222 -142.558 301.139 -159.624 307.939V138.218C-146.825 133.976 -140.525 146.143 -140.342 156.101C-122.276 153.151 -116.001 166.609 -115.084 177.125C-100.701 173.251 -89.6346 183.392 -90.7429 203.491C-70.8266 200.725 -62.9018 214.924 -61.2435 235.024C-41.1439 231.333 -33.9524 246.266 -38.9273 260.282C-26.5776 258.807 -19.3861 269.499 -18.8277 284.199C-4.07801 284.699 -1.3114 294.389 -5.00299 310.989C7.72174 310.806 13.9883 317.998 12.1467 332.748C22.1048 325.555 37.2211 328.789 36.1211 346.022C53.2624 337.722 63.9622 340.122 66.3621 358.38C73.5453 354.871 85.1618 351.921 90.145 366.304C104.345 356.53 116.086 359.03 114.994 375.454C125.669 372.171 133.611 375.18 136.619 388.871C150.577 383.937 157.419 392.971 156.327 404.47C161.253 402.004 175.76 403.646 174.393 416.787C191.093 417.879 190.269 432.895 190.269 432.895Z" fill="#23A094" stroke="black" stroke-width="3.03024" stroke-miterlimit="10" stroke-linecap="round" stroke-linejoin="round"/>
<path d="M140.793 413.7C142.114 413.7 143.185 412.629 143.185 411.309C143.185 409.988 142.114 408.917 140.793 408.917C139.472 408.917 138.401 409.988 138.401 411.309C138.401 412.629 139.472 413.7 140.793 413.7Z" fill="black"/>
<path d="M81.7845 421.447C83.3586 421.447 84.6345 420.171 84.6345 418.597C84.6345 417.023 83.3586 415.747 81.7845 415.747C80.2106 415.747 78.9346 417.023 78.9346 418.597C78.9346 420.171 80.2106 421.447 81.7845 421.447Z" fill="black"/>
<path d="M110.153 400.254C111.851 400.254 113.228 398.877 113.228 397.178C113.228 395.48 111.851 394.104 110.153 394.104C108.455 394.104 107.078 395.48 107.078 397.178C107.078 398.877 108.455 400.254 110.153 400.254Z" fill="black"/>
<path d="M76.5527 397.064C77.8736 397.064 78.9444 395.993 78.9444 394.672C78.9444 393.351 77.8736 392.281 76.5527 392.281C75.2319 392.281 74.1611 393.351 74.1611 394.672C74.1611 395.993 75.2319 397.064 76.5527 397.064Z" fill="black"/>
<path d="M52.5193 400.946C54.2176 400.946 55.5942 399.569 55.5942 397.87C55.5942 396.173 54.2176 394.796 52.5193 394.796C50.821 394.796 49.4443 396.173 49.4443 397.87C49.4443 399.569 50.821 400.946 52.5193 400.946Z" fill="black"/>
<path d="M28.2535 369.4C29.5789 369.4 30.6534 368.325 30.6534 367C30.6534 365.674 29.5789 364.6 28.2535 364.6C26.928 364.6 25.8535 365.674 25.8535 367C25.8535 368.325 26.928 369.4 28.2535 369.4Z" fill="black"/>
<path d="M1.03686 354.864C2.38993 354.864 3.48681 353.767 3.48681 352.414C3.48681 351.061 2.38993 349.964 1.03686 349.964C-0.316211 349.964 -1.41309 351.061 -1.41309 352.414C-1.41309 353.767 -0.316211 354.864 1.03686 354.864Z" fill="black"/>
<path d="M669.639 263.988H846.945C846.945 263.988 842.478 255.696 831.919 258.613C829.519 252.622 821.586 250.846 812.745 257.413C808.629 250.372 799.937 242.589 789.379 252.322C782.187 241.613 767.513 241.689 760.396 246.48C753.58 235.622 737.33 232.106 719.355 235.547C713.364 236.147 705.281 241.989 705.281 241.989C705.281 241.989 697.039 232.372 681.639 239.547C666.239 246.73 669.639 263.988 669.639 263.988Z" fill="white" stroke="black" stroke-width="3.03024" stroke-miterlimit="10" stroke-linecap="round" stroke-linejoin="round"/>
<path d="M598.35 11.5432H439.051C439.051 11.5432 443.064 3.25172 452.551 6.16832C454.707 0.176787 461.834 -1.59818 469.777 4.96835C473.476 -2.07317 481.285 -9.85633 490.771 -0.123196C497.231 -10.8313 510.416 -10.7563 516.81 -5.96474C522.935 -16.8229 537.534 -20.3395 553.683 -16.8979C559.066 -16.2979 566.328 -10.4563 566.328 -10.4563C566.328 -10.4563 573.733 -20.0728 587.569 -12.8979C601.405 -5.71475 598.35 11.5432 598.35 11.5432Z" fill="white" stroke="black" stroke-width="3.03024" stroke-miterlimit="10" stroke-linecap="round" stroke-linejoin="round"/>
<path d="M253.1 113.297H82.6279C82.6279 94.7223 105.444 72.3061 124.419 98.0389C131.185 92.9973 142.193 83.2392 150.418 99.8555C159.702 92.3307 167.926 90.4724 175.759 101.489C182.793 94.7223 191.418 93.1307 195.926 102.155C202.692 96.1889 209.725 97.2472 211.184 102.955C216.758 95.7889 232.408 99.8638 232.408 99.8638L253.1 113.297Z" fill="white" stroke="black" stroke-width="3.03024" stroke-miterlimit="10" stroke-linecap="round" stroke-linejoin="round"/>
<path d="M318.848 472.475L325.922 485.324" stroke="black" stroke-width="3.03024" stroke-miterlimit="10" stroke-linecap="round" stroke-linejoin="round"/>
<path d="M330.682 471.446L333.639 485.329" stroke="black" stroke-width="3.03024" stroke-miterlimit="10" stroke-linecap="round" stroke-linejoin="round"/>
<path d="M343.279 466.687V485.329" stroke="black" stroke-width="3.03024" stroke-miterlimit="10" stroke-linecap="round" stroke-linejoin="round"/>
<path d="M634.067 468.895L627.676 485.337" stroke="black" stroke-width="3.03024" stroke-miterlimit="10" stroke-linecap="round" stroke-linejoin="round"/>
<path d="M615.93 467.42L611.014 485.329" stroke="black" stroke-width="3.03024" stroke-miterlimit="10" stroke-linecap="round" stroke-linejoin="round"/>
<path d="M602.033 466.817L602.383 485.334" stroke="black" stroke-width="3.03024" stroke-miterlimit="10" stroke-linecap="round" stroke-linejoin="round"/>
<path d="M590.043 470.705C590.301 470.881 598.417 485.338 598.417 485.338" stroke="black" stroke-width="3.03024" stroke-miterlimit="10" stroke-linecap="round" stroke-linejoin="round"/>
<path d="M534.483 214.196L529.916 207.388C529.866 207.312 529.916 207.205 530.016 207.205H534.742C534.808 207.205 534.858 207.155 534.858 207.096L535.108 203.288C535.116 203.196 535.208 203.146 535.283 203.196L538.792 205.188C538.849 205.221 538.925 205.196 538.958 205.138L541.399 200.162C541.432 200.105 541.508 200.079 541.566 200.112L545.949 202.672C546.008 202.705 546.092 202.679 546.116 202.612L548.449 196.988C548.482 196.905 548.591 196.888 548.649 196.955L552.808 201.972C552.866 202.046 552.991 202.022 553.016 201.929L555.582 193.146C555.608 193.055 555.732 193.029 555.791 193.105L558.082 195.905C558.099 195.929 558.108 195.955 558.108 195.979V207.355C558.108 207.462 557.975 207.512 557.899 207.438L554.491 203.712C554.466 203.688 554.432 203.671 554.399 203.671H552.249C552.182 203.671 552.132 203.729 552.132 203.788L552.225 210.112C552.225 210.188 552.158 210.246 552.082 210.229L549.008 209.588C548.966 209.579 548.932 209.555 548.925 209.512L546.649 203.846C546.616 203.762 546.508 203.746 546.449 203.812L544.416 206.255C544.399 206.271 544.392 206.305 544.392 206.329L544.216 214.029C544.216 214.088 544.166 214.138 544.108 214.146L541.575 214.396C541.516 214.405 541.466 214.362 541.449 214.312L539.449 207.171C539.433 207.112 539.375 207.071 539.316 207.088L536.533 207.605C536.492 207.612 536.449 207.646 536.442 207.688L534.708 214.162C534.675 214.262 534.542 214.279 534.483 214.196Z" fill="#90A8ED"/>
</g>
<defs>
<clipPath id="clip0_106_9633">
<rect width="969.677" height="545.443" fill="white" transform="translate(0.433594 0.983154)"/>
</clipPath>
</defs>
</svg>
