<svg width="970" height="547" viewBox="0 0 970 547" fill="none" xmlns="http://www.w3.org/2000/svg">
<g clip-path="url(#clip0_106_9793)">
<path d="M969.677 0.966309H0V546.409H969.677V0.966309Z" fill="white"/>
<path d="M971.864 0.966309H0V546.409H971.864V0.966309Z" fill="black"/>
<path d="M-4.63049 681.354C89.2727 681.354 165.396 605.23 165.396 511.327C165.396 417.424 89.2727 341.3 -4.63049 341.3C-98.5337 341.3 -174.657 417.424 -174.657 511.327C-174.657 605.23 -98.5337 681.354 -4.63049 681.354Z" fill="#90A8ED" stroke="black" stroke-width="3.03024"/>
<path d="M854.341 305.659C912.62 305.659 959.863 258.415 959.863 200.137C959.863 141.859 912.62 94.6147 854.341 94.6147C796.063 94.6147 748.819 141.859 748.819 200.137C748.819 258.415 796.063 305.659 854.341 305.659Z" fill="#23A094"/>
<path d="M851.164 111.596C851.109 110.647 851.911 109.851 852.847 109.697C864.233 107.847 875.193 112.769 877.993 121.175C880.654 129.148 870.977 129.964 863.229 125.755C857.357 122.571 851.555 118.075 851.164 111.596Z" stroke="black" stroke-width="3.03024" stroke-miterlimit="10"/>
<path d="M835.827 124.591L838.948 127.425" stroke="black" stroke-width="3.03024" stroke-miterlimit="10" stroke-linecap="round" stroke-linejoin="round"/>
<path d="M874.268 201.294L876.599 204.812" stroke="black" stroke-width="3.03024" stroke-miterlimit="10" stroke-linecap="round" stroke-linejoin="round"/>
<path d="M860.959 230.383L863.724 233.566" stroke="black" stroke-width="3.03024" stroke-miterlimit="10" stroke-linecap="round" stroke-linejoin="round"/>
<path d="M896.558 267.143L899.323 270.326" stroke="black" stroke-width="3.03024" stroke-miterlimit="10" stroke-linecap="round" stroke-linejoin="round"/>
<path d="M908.711 253.169L910.29 254.976" stroke="black" stroke-width="3.03024" stroke-miterlimit="10" stroke-linecap="round" stroke-linejoin="round"/>
<path d="M874.412 180.65L876.262 182.535" stroke="black" stroke-width="3.03024" stroke-miterlimit="10" stroke-linecap="round" stroke-linejoin="round"/>
<path d="M862.048 114.399L859.206 118.127" stroke="black" stroke-width="3.03024" stroke-miterlimit="10" stroke-linecap="round" stroke-linejoin="round"/>
<path d="M866.439 116.263L864.311 119.901" stroke="black" stroke-width="3.03024" stroke-miterlimit="10" stroke-linecap="round" stroke-linejoin="round"/>
<path d="M870.169 118.524L867.856 121.631" stroke="black" stroke-width="3.03024" stroke-miterlimit="10" stroke-linecap="round" stroke-linejoin="round"/>
<path d="M873.581 120.389L871.41 122.923" stroke="black" stroke-width="3.03024" stroke-miterlimit="10" stroke-linecap="round" stroke-linejoin="round"/>
<path d="M890.749 141.951C892.326 140.108 894.505 138.879 896.856 138.313C909.053 135.395 919.707 142.321 922.254 150.845C925.18 160.64 917.612 172.026 906.092 170.554C894.302 169.038 888.8 159.845 887.9 152.185C887.328 147.319 888.968 144.031 890.749 141.951Z" stroke="black" stroke-width="3.03024" stroke-miterlimit="10"/>
<path d="M897.347 145.791L895.162 148.402" stroke="black" stroke-width="3.03024" stroke-miterlimit="10" stroke-linecap="round" stroke-linejoin="round"/>
<path d="M905.963 142.192L895.658 155.463" stroke="black" stroke-width="3.03024" stroke-miterlimit="10" stroke-linecap="round" stroke-linejoin="round"/>
<path d="M910.548 145.021L898.338 160.765" stroke="black" stroke-width="3.03024" stroke-miterlimit="10" stroke-linecap="round" stroke-linejoin="round"/>
<path d="M914.151 149.537L902.924 164.08" stroke="black" stroke-width="3.03024" stroke-miterlimit="10" stroke-linecap="round" stroke-linejoin="round"/>
<path d="M916.196 154.829L909.207 164.078" stroke="black" stroke-width="3.03024" stroke-miterlimit="10" stroke-linecap="round" stroke-linejoin="round"/>
<path d="M918.102 208.335C919.079 207.964 920.119 207.797 921.16 207.824C933.097 208.174 938.452 215.7 935.862 226.074C933.161 236.875 917.179 240.142 910.29 227.359C903.699 215.141 914.004 209.877 918.102 208.335Z" stroke="black" stroke-width="3.03024" stroke-miterlimit="10"/>
<path d="M917.78 215.717L915.476 221.735" stroke="black" stroke-width="3.03024" stroke-miterlimit="10" stroke-linecap="round" stroke-linejoin="round"/>
<path d="M925.342 215.717L922.885 222.845" stroke="black" stroke-width="3.03024" stroke-miterlimit="10" stroke-linecap="round" stroke-linejoin="round"/>
<path d="M929.837 221.736L928.301 224.598" stroke="black" stroke-width="3.03024" stroke-miterlimit="10" stroke-linecap="round" stroke-linejoin="round"/>
<path d="M791.174 144.838C800.416 135.798 813.319 136.105 828.858 141.997C844.399 147.889 841.558 168.813 836.273 174.195C830.989 179.578 823.68 184.249 809.151 185.066C794.623 185.882 785.59 179.683 780.709 177.142C775.835 174.601 777.762 161.197 779.697 160.484C781.623 159.772 789.344 154.389 791.174 144.838Z" stroke="black" stroke-width="3.03024" stroke-miterlimit="10"/>
<path d="M804.563 146.193C804.563 146.193 794.189 161.587 788.583 168.275" stroke="black" stroke-width="3.03024" stroke-miterlimit="10" stroke-linecap="round" stroke-linejoin="round"/>
<path d="M812.265 149.791L795.95 171.37" stroke="black" stroke-width="3.03024" stroke-miterlimit="10" stroke-linecap="round" stroke-linejoin="round"/>
<path d="M820.377 151.792C820.377 151.792 806.994 166.516 802.561 173.539" stroke="black" stroke-width="3.03024" stroke-miterlimit="10" stroke-linecap="round" stroke-linejoin="round"/>
<path d="M826.651 152.123L810.42 173.542" stroke="black" stroke-width="3.03024" stroke-miterlimit="10" stroke-linecap="round" stroke-linejoin="round"/>
<path d="M829.998 158.989L819.791 171.954" stroke="black" stroke-width="3.03024" stroke-miterlimit="10" stroke-linecap="round" stroke-linejoin="round"/>
<path d="M805.458 215.432C804.69 213.212 803.281 211.271 801.375 209.903C794.686 205.099 788.257 200.079 783.781 199.347C777.365 198.299 763.047 202.035 760.121 210.915C756.973 220.478 758.544 234.365 769.979 243.351C781.415 252.335 782.574 271.15 793.793 277.58C805.011 284.01 804.879 276.624 823.352 289.351C841.963 288.527 854.216 290.719 860.952 283.738C867.69 276.756 864.617 267.45 860.952 263.346C857.287 259.24 852.086 249.661 849.901 245.969C847.709 242.275 828.05 239.231 815.553 229.136C809.319 224.095 806.61 218.741 805.458 215.432Z" stroke="black" stroke-width="3.03024" stroke-miterlimit="10"/>
<path d="M846.977 265.236L844.094 271.688" stroke="black" stroke-width="3.03024" stroke-miterlimit="10" stroke-linecap="round" stroke-linejoin="round"/>
<path d="M841.21 258.643L835.583 273.06" stroke="black" stroke-width="3.03024" stroke-miterlimit="10" stroke-linecap="round" stroke-linejoin="round"/>
<path d="M834.758 253.696L826.933 272.511" stroke="black" stroke-width="3.03024" stroke-miterlimit="10" stroke-linecap="round" stroke-linejoin="round"/>
<path d="M828.44 250.542L818.414 271.688" stroke="black" stroke-width="3.03024" stroke-miterlimit="10" stroke-linecap="round" stroke-linejoin="round"/>
<path d="M820.885 247.658L810.861 269.768" stroke="black" stroke-width="3.03024" stroke-miterlimit="10" stroke-linecap="round" stroke-linejoin="round"/>
<path d="M813.612 245.327L800.703 269.769" stroke="black" stroke-width="3.03024" stroke-miterlimit="10" stroke-linecap="round" stroke-linejoin="round"/>
<path d="M795.07 214.704L786.147 229.128" stroke="black" stroke-width="3.03024" stroke-miterlimit="10" stroke-linecap="round" stroke-linejoin="round"/>
<path d="M786.147 212.924L774.614 231.046" stroke="black" stroke-width="3.03024" stroke-miterlimit="10" stroke-linecap="round" stroke-linejoin="round"/>
<path d="M775.16 212.924L766.509 226.656" stroke="black" stroke-width="3.03024" stroke-miterlimit="10" stroke-linecap="round" stroke-linejoin="round"/>
<path d="M796.575 259.391L780.098 237.518L799.226 232.024C812.862 221.797 841.349 201.384 845.152 198.597C850.455 194.714 852.919 192.916 855.379 195.566C857.238 197.567 857.369 200.206 851.308 205.131C846.46 209.07 819.933 231.645 806.802 241.872L796.575 259.391Z" fill="#F1F333" stroke="black" stroke-width="3.03024"/>
<path d="M839.945 202.477L845.437 209.864M803.563 229.125L810.21 238.461L803.563 229.125Z" stroke="black" stroke-width="3.03024"/>
<path d="M120.638 394.927C113.817 397.845 109.398 395.395 105.488 393.23C104.602 392.742 103.771 392.28 102.933 391.889C100.643 390.584 97.7458 388.309 96.7755 384.783C95.9866 381.9 96.601 378.632 98.5976 375.071C106.493 381.062 113.866 387.707 120.638 394.927Z" fill="#23A094" stroke="black" stroke-width="3.03024"/>
<path d="M97.2217 374.034L98.7016 374.887C98.6668 374.95 98.6318 375.006 98.597 375.068C98.1432 374.719 97.6824 374.377 97.2217 374.034Z" fill="black"/>
<path d="M121.893 396.289C121.475 395.828 121.056 395.381 120.637 394.927C120.804 394.857 120.986 394.78 121.16 394.696L121.893 396.289Z" fill="black"/>
<path d="M80.3756 510.654C62.4647 506.674 55.4391 508.55 51.6988 516.746C27.3368 518.037 37.0621 527.286 21.84 532.196C29.8089 548.438 27.3477 560.864 27.3477 560.864H-20.2266V355.179V354.333C-0.244951 354.333 -0.841257 364.904 0.31883 368.309C2.03185 373.35 4.67728 381.763 12.6895 386.663C23.1627 393.072 22.1003 402.894 23.8133 413.205C25.2228 421.673 39.3172 440.592 49.6821 417.097C57.0762 400.335 60.589 380.451 64.98 379.768C68.4061 379.227 68.959 378.533 66.5847 399.988C65.533 409.552 61.6949 411.493 61.5323 420.502C61.3589 429.501 69.6096 426.757 59.8301 435.539C54.9946 438.868 54.2357 451.218 63.0718 459.728C62.2263 461.875 45.3671 478.929 72.1791 488.644C67.8531 498.479 68.2001 505.504 80.3756 510.654Z" fill="#23A094" stroke="black" stroke-width="3.03024"/>
<path d="M674.083 404.631C675.012 404.631 675.766 403.878 675.766 402.949C675.766 402.019 675.012 401.266 674.083 401.266C673.154 401.266 672.401 402.019 672.401 402.949C672.401 403.878 673.154 404.631 674.083 404.631Z" fill="#FBFBF9"/>
<path d="M193.25 66.7708C194.178 66.7708 194.931 66.0175 194.931 65.0883C194.931 64.1591 194.178 63.4058 193.25 63.4058C192.321 63.4058 191.566 64.1591 191.566 65.0883C191.566 66.0175 192.321 66.7708 193.25 66.7708Z" fill="#FBFBF9"/>
<path d="M723.148 427.893C725.133 427.893 726.743 426.284 726.743 424.298C726.743 422.313 725.133 420.702 723.148 420.702C721.162 420.702 719.553 422.313 719.553 424.298C719.553 426.284 721.162 427.893 723.148 427.893Z" fill="#FBFBF9"/>
<path d="M242.314 90.0328C244.3 90.0328 245.91 88.4231 245.91 86.4374C245.91 84.4517 244.3 82.842 242.314 82.842C240.329 82.842 238.719 84.4517 238.719 86.4374C238.719 88.4231 240.329 90.0328 242.314 90.0328Z" fill="#FBFBF9"/>
<path d="M701.316 384.35C702.176 384.35 702.873 383.653 702.873 382.794C702.873 381.934 702.176 381.237 701.316 381.237C700.457 381.237 699.76 381.934 699.76 382.794C699.76 383.653 700.457 384.35 701.316 384.35Z" fill="#FBFBF9"/>
<path d="M220.485 46.4858C221.344 46.4858 222.041 45.7887 222.041 44.9289C222.041 44.069 221.344 43.3721 220.485 43.3721C219.625 43.3721 218.928 44.069 218.928 44.9289C218.928 45.7887 219.625 46.4858 220.485 46.4858Z" fill="#FBFBF9"/>
<path d="M734.543 391.557C735.471 391.557 736.224 390.804 736.224 389.875C736.224 388.945 735.471 388.192 734.543 388.192C733.612 388.192 732.859 388.945 732.859 389.875C732.859 390.804 733.612 391.557 734.543 391.557Z" fill="#FBFBF9"/>
<path d="M253.708 53.6915C254.637 53.6915 255.391 52.9382 255.391 52.009C255.391 51.0797 254.637 50.3264 253.708 50.3264C252.779 50.3264 252.026 51.0797 252.026 52.009C252.026 52.9382 252.779 53.6915 253.708 53.6915Z" fill="#FBFBF9"/>
<path d="M733.585 350.171C734.645 350.171 735.504 349.31 735.504 348.25C735.504 347.191 734.645 346.33 733.585 346.33C732.524 346.33 731.665 347.191 731.665 348.25C731.665 349.31 732.524 350.171 733.585 350.171Z" fill="#FBFBF9"/>
<path d="M252.752 12.3049C253.812 12.3049 254.671 11.4453 254.671 10.385C254.671 9.32465 253.812 8.46509 252.752 8.46509C251.691 8.46509 250.832 9.32465 250.832 10.385C250.832 11.4453 251.691 12.3049 252.752 12.3049Z" fill="#FBFBF9"/>
<path d="M781.924 335.176C783.845 335.176 785.401 334.452 785.401 333.556C785.401 332.662 783.845 331.937 781.924 331.937C780.004 331.937 778.448 332.662 778.448 333.556C778.448 334.452 780.004 335.176 781.924 335.176Z" fill="#FBFBF9"/>
<path d="M817.668 353.882C818.728 353.882 819.587 353.023 819.587 351.962C819.587 350.902 818.728 350.042 817.668 350.042C816.607 350.042 815.748 350.902 815.748 351.962C815.748 353.023 816.607 353.882 817.668 353.882Z" fill="#FBFBF9"/>
<path d="M336.836 16.0158C337.896 16.0158 338.755 15.1562 338.755 14.0959C338.755 13.0356 337.896 12.176 336.836 12.176C335.775 12.176 334.916 13.0356 334.916 14.0959C334.916 15.1562 335.775 16.0158 336.836 16.0158Z" fill="#FBFBF9"/>
<path d="M804.355 382.737C805.25 382.737 805.975 382.011 805.975 381.117C805.975 380.224 805.25 379.498 804.355 379.498C803.461 379.498 802.735 380.224 802.735 381.117C802.735 382.011 803.461 382.737 804.355 382.737Z" fill="#FBFBF9"/>
<path d="M323.522 44.8773C324.416 44.8773 325.142 44.1521 325.142 43.2576C325.142 42.3631 324.416 41.6379 323.522 41.6379C322.627 41.6379 321.902 42.3631 321.902 43.2576C321.902 44.1521 322.627 44.8773 323.522 44.8773Z" fill="#FBFBF9"/>
<path d="M825.347 392.391C826.341 392.391 827.149 391.585 827.149 390.591C827.149 389.596 826.341 388.79 825.347 388.79C824.352 388.79 823.546 389.596 823.546 390.591C823.546 391.585 824.352 392.391 825.347 392.391Z" fill="#FBFBF9"/>
<path d="M344.514 54.5323C345.509 54.5323 346.315 53.7259 346.315 52.7311C346.315 51.7363 345.509 50.9299 344.514 50.9299C343.52 50.9299 342.714 51.7363 342.714 52.7311C342.714 53.7259 343.52 54.5323 344.514 54.5323Z" fill="#FBFBF9"/>
<path d="M870.091 332.899C871.02 332.899 871.774 332.146 871.774 331.217C871.774 330.288 871.02 329.534 870.091 329.534C869.162 329.534 868.409 330.288 868.409 331.217C868.409 332.146 869.162 332.899 870.091 332.899Z" fill="#FBFBF9"/>
<path d="M909.675 345.191C910.571 345.191 911.295 344.466 911.295 343.572C911.295 342.676 910.571 341.952 909.675 341.952C908.781 341.952 908.056 342.676 908.056 343.572C908.056 344.466 908.781 345.191 909.675 345.191Z" fill="#FBFBF9"/>
<path d="M883.497 401.373C883.823 400.111 882.238 398.612 879.961 398.028C877.682 397.441 875.573 397.99 875.249 399.252C874.925 400.514 876.508 402.012 878.787 402.597C881.064 403.183 883.173 402.635 883.497 401.373Z" fill="#FBFBF9"/>
<path d="M953.489 365.904C955.523 365.904 957.169 364.257 957.169 362.225C957.169 360.194 955.523 358.547 953.489 358.547C951.457 358.547 949.811 360.194 949.811 362.225C949.811 364.257 951.457 365.904 953.489 365.904Z" fill="#FBFBF9"/>
<path d="M927.625 393.465C928.611 393.465 929.411 392.664 929.411 391.677C929.411 390.69 928.611 389.89 927.625 389.89C926.637 389.89 925.837 390.69 925.837 391.677C925.837 392.664 926.637 393.465 927.625 393.465Z" fill="#FBFBF9"/>
<path d="M909.354 430.502C910.402 430.502 911.254 429.652 911.254 428.603C911.254 427.553 910.402 426.703 909.354 426.703C908.305 426.703 907.455 427.553 907.455 428.603C907.455 429.652 908.305 430.502 909.354 430.502Z" fill="#FBFBF9"/>
<path d="M958.823 440.61C960.979 440.61 962.726 438.863 962.726 436.707C962.726 434.553 960.979 432.806 958.823 432.806C956.667 432.806 954.92 434.553 954.92 436.707C954.92 438.863 956.667 440.61 958.823 440.61Z" fill="#FBFBF9"/>
<path d="M886.113 469.816C886.964 469.816 887.655 469.125 887.655 468.272C887.655 467.42 886.964 466.729 886.113 466.729C885.261 466.729 884.57 467.42 884.57 468.272C884.57 469.125 885.261 469.816 886.113 469.816Z" fill="#FBFBF9"/>
<path d="M931.925 471.725C932.978 471.725 933.831 470.872 933.831 469.819C933.831 468.767 932.978 467.913 931.925 467.913C930.872 467.913 930.019 468.767 930.019 469.819C930.019 470.872 930.872 471.725 931.925 471.725Z" fill="#FBFBF9"/>
<path d="M961.595 471.23C962.683 471.23 963.565 470.348 963.565 469.261C963.565 468.174 962.683 467.292 961.595 467.292C960.509 467.292 959.627 468.174 959.627 469.261C959.627 470.348 960.509 471.23 961.595 471.23Z" fill="#FBFBF9"/>
<path d="M945.838 300.617C946.699 300.617 947.396 299.921 947.396 299.06C947.396 298.201 946.699 297.504 945.838 297.504C944.979 297.504 944.282 298.201 944.282 299.06C944.282 299.921 944.979 300.617 945.838 300.617Z" fill="#FBFBF9"/>
<path d="M970.419 137.301C971.402 137.301 972.199 136.504 972.199 135.521C972.199 134.538 971.402 133.741 970.419 133.741C969.437 133.741 968.639 134.538 968.639 135.521C968.639 136.504 969.437 137.301 970.419 137.301Z" fill="#FBFBF9"/>
<path d="M957.665 129.378C958.725 129.378 959.584 128.518 959.584 127.458C959.584 126.397 958.725 125.538 957.665 125.538C956.604 125.538 955.745 126.397 955.745 127.458C955.745 128.518 956.604 129.378 957.665 129.378Z" fill="#FBFBF9"/>
<path d="M969.666 99.9658C970.752 99.9658 971.634 99.0843 971.634 97.9971C971.634 96.9098 970.752 96.0283 969.666 96.0283C968.578 96.0283 967.696 96.9098 967.696 97.9971C967.696 99.0843 968.578 99.9658 969.666 99.9658Z" fill="#FBFBF9"/>
<path d="M937.119 95.4233C937.975 95.4233 938.669 94.7293 938.669 93.8733C938.669 93.0174 937.975 92.3235 937.119 92.3235C936.263 92.3235 935.569 93.0174 935.569 93.8733C935.569 94.7293 936.263 95.4233 937.119 95.4233Z" fill="#FBFBF9"/>
<path d="M789.477 420.705C790.845 420.705 791.956 419.596 791.956 418.228C791.956 416.858 790.845 415.749 789.477 415.749C788.109 415.749 786.998 416.858 786.998 418.228C786.998 419.596 788.109 420.705 789.477 420.705Z" fill="#FBFBF9"/>
<path d="M782.496 447.797C783.622 447.797 784.535 446.883 784.535 445.757C784.535 444.632 783.622 443.719 782.496 443.719C781.37 443.719 780.458 444.632 780.458 445.757C780.458 446.883 781.37 447.797 782.496 447.797Z" fill="#FBFBF9"/>
<path d="M775.382 468.283C776.62 468.283 777.623 467.28 777.623 466.042C777.623 464.804 776.62 463.801 775.382 463.801C774.145 463.801 773.142 464.804 773.142 466.042C773.142 467.28 774.145 468.283 775.382 468.283Z" fill="#FBFBF9"/>
<path d="M714.002 471.314C715.093 471.314 715.978 470.43 715.978 469.339C715.978 468.248 715.093 467.363 714.002 467.363C712.911 467.363 712.026 468.248 712.026 469.339C712.026 470.43 712.911 471.314 714.002 471.314Z" fill="#FBFBF9"/>
<path d="M682.488 449.918C683.352 449.918 684.052 449.218 684.052 448.354C684.052 447.491 683.352 446.791 682.488 446.791C681.625 446.791 680.925 447.491 680.925 448.354C680.925 449.218 681.625 449.918 682.488 449.918Z" fill="#FBFBF9"/>
<path d="M657.635 473.723C658.244 473.723 658.738 473.229 658.738 472.62C658.738 472.011 658.244 471.517 657.635 471.517C657.026 471.517 656.532 472.011 656.532 472.62C656.532 473.229 657.026 473.723 657.635 473.723Z" fill="#FBFBF9"/>
<path d="M654.389 446.471C655.461 446.471 656.329 445.601 656.329 444.53C656.329 443.457 655.461 442.589 654.389 442.589C653.317 442.589 652.449 443.457 652.449 444.53C652.449 445.601 653.317 446.471 654.389 446.471Z" fill="#FBFBF9"/>
<path d="M598.628 465.97C599.474 465.97 600.157 465.286 600.157 464.442C600.157 463.596 599.474 462.913 598.628 462.913C597.784 462.913 597.1 463.596 597.1 464.442C597.1 465.286 597.784 465.97 598.628 465.97Z" fill="#FBFBF9"/>
<path d="M559.387 444.466C560.817 444.466 561.976 443.307 561.976 441.875C561.976 440.445 560.817 439.286 559.387 439.286C557.956 439.286 556.796 440.445 556.796 441.875C556.796 443.307 557.956 444.466 559.387 444.466Z" fill="#FBFBF9"/>
<path d="M557.208 405.688C558.069 405.688 558.766 404.99 558.766 404.131C558.766 403.27 558.069 402.573 557.208 402.573C556.349 402.573 555.652 403.27 555.652 404.131C555.652 404.99 556.349 405.688 557.208 405.688Z" fill="#FBFBF9"/>
<path d="M516.45 447.276C517.653 447.276 518.629 446.3 518.629 445.097C518.629 443.894 517.653 442.919 516.45 442.919C515.247 442.919 514.271 443.894 514.271 445.097C514.271 446.3 515.247 447.276 516.45 447.276Z" fill="#FBFBF9"/>
<path d="M537.941 353.895C539.633 353.895 541.005 353.277 541.005 352.513C541.005 351.75 539.633 351.13 537.941 351.13C536.249 351.13 534.876 351.75 534.876 352.513C534.876 353.277 536.249 353.895 537.941 353.895Z" fill="#FBFBF9"/>
<path d="M392.513 368.43C393.381 368.43 394.084 367.726 394.084 366.859C394.084 365.991 393.381 365.288 392.513 365.288C391.646 365.288 390.941 365.991 390.941 366.859C390.941 367.726 391.646 368.43 392.513 368.43Z" fill="#FBFBF9"/>
<path d="M367.546 413.749C368.372 412.037 368.046 410.168 366.816 409.576C365.587 408.982 363.92 409.89 363.094 411.6C362.269 413.312 362.596 415.182 363.825 415.774C365.054 416.368 366.72 415.461 367.546 413.749Z" fill="#FBFBF9"/>
<path d="M390.262 408.778C391.253 408.778 392.057 407.974 392.057 406.984C392.057 405.993 391.253 405.19 390.262 405.19C389.271 405.19 388.468 405.993 388.468 406.984C388.468 407.974 389.271 408.778 390.262 408.778Z" fill="#FBFBF9"/>
<path d="M360.278 450.939C361.277 450.939 362.086 450.13 362.086 449.131C362.086 448.133 361.277 447.324 360.278 447.324C359.28 447.324 358.471 448.133 358.471 449.131C358.471 450.13 359.28 450.939 360.278 450.939Z" fill="#FBFBF9"/>
<path d="M339.544 433.177C340.422 433.177 341.136 432.465 341.136 431.586C341.136 430.706 340.422 429.994 339.544 429.994C338.665 429.994 337.951 430.706 337.951 431.586C337.951 432.465 338.665 433.177 339.544 433.177Z" fill="#FBFBF9"/>
<path d="M332.41 462.857C333.266 462.857 333.96 462.163 333.96 461.307C333.96 460.452 333.266 459.759 332.41 459.759C331.554 459.759 330.86 460.452 330.86 461.307C330.86 462.163 331.554 462.857 332.41 462.857Z" fill="#FBFBF9"/>
<path d="M404.178 451.187C404.895 451.187 405.477 450.605 405.477 449.889C405.477 449.171 404.895 448.59 404.178 448.59C403.46 448.59 402.88 449.171 402.88 449.889C402.88 450.605 403.46 451.187 404.178 451.187Z" fill="#FBFBF9"/>
<path d="M413.33 465.413C414.162 465.413 414.838 464.738 414.838 463.905C414.838 463.072 414.162 462.397 413.33 462.397C412.497 462.397 411.821 463.072 411.821 463.905C411.821 464.738 412.497 465.413 413.33 465.413Z" fill="#FBFBF9"/>
<path d="M196.154 470.449C197.018 470.449 197.718 469.749 197.718 468.885C197.718 468.022 197.018 467.322 196.154 467.322C195.291 467.322 194.591 468.022 194.591 468.885C194.591 469.749 195.291 470.449 196.154 470.449Z" fill="#FBFBF9"/>
<path d="M240.8 458.449C241.896 458.449 242.783 457.563 242.783 456.468C242.783 455.372 241.896 454.484 240.8 454.484C239.706 454.484 238.818 455.372 238.818 456.468C238.818 457.563 239.706 458.449 240.8 458.449Z" fill="#FBFBF9"/>
<path d="M235.193 438.487C236.142 438.487 236.911 437.259 236.911 435.744C236.911 434.229 236.142 433 235.193 433C234.245 433 233.477 434.229 233.477 435.744C233.477 437.259 234.245 438.487 235.193 438.487Z" fill="#FBFBF9"/>
<path d="M248.57 411.749C249.453 411.749 250.169 411.034 250.169 410.15C250.169 409.267 249.453 408.552 248.57 408.552C247.687 408.552 246.972 409.267 246.972 410.15C246.972 411.034 247.687 411.749 248.57 411.749Z" fill="#FBFBF9"/>
<path d="M664.574 99.2062C665.735 99.2062 666.676 97.6402 666.676 95.7086C666.676 93.7768 665.735 92.2109 664.574 92.2109C663.414 92.2109 662.473 93.7768 662.473 95.7086C662.473 97.6402 663.414 99.2062 664.574 99.2062Z" fill="#FBFBF9"/>
<path d="M712.628 102.069C713.622 102.069 714.428 101.263 714.428 100.268C714.428 99.2731 713.622 98.4668 712.628 98.4668C711.632 98.4668 710.826 99.2731 710.826 100.268C710.826 101.263 711.632 102.069 712.628 102.069Z" fill="#FBFBF9"/>
<path d="M745.027 116.243C746.312 116.243 747.353 115.203 747.353 113.919C747.353 112.635 746.312 111.594 745.027 111.594C743.744 111.594 742.703 112.635 742.703 113.919C742.703 115.203 743.744 116.243 745.027 116.243Z" fill="#FBFBF9"/>
<path d="M706.219 145.04C707.228 145.04 708.048 144.221 708.048 143.21C708.048 142.2 707.228 141.381 706.219 141.381C705.208 141.381 704.389 142.2 704.389 143.21C704.389 144.221 705.208 145.04 706.219 145.04Z" fill="#FBFBF9"/>
<path d="M664.574 137.707C665.735 137.707 666.676 136.766 666.676 135.605C666.676 134.445 665.735 133.504 664.574 133.504C663.414 133.504 662.473 134.445 662.473 135.605C662.473 136.766 663.414 137.707 664.574 137.707Z" fill="#FBFBF9"/>
<path d="M664.888 198.424C665.768 198.424 666.48 197.421 666.48 196.183C666.48 194.946 665.768 193.943 664.888 193.943C664.009 193.943 663.297 194.946 663.297 196.183C663.297 197.421 664.009 198.424 664.888 198.424Z" fill="#FBFBF9"/>
<path d="M728.586 187.87C729.423 187.87 730.102 187.193 730.102 186.355C730.102 185.518 729.423 184.84 728.586 184.84C727.75 184.84 727.071 185.518 727.071 186.355C727.071 187.193 727.75 187.87 728.586 187.87Z" fill="#FBFBF9"/>
<path d="M701.639 223.398C702.603 223.398 703.384 222.616 703.384 221.653C703.384 220.689 702.603 219.907 701.639 219.907C700.675 219.907 699.894 220.689 699.894 221.653C699.894 222.616 700.675 223.398 701.639 223.398Z" fill="#FBFBF9"/>
<path d="M688.728 258.935C689.442 258.935 690.021 258.358 690.021 257.644C690.021 256.931 689.442 256.354 688.728 256.354C688.015 256.354 687.438 256.931 687.438 257.644C687.438 258.358 688.015 258.935 688.728 258.935Z" fill="#FBFBF9"/>
<path d="M660.867 256.275C661.832 256.275 662.612 255.493 662.612 254.53C662.612 253.566 661.832 252.784 660.867 252.784C659.903 252.784 659.123 253.566 659.123 254.53C659.123 255.493 659.903 256.275 660.867 256.275Z" fill="#FBFBF9"/>
<path d="M652.008 314.833C652.929 314.833 653.676 314.086 653.676 313.163C653.676 312.242 652.929 311.495 652.008 311.495C651.087 311.495 650.34 312.242 650.34 313.163C650.34 314.086 651.087 314.833 652.008 314.833Z" fill="#FBFBF9"/>
<path d="M495.193 252.837C496.74 252.837 497.993 250.828 497.993 248.347C497.993 245.869 496.74 243.858 495.193 243.858C493.648 243.858 492.395 245.869 492.395 248.347C492.395 250.828 493.648 252.837 495.193 252.837Z" fill="#FBFBF9"/>
<path d="M499.048 208.271C500.142 208.271 501.03 207.384 501.03 206.29C501.03 205.194 500.142 204.306 499.048 204.306C497.952 204.306 497.064 205.194 497.064 206.29C497.064 207.384 497.952 208.271 499.048 208.271Z" fill="#FBFBF9"/>
<path d="M539.238 163.7C540.815 163.7 542.092 162.003 542.092 159.909C542.092 157.816 540.815 156.118 539.238 156.118C537.661 156.118 536.382 157.816 536.382 159.909C536.382 162.003 537.661 163.7 539.238 163.7Z" fill="#FBFBF9"/>
<path d="M504.645 158.333C505.548 158.333 506.278 157.601 506.278 156.698C506.278 155.797 505.548 155.065 504.645 155.065C503.744 155.065 503.012 155.797 503.012 156.698C503.012 157.601 503.744 158.333 504.645 158.333Z" fill="#FBFBF9"/>
<path d="M471.219 172.454C472.411 172.454 473.377 170.939 473.377 169.069C473.377 167.198 472.411 165.683 471.219 165.683C470.028 165.683 469.062 167.198 469.062 169.069C469.062 170.939 470.028 172.454 471.219 172.454Z" fill="#FBFBF9"/>
<path d="M532.647 138.848C533.483 138.848 534.162 138.17 534.162 137.333C534.162 136.496 533.483 135.818 532.647 135.818C531.811 135.818 531.132 136.496 531.132 137.333C531.132 138.17 531.811 138.848 532.647 138.848Z" fill="#FBFBF9"/>
<path d="M81.8812 52.7526C82.718 52.7526 83.3962 52.0743 83.3962 51.2376C83.3962 50.401 82.718 49.7227 81.8812 49.7227C81.0445 49.7227 80.3662 50.401 80.3662 51.2376C80.3662 52.0743 81.0445 52.7526 81.8812 52.7526Z" fill="#FBFBF9"/>
<path d="M556.099 127.006C556.97 127.006 557.677 126.3 557.677 125.429C557.677 124.557 556.97 123.851 556.099 123.851C555.227 123.851 554.521 124.557 554.521 125.429C554.521 126.3 555.227 127.006 556.099 127.006Z" fill="#FBFBF9"/>
<path d="M105.331 40.9111C106.202 40.9111 106.908 40.2047 106.908 39.3332C106.908 38.4619 106.202 37.7554 105.331 37.7554C104.459 37.7554 103.753 38.4619 103.753 39.3332C103.753 40.2047 104.459 40.9111 105.331 40.9111Z" fill="#FBFBF9"/>
<path d="M582.354 100.93C583.13 100.93 583.759 100.302 583.759 99.5268C583.759 98.7519 583.13 98.1235 582.354 98.1235C581.58 98.1235 580.951 98.7519 580.951 99.5268C580.951 100.302 581.58 100.93 582.354 100.93Z" fill="#FBFBF9"/>
<path d="M131.588 14.8344C132.363 14.8344 132.991 14.2061 132.991 13.4311C132.991 12.6561 132.363 12.0278 131.588 12.0278C130.813 12.0278 130.185 12.6561 130.185 13.4311C130.185 14.2061 130.813 14.8344 131.588 14.8344Z" fill="#FBFBF9"/>
<path d="M516.898 104.071C518.186 104.071 519.23 103.027 519.23 101.739C519.23 100.452 518.186 99.4077 516.898 99.4077C515.61 99.4077 514.566 100.452 514.566 101.739C514.566 103.027 515.61 104.071 516.898 104.071Z" fill="#FBFBF9"/>
<path d="M66.1306 17.9761C67.4185 17.9761 68.4624 16.9321 68.4624 15.6443C68.4624 14.3565 67.4185 13.3125 66.1306 13.3125C64.8427 13.3125 63.7988 14.3565 63.7988 15.6443C63.7988 16.9321 64.8427 17.9761 66.1306 17.9761Z" fill="#FBFBF9"/>
<path d="M456.111 128.804C457.139 128.804 457.974 127.97 457.974 126.94C457.974 125.911 457.139 125.076 456.111 125.076C455.08 125.076 454.247 125.911 454.247 126.94C454.247 127.97 455.08 128.804 456.111 128.804Z" fill="#FBFBF9"/>
<path d="M5.34354 42.7145C6.37301 42.7145 7.20755 41.88 7.20755 40.8505C7.20755 39.8211 6.37301 38.9866 5.34354 38.9866C4.31407 38.9866 3.47949 39.8211 3.47949 40.8505C3.47949 41.88 4.31407 42.7145 5.34354 42.7145Z" fill="#FBFBF9"/>
<path d="M401.623 122.744C402.526 122.744 403.257 122.013 403.257 121.111C403.257 120.209 402.526 119.477 401.623 119.477C400.721 119.477 399.989 120.209 399.989 121.111C399.989 122.013 400.721 122.744 401.623 122.744Z" fill="#FBFBF9"/>
<path d="M351.566 138.618C352.469 138.618 353.201 137.886 353.201 136.984C353.201 136.082 352.469 135.351 351.566 135.351C350.664 135.351 349.933 136.082 349.933 136.984C349.933 137.886 350.664 138.618 351.566 138.618Z" fill="#FBFBF9"/>
<path d="M352.619 103.848C353.395 103.848 354.022 103.22 354.022 102.445C354.022 101.669 353.395 101.041 352.619 101.041C351.845 101.041 351.216 101.669 351.216 102.445C351.216 103.22 351.845 103.848 352.619 103.848Z" fill="#FBFBF9"/>
<path d="M388.434 177.94C389.595 177.94 390.536 176.999 390.536 175.839C390.536 174.678 389.595 173.737 388.434 173.737C387.274 173.737 386.333 174.678 386.333 175.839C386.333 176.999 387.274 177.94 388.434 177.94Z" fill="#FBFBF9"/>
<path d="M353.201 194.975C354.426 194.975 355.42 193.981 355.42 192.753C355.42 191.528 354.426 190.534 353.201 190.534C351.973 190.534 350.979 191.528 350.979 192.753C350.979 193.981 351.973 194.975 353.201 194.975Z" fill="#FBFBF9"/>
<path d="M304.665 207.693C305.568 207.693 306.299 206.255 306.299 204.482C306.299 202.708 305.568 201.27 304.665 201.27C303.763 201.27 303.031 202.708 303.031 204.482C303.031 206.255 303.763 207.693 304.665 207.693Z" fill="#FBFBF9"/>
<path d="M340.948 230.199C341.978 230.199 342.811 229.365 342.811 228.334C342.811 227.306 341.978 226.471 340.948 226.471C339.919 226.471 339.084 227.306 339.084 228.334C339.084 229.365 339.919 230.199 340.948 230.199Z" fill="#FBFBF9"/>
<path d="M334.651 271.452C335.457 271.452 336.111 270.799 336.111 269.993C336.111 269.187 335.457 268.534 334.651 268.534C333.845 268.534 333.192 269.187 333.192 269.993C333.192 270.799 333.845 271.452 334.651 271.452Z" fill="#FBFBF9"/>
<path d="M160.975 342.865C161.871 342.865 162.595 342.14 162.595 341.246C162.595 340.35 161.871 339.626 160.975 339.626C160.081 339.626 159.355 340.35 159.355 341.246C159.355 342.14 160.081 342.865 160.975 342.865Z" fill="#FBFBF9"/>
<path d="M145.693 339.802C146.742 339.802 147.592 338.95 147.592 337.902C147.592 336.853 146.742 336.003 145.693 336.003C144.644 336.003 143.794 336.853 143.794 337.902C143.794 338.95 144.644 339.802 145.693 339.802Z" fill="#FBFBF9"/>
<path d="M200.008 304.831C200.964 304.831 201.74 304.056 201.74 303.1C201.74 302.144 200.964 301.369 200.008 301.369C199.052 301.369 198.276 302.144 198.276 303.1C198.276 304.056 199.052 304.831 200.008 304.831Z" fill="#FBFBF9"/>
<path d="M195.882 280.459C196.746 280.459 197.446 279.337 197.446 277.952C197.446 276.568 196.746 275.446 195.882 275.446C195.018 275.446 194.318 276.568 194.318 277.952C194.318 279.337 195.018 280.459 195.882 280.459Z" fill="#FBFBF9"/>
<path d="M112.343 317.44C113.423 317.44 114.298 316.566 114.298 315.486C114.298 314.407 113.423 313.531 112.343 313.531C111.264 313.531 110.389 314.407 110.389 315.486C110.389 316.566 111.264 317.44 112.343 317.44Z" fill="#FBFBF9"/>
<path d="M125.616 260.946C126.85 260.946 127.85 259.945 127.85 258.711C127.85 257.478 126.85 256.478 125.616 256.478C124.382 256.478 123.382 257.478 123.382 258.711C123.382 259.945 124.382 260.946 125.616 260.946Z" fill="#FBFBF9"/>
<path d="M166.329 236.407C167.564 236.407 168.564 235.407 168.564 234.174C168.564 232.939 167.564 231.939 166.329 231.939C165.096 231.939 164.096 232.939 164.096 234.174C164.096 235.407 165.096 236.407 166.329 236.407Z" fill="#FBFBF9"/>
<path d="M177.368 200.159C178.541 200.159 179.49 199.208 179.49 198.037C179.49 196.864 178.541 195.914 177.368 195.914C176.197 195.914 175.245 196.864 175.245 198.037C175.245 199.208 176.197 200.159 177.368 200.159Z" fill="#FBFBF9"/>
<path d="M213.789 195.913C214.745 195.913 215.521 194.566 215.521 192.904C215.521 191.241 214.745 189.895 213.789 189.895C212.833 189.895 212.058 191.241 212.058 192.904C212.058 194.566 212.833 195.913 213.789 195.913Z" fill="#FBFBF9"/>
<path d="M285.361 157.843C286.364 157.843 287.176 157.03 287.176 156.028C287.176 155.025 286.364 154.213 285.361 154.213C284.358 154.213 283.546 155.025 283.546 156.028C283.546 157.03 284.358 157.843 285.361 157.843Z" fill="#FBFBF9"/>
<path d="M312.408 115.515C313.314 115.515 314.049 114.205 314.049 112.59C314.049 110.974 313.314 109.665 312.408 109.665C311.502 109.665 310.769 110.974 310.769 112.59C310.769 114.205 311.502 115.515 312.408 115.515Z" fill="#FBFBF9"/>
<path d="M258.086 126.93C258.957 126.93 259.665 126.223 259.665 125.352C259.665 124.481 258.957 123.774 258.086 123.774C257.215 123.774 256.509 124.481 256.509 125.352C256.509 126.223 257.215 126.93 258.086 126.93Z" fill="#FBFBF9"/>
<path d="M196.734 117.041C197.833 117.041 198.724 116.15 198.724 115.051C198.724 113.953 197.833 113.062 196.734 113.062C195.636 113.062 194.745 113.953 194.745 115.051C194.745 116.15 195.636 117.041 196.734 117.041Z" fill="#FBFBF9"/>
<path d="M153.297 98.8937C154.006 98.8937 154.58 98.3185 154.58 97.609C154.58 96.8996 154.006 96.3245 153.297 96.3245C152.586 96.3245 152.012 96.8996 152.012 97.609C152.012 98.3185 152.586 98.8937 153.297 98.8937Z" fill="#FBFBF9"/>
<path d="M145.861 136.241C146.798 136.241 147.557 135.01 147.557 133.491C147.557 131.972 146.798 130.74 145.861 130.74C144.924 130.74 144.164 131.972 144.164 133.491C144.164 135.01 144.924 136.241 145.861 136.241Z" fill="#FBFBF9"/>
<path d="M113.259 142.68C114.423 142.68 115.367 141.736 115.367 140.572C115.367 139.407 114.423 138.463 113.259 138.463C112.094 138.463 111.15 139.407 111.15 140.572C111.15 141.736 112.094 142.68 113.259 142.68Z" fill="#FBFBF9"/>
<path d="M68.2356 120.664C69.5619 120.664 70.6371 119.302 70.6371 117.621C70.6371 115.939 69.5619 114.577 68.2356 114.577C66.9093 114.577 65.834 115.939 65.834 117.621C65.834 119.302 66.9093 120.664 68.2356 120.664Z" fill="#FBFBF9"/>
<path d="M121.88 208.655C123.025 208.655 123.954 207.726 123.954 206.58C123.954 205.437 123.025 204.508 121.88 204.508C120.735 204.508 119.807 205.437 119.807 206.58C119.807 207.726 120.735 208.655 121.88 208.655Z" fill="#FBFBF9"/>
<path d="M62.2734 213.329C63.6731 213.329 64.8078 211.819 64.8078 209.957C64.8078 208.094 63.6731 206.585 62.2734 206.585C60.8739 206.585 59.7393 208.094 59.7393 209.957C59.7393 211.819 60.8739 213.329 62.2734 213.329Z" fill="#FBFBF9"/>
<path d="M74.6232 310.528C75.7684 310.528 76.6968 309.599 76.6968 308.456C76.6968 307.31 75.7684 306.381 74.6232 306.381C73.4781 306.381 72.5498 307.31 72.5498 308.456C72.5498 309.599 73.4781 310.528 74.6232 310.528Z" fill="#FBFBF9"/>
<path d="M818.032 482.673C819.193 482.673 820.134 481.108 820.134 479.176C820.134 477.244 819.193 475.677 818.032 475.677C816.871 475.677 815.931 477.244 815.931 479.176C815.931 481.108 816.871 482.673 818.032 482.673Z" fill="#FBFBF9"/>
<path d="M866.083 485.536C867.078 485.536 867.884 484.73 867.884 483.735C867.884 482.741 867.078 481.933 866.083 481.933C865.089 481.933 864.281 482.741 864.281 483.735C864.281 484.73 865.089 485.536 866.083 485.536Z" fill="#FBFBF9"/>
<path d="M898.485 499.71C899.769 499.71 900.81 498.67 900.81 497.386C900.81 496.101 899.769 495.061 898.485 495.061C897.202 495.061 896.161 496.101 896.161 497.386C896.161 498.67 897.202 499.71 898.485 499.71Z" fill="#FBFBF9"/>
<path d="M859.675 528.507C860.686 528.507 861.506 527.689 861.506 526.678C861.506 525.668 860.686 524.85 859.675 524.85C858.666 524.85 857.847 525.668 857.847 526.678C857.847 527.689 858.666 528.507 859.675 528.507Z" fill="#FBFBF9"/>
<path d="M818.032 521.173C819.193 521.173 820.134 520.233 820.134 519.072C820.134 517.911 819.193 516.97 818.032 516.97C816.871 516.97 815.931 517.911 815.931 519.072C815.931 520.233 816.871 521.173 818.032 521.173Z" fill="#FBFBF9"/>
<path d="M692.696 547.167C694.272 547.167 695.55 545.47 695.55 543.376C695.55 541.283 694.272 539.586 692.696 539.586C691.119 539.586 689.84 541.283 689.84 543.376C689.84 545.47 691.119 547.167 692.696 547.167Z" fill="#FBFBF9"/>
<path d="M658.103 541.799C659.005 541.799 659.736 541.069 659.736 540.166C659.736 539.264 659.005 538.532 658.103 538.532C657.2 538.532 656.47 539.264 656.47 540.166C656.47 541.069 657.2 541.799 658.103 541.799Z" fill="#FBFBF9"/>
<path d="M686.105 522.315C686.941 522.315 687.62 521.637 687.62 520.801C687.62 519.963 686.941 519.286 686.105 519.286C685.269 519.286 684.59 519.963 684.59 520.801C684.59 521.637 685.269 522.315 686.105 522.315Z" fill="#FBFBF9"/>
<path d="M235.338 436.219C236.175 436.219 236.853 435.542 236.853 434.704C236.853 433.868 236.175 433.189 235.338 433.189C234.502 433.189 233.823 433.868 233.823 434.704C233.823 435.542 234.502 436.219 235.338 436.219Z" fill="#FBFBF9"/>
<path d="M709.556 510.474C710.427 510.474 711.135 509.768 711.135 508.897C711.135 508.024 710.427 507.318 709.556 507.318C708.685 507.318 707.979 508.024 707.979 508.897C707.979 509.768 708.685 510.474 709.556 510.474Z" fill="#FBFBF9"/>
<path d="M735.811 484.397C736.587 484.397 737.214 483.768 737.214 482.994C737.214 482.218 736.587 481.591 735.811 481.591C735.037 481.591 734.408 482.218 734.408 482.994C734.408 483.768 735.037 484.397 735.811 484.397Z" fill="#FBFBF9"/>
<path d="M285.045 398.302C285.819 398.302 286.448 397.673 286.448 396.899C286.448 396.123 285.819 395.496 285.045 395.496C284.269 395.496 283.641 396.123 283.641 396.899C283.641 397.673 284.269 398.302 285.045 398.302Z" fill="#FBFBF9"/>
<path d="M670.356 487.538C671.644 487.538 672.688 486.494 672.688 485.206C672.688 483.918 671.644 482.875 670.356 482.875C669.068 482.875 668.024 483.918 668.024 485.206C668.024 486.494 669.068 487.538 670.356 487.538Z" fill="#FBFBF9"/>
<path d="M219.588 401.443C220.875 401.443 221.919 400.399 221.919 399.111C221.919 397.823 220.875 396.78 219.588 396.78C218.3 396.78 217.256 397.823 217.256 399.111C217.256 400.399 218.3 401.443 219.588 401.443Z" fill="#FBFBF9"/>
<path d="M609.569 512.271C610.598 512.271 611.433 511.437 611.433 510.407C611.433 509.378 610.598 508.543 609.569 508.543C608.539 508.543 607.704 509.378 607.704 510.407C607.704 511.437 608.539 512.271 609.569 512.271Z" fill="#FBFBF9"/>
<path d="M158.801 426.182C159.83 426.182 160.665 425.347 160.665 424.318C160.665 423.288 159.83 422.454 158.801 422.454C157.772 422.454 156.938 423.288 156.938 424.318C156.938 425.347 157.772 426.182 158.801 426.182Z" fill="#FBFBF9"/>
<path d="M555.08 506.212C555.981 506.212 556.713 505.48 556.713 504.579C556.713 503.676 555.981 502.944 555.08 502.944C554.177 502.944 553.446 503.676 553.446 504.579C553.446 505.48 554.177 506.212 555.08 506.212Z" fill="#FBFBF9"/>
<path d="M505.023 522.086C505.926 522.086 506.656 521.354 506.656 520.451C506.656 519.55 505.926 518.818 505.023 518.818C504.121 518.818 503.39 519.55 503.39 520.451C503.39 521.354 504.121 522.086 505.023 522.086Z" fill="#FBFBF9"/>
<path d="M506.078 487.316C506.852 487.316 507.481 486.687 507.481 485.913C507.481 485.137 506.852 484.51 506.078 484.51C505.302 484.51 504.675 485.137 504.675 485.913C504.675 486.687 505.302 487.316 506.078 487.316Z" fill="#FBFBF9"/>
<path d="M438.818 541.309C439.821 541.309 440.635 540.497 440.635 539.494C440.635 538.493 439.821 537.679 438.818 537.679C437.817 537.679 437.003 538.493 437.003 539.494C437.003 540.497 437.817 541.309 438.818 541.309Z" fill="#FBFBF9"/>
<path d="M465.863 498.982C466.77 498.982 467.504 497.673 467.504 496.058C467.504 494.441 466.77 493.132 465.863 493.132C464.957 493.132 464.223 494.441 464.223 496.058C464.223 497.673 464.957 498.982 465.863 498.982Z" fill="#FBFBF9"/>
<path d="M411.542 510.397C412.413 510.397 413.119 509.691 413.119 508.819C413.119 507.948 412.413 507.241 411.542 507.241C410.671 507.241 409.965 507.948 409.965 508.819C409.965 509.691 410.671 510.397 411.542 510.397Z" fill="#FBFBF9"/>
<path d="M350.192 500.509C351.29 500.509 352.181 499.618 352.181 498.518C352.181 497.42 351.29 496.529 350.192 496.529C349.093 496.529 348.202 497.42 348.202 498.518C348.202 499.618 349.093 500.509 350.192 500.509Z" fill="#FBFBF9"/>
<path d="M306.753 482.361C307.464 482.361 308.038 481.786 308.038 481.077C308.038 480.367 307.464 479.792 306.753 479.792C306.044 479.792 305.47 480.367 305.47 481.077C305.47 481.786 306.044 482.361 306.753 482.361Z" fill="#FBFBF9"/>
<path d="M299.318 519.709C300.254 519.709 301.015 518.477 301.015 516.959C301.015 515.439 300.254 514.207 299.318 514.207C298.382 514.207 297.621 515.439 297.621 516.959C297.621 518.477 298.382 519.709 299.318 519.709Z" fill="#FBFBF9"/>
<path d="M266.715 526.148C267.879 526.148 268.823 525.204 268.823 524.038C268.823 522.875 267.879 521.931 266.715 521.931C265.55 521.931 264.606 522.875 264.606 524.038C264.606 525.204 265.55 526.148 266.715 526.148Z" fill="#FBFBF9"/>
<path d="M221.692 504.132C223.018 504.132 224.094 502.77 224.094 501.088C224.094 499.408 223.018 498.044 221.692 498.044C220.367 498.044 219.291 499.408 219.291 501.088C219.291 502.77 220.367 504.132 221.692 504.132Z" fill="#FBFBF9"/>
<path d="M822.304 10.5103C823.233 10.5103 823.986 9.75701 823.986 8.82779C823.986 7.89857 823.233 7.14526 822.304 7.14526C821.374 7.14526 820.621 7.89857 820.621 8.82779C820.621 9.75701 821.374 10.5103 822.304 10.5103Z" fill="#FBFBF9"/>
<path d="M871.369 33.7725C873.354 33.7725 874.964 32.1628 874.964 30.1771C874.964 28.1914 873.354 26.5815 871.369 26.5815C869.382 26.5815 867.773 28.1914 867.773 30.1771C867.773 32.1628 869.382 33.7725 871.369 33.7725Z" fill="#FBFBF9"/>
<path d="M937.697 26.5787C939.067 26.5787 940.176 25.469 940.176 24.1003C940.176 22.7315 939.067 21.6218 937.697 21.6218C936.329 21.6218 935.22 22.7315 935.22 24.1003C935.22 25.469 936.329 26.5787 937.697 26.5787Z" fill="#FBFBF9"/>
<path d="M930.718 53.6756C931.844 53.6756 932.756 52.7627 932.756 51.6368C932.756 50.5109 931.844 49.5984 930.718 49.5984C929.592 49.5984 928.679 50.5109 928.679 51.6368C928.679 52.7627 929.592 53.6756 930.718 53.6756Z" fill="#FBFBF9"/>
<path d="M923.602 74.1615C924.84 74.1615 925.843 73.1582 925.843 71.9205C925.843 70.6828 924.84 69.6794 923.602 69.6794C922.364 69.6794 921.361 70.6828 921.361 71.9205C921.361 73.1582 922.364 74.1615 923.602 74.1615Z" fill="#FBFBF9"/>
<path d="M862.224 77.194C863.315 77.194 864.199 76.3095 864.199 75.2183C864.199 74.1271 863.315 73.2424 862.224 73.2424C861.131 73.2424 860.248 74.1271 860.248 75.2183C860.248 76.3095 861.131 77.194 862.224 77.194Z" fill="#FBFBF9"/>
<path d="M830.709 55.7917C831.573 55.7917 832.273 55.0916 832.273 54.228C832.273 53.3642 831.573 52.6641 830.709 52.6641C829.845 52.6641 829.146 53.3642 829.146 54.228C829.146 55.0916 829.845 55.7917 830.709 55.7917Z" fill="#FBFBF9"/>
<path d="M805.855 79.6034C806.464 79.6034 806.958 79.1096 806.958 78.5004C806.958 77.8911 806.464 77.3972 805.855 77.3972C805.244 77.3972 804.75 77.8911 804.75 78.5004C804.75 79.1096 805.244 79.6034 805.855 79.6034Z" fill="#FBFBF9"/>
<path d="M802.609 52.3496C803.68 52.3496 804.55 51.4807 804.55 50.4089C804.55 49.3369 803.68 48.468 802.609 48.468C801.536 48.468 800.668 49.3369 800.668 50.4089C800.668 51.4807 801.536 52.3496 802.609 52.3496Z" fill="#FBFBF9"/>
<path d="M746.849 71.8497C747.693 71.8497 748.378 71.1652 748.378 70.3207C748.378 69.4763 747.693 68.7917 746.849 68.7917C746.004 68.7917 745.32 69.4763 745.32 70.3207C745.32 71.1652 746.004 71.8497 746.849 71.8497Z" fill="#FBFBF9"/>
<path d="M707.607 50.3455C709.037 50.3455 710.198 49.1858 710.198 47.7554C710.198 46.3248 709.037 45.1653 707.607 45.1653C706.177 45.1653 705.018 46.3248 705.018 47.7554C705.018 49.1858 706.177 50.3455 707.607 50.3455Z" fill="#FBFBF9"/>
<path d="M705.43 11.561C706.289 11.561 706.986 10.864 706.986 10.0042C706.986 9.14431 706.289 8.44727 705.43 8.44727C704.569 8.44727 703.872 9.14431 703.872 10.0042C703.872 10.864 704.569 11.561 705.43 11.561Z" fill="#FBFBF9"/>
<path d="M664.671 53.1557C665.874 53.1557 666.85 52.1805 666.85 50.9775C666.85 49.7746 665.874 48.7993 664.671 48.7993C663.468 48.7993 662.494 49.7746 662.494 50.9775C662.494 52.1805 663.468 53.1557 664.671 53.1557Z" fill="#FBFBF9"/>
<path d="M538.483 14.6578C539.474 14.6578 540.277 13.8545 540.277 12.8636C540.277 11.8726 539.474 11.0693 538.483 11.0693C537.492 11.0693 536.689 11.8726 536.689 12.8636C536.689 13.8545 537.492 14.6578 538.483 14.6578Z" fill="#FBFBF9"/>
<path d="M511.229 32.3244C512.22 32.3244 513.023 31.5211 513.023 30.53C513.023 29.5392 512.22 28.7358 511.229 28.7358C510.239 28.7358 509.436 29.5392 509.436 30.53C509.436 31.5211 510.239 32.3244 511.229 32.3244Z" fill="#FBFBF9"/>
<path d="M508.498 56.8189C509.498 56.8189 510.307 56.0094 510.307 55.0108C510.307 54.0122 509.498 53.2026 508.498 53.2026C507.499 53.2026 506.69 54.0122 506.69 55.0108C506.69 56.0094 507.499 56.8189 508.498 56.8189Z" fill="#FBFBF9"/>
<path d="M487.764 39.0567C488.644 39.0567 489.356 38.3441 489.356 37.4649C489.356 36.5859 488.644 35.8733 487.764 35.8733C486.885 35.8733 486.173 36.5859 486.173 37.4649C486.173 38.3441 486.885 39.0567 487.764 39.0567Z" fill="#FBFBF9"/>
<path d="M480.629 68.7368C481.485 68.7368 482.179 68.0429 482.179 67.187C482.179 66.3311 481.485 65.6372 480.629 65.6372C479.773 65.6372 479.079 66.3311 479.079 67.187C479.079 68.0429 479.773 68.7368 480.629 68.7368Z" fill="#FBFBF9"/>
<path d="M552.398 57.0663C553.116 57.0663 553.697 56.485 553.697 55.7678C553.697 55.0506 553.116 54.4692 552.398 54.4692C551.681 54.4692 551.1 55.0506 551.1 55.7678C551.1 56.485 551.681 57.0663 552.398 57.0663Z" fill="#FBFBF9"/>
<path d="M561.551 71.287C562.384 71.287 563.058 70.6119 563.058 69.779C563.058 68.9461 562.384 68.271 561.551 68.271C560.717 68.271 560.043 68.9461 560.043 69.779C560.043 70.6119 560.717 71.287 561.551 71.287Z" fill="#FBFBF9"/>
<path d="M344.374 76.3227C345.238 76.3227 345.938 75.6226 345.938 74.759C345.938 73.8952 345.238 73.1951 344.374 73.1951C343.511 73.1951 342.811 73.8952 342.811 74.759C342.811 75.6226 343.511 76.3227 344.374 76.3227Z" fill="#FBFBF9"/>
<path d="M389.02 64.3293C390.116 64.3293 391.002 63.4416 391.002 62.3466C391.002 61.2515 390.116 60.3638 389.02 60.3638C387.925 60.3638 387.037 61.2515 387.037 62.3466C387.037 63.4416 387.925 64.3293 389.02 64.3293Z" fill="#FBFBF9"/>
<path d="M383.414 44.3676C384.363 44.3676 385.131 43.1391 385.131 41.6239C385.131 40.1086 384.363 38.8801 383.414 38.8801C382.466 38.8801 381.696 40.1086 381.696 41.6239C381.696 43.1391 382.466 44.3676 383.414 44.3676Z" fill="#FBFBF9"/>
<path d="M396.791 17.6223C397.674 17.6223 398.391 16.9066 398.391 16.0235C398.391 15.1406 397.674 14.4248 396.791 14.4248C395.909 14.4248 395.192 15.1406 395.192 16.0235C395.192 16.9066 395.909 17.6223 396.791 17.6223Z" fill="#FBFBF9"/>
<path d="M780.38 243.536L790.609 255.858C788.891 266.526 786.859 277.026 775.159 275.993C773.015 275.805 770.962 276.873 769.979 278.785C765.182 288.106 764.066 290.074 750.983 290.585C748.825 290.668 746.801 291.736 745.621 293.544C741.572 299.751 745.474 304.659 732.272 304.351C730.68 304.316 729.131 305.028 728.195 306.313C725.06 310.634 727.316 313.924 718.68 314.922C717.27 315.083 716.033 315.948 715.356 317.198C712.097 323.216 709.059 328.005 698.468 328.584C696.696 328.682 695.216 329.925 694.832 331.663C693.267 338.797 690.196 344.474 678.669 343.741C677.357 343.656 676.107 344.424 675.675 345.667C672.701 354.268 663.953 353.695 659.136 353.382C658.041 353.312 657.056 354.059 656.832 355.135C655.471 361.579 653.509 362.904 647.924 363.059C646.779 363.086 645.815 363.876 645.488 364.979C644.035 369.915 639.644 371.339 636.53 371.597C635.791 371.659 635.294 372.357 635.42 373.09C636.621 380.169 630.75 383.172 624.969 382.18C624.02 382.021 623.14 382.733 623.147 383.695C623.209 389.686 617.129 390.44 613.611 389.817C612.94 389.699 612.305 390.16 612.193 390.831C611.146 397.064 604.87 397.31 603.201 393.295C598.462 391.961 595.571 384.519 600.66 379.674C601.345 379.025 601.115 377.872 600.248 377.496C598.042 376.525 595.48 375.157 596.312 371.722C597.434 367.107 599.592 363.212 599.655 361.739C599.718 360.265 593.357 357.054 594.007 352.027C594.656 347.002 598.384 345.521 598.266 343.629C598.146 341.737 592.862 340.32 593.965 335.943C595.068 331.566 599.139 323.885 598.587 321.589C598.111 319.613 595.131 320.625 595.662 314.705C596.192 308.784 600.102 306.543 599.746 304.003C599.39 301.462 596.73 301.992 597.024 297.203C597.316 292.413 602.936 288.092 602.049 284.782C601.163 281.473 598.202 281.411 599.152 274.959C600.102 268.509 604.36 267.273 603.586 264.55C602.817 261.828 598.258 261.653 599.034 257.925C599.801 254.198 604.124 249.645 603.411 246.392C602.699 243.139 598.796 241.246 598.858 235.333C598.915 229.419 602.349 228.945 601.757 224.33C601.163 219.715 597.434 217.942 598.796 213.857C600.157 209.774 604.828 208.888 604.06 205.047C603.292 201.2 599.327 199.721 600.451 194.994C601.575 190.267 605.302 188.194 604.884 185.29C604.472 182.393 601.687 181.799 601.867 176.005C602.043 170.21 604.472 165.415 605.358 163.64C606.245 161.868 607.845 157.309 606.19 154.768C604.534 152.226 601.401 153.35 601.987 157.015C602.539 160.422 602.014 165.099 596.869 166.657C596.122 166.88 595.613 167.599 595.64 168.381C595.892 174.405 591.989 175.893 589.742 176.257C589.009 176.375 588.575 177.129 588.848 177.82C589.909 180.445 591.542 185.779 587.612 186.422C583.633 187.078 580.429 185.667 581.28 189.731C582 193.144 585.063 200.97 578.145 197.717C571.227 194.464 571.527 200.105 573.886 207.77C575.982 214.57 569.544 214.339 566.941 213.983C566.395 213.907 565.914 214.333 565.914 214.885C565.908 217.594 565.621 224.428 562.883 224.156C560.979 223.968 555.079 220.135 556.259 226.934C557.438 233.734 559.218 240.122 554.249 239.474C549.278 238.824 543.42 239.884 547.685 244.975C551.944 250.064 548.929 254.56 544.02 254.734C539.113 254.91 546.847 260.047 543.728 266.387C542.219 269.452 537.493 269.773 535.049 269.723C534.31 269.709 533.751 270.387 533.905 271.106C534.672 274.694 535.978 283.561 529.884 283.177C522.252 282.701 521.24 280.88 526.037 291.282C527.125 293.635 520.619 293.495 517.506 293.3C516.794 293.257 516.263 293.95 516.494 294.619C517.589 297.81 518.504 304.833 510.175 306.187C509.45 306.306 509.016 307.081 509.295 307.765C511.194 312.457 512.604 318.58 504.639 319.355C503.807 319.439 503.341 320.346 503.724 321.093C506.377 326.273 505.148 332.297 496.415 332.926C495.633 332.982 495.088 333.737 495.312 334.49C496.812 339.705 497.071 343.538 489.776 344.453C491.011 347.936 491.947 351.42 485.35 351.427C484.191 351.427 483.346 352.517 483.611 353.641C484.673 358.094 485.084 362.206 477.97 363.107C477 363.233 476.35 364.189 476.623 365.132C478.138 370.333 479.981 374.41 473.711 376.1C472.72 376.365 472.091 377.371 472.357 378.369C474.088 384.98 472.643 388.157 466.025 389.846C465.096 390.084 464.545 391.04 464.804 391.961C466.06 396.528 465.495 403.676 457.284 403.558C456.272 403.543 455.624 404.597 456.098 405.491C458.687 410.406 456.831 414.261 451.386 415.747C450.436 416.006 449.884 416.968 450.072 417.932C450.945 422.303 448.425 424.852 444.753 425.535C443.88 425.695 443.253 426.464 443.342 427.344C443.713 430.883 440.648 435.247 434.226 434.897C437.96 423.699 428.473 425.821 429.38 422.994C430.288 420.167 434.226 421.479 432.807 415.734C430.791 413.814 426.35 412.808 428.473 407.962C430.588 403.537 435.447 399.376 432.857 396.785C428.941 392.869 428.529 391.849 431.418 384.974C433.61 379.765 425.351 379.192 427.432 373.16C428.941 369.027 433.61 366.842 433.61 364.147C433.61 361.453 428.333 360.412 429.086 356.642C429.841 352.873 434.26 351.183 433.723 348.202C433.185 345.221 429.764 343.412 430.56 340.326C431.279 337.549 435.335 336.641 434.826 333.478C434.373 330.707 427.991 329.296 431.356 324.067C434.001 319.948 433.966 317.589 431.656 314.733C428.982 311.424 435.369 310.104 433.744 305.74C432.117 301.371 427.809 300.784 430.553 296.553C433.289 292.315 436.969 292.009 435.385 288.245C433.8 284.476 431.083 285.857 432.11 280.461C432.906 276.3 426.015 273.717 426.706 269.158C427.488 264.006 432.256 260.682 430.923 257.561C429.589 254.441 424.926 253.261 428.264 246.413C431.6 239.563 432.432 236.939 430.05 234.321C427.67 231.703 428.564 225.684 430.644 222.885C432.724 220.086 435.048 216.986 431.656 214.668C428.264 212.35 433.276 206.088 434.456 204.546C436.18 202.283 435.104 198.45 432.968 194.478C429.974 188.914 431.182 185.723 427.551 190.009C423.844 194.387 428.494 207.303 415.808 215.638C413.777 217.056 418.126 224.338 405.79 233.274C405.078 233.79 404.652 234.615 404.631 235.486C404.547 238.495 405.358 246.196 392.525 254.141C394.305 268.655 383.08 277.717 379.01 280.495C378.193 281.055 377.718 281.997 377.795 282.982C378.046 286.473 377.453 295.163 366.939 302.71C365.801 303.528 365.11 304.84 365.06 306.243C364.95 309.49 363.972 315.654 357.717 321.114C357.157 321.602 356.879 322.322 356.921 323.061C357.074 325.548 355.476 331.084 350.75 334.532C350.009 335.07 349.541 335.908 349.549 336.822C349.591 341.835 345.499 352.202 332.444 358.632C331.473 359.114 330.852 360.12 330.929 361.201C331.237 365.501 329.24 375.925 318.893 382.145C318.049 382.655 317.554 383.584 317.616 384.568C317.873 388.478 317.057 396.563 309.21 402.447C308.602 402.902 308.302 403.641 308.372 404.396C308.889 409.743 305.315 416.202 297.391 421.046C296.965 421.305 296.734 421.786 296.812 422.282C297.607 427.203 298.319 437.857 289.335 439.142C286.709 439.504 286.438 433.612 286.438 433.612C283.721 434.701 277.467 434.974 278.283 430.08C279.1 425.186 283.268 420.655 280.189 417.849C277.111 415.043 271.58 415.859 273.941 409.059C276.265 402.357 281.368 401.631 277.111 396.828C272.852 392.025 270.729 390.181 273.368 384.414C277.02 376.442 267.958 376.533 267.958 371.91C267.958 365.482 274.388 362.848 274.024 358.771C273.661 354.694 267.05 354.059 269.221 348.718C271.393 343.377 276.559 338.875 276.014 334.95C275.652 332.326 270.847 333.317 273.208 326.887C275.561 320.458 278.409 321.637 278.827 319.369C280.008 312.939 276.921 311.758 277.376 309.943C277.829 308.128 283.073 306.956 282.361 301.789C281.453 295.268 276.921 296.895 276.921 296.895C278.5 301.692 277.236 305.183 272.327 308.157C270.073 309.28 279.818 316.933 270.317 318.063C257.932 319.529 273.299 330.141 260.411 333.122C251.14 334.358 266.325 342.114 251.649 344.949C250.616 345.15 250.002 346.226 250.372 347.211C252.731 353.536 252.445 356.377 244.116 355.623C243.09 355.532 242.239 356.42 242.405 357.438C243.481 364.197 244.919 374.528 231.648 376.142C230.607 376.268 229.945 377.328 230.293 378.319C231.892 382.907 233.204 386.321 224.115 387.48C222.9 387.633 222.132 388.855 222.509 390.02C224.575 396.387 225.175 406.588 213.251 409.261C212.261 409.485 211.583 410.385 211.647 411.397C212.017 417.814 209.335 424.795 199.938 426.841C199.234 426.994 198.703 427.601 198.696 428.321C198.605 435.26 190.862 446.933 183.881 441.83C181.41 439.932 183.31 434.22 183.31 434.22C179.602 434.22 177.131 430.8 179.979 425.564C175.602 420.333 175.887 416.055 184.734 407.97C186.158 403.403 188.153 396.081 184.357 397.888C180.551 399.698 183.407 410.629 171.804 410.728C167.908 411.3 163.531 408.634 161.625 409.778C159.725 410.915 163.245 422.903 143.746 417.479C141.63 417.059 144.067 429.542 127.835 425.339C127.354 425.214 126.872 425.556 126.823 426.052C126.313 431.135 124.812 436.58 107.987 432.754C107.429 432.629 106.884 433.026 106.828 433.598C106.319 438.912 106.361 441.341 96.0492 440.189C95.7001 440.147 95.3301 440.259 95.0858 440.51C91.8883 443.848 86.9734 441.731 86.9734 441.731C87.3504 444.491 91.3508 447.631 92.8727 447.631C94.3947 447.631 95.4418 444.015 101.53 444.971C103.428 445.544 98.5834 448.204 99.4352 449.537C100.294 450.871 104.092 452.009 104.762 449.063C105.425 446.116 108.755 448.113 109.139 452.769C109.488 457.042 107.129 461.796 102.626 459.48C102.088 459.199 101.425 459.555 101.418 460.163C101.348 465.986 96.9288 469.085 90.7784 466.084C84.132 462.83 87.2596 466.914 83.7411 465.895C80.7392 465.022 77.1227 460.107 76.2362 457.678C76.0617 457.189 75.4822 456.987 75.0284 457.231C71.8169 458.942 68.4729 459.911 67.9563 454.578C67.3839 448.678 67.0976 450.11 63.1042 448.678C59.111 447.248 65.1987 440.594 63.5789 438.221C61.9593 435.839 52.1645 436.412 54.0705 430.324C55.9764 424.236 59.2995 423.664 58.4477 420.627C57.5891 417.584 52.6323 419.008 53.8261 411.97C55.0199 404.932 62.6296 408.353 63.4882 407.314C64.3469 406.267 61.8685 397.616 65.5827 397.805C69.2897 397.993 70.8117 407.411 72.8083 407.697C74.8051 407.984 76.704 403.607 79.273 404.179C81.8422 404.752 81.3675 413.311 78.9868 415.782C76.6062 418.253 82.5054 421.396 85.1653 415.782C86.3591 419.37 83.2734 424.705 81.0672 427.559C80.2713 428.586 79.999 429.912 80.3063 431.17C81.2278 434.912 83.3152 439.897 85.996 434.235C87.5319 431.079 88.8445 423.358 96.4611 430.883C98.8138 432.739 99.9657 431.015 100.573 426.421C101.208 421.605 110.27 426.897 111.988 423.567C113.698 420.236 117.203 416.62 127.207 418.052C127.947 418.052 126.886 410.853 137.504 412.125C138.14 412.2 138.761 411.879 139.068 411.322C140.234 409.22 141.965 405.114 150.273 406.217C150.978 406.308 151.669 405.946 151.998 405.31C153.08 403.216 155.042 398.838 164.327 400.535C164.927 400.646 165.534 400.394 165.89 399.899C167.398 397.798 171.964 392.722 178.757 396.346C179.399 396.688 180.349 396.499 180.837 395.961C183.476 393.058 186.122 390.139 189.432 393.204C192.937 396.451 195.785 398.287 190.45 404.661C189.906 405.317 189.969 406.273 190.59 406.846C193.676 409.702 195.344 412.69 191.609 416.32C191.156 416.759 191.114 417.485 191.534 417.961C193.062 419.685 190.003 423.741 188.964 425.508C191.561 427.826 192.678 428.474 194.905 422.164C197.132 415.852 200.567 409.352 199.729 404.34C200.567 402.294 206.13 403.69 206.13 403.69C206.13 403.69 201.956 395.152 204.365 392.275C206.78 389.399 210.424 389.064 211.415 388.931C212.735 388.757 210.298 379.277 213.182 378.536C216.065 377.796 222.648 378.348 219.033 374.172C215.417 369.998 219.591 362.757 225.812 361.18C227.389 359.973 224.974 348.836 226.928 346.791C228.883 344.746 236.863 347.071 236.584 341.87C236.325 337.087 236.304 329.087 244.402 328.702C245.639 328.647 246.539 327.508 246.343 326.287C245.666 321.972 244.627 315.361 247.349 314.299C250.693 313.001 255.328 315.417 255.796 301.768C255.705 299.074 257.373 296.197 263.503 297.594C266.199 298.333 267.128 281.815 269.353 280.608C271.58 279.4 275.574 281.997 277.802 272.25C280.029 262.505 292.05 261.094 290.465 276.929C290.577 278.402 296.574 280.664 290.012 290.954C288.93 291.603 296.239 297.23 289.523 306.634C288.992 307.381 289.027 308.387 289.6 309.105C291.121 311.033 293.203 314.977 288.679 319.711C288.113 320.304 288.154 321.26 288.776 321.792C292.636 325.135 295.088 330.413 289.062 335.488C288.47 335.991 288.483 336.899 289.048 337.423C293.195 341.249 294.801 346.143 289.753 350.617C289 351.28 288.93 352.453 289.669 353.138C292.882 356.091 294.892 361.153 288.957 366.66C288.106 367.457 288.266 368.866 289.279 369.447C293.524 371.875 295.554 375.457 292.141 381.831C291.701 382.648 292.029 383.654 292.839 384.107C297.139 386.516 296.266 389.699 291.192 394.363C290.445 395.048 290.569 396.242 291.415 396.793C296.657 400.22 298.124 407.167 290.577 417.053C294.424 418.638 299.848 414.337 300.413 405.178C300.951 396.513 300.574 387.954 310.481 386.187C311.389 386.027 311.996 385.119 311.78 384.219C309.783 376.016 313.357 367.219 321.735 365.592C322.67 365.41 323.278 364.503 323.145 363.56C322.432 358.353 321.155 347.538 333.135 346.75C334.169 346.68 335.02 345.918 335.223 344.906C336.061 340.662 338.741 330.287 345.143 328.828C346.518 328.514 347.53 327.02 347.399 325.61C346.658 317.364 346.317 306.781 356.788 304.184C357.794 303.933 358.45 302.969 358.359 301.936C357.654 293.915 358.045 284.426 372.084 282.856C373.418 282.709 374.443 281.62 374.465 280.273C374.556 275.029 372.831 265.891 382.654 262.944C383.569 262.672 384.211 261.87 384.239 260.92C384.461 252.416 386.648 242.483 398.013 239.934C395.095 230.013 400.708 224.456 404.666 222.41C405.559 221.95 406.125 221.013 406.076 220.009C405.762 213.341 408.847 205.299 416.562 202.409C417.427 202.088 418.008 201.27 417.987 200.349C417.756 190.303 418.621 184.019 430.015 183.049C429.562 176.151 435.894 171.739 435.894 171.739C440.488 174.943 439.532 183.914 436.354 189.661C436.027 190.253 436.076 190.987 436.488 191.525C439.727 195.846 441.492 200.852 437.771 207.058C437.409 207.665 437.374 208.42 437.688 209.055C439.928 213.648 439.894 219.436 437.457 222.935C437.053 223.521 437.185 224.309 437.73 224.769C442.26 228.597 440.174 237.357 436.418 241.755C435.971 242.28 436.006 243.124 436.515 243.592C440.013 246.86 440.292 253.079 437.276 256.829C436.801 257.416 436.871 258.254 437.38 258.811C441.821 263.65 441.262 270.373 437.366 274.938C437.039 275.323 436.976 275.867 437.2 276.321C439.286 280.635 444.677 288.12 438.804 296.622C438.456 297.133 438.568 297.866 439.035 298.277C444.795 303.312 440.313 310.174 438.065 312.73C437.701 313.142 437.722 313.769 438.107 314.167C443.65 319.92 440.962 325.778 439.427 328.166C439.029 328.787 439.125 329.617 439.671 330.12C444.125 334.259 442.275 341.771 438.218 345.326C437.674 345.8 437.632 346.63 438.107 347.176C443.328 353.138 443.566 358.695 439.915 362.989C439.468 363.512 439.462 364.272 439.901 364.797C443.831 369.495 443.092 375.256 438.456 378.083C437.939 378.396 437.891 379.109 438.359 379.492C443.231 383.416 442.225 389.266 438.288 392.366C437.807 392.743 437.778 393.442 438.225 393.86C442.631 397.917 441.856 404.653 438.498 407.229C437.974 407.628 437.856 408.332 438.191 408.905C440.397 412.69 434.351 417.241 435.907 420.564C440.431 419.776 443.713 409.366 448.803 408.013C447.009 403.076 450.875 398.545 454.883 397.49C455.868 397.232 456.272 396.234 455.825 395.319C453.102 389.734 454.31 383.772 461.717 383.089C462.584 383.011 463.163 382.18 462.995 381.328C461.977 376.303 461.886 368.385 469.69 366.095C470.466 365.865 470.884 365.006 470.57 364.266C468.796 360.042 468.552 352.538 478.885 348.335C479.729 347.993 480.232 347.112 480.05 346.226C478.912 340.718 481.859 335.091 487.514 331.866C488.143 331.502 488.408 330.734 488.121 330.064C486.117 325.317 490.536 319.926 495.521 319.131C496.22 319.019 496.638 318.307 496.38 317.651C494.411 312.61 497.861 306.572 503.215 304.624C503.773 304.421 504.094 303.856 503.989 303.269C503.11 298.131 506.133 290.96 515.627 291.297C516.347 291.324 516.772 290.521 516.381 289.921C512.513 283.986 516.033 276.3 524.242 272.515C524.836 272.244 525.157 271.594 525.031 270.959C524.236 266.756 524.354 261.828 531.105 260.556C532.019 260.382 532.551 259.447 532.243 258.567C530.324 252.996 533.534 246.951 538.248 245.037C538.931 244.758 539.351 244.081 539.246 243.348C538.526 238.154 540.063 232.031 548.097 229.692C548.866 229.469 549.285 228.666 549.013 227.912C546.897 222.075 552.091 213.279 560.944 209.662C561.802 209.314 562.297 208.433 562.179 207.512C561.48 202.346 562.521 196.879 571.157 191.797C571.659 191.503 572.001 190.994 572.044 190.414C572.512 183.601 575.995 179.355 579.716 177.861C580.386 177.59 580.798 176.898 580.701 176.186C579.947 170.657 585.497 165.148 588.513 163.298C589.148 162.907 589.456 162.16 589.344 161.421C588.778 157.651 591.759 153.601 595.71 152.581C596.422 152.4 596.877 151.709 596.786 150.983C595.906 143.995 597.924 142.005 605.366 146.389C613.269 151.046 617.911 150.257 615.322 156.939C612.738 163.619 610.608 164.583 611.649 166.427C612.64 168.186 623.776 171.543 611.529 183.413C610.567 184.347 610.476 185.89 611.376 186.888C617.004 193.137 614.993 197.479 611.97 201.871C611.307 202.835 611.279 204.099 611.922 205.076C616.731 212.476 617.834 215.436 612.249 224.344C611.642 225.307 611.761 226.544 612.479 227.43C616.494 232.331 616.913 236.618 612.884 242.684C612.361 243.466 612.417 244.52 613.066 245.198C616.947 249.232 619.266 255.21 613.646 262.476C613.06 263.238 613.255 264.32 614.037 264.879C619.237 268.564 619.119 274.233 612.913 279.756C612.207 280.385 612.088 281.494 612.696 282.214C616.752 287.024 616.208 292.727 607.376 299.101C606.581 299.681 606.531 300.847 607.286 301.475C611.405 304.881 612.71 309.804 608.005 315.354C607.489 315.961 607.564 316.848 608.22 317.289C614.61 321.61 612.892 329.673 603.481 338.232C602.601 339.035 602.699 340.438 603.69 341.094C610.643 345.696 612.382 349.299 607.083 355.818C606.552 356.474 606.748 357.459 607.473 357.879C618.058 363.966 604.946 372.922 605.484 379.457C605.91 384.61 610.204 380.177 611.245 377.216C612.228 374.418 614.072 368.539 622.735 366.898C623.656 366.724 624.397 366.053 624.655 365.153C626.665 358.059 630.855 355.127 635.553 354.533C636.37 354.429 637.061 353.864 637.312 353.082C639.127 347.511 646.179 343.797 652.218 343.406C653.209 343.343 654.109 342.764 654.465 341.841C656.972 335.426 662.368 333.164 667.046 333.129C668.093 333.122 668.951 332.347 669.077 331.307C670.013 323.787 673.419 319.969 682.872 318.537C684.087 318.357 685.142 317.589 685.637 316.464C688.234 310.53 691.878 306.096 702.944 305.992C704.374 305.978 705.568 304.966 705.897 303.577C707.265 297.663 711.796 294.025 717.751 293.244C719.092 293.069 720.201 292.113 720.501 290.794C721.891 284.747 728.468 281.347 734.283 280.321C735.45 280.112 736.44 279.302 736.796 278.177C738.443 272.956 744.175 268.879 750.096 268.215C751.492 268.062 752.714 267.182 753.237 265.876C756.42 257.904 759.611 255.397 769.497 256.061C770.858 255.984 770.055 248.472 770.055 245.742C770.035 242.992 779.202 242.119 780.38 243.536Z" fill="white" stroke="black" stroke-width="3.03024"/>
<path d="M807.086 241.776L792.407 253.613M799.889 231.643L784.547 243.67L799.889 231.643Z" stroke="black" stroke-width="3.03024"/>
</g>
<defs>
<clipPath id="clip0_106_9793">
<rect width="969.677" height="545.443" fill="white" transform="translate(0 0.966309)"/>
</clipPath>
</defs>
</svg>
