<svg width="970" height="547" viewBox="0 0 970 547" fill="none" xmlns="http://www.w3.org/2000/svg">
<g clip-path="url(#clip0_106_9522)">
<path d="M969.677 0.983154H0V546.426H969.677V0.983154Z" fill="white"/>
<path d="M969.677 0.983154H0V546.426H969.677V0.983154Z" fill="black"/>
<path d="M972.733 67.0802H537.298V480.334H972.733V67.0802Z" fill="#FF7051" stroke="black" stroke-width="3.03024"/>
<path d="M764.931 93.9649H745.772V80.1649C746.757 75.7941 750.489 72.6078 754.798 72.3628C759.487 72.0972 763.837 75.3856 764.931 80.1649C764.931 84.7671 764.931 89.3694 764.931 93.9649Z" fill="black"/>
<path d="M755.354 85.3623C756.889 85.3623 758.133 84.1157 758.133 82.5779C758.133 81.0399 756.889 79.7932 755.354 79.7932C753.818 79.7932 752.574 81.0399 752.574 82.5779C752.574 84.1157 753.818 85.3623 755.354 85.3623Z" fill="#E2442F"/>
<path d="M754.974 457.178C855.946 457.178 937.799 375.186 937.799 274.043C937.799 172.901 855.946 90.908 754.974 90.908C654.003 90.908 572.15 172.901 572.15 274.043C572.15 375.186 654.003 457.178 754.974 457.178Z" fill="black"/>
<path d="M754.971 457.186C855.944 457.186 937.799 375.192 937.799 274.047C937.799 172.902 855.944 90.908 754.971 90.908C653.998 90.908 572.143 172.902 572.143 274.047C572.143 375.192 653.998 457.186 754.971 457.186Z" fill="#90A8ED"/>
<path d="M754.97 425.865C714.483 425.865 676.421 410.07 647.802 381.395C619.182 352.718 603.406 314.6 603.406 274.044C603.406 233.488 619.174 195.363 647.802 166.694C676.429 138.024 714.49 122.223 754.97 122.223C795.451 122.223 833.518 138.018 862.139 166.694C890.759 195.369 906.533 233.495 906.533 274.044C906.533 314.593 890.765 352.726 862.139 381.395C833.511 410.064 795.457 425.865 754.97 425.865Z" fill="#B23386"/>
<path d="M754.97 394.545C722.836 394.545 692.626 382.012 669.905 359.251C647.184 336.491 634.671 306.23 634.671 274.041C634.671 241.852 647.184 211.589 669.905 188.831C692.626 166.071 722.836 153.538 754.97 153.538C787.104 153.538 817.316 166.071 840.036 188.831C862.757 211.589 875.269 241.852 875.269 274.041C875.269 306.23 862.757 336.491 840.036 359.251C817.316 382.012 787.104 394.545 754.97 394.545Z" fill="#FF90E8"/>
<path d="M754.971 90.908V457.186" stroke="black" stroke-width="3.03024" stroke-miterlimit="10"/>
<path d="M937.806 274.053H572.15" stroke="black" stroke-width="3.03024" stroke-miterlimit="10"/>
<path d="M924.498 205.465L585.452 342.629" stroke="black" stroke-width="3.03024" stroke-miterlimit="10"/>
<path d="M893.771 154.827L616.199 393.261" stroke="black" stroke-width="3.03024" stroke-miterlimit="10"/>
<path d="M833.886 108.835L676.069 439.241" stroke="black" stroke-width="3.03024" stroke-miterlimit="10"/>
<path d="M835.497 438.474L674.453 109.634" stroke="black" stroke-width="3.03024" stroke-miterlimit="10"/>
<path d="M891.685 395.981L618.517 152.495" stroke="black" stroke-width="3.03024" stroke-miterlimit="10"/>
<path d="M925.695 340.249L584.656 208.123" stroke="black" stroke-width="3.03024" stroke-miterlimit="10"/>
<path d="M754.97 289.706C750.614 289.706 746.998 288.208 743.919 285.117C740.834 282.026 739.339 278.411 739.339 274.047C739.339 269.682 740.834 266.061 743.919 262.976C746.998 259.893 750.614 258.389 754.97 258.389C759.328 258.389 762.943 259.885 766.022 262.976C769.108 266.061 770.603 269.682 770.603 274.047C770.603 278.411 769.108 282.032 766.022 285.117C762.943 288.208 759.328 289.706 754.97 289.706Z" fill="black"/>
<path d="M754.97 284.595C752.034 284.595 749.601 283.588 747.522 281.505C745.442 279.421 744.436 276.984 744.436 274.043C744.436 271.102 745.442 268.664 747.522 266.581C749.601 264.497 752.034 263.49 754.97 263.49C757.906 263.49 760.34 264.503 762.42 266.581C764.499 268.664 765.505 271.102 765.505 274.043C765.505 276.984 764.499 279.421 762.42 281.505C760.34 283.588 757.906 284.595 754.97 284.595Z" fill="black"/>
<path d="M754.97 279.153C753.55 279.153 752.375 278.662 751.368 277.655C750.362 276.647 749.873 275.47 749.873 274.047C749.873 272.623 750.362 271.446 751.368 270.438C752.375 269.431 753.55 268.94 754.97 268.94C756.391 268.94 757.567 269.431 758.573 270.438C759.579 271.446 760.068 272.623 760.068 274.047C760.068 275.47 759.579 276.647 758.573 277.655C757.567 278.662 756.391 279.153 754.97 279.153Z" fill="#E2442F"/>
<path d="M447.127 274.673C441.623 283.156 431.108 289.106 431.108 289.106L431.74 285.436C431.74 285.436 425.229 290.836 418.31 293.089C418.731 291.394 419.343 288.677 419.343 288.677C419.343 288.677 410.548 293.13 405.437 294.165C405.967 292.66 406.858 289.597 406.858 289.597C402.066 292.013 394.21 293.66 394.21 293.66L398.246 288.726L384.898 291.413C384.898 291.413 394.222 279.949 394.834 272.515L394.848 271.643C394.4 264.209 384.891 252.526 384.891 252.526L398.233 255.222L394.196 250.285C394.196 250.285 402.046 251.934 406.845 254.351C406.845 254.351 405.948 251.287 405.424 249.782C410.534 250.81 419.329 255.27 419.329 255.27C419.329 255.27 418.717 252.554 418.296 250.858C425.216 253.111 431.726 258.511 431.726 258.511L431.094 254.841C431.094 254.841 441.602 260.791 447.114 269.274V274.673H447.127Z" fill="white" stroke="black" stroke-width="3.03024" stroke-miterlimit="10"/>
<path d="M513.523 273.706C507.08 281.174 497.965 283.449 487.846 283.394C487.362 283.4 486.881 283.386 486.391 283.373C485.378 283.353 484.36 283.305 483.332 283.23C482.164 283.162 480.981 283.061 479.799 282.938C478.085 282.767 476.352 282.55 474.619 282.305C464.527 280.882 450.641 274.843 450.641 274.843H387.487V269.491C387.487 269.491 438.353 269.219 453.89 269.273C461.155 265.481 467.239 260.628 482.572 259.593C483.788 259.504 485.066 259.449 486.411 259.416C487.193 259.394 488.002 259.388 488.831 259.388C489.429 259.388 490.014 259.402 490.591 259.429C491.828 259.476 493.018 259.593 494.167 259.755C503.261 261.084 509.662 265.925 513.523 273.706Z" fill="#FFC900" stroke="black" stroke-width="3.03024" stroke-miterlimit="10"/>
<path d="M495.029 269.567C494.663 275.64 492.719 280.303 491.319 283.012C490.124 283.168 488.96 283.271 487.88 283.318C487.363 283.353 486.868 283.367 486.392 283.373C485.23 283.4 484.183 283.373 483.278 283.332C481.11 283.23 479.765 283.012 479.765 283.012C479.778 282.985 479.792 282.965 479.8 282.938C481.199 280.221 483.109 275.585 483.475 269.567C483.721 265.488 483.177 262.057 482.572 259.593C483.789 259.504 485.066 259.449 486.411 259.416C487.193 259.394 488.002 259.388 488.831 259.388C489.43 259.388 490.014 259.402 490.592 259.429C491.828 259.476 493.017 259.593 494.167 259.755C494.758 262.207 495.267 265.576 495.029 269.567Z" fill="black"/>
<path d="M491.529 269.647C491.338 274.57 489.68 279.58 487.879 283.318C487.873 283.339 487.859 283.367 487.845 283.394C487.362 283.4 486.88 283.386 486.391 283.373C485.229 283.4 484.182 283.373 483.277 283.332C483.299 283.299 483.312 283.264 483.332 283.23C485.161 279.976 487.253 274.591 487.452 269.491C487.586 265.876 487.015 261.961 486.411 259.416C487.192 259.394 488.002 259.388 488.83 259.388C489.429 259.388 490.014 259.402 490.591 259.429C491.176 262.22 491.665 266.06 491.529 269.647Z" fill="black"/>
<path d="M513.522 273.705H547.573" stroke="white" stroke-width="3.03024" stroke-miterlimit="10" stroke-linecap="round" stroke-linejoin="round"/>
<path d="M671.93 225.081C666.426 233.565 655.911 239.514 655.911 239.514L656.543 235.845C656.543 235.845 650.032 241.243 643.113 243.498C643.535 241.802 644.146 239.086 644.146 239.086C644.146 239.086 635.352 243.539 630.24 244.573C630.77 243.069 631.661 240.005 631.661 240.005C626.869 242.422 619.013 244.069 619.013 244.069L623.049 239.133L609.709 241.829C609.709 241.829 619.033 230.365 619.645 222.93L619.659 222.059C619.21 214.624 609.701 202.941 609.701 202.941L623.043 205.638L619.006 200.702C619.006 200.702 626.855 202.348 631.654 204.765C631.654 204.765 630.757 201.702 630.234 200.197C635.345 201.226 644.14 205.685 644.14 205.685C644.14 205.685 643.528 202.968 643.107 201.273C650.026 203.527 656.537 208.926 656.537 208.926L655.905 205.256C655.905 205.256 666.412 211.206 671.924 219.689V225.081H671.93Z" fill="white" stroke="black" stroke-width="3.03024" stroke-miterlimit="10"/>
<path d="M738.325 224.115C731.883 231.583 722.768 233.857 712.649 233.803C712.165 233.81 711.683 233.797 711.194 233.783C710.182 233.762 709.162 233.715 708.135 233.639C706.967 233.571 705.784 233.469 704.602 233.347C702.888 233.177 701.155 232.959 699.423 232.713C689.329 231.291 675.445 225.251 675.445 225.251H612.29V219.902C612.29 219.902 663.156 219.629 678.693 219.683C685.958 215.891 692.041 211.037 707.374 210.002C708.591 209.914 709.868 209.859 711.214 209.824C711.996 209.805 712.805 209.797 713.633 209.797C714.232 209.797 714.817 209.811 715.394 209.838C716.632 209.887 717.821 210.002 718.97 210.165C728.063 211.493 734.466 216.333 738.325 224.115Z" fill="#FFC900" stroke="black" stroke-width="3.03024" stroke-miterlimit="10"/>
<path d="M719.834 219.976C719.466 226.048 717.522 230.712 716.122 233.422C714.926 233.579 713.764 233.68 712.682 233.729C712.167 233.762 711.67 233.776 711.195 233.783C710.032 233.81 708.985 233.783 708.082 233.742C705.914 233.639 704.567 233.422 704.567 233.422C704.581 233.395 704.595 233.374 704.602 233.347C706.002 230.63 707.911 225.994 708.279 219.976C708.523 215.897 707.979 212.467 707.375 210.002C708.592 209.914 709.869 209.859 711.214 209.824C711.996 209.805 712.805 209.797 713.634 209.797C714.232 209.797 714.817 209.811 715.394 209.838C716.632 209.887 717.822 210.002 718.97 210.165C719.561 212.617 720.072 215.986 719.834 219.976Z" fill="black"/>
<path d="M716.332 220.058C716.142 224.98 714.483 229.991 712.682 233.729C712.676 233.748 712.662 233.776 712.649 233.803C712.165 233.81 711.683 233.797 711.194 233.783C710.032 233.81 708.985 233.783 708.082 233.742C708.102 233.707 708.115 233.674 708.135 233.639C709.964 230.386 712.058 225 712.255 219.902C712.391 216.286 711.82 212.371 711.214 209.824C711.996 209.805 712.805 209.797 713.633 209.797C714.232 209.797 714.817 209.811 715.394 209.838C715.979 212.631 716.468 216.47 716.332 220.058Z" fill="black"/>
<path d="M738.325 224.115H772.378" stroke="black" stroke-width="3.03024" stroke-miterlimit="10" stroke-linecap="round" stroke-linejoin="round"/>
<path d="M708.122 337.734C702.617 346.215 692.102 352.167 692.102 352.167L692.736 348.497C692.736 348.497 686.224 353.895 679.306 356.148C679.727 354.453 680.337 351.738 680.337 351.738C680.337 351.738 671.544 356.189 666.432 357.224C666.962 355.72 667.853 352.656 667.853 352.656C663.06 355.073 655.204 356.721 655.204 356.721L659.241 351.785L645.9 354.48C645.9 354.48 655.224 343.015 655.836 335.582L655.85 334.71C655.401 327.276 645.893 315.593 645.893 315.593L659.235 318.289L655.197 313.352C655.197 313.352 663.047 315.001 667.845 317.417C667.845 317.417 666.948 314.354 666.425 312.849C671.536 313.877 680.331 318.337 680.331 318.337C680.331 318.337 679.719 315.621 679.298 313.925C686.217 316.178 692.728 321.578 692.728 321.578L692.096 317.908C692.096 317.908 702.604 323.858 708.116 332.341V337.734H708.122Z" fill="white" stroke="black" stroke-width="3.03024" stroke-miterlimit="10"/>
<path d="M774.517 336.767C768.074 344.235 758.959 346.509 748.84 346.455C748.357 346.461 747.875 346.447 747.385 346.433C746.373 346.414 745.354 346.365 744.326 346.291C743.158 346.223 741.975 346.121 740.793 345.999C739.08 345.827 737.346 345.611 735.614 345.365C725.521 343.943 711.636 337.903 711.636 337.903H648.481V332.552C648.481 332.552 699.347 332.279 714.885 332.334C722.15 328.543 728.233 323.688 743.566 322.654C744.782 322.564 746.06 322.51 747.405 322.476C748.187 322.455 748.996 322.449 749.825 322.449C750.423 322.449 751.008 322.463 751.585 322.49C752.823 322.537 754.013 322.654 755.161 322.817C764.255 324.145 770.656 328.985 774.517 336.767Z" fill="#FFC900" stroke="black" stroke-width="3.03024" stroke-miterlimit="10"/>
<path d="M756.026 332.628C755.658 338.7 753.714 343.364 752.314 346.073C751.119 346.23 749.957 346.332 748.875 346.379C748.36 346.414 747.863 346.427 747.387 346.433C746.225 346.461 745.178 346.433 744.275 346.393C742.107 346.291 740.76 346.073 740.76 346.073C740.773 346.046 740.787 346.026 740.795 345.999C742.195 343.282 744.104 338.646 744.472 332.628C744.716 328.549 744.172 325.117 743.567 322.654C744.784 322.564 746.061 322.51 747.408 322.476C748.188 322.455 748.997 322.449 749.828 322.449C750.425 322.449 751.01 322.463 751.587 322.49C752.825 322.537 754.014 322.654 755.162 322.817C755.753 325.267 756.264 328.637 756.026 332.628Z" fill="black"/>
<path d="M752.524 332.709C752.335 337.631 750.676 342.641 748.874 346.379C748.868 346.4 748.855 346.427 748.841 346.455C748.359 346.461 747.876 346.447 747.386 346.433C746.224 346.461 745.177 346.433 744.274 346.393C744.294 346.359 744.308 346.324 744.327 346.291C746.156 343.037 748.25 337.652 748.447 332.552C748.583 328.937 748.012 325.022 747.408 322.476C748.188 322.455 748.997 322.449 749.826 322.449C750.424 322.449 751.009 322.463 751.586 322.49C752.171 325.281 752.661 329.12 752.524 332.709Z" fill="black"/>
<path d="M774.518 336.766H808.568" stroke="black" stroke-width="3.03024" stroke-miterlimit="10" stroke-linecap="round" stroke-linejoin="round"/>
<path d="M188.85 254.707H353.408" stroke="black" stroke-width="3.03024" stroke-miterlimit="10" stroke-linecap="round" stroke-linejoin="round"/>
<path d="M163.777 269.811H372.384" stroke="black" stroke-width="3.03024" stroke-miterlimit="10" stroke-linecap="round" stroke-linejoin="round"/>
<path d="M265.094 285.826H377.422" stroke="black" stroke-width="3.03024" stroke-miterlimit="10" stroke-linecap="round" stroke-linejoin="round"/>
<path d="M193.487 421.091C189.64 418.612 178.303 409.279 166.477 399.305C187.907 421.798 205.299 446.784 185.25 439.874C176.101 436.715 158.784 422.418 144.205 409.361C151.722 418.871 146.855 429.253 137.667 426.659C135.369 426.006 133.358 424.589 131.815 422.765C132.039 423.338 140.073 444.075 118.582 436.715C101.985 431.03 87.8953 418.994 89.6353 414.623C90.6819 411.994 94.4269 408.728 94.9638 408.264C82.4036 398.904 69.6057 387.833 65.5211 382.372C57.5079 371.663 57.7458 359.504 57.7458 359.504C57.7458 359.504 38.2395 339.324 -2.83203 340.53V275.267C-2.83203 275.267 13.4933 275.703 30.2876 277.276C69.0892 280.911 109.237 305.522 120.356 318.825C121.124 319.739 122.293 320.195 123.482 320.064C128.933 319.445 134.465 319.745 137.198 319.969C138.326 320.058 139.393 320.487 140.27 321.202C145.544 325.47 164.894 341.388 166.335 346.106C167.095 353.459 164.58 370.125 164.58 370.125L164.139 370.587C178.229 384.858 196.607 404.512 202.622 415.746C205.042 420.75 205.958 429.104 193.487 421.091Z" fill="#FFC900"/>
<path d="M164.582 370.125C164.582 370.125 167.095 353.459 166.335 346.106C164.9 341.38 145.551 325.47 140.276 321.195C139.4 320.479 138.333 320.058 137.204 319.963C134.472 319.739 128.933 319.445 123.482 320.058C122.3 320.195 121.124 319.739 120.362 318.819C109.243 305.516 69.096 280.904 30.2877 277.276C13.4933 275.703 -2.83203 275.267 -2.83203 275.267V340.53C38.2397 339.324 57.7458 359.504 57.7458 359.504C57.7458 359.504 57.5079 371.663 65.521 382.38C72.0185 391.067 100.578 413.962 115.15 421.567" fill="#FFC900"/>
<path d="M164.582 370.125C164.582 370.125 167.095 353.459 166.335 346.106C164.9 341.38 145.551 325.47 140.276 321.195C139.4 320.479 138.333 320.058 137.204 319.963C134.472 319.739 128.933 319.445 123.482 320.058C122.3 320.195 121.124 319.739 120.362 318.819C109.243 305.516 69.096 280.904 30.2877 277.276C13.4933 275.703 -2.83203 275.267 -2.83203 275.267V340.53C38.2397 339.324 57.7458 359.504 57.7458 359.504C57.7458 359.504 57.5079 371.663 65.521 382.38C72.0185 391.067 100.578 413.962 115.15 421.567" stroke="black" stroke-width="3.03024" stroke-miterlimit="10" stroke-linecap="round" stroke-linejoin="round"/>
<path d="M146.535 353.283C146.535 353.283 192.406 396.672 202.621 415.749C205.04 420.753 205.957 429.114 193.486 421.093C184.338 415.211 133.017 370.678 133.017 370.678" fill="#FFC900"/>
<path d="M146.535 353.283C146.535 353.283 192.406 396.672 202.621 415.749C205.04 420.753 205.957 429.114 193.486 421.093C184.338 415.211 133.017 370.678 133.017 370.678" stroke="black" stroke-width="3.03024" stroke-miterlimit="10" stroke-linecap="round" stroke-linejoin="round"/>
<path d="M166.476 399.307C187.906 421.794 205.298 446.788 185.249 439.869C167.584 433.783 119.431 386.119 119.431 386.119" fill="#FFC900"/>
<path d="M166.476 399.307C187.906 421.794 205.298 446.788 185.249 439.869C167.584 433.783 119.431 386.119 119.431 386.119" stroke="black" stroke-width="3.03024" stroke-miterlimit="10" stroke-linecap="round" stroke-linejoin="round"/>
<path d="M144.204 409.363C151.728 418.873 146.855 429.256 137.666 426.655C135.362 426.002 133.35 424.579 131.807 422.747C122.958 412.27 114.557 399.858 107.271 397.032" fill="#FFC900"/>
<path d="M144.204 409.363C151.728 418.873 146.855 429.256 137.666 426.655C135.362 426.002 133.35 424.579 131.807 422.747C122.958 412.27 114.557 399.858 107.271 397.032" stroke="black" stroke-width="3.03024" stroke-miterlimit="10" stroke-linecap="round" stroke-linejoin="round"/>
<path d="M131.807 422.756C131.807 422.756 140.37 444.181 118.58 436.719C101.99 431.042 87.9008 418.998 89.6339 414.627C90.7554 411.794 95.0371 408.206 95.0371 408.206" fill="#FFC900"/>
<path d="M131.807 422.756C131.807 422.756 140.37 444.181 118.58 436.719C101.99 431.042 87.9008 418.998 89.6339 414.627C90.7554 411.794 95.0371 408.206 95.0371 408.206" stroke="black" stroke-width="3.03024" stroke-miterlimit="10" stroke-linecap="round" stroke-linejoin="round"/>
<path d="M126.607 251.848C121.85 163.683 66.2334 93.0351 -3.7168 85.7708" stroke="white" stroke-width="3.03024" stroke-miterlimit="10" stroke-linecap="round" stroke-linejoin="round"/>
<path d="M90.1166 251.848C86.2833 188.743 47.2167 127.572 -3.70996 122.323" stroke="white" stroke-width="3.03024" stroke-miterlimit="10" stroke-linecap="round" stroke-linejoin="round"/>
<path d="M53.7142 251.848C54.7881 213.349 37.2801 167.707 -3.7168 158.822" stroke="white" stroke-width="3.03024" stroke-miterlimit="10" stroke-linecap="round" stroke-linejoin="round"/>
<path d="M961.92 113.605C961.92 114.272 961.029 114.49 960.724 113.898C959.27 111.073 956.585 106.94 953.058 104.925C948.115 102.1 942.346 102.161 940.022 102.331C939.628 102.358 939.3 102.031 939.349 101.637C939.614 99.2061 939.675 94.5969 936.963 89.3002C934.067 83.6426 929.439 80.6266 926.305 79.1289C925.695 78.8362 925.898 77.917 926.578 77.917H961.28C961.635 77.917 961.914 78.203 961.914 78.5502V113.605H961.92Z" fill="black"/>
<path d="M548.109 113.605C548.109 114.272 549 114.49 549.306 113.898C550.761 111.073 553.446 106.94 556.973 104.925C561.914 102.1 567.685 102.161 570.009 102.331C570.403 102.358 570.729 102.031 570.682 101.637C570.416 99.2061 570.356 94.5969 573.066 89.3002C575.962 83.6426 580.59 80.6266 583.724 79.1289C584.336 78.8362 584.131 77.917 583.453 77.917H548.749C548.396 77.917 548.117 78.203 548.117 78.5502V113.605H548.109Z" fill="black"/>
<path d="M961.92 433.809C961.92 433.142 961.029 432.924 960.724 433.517C959.27 436.341 956.585 440.474 953.058 442.489C948.115 445.315 942.346 445.253 940.022 445.083C939.628 445.056 939.3 445.383 939.349 445.777C939.614 448.209 939.675 452.818 936.963 458.115C934.067 463.772 929.439 466.787 926.305 468.286C925.695 468.578 925.898 469.498 926.578 469.498H961.28C961.635 469.498 961.914 469.211 961.914 468.864V433.809H961.92Z" fill="black"/>
<path d="M548.109 433.809C548.109 433.142 549 432.924 549.306 433.517C550.761 436.341 553.446 440.474 556.973 442.489C561.914 445.315 567.685 445.253 570.009 445.083C570.403 445.056 570.729 445.383 570.682 445.777C570.416 448.209 570.356 452.818 573.066 458.115C575.962 463.772 580.59 466.787 583.724 468.286C584.336 468.578 584.131 469.498 583.453 469.498H548.749C548.396 469.498 548.117 469.211 548.117 468.864V433.809H548.109Z" fill="black"/>
</g>
<defs>
<clipPath id="clip0_106_9522">
<rect width="969.677" height="545.443" fill="white" transform="translate(0 0.983154)"/>
</clipPath>
</defs>
</svg>
