<svg width="971" height="547" viewBox="0 0 971 547" fill="none" xmlns="http://www.w3.org/2000/svg">
<g clip-path="url(#clip0_106_10246)">
<path d="M970.109 0.949463H0.432617V546.393H970.109V0.949463Z" fill="#90A8ED"/>
<g style="mix-blend-mode:multiply">
<path d="M403.74 98.0239C403.511 105.448 399.414 117.14 397.205 122.159H436.315C434.925 120.486 432.262 114.084 431.579 101.054C430.727 84.7666 425.518 80.3159 415.291 80.3159C405.064 80.3159 404.023 88.7438 403.74 98.0239Z" fill="#E7E5E4"/>
</g>
<g style="mix-blend-mode:multiply">
<path d="M403.74 98.0239C403.511 105.448 399.414 117.14 397.205 122.159H436.315C434.925 120.486 432.262 114.084 431.579 101.054C430.727 84.7666 425.518 80.3159 415.291 80.3159C405.064 80.3159 404.023 88.7438 403.74 98.0239Z" stroke="black" stroke-width="3.03024" stroke-miterlimit="10"/>
</g>
<path d="M453.479 94.4809C445.764 95.0527 442.488 96.5042 442.488 96.5042C442.488 96.5042 432.976 108.865 420.154 108.082C411.295 114.75 394.871 112.665 394.871 112.665C394.871 112.665 383.061 120.011 366.513 99.1435C364.066 96.0731 359.204 89.3168 356.561 85.6129C355.417 84.0031 353.558 83.0617 351.577 83.0705L346.795 83.1057V27.1802L434.704 27.4353C440.532 27.4353 443.35 35.8721 443.35 35.8721C454.491 35.6785 456.658 46.7634 456.658 46.7634C456.658 46.7634 466.433 45.5318 468.38 55.5608C470.132 64.5958 471.797 93.2668 453.479 94.4809Z" fill="#FF7051" stroke="black" stroke-width="3.03024" stroke-miterlimit="10"/>
<path d="M346.795 27.1871V99.432H283.414V27.0024L346.795 27.1871Z" fill="white" stroke="black" stroke-width="3.03024" stroke-miterlimit="10"/>
<path d="M283.415 26.9988V110.135H1.27039L0.432617 26.5588L283.415 26.9988Z" fill="black" stroke="black" stroke-width="3.03024" stroke-miterlimit="10"/>
<path d="M346.796 83.1094H346.488" stroke="#E2442F" stroke-width="3.03024" stroke-miterlimit="10"/>
<path d="M456.659 46.7703C459.75 59.0779 460.86 87.4937 448.486 95.0508L456.659 46.7703Z" fill="#FF7051"/>
<path d="M456.659 46.7703C459.75 59.0779 460.86 87.4937 448.486 95.0508" stroke="black" stroke-width="3.03024" stroke-miterlimit="10"/>
<path d="M443.354 35.8918C447.299 47.9708 448.487 88.6239 442.49 96.5241L443.354 35.8918Z" fill="#FF7051"/>
<path d="M443.354 35.8918C447.299 47.9708 448.487 88.6239 442.49 96.5241" stroke="black" stroke-width="3.03024" stroke-miterlimit="10"/>
<path d="M406.223 27.3635C433.778 35.8794 427.499 98.3238 420.154 108.098L406.223 27.3635Z" fill="#FF7051"/>
<path d="M406.223 27.3635C433.778 35.8794 427.499 98.3238 420.154 108.098" stroke="black" stroke-width="3.03024" stroke-miterlimit="10"/>
<path d="M378.236 70.9116C385.395 80.7823 406.224 107.192 394.872 112.673L378.236 70.9116Z" fill="#FF7051"/>
<path d="M378.236 70.9116C385.395 80.7823 406.224 107.192 394.872 112.673" stroke="black" stroke-width="3.03024" stroke-miterlimit="10" stroke-linecap="round"/>
<path d="M394.369 51.7534C396.977 66.1989 393.789 93.9901 393.789 93.9901L394.369 51.7534Z" fill="#FF7051"/>
<path d="M394.369 51.7534C396.977 66.1989 393.789 93.9901 393.789 93.9901" stroke="black" stroke-width="3.03024" stroke-miterlimit="10" stroke-linecap="round"/>
<path d="M480.121 187.759H350.117V343.421H480.121V187.759Z" fill="black"/>
<path d="M468.009 202.253H362.225V331.83H468.009V202.253Z" fill="white"/>
<path d="M377.109 212.851C377.883 215.051 376.774 217.452 374.924 218.112C373.076 218.763 370.944 217.515 370.161 215.315C369.385 213.115 370.38 211.25 372.177 210.45C374.088 209.597 376.333 210.653 377.109 212.851Z" stroke="black" stroke-width="3.03024" stroke-miterlimit="10" stroke-linecap="round" stroke-linejoin="round"/>
<path d="M389.843 248.1C390.618 250.3 389.508 252.702 387.659 253.361C385.81 254.012 383.678 252.762 382.895 250.564C382.119 248.364 383.115 246.499 384.912 245.699C386.813 244.846 389.068 245.909 389.843 248.1Z" stroke="black" stroke-width="3.03024" stroke-miterlimit="10" stroke-linecap="round" stroke-linejoin="round"/>
<path d="M381.31 263.591C381.944 265.394 381.037 267.365 379.514 267.902C377.999 268.438 376.246 267.409 375.604 265.606C374.969 263.802 375.789 262.272 377.26 261.611C378.826 260.917 380.667 261.788 381.31 263.591Z" stroke="black" stroke-width="3.03024" stroke-miterlimit="10" stroke-linecap="round" stroke-linejoin="round"/>
<path d="M399.991 214.191C399.648 216.707 397.534 218.51 395.587 218.247C393.642 217.983 392.346 215.723 392.69 213.206C393.034 210.689 394.795 209.353 396.758 209.45C398.837 209.545 400.334 211.676 399.991 214.191Z" stroke="black" stroke-width="3.03024" stroke-miterlimit="10" stroke-linecap="round" stroke-linejoin="round"/>
<path d="M426.365 214.346C426.146 211.812 427.809 209.587 429.765 209.42C431.72 209.252 433.489 211.161 433.711 213.696C433.93 216.229 432.503 217.918 430.567 218.261C428.506 218.621 426.585 216.88 426.365 214.346Z" stroke="black" stroke-width="3.03024" stroke-miterlimit="10" stroke-linecap="round" stroke-linejoin="round"/>
<path d="M369.544 230.59C368.461 228.293 369.253 225.628 371.023 224.792C372.802 223.955 375.118 225.143 376.202 227.44C377.285 229.735 376.537 231.813 374.837 232.807C373.04 233.863 370.628 232.885 369.544 230.59Z" stroke="black" stroke-width="3.03024" stroke-miterlimit="10" stroke-linecap="round" stroke-linejoin="round"/>
<path d="M391.226 231.532C389.465 229.701 389.377 226.93 390.795 225.567C392.212 224.212 394.785 224.591 396.545 226.429C398.307 228.268 398.254 230.468 396.959 231.945C395.577 233.52 392.988 233.362 391.226 231.532Z" stroke="black" stroke-width="3.03024" stroke-miterlimit="10" stroke-linecap="round" stroke-linejoin="round"/>
<path d="M411.602 232.496C410.236 230.358 410.696 227.614 412.35 226.567C414.006 225.511 416.455 226.401 417.82 228.539C419.185 230.675 418.7 232.831 417.141 234.028C415.486 235.304 412.967 234.643 411.602 232.496Z" stroke="black" stroke-width="3.03024" stroke-miterlimit="10" stroke-linecap="round" stroke-linejoin="round"/>
<path d="M415.772 251.617C414.407 249.479 414.671 246.857 416.124 245.934C417.577 245.01 419.859 246.004 421.224 248.142C422.589 250.279 422.262 252.329 420.906 253.402C419.462 254.538 417.138 253.755 415.772 251.617Z" stroke="black" stroke-width="3.03024" stroke-miterlimit="10" stroke-linecap="round" stroke-linejoin="round"/>
<path d="M422.533 268.541C420.992 267.442 420.516 265.462 421.343 264.302C422.171 263.149 424.083 263.096 425.623 264.195C427.164 265.295 427.446 266.888 426.733 268.12C425.967 269.421 424.064 269.641 422.533 268.541Z" stroke="black" stroke-width="3.03024" stroke-miterlimit="10" stroke-linecap="round" stroke-linejoin="round"/>
<path d="M384.508 288.319C383.248 286.639 383.574 284.245 385.011 283.173C386.445 282.1 388.638 282.583 389.906 284.263C391.174 285.944 390.797 287.836 389.448 289.032C388.014 290.291 385.768 290 384.508 288.319Z" stroke="black" stroke-width="3.03024" stroke-miterlimit="10" stroke-linecap="round" stroke-linejoin="round"/>
<path d="M387.853 306.507C388.013 304.201 389.72 302.424 391.394 302.548C393.067 302.662 394.291 304.633 394.125 306.937C393.956 309.242 392.531 310.571 390.856 310.615C389.069 310.659 387.687 308.821 387.853 306.507Z" stroke="black" stroke-width="3.03024" stroke-miterlimit="10" stroke-linecap="round" stroke-linejoin="round"/>
<path d="M406.338 289.849C404.454 289.496 403.194 287.728 403.493 286.154C403.784 284.578 405.554 283.593 407.438 283.945C409.323 284.298 410.247 285.766 410.081 287.358C409.905 289.048 408.222 290.201 406.338 289.849Z" stroke="black" stroke-width="3.03024" stroke-miterlimit="10" stroke-linecap="round" stroke-linejoin="round"/>
<path d="M454.651 290.66C452.669 290.29 451.427 288.03 451.815 285.954C452.203 283.877 454.122 282.487 456.104 282.857C458.086 283.227 458.992 285.108 458.738 287.211C458.465 289.437 456.624 291.029 454.651 290.66Z" stroke="black" stroke-width="3.03024" stroke-miterlimit="10" stroke-linecap="round" stroke-linejoin="round"/>
<path d="M415.636 284.904C416.456 282.819 418.754 281.754 420.498 282.433C422.233 283.11 422.982 285.353 422.171 287.438C421.353 289.524 419.468 290.271 417.68 289.734C415.77 289.171 414.818 286.998 415.636 284.904Z" stroke="black" stroke-width="3.03024" stroke-miterlimit="10" stroke-linecap="round" stroke-linejoin="round"/>
<path d="M418.931 308.149C419.123 305.096 421.035 302.72 422.902 302.835C424.759 302.949 426.117 305.519 425.923 308.572C425.729 311.623 424.126 313.4 422.259 313.497C420.268 313.603 418.737 311.202 418.931 308.149Z" stroke="black" stroke-width="3.03024" stroke-miterlimit="10" stroke-linecap="round" stroke-linejoin="round"/>
<path d="M452.768 307.168C453.728 304.581 456.159 303.077 457.902 303.719C459.654 304.362 460.298 306.992 459.337 309.578C458.378 312.165 456.396 313.246 454.59 312.781C452.671 312.287 451.816 309.763 452.768 307.168Z" stroke="black" stroke-width="3.03024" stroke-miterlimit="10" stroke-linecap="round" stroke-linejoin="round"/>
<path d="M432.917 268.911C431.807 267.512 431.948 265.55 433.067 264.662C434.185 263.773 435.981 264.196 437.091 265.585C438.2 266.985 437.999 268.541 436.96 269.518C435.858 270.556 434.026 270.309 432.917 268.911Z" stroke="black" stroke-width="3.03024" stroke-miterlimit="10" stroke-linecap="round" stroke-linejoin="round"/>
<path d="M434.854 251.927C434.863 249.393 436.493 247.325 438.21 247.334C439.926 247.343 441.319 249.402 441.309 251.936C441.3 254.469 439.926 256.026 438.21 256.193C436.396 256.378 434.846 254.469 434.854 251.927Z" stroke="black" stroke-width="3.03024" stroke-miterlimit="10" stroke-linecap="round" stroke-linejoin="round"/>
<path d="M454.555 250.375C454.564 248.122 456.052 246.284 457.629 246.293C459.205 246.302 460.473 248.131 460.473 250.384C460.464 252.636 459.205 254.017 457.636 254.166C455.964 254.325 454.546 252.636 454.555 250.375Z" stroke="black" stroke-width="3.03024" stroke-miterlimit="10" stroke-linecap="round" stroke-linejoin="round"/>
<path d="M438.164 231.414C438.164 229.805 440.102 227.043 442.269 227.034C444.443 227.025 446.318 229.805 446.318 231.379C446.318 233.913 444.593 235.479 442.426 235.655C440.128 235.858 438.164 233.957 438.164 231.414Z" stroke="black" stroke-width="3.03024" stroke-miterlimit="10" stroke-linecap="round" stroke-linejoin="round"/>
<path d="M381.732 209.101V219.615" stroke="black" stroke-width="3.03024" stroke-miterlimit="10" stroke-linecap="round" stroke-linejoin="round"/>
<path d="M383.572 224.045V234.558" stroke="black" stroke-width="3.03024" stroke-miterlimit="10" stroke-linecap="round" stroke-linejoin="round"/>
<path d="M369.895 243.605V254.119" stroke="black" stroke-width="3.03024" stroke-miterlimit="10" stroke-linecap="round" stroke-linejoin="round"/>
<path d="M370.205 260.324V270.838" stroke="black" stroke-width="3.03024" stroke-miterlimit="10" stroke-linecap="round" stroke-linejoin="round"/>
<path d="M389.402 260.324V270.838" stroke="black" stroke-width="3.03024" stroke-miterlimit="10" stroke-linecap="round" stroke-linejoin="round"/>
<path d="M396.969 261.917L397.62 271.568" stroke="black" stroke-width="3.03024" stroke-miterlimit="10" stroke-linecap="round" stroke-linejoin="round"/>
<path d="M405.605 260.592L405.615 270.278" stroke="black" stroke-width="3.03024" stroke-miterlimit="10" stroke-linecap="round" stroke-linejoin="round"/>
<path d="M369.889 280.573L369.905 290.259" stroke="black" stroke-width="3.03024" stroke-miterlimit="10" stroke-linecap="round" stroke-linejoin="round"/>
<path d="M370.188 301.725L370.206 311.402" stroke="black" stroke-width="3.03024" stroke-miterlimit="10" stroke-linecap="round" stroke-linejoin="round"/>
<path d="M399.145 301.778L399.17 313.505" stroke="black" stroke-width="3.03024" stroke-miterlimit="10" stroke-linecap="round" stroke-linejoin="round"/>
<path d="M406.418 300.908L406.435 313.154" stroke="black" stroke-width="3.03024" stroke-miterlimit="10" stroke-linecap="round" stroke-linejoin="round"/>
<path d="M412.572 299.617L412.598 313.508" stroke="black" stroke-width="3.03024" stroke-miterlimit="10" stroke-linecap="round" stroke-linejoin="round"/>
<path d="M377.566 280.573L377.585 291.754" stroke="black" stroke-width="3.03024" stroke-miterlimit="10" stroke-linecap="round" stroke-linejoin="round"/>
<path d="M398.119 282.159L398.137 292.381" stroke="black" stroke-width="3.03024" stroke-miterlimit="10" stroke-linecap="round" stroke-linejoin="round"/>
<path d="M412.715 262.787L412.873 270.529" stroke="black" stroke-width="3.03024" stroke-miterlimit="10" stroke-linecap="round" stroke-linejoin="round"/>
<path d="M428.801 281.46L427.561 291.947" stroke="black" stroke-width="3.03024" stroke-miterlimit="10" stroke-linecap="round" stroke-linejoin="round"/>
<path d="M437.064 279.708L437.355 290.265" stroke="black" stroke-width="3.03024" stroke-miterlimit="10" stroke-linecap="round" stroke-linejoin="round"/>
<path d="M432.883 301.275L433.174 311.84" stroke="black" stroke-width="3.03024" stroke-miterlimit="10" stroke-linecap="round" stroke-linejoin="round"/>
<path d="M440.158 300.919L439.514 311.467" stroke="black" stroke-width="3.03024" stroke-miterlimit="10" stroke-linecap="round" stroke-linejoin="round"/>
<path d="M446.295 302.114L445.66 312.663" stroke="black" stroke-width="3.03024" stroke-miterlimit="10" stroke-linecap="round" stroke-linejoin="round"/>
<path d="M444.232 281.424L444.523 291.982" stroke="black" stroke-width="3.03024" stroke-miterlimit="10" stroke-linecap="round" stroke-linejoin="round"/>
<path d="M444.375 262.45L444.534 270.19" stroke="black" stroke-width="3.03024" stroke-miterlimit="10" stroke-linecap="round" stroke-linejoin="round"/>
<path d="M459.391 261.941L459.551 269.683" stroke="black" stroke-width="3.03024" stroke-miterlimit="10" stroke-linecap="round" stroke-linejoin="round"/>
<path d="M452.451 261.681L452.61 271.568" stroke="black" stroke-width="3.03024" stroke-miterlimit="10" stroke-linecap="round" stroke-linejoin="round"/>
<path d="M375.559 244.22L376.007 254.725" stroke="black" stroke-width="3.03024" stroke-miterlimit="10" stroke-linecap="round" stroke-linejoin="round"/>
<path d="M397.928 243.198L397.865 253.71" stroke="black" stroke-width="3.03024" stroke-miterlimit="10" stroke-linecap="round" stroke-linejoin="round"/>
<path d="M407.738 244.21L407.666 254.722" stroke="black" stroke-width="3.03024" stroke-miterlimit="10" stroke-linecap="round" stroke-linejoin="round"/>
<path d="M427.836 245.588L427.773 256.102" stroke="black" stroke-width="3.03024" stroke-miterlimit="10" stroke-linecap="round" stroke-linejoin="round"/>
<path d="M448.882 245.169L448.811 256.667" stroke="black" stroke-width="3.03024" stroke-miterlimit="10" stroke-linecap="round" stroke-linejoin="round"/>
<path d="M405.643 224.045V234.558" stroke="black" stroke-width="3.03024" stroke-miterlimit="10" stroke-linecap="round" stroke-linejoin="round"/>
<path d="M387.543 209.101V219.615" stroke="black" stroke-width="3.03024" stroke-miterlimit="10" stroke-linecap="round" stroke-linejoin="round"/>
<path d="M407.068 209.101V219.615" stroke="black" stroke-width="3.03024" stroke-miterlimit="10" stroke-linecap="round" stroke-linejoin="round"/>
<path d="M413.727 209.101V219.615" stroke="black" stroke-width="3.03024" stroke-miterlimit="10" stroke-linecap="round" stroke-linejoin="round"/>
<path d="M421 209.101V219.615" stroke="black" stroke-width="3.03024" stroke-miterlimit="10" stroke-linecap="round" stroke-linejoin="round"/>
<path d="M424.285 224.169V234.683" stroke="black" stroke-width="3.03024" stroke-miterlimit="10" stroke-linecap="round" stroke-linejoin="round"/>
<path d="M432.281 224.554V235.068" stroke="black" stroke-width="3.03024" stroke-miterlimit="10" stroke-linecap="round" stroke-linejoin="round"/>
<path d="M452.248 224.554V235.068" stroke="black" stroke-width="3.03024" stroke-miterlimit="10" stroke-linecap="round" stroke-linejoin="round"/>
<path d="M458.906 224.56L459.506 235.055" stroke="black" stroke-width="3.03024" stroke-miterlimit="10" stroke-linecap="round" stroke-linejoin="round"/>
<path d="M449.297 209.101V219.615" stroke="black" stroke-width="3.03024" stroke-miterlimit="10" stroke-linecap="round" stroke-linejoin="round"/>
<path d="M380.121 301.778C380.121 301.778 374.237 305.841 375.893 309.581C377.875 314.059 382.34 310.653 382.533 308.217C382.833 304.426 379.063 302.314 379.063 302.314" stroke="black" stroke-width="3.03024" stroke-miterlimit="10" stroke-linecap="round" stroke-linejoin="round"/>
<path d="M442.56 209.362C442.56 209.362 436.678 213.426 438.333 217.165C440.314 221.642 444.779 218.238 444.973 215.801C445.273 212.009 441.504 209.898 441.504 209.898" stroke="black" stroke-width="3.03024" stroke-miterlimit="10" stroke-linecap="round" stroke-linejoin="round"/>
<path d="M459.786 217.315C461.97 217.315 463.739 215.833 463.739 214.007C463.739 212.18 461.97 210.7 459.786 210.7C457.602 210.7 455.832 212.18 455.832 214.007C455.832 215.833 457.602 217.315 459.786 217.315Z" stroke="black" stroke-width="3.03024" stroke-miterlimit="10" stroke-linecap="round" stroke-linejoin="round"/>
<path d="M568.741 375.964H242.922C238.201 356.46 223.02 353.187 223.02 353.187L224.56 349.818H586.689C568.143 355.747 568.741 375.964 568.741 375.964Z" fill="white" stroke="black" stroke-width="3.03024" stroke-miterlimit="10"/>
<path d="M593.92 353.179H200.72C199.144 353.179 197.867 351.903 197.867 350.329V346.266C197.867 344.69 199.144 343.414 200.72 343.414H593.92C595.495 343.414 596.773 344.69 596.773 346.266V350.329C596.773 351.903 595.495 353.179 593.92 353.179Z" fill="white" stroke="black" stroke-width="3.03024" stroke-miterlimit="10"/>
<path d="M332.864 424.336L332.344 480.553L332.097 506.628H261.027V424.336H332.864Z" fill="white" stroke="black" stroke-width="3.03024" stroke-miterlimit="10"/>
<path d="M261.027 424.336H0.432617V520.986H261.027V424.336Z" fill="black" stroke="black" stroke-width="3.03024" stroke-miterlimit="10"/>
<path d="M293.957 499.854C297.26 499.854 299.937 497.179 299.937 493.88C299.937 490.582 297.26 487.906 293.957 487.906C290.656 487.906 287.979 490.582 287.979 493.88C287.979 497.179 290.656 499.854 293.957 499.854Z" fill="black"/>
<g style="mix-blend-mode:darken">
<path d="M552 122.159H249.333C234.353 122.159 222.219 134.291 222.219 149.247V275.27H579.116V149.247C579.116 134.291 566.972 122.159 552 122.159Z" fill="#E7E5E4"/>
</g>
<g style="mix-blend-mode:darken">
<path d="M552 122.159H249.333C234.353 122.159 222.219 134.291 222.219 149.247V275.27H579.116V149.247C579.116 134.291 566.972 122.159 552 122.159Z" stroke="black" stroke-width="3.03024" stroke-miterlimit="10"/>
</g>
<path d="M517.239 386.536C515.169 394.083 507.235 401.402 473.364 415.611C473.364 415.611 476.103 443.419 474.36 454.733C472.625 466.046 469.014 472.196 453.893 473.155C436.007 474.29 351.674 486.079 332.344 480.554L332.864 424.338C335.382 413.341 334.784 405.828 326.523 402.354C319.776 399.511 297.716 395.596 296.942 386.051C296.175 376.506 303.309 374.157 322.798 378.406C349.209 384.16 360.729 396.731 378.534 406.435C382.551 407.332 400.164 406.135 428.054 396.925C428.653 396.722 429.26 396.52 429.886 396.301C434.326 394.761 439.177 392.834 444.268 390.775C444.76 390.574 445.254 390.371 445.756 390.169C451.912 387.671 458.384 385.022 464.858 382.674C473.541 379.524 482.224 376.928 490.15 375.96C510.062 373.55 519.662 377.712 517.239 386.536Z" fill="#FF7051" stroke="black" stroke-width="3.03024" stroke-miterlimit="10" stroke-linecap="round"/>
<path d="M473.364 415.62C462.93 420 450.018 425.032 434.061 430.936" stroke="black" stroke-width="3.03024" stroke-miterlimit="10" stroke-linecap="round"/>
<path d="M504.833 375.473C509.774 388.046 509.572 396.834 428.383 416.673" stroke="black" stroke-width="3.03024" stroke-miterlimit="10" stroke-linecap="round"/>
<path d="M474.941 436.636C470.326 453.386 432.811 451.53 432.811 451.53" stroke="black" stroke-width="3.03024" stroke-miterlimit="10" stroke-linecap="round"/>
<path d="M444.271 390.77C439.18 392.829 434.328 394.757 429.889 396.296C429.528 395.214 429.238 394.079 429.009 392.882C427.547 385.096 429.748 378.146 433.922 377.363C438.105 376.581 442.677 382.255 444.148 390.04C444.192 390.296 444.236 390.534 444.271 390.77Z" fill="#FF7051" stroke="black" stroke-width="3.03024" stroke-miterlimit="10" stroke-linecap="round"/>
<path d="M464.859 382.675C458.385 385.025 451.912 387.672 445.757 390.172C445.14 383.142 448.487 377.001 453.753 376.007C458.006 375.207 462.323 377.995 464.859 382.675Z" fill="#FF7051" stroke="black" stroke-width="3.03024" stroke-miterlimit="10" stroke-linecap="round"/>
<path d="M832.525 241.446H696.25L690.358 233.564L680.645 207.048L669.734 190.729L682.802 153.877C682.802 153.877 679.034 134.988 695.158 129.763C711.284 124.537 726.748 120.631 736.575 127.343C746.316 133.994 756.092 143.539 760.055 163.528L980.714 163.431V241.446H832.525Z" fill="#FFC900" stroke="black" stroke-width="3.03024" stroke-miterlimit="10"/>
<path d="M590.291 59.0481L679.52 38.0837C680.709 37.8022 681.95 38.1452 682.832 38.9897C687.851 43.8196 704.636 61.1155 710.969 82.1853C719.916 111.965 722.893 136.95 722.893 136.95C722.893 136.95 725.543 167.591 738.956 205.472L691.057 218.81L662.031 207.321L651.498 187.606L642.452 153.348C642.452 153.348 639.458 144.894 636.984 140.477C634.51 136.061 631.224 128.539 624.021 122.047C616.826 115.554 611.305 108.921 606.073 96.1293C601.555 85.0974 593.99 69.042 589.085 62.2942C588.213 61.0891 588.847 59.3911 590.291 59.0481Z" fill="#23A094" stroke="black" stroke-width="3.03024" stroke-miterlimit="10" stroke-linecap="round"/>
<path d="M602.516 63.9865L675.276 46.4268C675.276 46.4268 698.279 60.749 710.951 126.202C714.994 147.079 725.227 183.843 728.68 198.606L687.958 211.133L675.328 209.409L659.098 181.293L650.371 153.818C650.371 153.818 644.268 135.404 641.071 128.402C637.874 121.399 631.877 114.827 623.185 109.003C616.262 104.349 602.516 63.9865 602.516 63.9865Z" fill="#23A094" stroke="black" stroke-width="3.03024" stroke-miterlimit="10" stroke-linecap="round"/>
<path d="M615.318 80.178L641.06 72.8762" stroke="black" stroke-width="3.03024" stroke-miterlimit="10" stroke-linecap="round"/>
<path d="M637.43 79.4029C639.571 72.8663 634.693 69.8312 630.5 70.9221C626.299 72.013 629.144 80.8369 624.934 81.7254C619.553 82.8691 616.717 77.3618 617.502 72.8663" stroke="black" stroke-width="3.03024" stroke-miterlimit="10" stroke-linecap="round"/>
<path d="M682.963 146.261C661.968 149.938 652.465 137.437 650.343 126.704C648.908 119.464 656.156 115.787 661.282 114.185C662.224 113.886 663.095 113.657 663.826 113.49C665.482 113.112 667.376 113.024 669.198 113.297C671.894 113.702 674.456 114.898 675.953 117.15C676.551 118.056 676.05 119.279 674.966 119.446C673.795 119.622 672.606 119.763 671.409 119.772C667.833 119.789 664.258 118.654 661.282 114.185C661.211 114.071 661.132 113.957 661.061 113.842C655.883 105.687 662.224 97.3295 671.162 97.3295C680.101 97.3295 679.96 93.7049 681.765 88.576C683.386 83.9749 689.999 81.0541 698.251 81.5556" stroke="black" stroke-width="3.03024" stroke-miterlimit="10" stroke-linecap="round"/>
<path d="M671.41 119.774L675.074 129.486" stroke="black" stroke-width="3.03024" stroke-miterlimit="10" stroke-linecap="round"/>
<path d="M677.45 138.893C679.64 138.893 681.414 136.62 681.414 133.817C681.414 131.013 679.64 128.74 677.45 128.74C675.262 128.74 673.488 131.013 673.488 133.817C673.488 136.62 675.262 138.893 677.45 138.893Z" stroke="black" stroke-width="3.03024" stroke-miterlimit="10" stroke-linecap="round"/>
<path d="M675.071 146.709C674.674 145.917 674.445 144.976 674.445 143.973C674.445 141.166 676.224 138.897 678.409 138.897C680.601 138.897 682.371 141.166 682.371 143.973C682.371 144.817 682.213 145.618 681.922 146.322" stroke="black" stroke-width="3.03024" stroke-miterlimit="10" stroke-linecap="round"/>
<path d="M706.052 104.996C702.855 111.127 694.771 116.987 688.166 111.77C681.562 106.553 677.862 103.694 672.182 105.726C666.502 107.758 666.617 112.306 669.188 113.309" stroke="black" stroke-width="3.03024" stroke-miterlimit="10" stroke-linecap="round"/>
<path d="M696.119 117.223C699.774 121.112 701.192 127.824 701.192 127.824" stroke="black" stroke-width="3.03024" stroke-miterlimit="10" stroke-linecap="round"/>
<path d="M726.089 123.739C726.089 123.739 702.029 124.346 689.648 132.07C677.265 139.795 682.108 159.211 683.104 170.92C684.099 182.629 688.846 191.823 696.622 188.259C704.399 184.706 706.679 179.137 708.767 168.861C710.853 158.585 709.278 150.096 724.865 151.222C731.936 152.058 733.557 156.07 733.689 160.002C733.821 163.935 742.134 162.149 742.134 162.149L744.909 154.037L738.568 138.897L726.089 123.739Z" fill="#23A094"/>
<path d="M835.775 163.525H760.064C756.269 139.007 735.969 123.84 726.142 124.007C716.048 124.174 694.42 126.435 685.067 135.497C677.828 142.508 682.505 183.681 689.682 187.393C695.679 190.499 703.949 187.903 707.876 173.211C710.712 162.584 707.894 147.989 728.062 151.666C740.099 153.857 726.353 189.812 759.246 194.167" fill="#FFC900"/>
<path d="M835.775 163.525H760.064C756.269 139.007 735.969 123.84 726.142 124.007C716.048 124.174 694.42 126.435 685.067 135.497C677.828 142.508 682.505 183.681 689.682 187.393C695.679 190.499 703.949 187.903 707.876 173.211C710.712 162.584 707.894 147.989 728.062 151.666C740.099 153.857 726.353 189.812 759.246 194.167" stroke="black" stroke-width="3.03024" stroke-miterlimit="10" stroke-linecap="round"/>
<path d="M683.79 163.321C684.407 171.573 668.08 174.661 648.643 175.408C629.031 176.157 608.203 178.329 610.845 163.136C612.571 153.186 630.246 150.864 649.7 150.864C669.154 150.864 683.201 155.439 683.79 163.321Z" fill="#FFC900" stroke="black" stroke-width="3.03024" stroke-miterlimit="10"/>
<path d="M687.965 190.092C687.974 198.741 673.495 202.365 654.05 202.841C634.42 203.324 618.692 203.535 617.837 188.553C617.213 177.556 636.12 175.682 655.565 176.017C675.01 176.343 687.956 178.656 687.965 190.092Z" fill="#FFC900" stroke="black" stroke-width="3.03024" stroke-miterlimit="10"/>
<path d="M699.872 233.443C700.489 243.647 686.696 245.073 671.735 244.546C655.556 243.973 642.77 245.697 642.073 233.082C641.553 223.826 657.15 222.243 673.188 222.516C689.224 222.789 699.44 226.414 699.872 233.443Z" fill="#FFC900" stroke="black" stroke-width="3.03024" stroke-miterlimit="10"/>
<path d="M697.369 214.79C697.369 221.539 682.609 226.325 665.691 226.72C647.462 227.143 633.072 227.934 632.27 214.351C631.681 204.383 649.25 202.695 667.312 203.003C685.374 203.31 697.369 205.721 697.369 214.79Z" fill="#FFC900" stroke="black" stroke-width="3.03024" stroke-miterlimit="10"/>
<path d="M643.423 267.776H723.906C724.804 267.776 725.447 268.647 725.165 269.5C723.501 274.55 718.904 290.562 717.953 315.398C716.791 345.686 735.187 346.62 719.415 411.773C719.274 412.362 718.736 412.794 718.129 412.794H654.536C653.726 412.794 653.118 412.082 653.233 411.29C654.783 400.803 649.059 383.904 646.874 378.237C644.585 372.29 634.22 355.268 637.821 329.253C640.859 307.364 648.301 296.816 642.136 269.405C641.952 268.568 642.568 267.776 643.423 267.776Z" fill="#23A094" stroke="black" stroke-width="3.03024" stroke-miterlimit="10" stroke-linecap="round"/>
<path d="M661.915 405.742C661.122 405.742 660.488 405.127 660.435 404.335C659.704 392.864 655.17 380.143 653.451 375.691C653.047 374.635 652.5 373.447 651.876 372.075C648.423 364.526 641.994 350.477 644.803 330.207C645.632 324.251 646.812 319.105 647.956 314.144C650.501 303.094 652.932 292.546 650.617 276.525C650.483 275.628 651.171 274.819 652.077 274.819H714.429C715.388 274.819 716.093 275.707 715.873 276.64C713.856 285.12 711.558 298.158 710.906 315.129C710.456 326.759 712.659 334.598 714.78 342.172C718.365 354.937 722.056 368.107 713.847 404.591C713.697 405.268 713.09 405.751 712.394 405.751H661.915V405.742Z" fill="#23A094" stroke="black" stroke-width="3.03024" stroke-miterlimit="10" stroke-linecap="round"/>
<path d="M655.576 293.527H674.827" stroke="black" stroke-width="3.03024" stroke-miterlimit="10" stroke-linecap="round"/>
<path d="M672.509 298.014C674.509 295.877 674.095 289.745 671.374 288.531C668.265 287.142 664.196 287.898 664.011 295.104C663.853 301.481 656.605 298.983 658.321 288.337" stroke="black" stroke-width="3.03024" stroke-miterlimit="10" stroke-linecap="round"/>
<path d="M711.472 305.542C706.267 302.964 699.864 301.363 696.474 302.472C693.083 303.579 693.515 309.237 685.633 306.351C677.751 303.466 678.562 315.519 674.827 314.902C670.098 314.137 660.323 317.665 662.286 327.579C664.153 336.967 679.336 335.092 682.233 333.042C684.709 330.932 679.935 327.703 676.324 326.585C672.379 325.362 672.51 318.412 679.477 318.747C686.804 319.099 686.698 324.35 686.153 327.077C686.109 327.324 686.39 327.491 686.566 327.315C688.125 325.776 691.172 322.538 693.692 322.249C696.316 321.949 704.867 325.794 707.051 334.706C708.882 342.183 711.331 351.772 701.396 352.837C700.842 352.898 700.322 353.171 699.952 353.594C697.152 356.813 689.895 362.866 681.45 355.847C682.233 352.054 681.336 350.03 678.315 349.248C675.329 348.465 671.147 354.447 675.691 358.001C678.474 360.174 681.309 357.386 681.45 355.847" stroke="black" stroke-width="3.03024" stroke-miterlimit="10" stroke-linecap="round"/>
<path d="M673.813 353.071C664.82 353.08 653.901 349.561 653.081 339.294C652.368 330.4 662.425 328.156 662.425 328.156" stroke="black" stroke-width="3.03024" stroke-miterlimit="10" stroke-linecap="round"/>
<path d="M666.739 352.327C666.642 361.82 669.416 364.126 675.105 364.477C680.795 364.838 683.92 381.79 697.052 375.078C710.173 368.365 708.535 365.242 708.535 365.242" stroke="black" stroke-width="3.03024" stroke-miterlimit="10" stroke-linecap="round"/>
<path d="M701.404 352.842C701.413 359.845 706.539 368.942 718.798 366.996" stroke="black" stroke-width="3.03024" stroke-miterlimit="10" stroke-linecap="round"/>
<path d="M710.889 315.805C706.301 317.072 702.76 324.066 701.018 325.386" stroke="black" stroke-width="3.03024" stroke-miterlimit="10" stroke-linecap="round"/>
<path d="M696.711 333.696C702.084 337.893 700.287 346.62 700.287 346.62" stroke="black" stroke-width="3.03024" stroke-miterlimit="10" stroke-linecap="round"/>
<path d="M691.162 337.058C695.232 341.008 693.144 348.177 693.144 348.177" stroke="black" stroke-width="3.03024" stroke-miterlimit="10" stroke-linecap="round"/>
<path d="M686.747 342.97C691.388 352.841 686.246 350.624 683.665 349.279C681.094 347.932 676.382 347.879 676.532 344.43C676.593 343.085 671.046 339.276 675.555 335.255C678.038 333.038 683.823 336.32 683.03 339.583C681.806 344.606 675.659 343.612 675.659 343.612" stroke="black" stroke-width="3.03024" stroke-miterlimit="10" stroke-linecap="round"/>
<path d="M676.779 326.735V334.556" stroke="black" stroke-width="3.03024" stroke-miterlimit="10" stroke-linecap="round"/>
<path d="M665.368 385.517C664.33 395.943 672.369 398.871 672.131 392.996C671.815 384.84 679.777 384.285 679.618 394.588" stroke="black" stroke-width="3.03024" stroke-miterlimit="10" stroke-linecap="round"/>
<path d="M663.588 390.473L683.465 390.016" stroke="black" stroke-width="3.03024" stroke-miterlimit="10" stroke-linecap="round"/>
<path d="M977.683 422.624V497.007C977.683 497.007 680.186 497.588 659.447 497.007C646.193 496.638 639.993 492.503 639.993 486.854C639.993 483.67 641.975 480.002 645.779 476.253C614.639 465.134 639.245 453.732 639.245 453.732C618.857 446.72 628.79 433.753 646.378 431.247C614.454 414.601 638.09 401.432 653.908 402.232C660.627 402.567 723.084 395.484 723.084 395.484C723.084 395.484 738.794 395.484 742.986 405.927C746.809 415.445 741.111 422.624 741.111 422.624H977.683Z" fill="#FFC900"/>
<path d="M639.249 453.734C639.249 453.734 611.675 466.499 651.789 478.182L639.249 453.734Z" fill="#FFC900"/>
<path d="M639.249 453.734C639.249 453.734 611.675 466.499 651.789 478.182" stroke="black" stroke-width="3.03024" stroke-miterlimit="10" stroke-linecap="round"/>
<path d="M645.782 476.246C635.232 486.626 638.711 496.418 659.45 496.998C680.19 497.579 976.172 496.998 976.172 496.998V422.615H741.113C741.113 422.615 746.821 415.437 742.989 405.909C738.798 395.467 723.086 395.467 723.086 395.467C723.086 395.467 660.63 402.558 653.91 402.214C638.094 401.414 614.457 414.584 646.38 431.229C626.663 434.044 616.57 449.984 648.027 455.968" fill="#FFC900"/>
<path d="M645.782 476.246C635.232 486.626 638.711 496.418 659.45 496.998C680.19 497.579 976.172 496.998 976.172 496.998V422.615H741.113C741.113 422.615 746.821 415.437 742.989 405.909C738.798 395.467 723.086 395.467 723.086 395.467C723.086 395.467 660.63 402.558 653.91 402.214C638.094 401.414 614.457 414.584 646.38 431.229C626.663 434.044 616.57 449.984 648.027 455.968" stroke="black" stroke-width="3.03024" stroke-miterlimit="10" stroke-linecap="round" stroke-linejoin="round"/>
<path d="M639.258 453.74C639.258 453.74 611.685 466.505 651.799 478.188L639.258 453.74Z" fill="#FFC900"/>
<path d="M639.258 453.74C639.258 453.74 611.685 466.505 651.799 478.188" stroke="black" stroke-width="3.03024" stroke-miterlimit="10" stroke-linecap="round"/>
</g>
<defs>
<clipPath id="clip0_106_10246">
<rect width="969.677" height="545.443" fill="white" transform="translate(0.433594 0.949463)"/>
</clipPath>
</defs>
</svg>
