<svg width="971" height="546" viewBox="0 0 971 546" fill="none" xmlns="http://www.w3.org/2000/svg">
<g clip-path="url(#clip0_122_16501)">
<path d="M970.167 0H0.490234V545.443H970.167V0Z" fill="white"/>
<path d="M991.378 -7.57562H-11.6309V559.079H991.378V-7.57562Z" fill="#23A094"/>
<path d="M95.8249 71.98H63.4475L47.2588 99.996L63.4475 128.004H95.8249L112.021 99.996L95.8249 71.98Z" fill="#23A094" stroke="black" stroke-width="3.03024" stroke-miterlimit="10"/>
<path d="M95.879 88.5103L66.8369 108.942" stroke="black" stroke-width="3.03024" stroke-miterlimit="10" stroke-linecap="round" stroke-linejoin="round"/>
<path d="M62.6426 89.5341L98.0224 110.152" stroke="black" stroke-width="3.03024" stroke-miterlimit="10" stroke-linecap="round" stroke-linejoin="round"/>
<path d="M112.021 99.9977H135.949L156.719 132.327L172.056 79.8516L187.168 131.786L202.506 79.8516L219.036 132.327L235.457 80.5009L251.552 130.913L266.665 82.1321L285.153 130.696L300.164 80.617L321.917 133.301L331.699 101.582H379.335" stroke="black" stroke-width="3.03024" stroke-miterlimit="10" stroke-linecap="round" stroke-linejoin="round"/>
<path d="M437.815 69.222H380.195V126.784H437.815V69.222Z" fill="#23A094" stroke="black" stroke-width="3.03024" stroke-miterlimit="10" stroke-linecap="round" stroke-linejoin="round"/>
<path d="M420.07 115.052H399.85V95.3927C399.85 89.8188 404.377 85.2965 409.957 85.2965C415.536 85.2965 420.063 89.8188 420.063 95.3927V115.052H420.07Z" fill="#FFC900" stroke="black" stroke-width="3.03024" stroke-miterlimit="10" stroke-linecap="round" stroke-linejoin="round"/>
<path d="M67.4092 468.033V412.326L113.414 440.179L67.4092 468.033Z" fill="#23A094" stroke="black" stroke-width="3.03024" stroke-miterlimit="10"/>
<path d="M113.414 440.182H246.035V386.06" stroke="black" stroke-width="3.03024" stroke-miterlimit="10" stroke-linecap="round" stroke-linejoin="round"/>
<path d="M246.258 386.754C253.985 386.754 260.249 380.495 260.249 372.777C260.249 365.058 253.985 358.799 246.258 358.799C238.531 358.799 232.268 365.058 232.268 372.777C232.268 380.495 238.531 386.754 246.258 386.754Z" fill="#23A094" stroke="black" stroke-width="3.03024" stroke-miterlimit="10"/>
<path d="M79.6436 419.735V128.004" stroke="black" stroke-width="3.03024" stroke-miterlimit="10" stroke-linecap="round" stroke-linejoin="round"/>
<path d="M409.011 239.907V126.785" stroke="black" stroke-width="3.03024" stroke-miterlimit="10" stroke-linecap="round" stroke-linejoin="round"/>
<path d="M409.011 406.536V297.023" stroke="black" stroke-width="3.03024" stroke-miterlimit="10" stroke-linecap="round" stroke-linejoin="round"/>
<path d="M409.012 297.056C424.817 297.056 437.629 284.256 437.629 268.469C437.629 252.679 424.817 239.88 409.012 239.88C393.207 239.88 380.396 252.679 380.396 268.469C380.396 284.256 393.207 297.056 409.012 297.056Z" fill="#23A094" stroke="black" stroke-width="3.03024" stroke-miterlimit="10" stroke-linecap="round" stroke-linejoin="round"/>
<path d="M437.604 456.013V423.035L409.011 406.537L380.41 423.035V456.013L409.011 472.511L437.604 456.013Z" fill="#23A094" stroke="black" stroke-width="3.03024" stroke-miterlimit="10"/>
<path d="M312.724 347.638H188.059C179.833 347.638 173.162 340.975 173.162 332.757V205.603C173.162 197.385 179.833 190.722 188.059 190.722H312.724C320.95 190.722 327.621 197.385 327.621 205.603V332.757C327.621 340.975 320.95 347.638 312.724 347.638Z" fill="#98282A" stroke="black" stroke-width="3.03024" stroke-miterlimit="10"/>
<path d="M301.666 264.32L264.314 304.519L222.341 266.74L261.852 225.706L301.666 264.32Z" fill="#23A094" stroke="black" stroke-width="3.03024" stroke-miterlimit="10" stroke-linecap="round" stroke-linejoin="round"/>
<path d="M264.313 304.519H240.037L200.819 266.152L240.285 225.706H261.851L222.34 266.74L264.313 304.519Z" fill="#FFC900" stroke="black" stroke-width="3.03024" stroke-miterlimit="10" stroke-linecap="round" stroke-linejoin="round"/>
<path d="M409.02 254.57V282.223" stroke="black" stroke-width="3.03024" stroke-miterlimit="10" stroke-linecap="round" stroke-linejoin="round"/>
<path d="M422.934 268.461H395.254" stroke="black" stroke-width="3.03024" stroke-miterlimit="10" stroke-linecap="round" stroke-linejoin="round"/>
<path d="M761.913 480.023H647.594C636.914 480.023 628.255 471.372 628.255 460.704C628.255 450.036 636.914 441.385 647.594 441.385H761.913C772.591 441.385 781.25 450.036 781.25 460.704C781.25 471.372 772.591 480.023 761.913 480.023Z" fill="#23A094" stroke="black" stroke-width="3.03024" stroke-miterlimit="10"/>
<path d="M712.721 124.957V102.214H481.792V66.5292H923.398V441.389H861.066V460.707H781.251" stroke="black" stroke-width="3.03024" stroke-miterlimit="10" stroke-linecap="round" stroke-linejoin="round"/>
<path d="M437.604 441.385H548.187V460.704H628.264" stroke="black" stroke-width="3.03024" stroke-miterlimit="10" stroke-linecap="round" stroke-linejoin="round"/>
<path d="M712.651 147.583L698.451 124.956H724.916L712.651 147.583Z" fill="black" stroke="black" stroke-width="3.03024" stroke-miterlimit="10" stroke-linecap="round" stroke-linejoin="round"/>
<path d="M897.731 148.482H507.987V414.764H897.731V148.482Z" fill="black" stroke="black" stroke-width="3.03024"/>
<path d="M711.49 303.257C715.228 313.053 723.642 322.48 725.999 340.937C732.672 393.174 713.266 409.737 708.43 414.764H898.198V148.482H711.49C717.329 156.174 729.01 181.067 729.01 219.109C729.552 238.389 724.985 262.657 711.707 293.618C710.392 296.686 710.305 300.135 711.49 303.257Z" fill="#23A094" stroke="black" stroke-width="3.03024"/>
<path d="M814.677 255.646C810.132 262.149 807.733 272.219 807.102 276.44C805.738 288.993 800.852 324.359 798.579 340.995H897.062V273.982C896.494 272.66 893.691 268.161 887.024 260.751C878.691 251.487 863.161 240.335 844.79 241.28C826.419 242.225 820.359 247.518 814.677 255.646Z" fill="white" stroke="black" stroke-width="3.03024"/>
<path d="M675.616 200.409H553.132V329.558H675.616V200.409Z" fill="#23A094" stroke="black" stroke-width="3.03024" stroke-miterlimit="10"/>
<path d="M675.616 329.557H553.132V359.474H675.616V329.557Z" fill="white" stroke="black" stroke-width="3.03024" stroke-miterlimit="10"/>
<path d="M803.503 256.037H729.968L745.39 342.038H882.668V333.611H818.369L803.503 256.037Z" fill="black"/>
<path d="M660.657 216.438H573.02V236.336H660.657V216.438Z" fill="white" stroke="black" stroke-width="3.03024" stroke-miterlimit="10"/>
<path d="M660.657 250.758H572.354V275.797H660.657V250.758Z" fill="white" stroke="black" stroke-width="3.03024" stroke-miterlimit="10"/>
<path d="M841.571 249.048H845.737L853.881 259.654L847.631 274.237L864.298 337.114L831.344 335.22L843.654 274.237L835.889 258.328L841.571 249.048Z" fill="black" stroke="black" stroke-width="3.03024"/>
<path d="M639.908 290.388H595.258V309.622H639.908V290.388Z" fill="#23A094" stroke="black" stroke-width="3.03024" stroke-miterlimit="10"/>
<path d="M604.606 300.465C607.161 301.935 608.987 303.271 609.691 303.921C612.252 302.142 619.665 295.626 629.935 299.274" fill="#23A094"/>
<path d="M604.606 300.465C607.161 301.935 608.987 303.271 609.691 303.921C612.252 302.142 619.665 295.626 629.935 299.274" stroke="black" stroke-width="3.03024" stroke-miterlimit="10" stroke-linecap="round" stroke-linejoin="round"/>
<path d="M818.655 333.326L802.367 256.813H793.276L812.215 341.375H883.426V333.326H818.655Z" fill="#23A094" stroke="black" stroke-width="3.03024"/>
<path d="M897.729 213.786H781.25" stroke="black" stroke-width="3.03024" stroke-miterlimit="10"/>
<path d="M843.469 248.862C856.988 248.516 867.579 233.921 867.126 216.262C866.674 198.605 855.349 184.57 841.829 184.917C828.311 185.263 817.721 199.858 818.172 217.515C818.625 235.172 829.951 249.207 843.469 248.862Z" fill="#FFC900" stroke="black" stroke-width="3.03024" stroke-miterlimit="10"/>
<path d="M831.73 226.464H857.701C858.435 226.464 859.04 227.082 858.978 227.809C858.126 237.974 843.168 244.43 831.097 227.723C830.716 227.206 831.088 226.464 831.73 226.464Z" fill="white" stroke="black" stroke-width="3.03024" stroke-miterlimit="10"/>
<path d="M833.656 215.964C835.135 215.964 836.333 214.765 836.333 213.288C836.333 211.811 835.135 210.614 833.656 210.614C832.177 210.614 830.979 211.811 830.979 213.288C830.979 214.765 832.177 215.964 833.656 215.964Z" fill="black"/>
<path d="M854.581 215.964C856.06 215.964 857.258 214.765 857.258 213.288C857.258 211.811 856.06 210.614 854.581 210.614C853.102 210.614 851.902 211.811 851.902 213.288C851.902 214.765 853.102 215.964 854.581 215.964Z" fill="black"/>
<path d="M750.499 148.482V255.952" stroke="black" stroke-width="3.03024" stroke-miterlimit="10"/>
<path d="M750.5 213.786H728.84" stroke="black" stroke-width="3.03024" stroke-miterlimit="10"/>
<path d="M781.25 148.482V256.393" stroke="black" stroke-width="3.03024" stroke-miterlimit="10"/>
<path d="M824.905 332.384C822.254 332.384 821.686 324.619 821.875 319.316C822.064 314.013 823.769 308.71 825.852 308.71C826.981 308.71 827.998 310.654 828.604 313.221C829.072 308.71 830.776 305.87 833.428 305.68C834.981 305.568 836.404 307.844 837.126 311.166C837.914 309.906 840.019 307.65 842.14 308.71C843.25 309.265 844.194 310.483 844.791 312.088C846.181 310.327 849.185 307.677 850.094 311.166C851.231 315.527 850.662 322.827 848.2 326.374C845.738 329.92 845.549 328.443 843.844 328.443C842.481 328.443 842.511 327.063 842.696 326.374C841.72 328.924 840.7 330.884 839.488 331.436C837.822 332.193 836.204 329.757 835.602 328.443C835.451 328.921 835.296 329.389 835.132 329.921C834.375 332.384 834.754 333.331 830.966 333.331C829.072 333.142 828.139 327.252 828.284 326.374C827.71 329.636 826.778 332.384 824.905 332.384Z" fill="#FFC900"/>
<path d="M878.654 328.443C878.469 329.39 876.673 329.946 876.23 329.92C874.526 329.92 873.641 329.257 872.815 327.69C872.123 328.939 870.245 331.132 868.276 329.92C867.68 329.554 867.206 329.076 866.83 328.514C866.365 329.235 864.999 330.526 863.258 329.92C861.079 329.163 860.794 326.373 860.511 321.587C860.227 316.801 860.985 311.166 863.258 310.318C865.076 309.64 866.397 311.216 866.83 312.087C867.397 311.416 868.174 311.166 869.223 311.166C871.647 311.166 872.688 312.649 873.294 313.221C874.254 311.563 875.517 311.166 876.23 311.166C877.474 311.166 878.973 311.424 879.26 314.765C879.576 314.249 879.765 311.748 881.722 311.166C883.616 310.603 885.215 311.959 885.51 315.148C885.985 320.263 885.51 323.481 884.563 326.373C883.263 330.343 879.93 329.349 878.654 328.443Z" fill="#FFC900"/>
<path d="M866.83 312.088C866.397 311.216 865.076 309.641 863.258 310.318C860.985 311.166 860.227 316.801 860.511 321.587C860.794 326.374 861.079 329.163 863.258 329.921C864.998 330.527 866.365 329.236 866.83 328.514M828.284 326.374C828.637 324.357 828.855 322.143 829.072 320.263C829.332 318.006 829.116 315.392 828.604 313.221L828.284 326.374ZM828.284 326.374C827.71 329.636 826.778 332.384 824.905 332.384C822.254 332.384 821.686 324.619 821.875 319.316C822.064 314.013 823.769 308.71 825.852 308.71C826.981 308.71 827.998 310.654 828.604 313.221L828.284 326.374ZM828.284 326.374C828.139 327.252 829.072 333.142 830.966 333.331C834.754 333.331 834.375 332.384 835.132 329.921C835.296 329.389 835.451 328.921 835.602 328.443L828.284 326.374ZM828.604 313.221C829.072 308.71 830.776 305.87 833.428 305.68C834.981 305.568 836.404 307.844 837.126 311.166L828.604 313.221ZM837.126 311.166C837.637 313.516 837.797 316.39 837.405 319.316C836.663 324.849 836.154 326.71 835.602 328.443L837.126 311.166ZM837.126 311.166C837.914 309.906 840.019 307.65 842.14 308.71C843.25 309.265 844.194 310.483 844.791 312.088L837.126 311.166ZM835.602 328.443C836.204 329.757 837.822 332.193 839.488 331.436C840.7 330.884 841.72 328.924 842.696 326.374L835.602 328.443ZM844.791 312.088C845.622 314.316 845.782 317.29 844.791 320.263C844.078 322.401 843.399 324.54 842.696 326.374L844.791 312.088ZM844.791 312.088C846.181 310.327 849.185 307.677 850.094 311.166C851.231 315.527 850.662 322.827 848.2 326.374C845.738 329.92 845.549 328.443 843.844 328.443C842.481 328.443 842.511 327.063 842.696 326.374L844.791 312.088ZM878.654 328.443C879.104 326.152 878.992 321.575 879.26 317.421C879.328 316.369 879.322 315.494 879.26 314.765L878.654 328.443ZM878.654 328.443C878.469 329.39 876.672 329.946 876.23 329.921C874.525 329.921 873.641 329.257 872.815 327.69L878.654 328.443ZM878.654 328.443C879.93 329.349 883.263 330.343 884.563 326.374C885.51 323.481 885.984 320.263 885.51 315.148C885.215 311.959 883.616 310.603 881.722 311.166C879.765 311.748 879.575 314.25 879.26 314.765L878.654 328.443ZM879.26 314.765C878.972 311.424 877.474 311.166 876.23 311.166C875.516 311.166 874.254 311.563 873.294 313.221L879.26 314.765ZM873.294 313.221C872.216 315.081 871.685 317.8 871.685 321.587C871.685 324.378 872.113 326.358 872.815 327.69L873.294 313.221ZM873.294 313.221C872.688 312.65 871.647 311.166 869.223 311.166C868.174 311.166 867.397 311.416 866.83 312.088L873.294 313.221ZM872.815 327.69C872.122 328.939 870.245 331.133 868.276 329.921C867.68 329.554 867.206 329.077 866.83 328.514L872.815 327.69ZM866.83 312.088C865.759 313.359 865.435 316.137 865.435 321.587C865.435 324.172 865.653 326.755 866.83 328.514V312.088Z" stroke="black" stroke-width="3.03024"/>
<path d="M827.557 244.219L831.249 267.04L841.667 248.669" stroke="black" stroke-width="3.03024"/>
<path d="M845.832 248.574L858.711 265.714L859.468 243.177" stroke="black" stroke-width="3.03024"/>
<path d="M719.414 340.523H897.062" stroke="black" stroke-width="3.03024"/>
<path d="M719.414 376.886H897.062" stroke="black" stroke-width="3.03024"/>
</g>
<defs>
<clipPath id="clip0_122_16501">
<rect width="969.677" height="545.443" fill="white" transform="translate(0.490234)"/>
</clipPath>
</defs>
</svg>
