<svg width="970" height="547" viewBox="0 0 970 547" fill="none" xmlns="http://www.w3.org/2000/svg">
<g clip-path="url(#clip0_106_10185)">
<path d="M969.893 0.949463H0.216797V546.393H969.893V0.949463Z" fill="#FFC900"/>
<path d="M997.743 0.949463H-27.6328V546.191H997.743V0.949463Z" fill="#FFC900"/>
<path d="M853.119 390.396C819.247 405.903 781.099 422.174 780.504 422.425L803.822 372.895C803.822 372.895 820.114 365.466 837.391 357.648L853.119 390.396Z" fill="#23A094" stroke="black" stroke-width="3.03024" stroke-miterlimit="10" stroke-linecap="round"/>
<path d="M900.526 345.267L908.329 341.406C909.494 340.83 910.906 341.27 911.541 342.403L913.949 346.724C914.635 347.948 914.144 349.503 912.875 350.112L904.625 354.076C903.388 354.671 901.899 354.127 901.341 352.865L899.379 348.441C898.849 347.248 899.354 345.842 900.526 345.267Z" fill="black" stroke="black" stroke-width="3.03024" stroke-miterlimit="10" stroke-linecap="round"/>
<path d="M897.197 368.832C887.892 374.13 871.107 382.156 853.118 390.401L837.39 357.653C851.771 351.156 866.833 344.387 873.755 341.408C900.493 329.911 914.105 359.208 897.197 368.832Z" fill="black" stroke="black" stroke-width="3.03024" stroke-miterlimit="10" stroke-linecap="round"/>
<path d="M911.295 342.056L921.248 337.47C922.051 337.102 923.002 337.347 923.526 338.067C924.149 338.921 923.928 340.12 923.048 340.703L913.943 346.726L911.295 342.056Z" fill="black" stroke="black" stroke-width="3.03024" stroke-miterlimit="10" stroke-linecap="round"/>
<path d="M794.324 256.98C793.242 259.124 792.148 261.3 791.034 263.489L766.368 251.643C767.535 249.382 768.694 247.141 769.839 244.918L794.324 256.98Z" fill="white" stroke="black" stroke-width="3.03024" stroke-miterlimit="10"/>
<path d="M766.369 251.643L791.035 263.49C777.631 290.027 762.854 318.914 758.91 326.609C758.366 327.678 757.025 328.067 755.989 327.452L735.644 315.469C734.684 314.899 734.334 313.695 734.847 312.704C738.537 305.546 752.893 277.726 766.369 251.643Z" fill="#FF90E8" stroke="black" stroke-width="3.03024" stroke-miterlimit="10"/>
<path d="M842.269 178.664C840.623 182.291 836.841 190.556 834.711 194.579C827.316 208.524 818.548 206.515 814.586 215.804C812.493 220.687 804.069 237.645 794.324 256.979L769.84 244.919C780.174 224.93 789.358 207.183 791.908 202.338C798.533 189.746 789.389 175.575 792.471 169.414C794.427 165.502 798.021 158.76 799.77 155.514C800.32 154.49 801.595 154.114 802.619 154.672L841.369 175.969C842.326 176.494 842.716 177.665 842.269 178.664Z" fill="#23A094" stroke="black" stroke-width="3.03024" stroke-miterlimit="10"/>
<path d="M803.1 154.939L826.742 108.239L854.533 148.333L841.032 175.782L803.1 154.939Z" fill="white" stroke="black" stroke-width="3.03024" stroke-miterlimit="10"/>
<path d="M830.827 114.134L818.102 138.592" stroke="black" stroke-width="3.03024" stroke-miterlimit="10" stroke-linecap="round"/>
<path d="M834.88 119.981L824.079 140.19" stroke="black" stroke-width="3.03024" stroke-miterlimit="10" stroke-linecap="round"/>
<path d="M839.037 126.361L824.861 152.465" stroke="black" stroke-width="3.03024" stroke-miterlimit="10" stroke-linecap="round"/>
<path d="M843.381 132.351L833.363 150.157" stroke="black" stroke-width="3.03024" stroke-miterlimit="10" stroke-linecap="round"/>
<path d="M847.139 137.66L835.398 158.613" stroke="black" stroke-width="3.03024" stroke-miterlimit="10" stroke-linecap="round"/>
<path d="M850.798 143.424L840.451 162.37" stroke="black" stroke-width="3.03024" stroke-miterlimit="10" stroke-linecap="round"/>
<path d="M631.471 312.295H597.773L501.671 213.977L514.104 202.014C528.195 200.726 547.149 231.272 631.471 312.295Z" fill="#23A094" stroke="black" stroke-width="3.03024" stroke-miterlimit="10"/>
<path d="M653.456 312.295H631.472C547.149 231.271 528.195 200.725 514.104 202.014L526.538 190.044L653.456 312.295Z" fill="#FF90E8" stroke="black" stroke-width="3.03024" stroke-miterlimit="10"/>
<path d="M452.037 150.865L456.084 150.846C457.482 150.846 458.901 150.936 460.307 151.118C461.654 151.28 463.038 151.545 464.425 151.895C465.253 152.109 466.043 152.342 466.782 152.595C468.129 153.042 469.488 153.586 470.796 154.207C471.017 154.317 471.581 154.59 471.581 154.59L481.203 164.214L472.299 171.132L452.037 150.865Z" fill="black"/>
<path d="M456.09 152.463C457.257 152.463 458.616 152.528 460.105 152.722C461.329 152.871 462.651 153.11 464.035 153.46C464.82 153.662 465.564 153.881 466.27 154.121C467.728 154.601 469.009 155.137 470.109 155.663C470.285 155.747 470.459 155.831 470.628 155.915L478.768 164.057L472.435 168.974L468.4 164.937L464.619 161.155L458.143 154.678L455.929 152.463C455.981 152.463 456.039 152.463 456.09 152.463ZM456.09 149.224H455.91L448.152 149.263L453.637 154.75L455.851 156.965L462.326 163.442L466.108 167.225L470.143 171.26L472.162 173.281L474.415 171.531L480.749 166.616L483.65 164.361L481.053 161.765L472.914 153.622L472.544 153.253L472.072 153.019C471.891 152.93 471.703 152.839 471.515 152.748C470.129 152.087 468.705 151.517 467.281 151.044C466.529 150.792 465.7 150.546 464.838 150.325C463.375 149.956 461.919 149.684 460.495 149.509C459.043 149.321 457.554 149.224 456.09 149.224Z" fill="black"/>
<path d="M466.272 154.126L461.932 158.473L458.145 154.684L460.107 152.728C461.331 152.877 462.652 153.116 464.037 153.466C464.82 153.667 465.566 153.887 466.272 154.126Z" fill="#FFC900"/>
<path d="M474.028 159.322L468.401 164.945L464.619 161.162L470.11 155.669C470.286 155.754 470.46 155.838 470.628 155.922L474.028 159.322Z" fill="#FF90E8"/>
<path d="M493.894 201.235C481.597 191.421 474.753 182.211 471.165 176.167C468.822 172.223 469.443 167.19 472.687 163.945C476.009 160.622 481.196 160.04 485.153 162.572C490.994 166.316 500.027 173.104 510.743 184.556L493.894 201.235Z" fill="#FF90E8" stroke="black" stroke-width="3.03024" stroke-miterlimit="10"/>
<path d="M526.538 190.046L501.672 213.978L489.901 201.932L514.76 178.703L526.538 190.046Z" fill="white" stroke="black" stroke-width="3.03024" stroke-miterlimit="10"/>
<path d="M678.245 194.406L623.43 118.954C624.79 118.215 628.52 120.664 630.423 119.744C631.77 119.096 629.569 112.969 631.169 112.282C632.864 111.557 635.914 115.968 637.942 115.327C639.198 114.931 638.272 110.326 639.619 109.853C641.167 109.309 643.529 114.465 645.272 114.018C646.963 113.584 646.134 107.658 647.946 107.055C649.5 106.543 651.967 112.276 653.729 111.965C655.568 111.641 655.147 105.41 657.083 104.814C658.986 104.231 659.667 109.97 661.868 109.912C663.779 109.86 663.908 103.603 666.097 102.949C667.729 102.463 668.571 109.549 670.514 109.912C672.63 110.307 673.401 103.383 675.609 101.951C677.248 100.895 677.889 109.251 678.906 109.29C680.006 109.329 682.118 102.813 683.192 102.884C684.901 102.994 684.895 108.279 686.547 108.48C688.281 108.694 690.263 103.817 691.954 104.063C693.586 104.302 693.605 109.704 695.184 110.028C696.727 110.346 699.769 104.354 701.278 104.685C702.813 105.021 701.614 111.22 703.078 111.648C704.348 112.017 707.489 107.431 708.731 107.794C710.305 108.247 708.796 114.523 710.285 115.068C712.048 115.709 714.947 110.747 716.69 111.272C717.79 111.609 716.314 117.639 717.376 118.047C718.646 118.539 722.44 113.416 723.632 113.986C724.843 114.562 723.159 120.1 724.273 120.722C726.253 121.817 728.243 117.088 730.365 117.367C731.88 117.568 729.556 122.872 730.923 123.954C732.996 125.606 738.577 123.274 739.548 123.915C720.4 148.405 701.258 172.902 682.11 197.392L678.245 194.406Z" fill="white" stroke="black" stroke-width="3.03024" stroke-miterlimit="10" stroke-linecap="round"/>
<path d="M706.381 132.333L684.713 174.934" stroke="black" stroke-width="3.03024" stroke-miterlimit="10" stroke-linecap="round"/>
<path d="M692.29 125.071L683.755 169.381" stroke="black" stroke-width="3.03024" stroke-miterlimit="10" stroke-linecap="round"/>
<path d="M670.092 127.527L679.164 165.86" stroke="black" stroke-width="3.03024" stroke-miterlimit="10" stroke-linecap="round"/>
<path d="M658.566 147.224L675.752 168.845" stroke="black" stroke-width="3.03024" stroke-miterlimit="10" stroke-linecap="round"/>
<path d="M680.73 313.86H666.458L673.278 168.525C673.459 164.722 676.593 161.73 680.4 161.73C684.467 161.73 687.711 165.131 687.524 169.192L680.73 313.86Z" fill="#FFC900" stroke="black" stroke-width="3.03024" stroke-miterlimit="10" stroke-linecap="round"/>
<path d="M390.825 201.94H366.457V312.403H390.825V201.94Z" fill="#FF90E8" stroke="black" stroke-width="3.03024" stroke-miterlimit="10"/>
<path d="M366.457 201.935V107.517C366.457 107.517 372.861 131.943 394.32 156.633C384.984 173.17 379.699 178.908 378.637 201.941H366.457V201.935Z" fill="white" stroke="black" stroke-width="3.03024" stroke-miterlimit="10"/>
<path d="M376.022 169.86C375.349 168.753 373.464 165.351 373.917 160.753C374.3 156.873 376.132 154.218 376.967 153.148C377.531 155.714 377.77 157.689 380.173 160.824C377.946 163.46 377.013 166.388 376.022 169.86Z" fill="#98282A" stroke="black" stroke-width="3.03024" stroke-miterlimit="10"/>
<path d="M202.835 175.261C201.864 162.624 196.957 144.151 187.573 133.166C177.711 121.617 159.25 116.818 150.352 103.261C150.352 103.261 150.507 106.04 151.88 108.682C146.939 106.979 143.469 104.789 139.629 101.007C140.373 103.65 144.621 108.248 144.621 108.248C140.6 106.759 136.501 104.459 136.501 104.459C138.243 108.533 143.559 111.033 143.948 112.284C144.336 113.534 144.666 172.476 191.185 183.105L202.835 175.261Z" fill="black"/>
<path d="M192.993 179.538L176.681 159.031L178.968 158.145L171.727 147.8L175.793 148.183L167.35 135.863L173.572 137.327L167.35 127.805L182.075 144.497L175.412 142.528L186.013 156.24L179.342 153.669L192.993 179.538Z" fill="white"/>
<path d="M271.896 324.452L186.842 185.736L204.325 174.537L307.447 312.397L271.896 324.452Z" fill="#23A094" stroke="black" stroke-width="3.03024" stroke-miterlimit="10"/>
<path d="M220.668 196.388L200.841 208.559L206.577 217.918L227.319 205.276L220.668 196.388Z" fill="black"/>
<path d="M223.939 200.756L203.689 213.206" stroke="#FF90E8" stroke-width="3.03024" stroke-miterlimit="10"/>
<path d="M84.3799 273.304L254.083 400.27L252.884 395.476L88.7443 273.304H84.3799Z" fill="#FFC900"/>
<path d="M251.097 389.41L89.6309 269.258V263.811H97.4209L249.471 377.893L251.097 389.41Z" fill="#FFC900"/>
<path d="M97.5576 253.537L248.546 366.945L248.98 373.046L98.3282 259.871L97.5576 253.537Z" fill="#FFC900"/>
<path d="M252.76 435.707C253.175 435.921 253.615 436.109 254.088 436.269C266.028 440.383 269.727 423.485 269.727 423.485L272.731 418.893L263.627 411.605L255.448 407.505C252.029 410.659 249.004 416.502 248.013 422.162C247.877 422.933 247.78 423.698 247.729 424.45C247.677 425.156 247.657 425.854 247.683 426.535C247.754 428.568 248.176 430.467 249.044 432.073" fill="white"/>
<path d="M252.76 435.707C253.175 435.921 253.615 436.109 254.088 436.269C266.028 440.383 269.727 423.485 269.727 423.485L272.731 418.893L263.627 411.605L255.448 407.505C252.029 410.659 249.004 416.502 248.013 422.162C247.877 422.933 247.78 423.698 247.729 424.45C247.677 425.156 247.657 425.854 247.683 426.535C247.754 428.568 248.176 430.467 249.044 432.073" stroke="black" stroke-width="3.03024" stroke-miterlimit="10" stroke-linecap="round"/>
<path d="M258.881 412.553C252.613 423.033 256.232 427.736 261.341 425.709C265.072 424.232 261.199 415.417 261.199 415.417L258.881 412.553Z" fill="#FFC900" stroke="black" stroke-width="3.03024" stroke-miterlimit="10" stroke-linecap="round"/>
<path d="M262.968 422.904L262.068 424.471L261.349 425.709C256.532 425.948 251.979 426.085 247.685 426.532C239.132 427.412 231.601 429.504 225.034 436.098C223.96 437.186 224.018 438.993 225.184 439.978C228.745 442.989 237.473 444.551 249.046 432.069C249.493 432.898 250.062 433.656 250.762 434.31C251.338 434.848 252.005 435.315 252.762 435.703C246.767 444.946 227.528 449.557 220.981 443.76C213.256 436.913 222.975 429.103 231.264 426.168C234.522 425.023 241.263 423.092 248.016 422.159C253.656 421.368 259.315 421.279 262.968 422.904Z" fill="white" stroke="black" stroke-width="3.03024" stroke-miterlimit="10" stroke-linecap="round" stroke-linejoin="round"/>
<path d="M250.048 435.21C242.285 444.266 223.829 447.905 221.297 439.614C218.825 431.525 236.347 425.754 247.73 424.445C248.242 424.381 248.747 424.328 249.233 424.291C252.018 424.057 254.213 423.927 255.863 423.863C258.565 423.753 259.813 423.804 259.813 423.804" stroke="white" stroke-width="3.03024" stroke-miterlimit="10" stroke-linecap="round"/>
<path d="M809.425 367.915V377.307C809.425 388.895 806.045 399.698 800.217 408.765H256.239C250.411 399.698 247.031 388.895 247.031 377.307V371.107H283.838V347.427H250.736C259.017 325.34 280.328 309.621 305.31 309.621H751.146C783.335 309.621 809.425 335.717 809.425 367.915Z" fill="#23A094" stroke="black" stroke-width="3.03024" stroke-miterlimit="10"/>
<path d="M800.216 408.765C797.431 413.105 794.091 417.044 790.295 420.489H266.159C262.364 417.044 259.023 413.105 256.238 408.765H800.216Z" fill="white" stroke="black" stroke-width="3.03024" stroke-miterlimit="10" stroke-linecap="round"/>
<path d="M790.296 420.489C786.514 423.923 782.287 426.863 777.708 429.215H278.748C274.171 426.863 269.942 423.923 266.16 420.489H790.296Z" fill="white" stroke="black" stroke-width="3.03024" stroke-miterlimit="10" stroke-linecap="round"/>
<path d="M777.708 429.214C769.743 433.294 760.716 435.6 751.145 435.6H305.31C295.739 435.6 286.712 433.294 278.747 429.214H777.708Z" fill="white" stroke="black" stroke-width="3.03024" stroke-miterlimit="10" stroke-linecap="round"/>
<path d="M690.313 388.271C690.495 388.693 690.993 388.861 691.383 388.615C695.598 385.965 706.476 380.084 720.84 381.478C730.015 382.364 736.911 385.862 740.888 388.356C741.379 388.667 742.013 388.305 742.013 387.727V347.957C742.013 347.459 741.529 347.096 741.056 347.251C735.92 348.89 727.45 350.84 717.038 349.868C705.201 348.768 696.387 344.409 691.531 341.5C691.11 341.247 690.56 341.474 690.449 341.953C687.613 353.949 670.577 362.013 665.079 364.332C664.477 364.584 664.47 365.44 665.073 365.692C670.039 367.798 684.544 374.884 690.313 388.271Z" fill="white" stroke="black" stroke-width="3.03024" stroke-miterlimit="10" stroke-linecap="round"/>
<path d="M697.154 357.512L733.934 376.302" stroke="black" stroke-width="3.03024" stroke-miterlimit="10" stroke-linecap="round" stroke-linejoin="round"/>
<path d="M735.198 355.127L695.503 377.298" stroke="black" stroke-width="3.03024" stroke-miterlimit="10" stroke-linecap="round" stroke-linejoin="round"/>
<path d="M283.837 347.427V371.107H247.031V367.915C247.031 367.591 247.031 367.266 247.043 366.942H275.056V351.593H249.349C249.757 350.18 250.216 348.787 250.734 347.427H283.837Z" fill="black" stroke="black" stroke-width="3.03024" stroke-miterlimit="10"/>
<path d="M275.057 351.594V366.944H247.044C247.129 361.62 247.926 356.471 249.35 351.594H275.057Z" fill="white" stroke="black" stroke-width="3.03024" stroke-miterlimit="10"/>
<path d="M47.1855 227.081L96.4269 249.808L107.79 282.762L76.3516 271.02L47.1855 227.081Z" fill="#FBFBF9" stroke="black" stroke-width="3.03024"/>
<path d="M60.2535 246.02L67.2609 236.93L47.375 227.649L60.2535 246.02Z" fill="black" stroke="black" stroke-width="3.03024"/>
<path d="M96.8062 250.566L252.864 367.609L256.273 404.35L77.8672 271.777H86.9579V261.55H96.8062V250.566Z" fill="#FFC900" stroke="black" stroke-width="3.03024"/>
<path d="M96.2373 260.982L255.135 380.108" stroke="black" stroke-width="3.03024"/>
<path d="M86.5791 271.588L255.894 396.396" stroke="black" stroke-width="3.03024"/>
</g>
<defs>
<clipPath id="clip0_106_10185">
<rect width="969.677" height="545.443" fill="white" transform="translate(0.216797 0.949463)"/>
</clipPath>
</defs>
</svg>
