<svg width="971" height="547" viewBox="0 0 971 547" fill="none" xmlns="http://www.w3.org/2000/svg">
<g clip-path="url(#clip0_106_10033)">
<path d="M970.109 0.966309H0.432617V546.409H970.109V0.966309Z" fill="#F1F333"/>
<path d="M115.867 224.932L889.602 226.966C891.804 226.974 893.958 227.651 895.738 228.942C899.179 231.451 903.247 235.462 894.011 235.462L115.907 246.058C113.936 246.084 112.327 244.496 112.327 242.528V228.462C112.327 226.506 113.909 224.926 115.867 224.932Z" fill="#FF90E8" stroke="black" stroke-width="3.03024" stroke-miterlimit="10"/>
<path d="M122.372 224.956V245.977" stroke="black" stroke-width="3.03024" stroke-miterlimit="10"/>
<path d="M115.866 224.93H44.002C44.002 224.93 56.6647 223.771 67.3237 232.548C80.3492 243.263 99.3337 249.407 112.319 238.205L115.866 224.93Z" fill="#D6D3D1" stroke="black" stroke-width="3.03024" stroke-miterlimit="10"/>
<path d="M98.6461 234.463C98.7514 232.633 95.8553 230.978 92.1773 230.768C88.4992 230.555 85.4323 231.868 85.327 233.698C85.2217 235.528 88.1179 237.183 91.7958 237.393C95.4739 237.605 98.5408 236.293 98.6461 234.463Z" fill="#FF90E8" stroke="black" stroke-width="3.03024" stroke-miterlimit="10"/>
<path d="M817.901 186.317L811.079 187.543C806.044 177.275 801.805 146.943 801.805 146.943C804.224 146.417 806.603 145.897 808.95 145.376C808.95 145.376 815.383 180.482 817.901 186.317Z" fill="#D6D3D1" stroke="black" stroke-width="3.03024" stroke-miterlimit="10"/>
<path d="M811.079 187.543L363.303 268.015C363.303 268.015 146.841 306.369 135.431 308.548C125.57 310.425 61.5828 322.516 44.3518 325.776C41.7349 326.27 39.0718 325.243 37.4635 323.116C34.3851 319.046 36.5735 313.158 41.5569 312.072C94.4562 300.56 326.672 250.045 347.885 245.961C365.44 242.577 650.746 180.075 801.805 146.945C801.805 146.945 806.042 177.276 811.079 187.543Z" fill="#98282A" stroke="black" stroke-width="3.03024" stroke-miterlimit="10"/>
<path d="M824.296 185.17V185.178L817.902 186.323C815.384 180.488 808.951 145.382 808.951 145.382C811.119 144.908 813.256 144.441 815.353 143.979C815.353 143.979 821.054 177.67 824.296 185.17Z" fill="#D6D3D1" stroke="black" stroke-width="3.03024" stroke-miterlimit="10"/>
<path d="M915.349 165.437L908.407 170.054L824.297 185.167C821.053 177.666 815.352 143.976 815.352 143.976C862.838 133.564 894.024 126.716 894.024 126.716L890.221 132.056L900.254 133.373L894.447 139.649L904.632 141.177L896.926 148.454L908.224 150.673L900.148 157.897L910.966 158.424L905.375 163.587L915.349 165.437Z" fill="#F1F333" stroke="black" stroke-width="3.03024" stroke-miterlimit="10"/>
<path d="M854.435 141.979L816.229 148.999" stroke="black" stroke-width="3.03024" stroke-miterlimit="10" stroke-linecap="round" stroke-linejoin="round"/>
<path d="M862.106 146.157C862.106 146.157 829.153 152.236 817.908 157.537" stroke="black" stroke-width="3.03024" stroke-miterlimit="10" stroke-linecap="round" stroke-linejoin="round"/>
<path d="M871.981 151.224C871.981 151.224 832.594 157.171 819.285 165.184" stroke="black" stroke-width="3.03024" stroke-miterlimit="10" stroke-linecap="round" stroke-linejoin="round"/>
<path d="M870.617 158.195C848.363 161.587 821.857 171.183 820.195 169.569" stroke="black" stroke-width="3.03024" stroke-miterlimit="10" stroke-linecap="round" stroke-linejoin="round"/>
<path d="M870.617 164.937C858.666 166.846 825.041 177.844 821.818 176.79" stroke="black" stroke-width="3.03024" stroke-miterlimit="10" stroke-linecap="round" stroke-linejoin="round"/>
<path d="M711.226 179.892C708.226 180.88 700.138 183.527 688.043 187.478L679.301 162.165L703.738 153.4C704.35 153.182 704.997 153.617 705.017 154.268C705.109 157.924 705.912 168.559 711.739 178.496C712.05 179.022 711.806 179.701 711.226 179.892Z" fill="#D6D3D1" stroke="black" stroke-width="3.03024" stroke-miterlimit="10"/>
<path d="M688.04 187.475C589.21 219.763 222.842 339.22 181.525 352.694C179.251 353.432 176.752 352.655 175.302 350.758C174.511 349.724 174.136 348.526 174.136 347.347C174.136 345.074 175.507 342.876 177.874 342.032L679.299 162.162L688.04 187.475Z" fill="#23A094" stroke="black" stroke-width="3.03024" stroke-miterlimit="10"/>
<path d="M696.324 155.9L704.61 181.911" stroke="black" stroke-width="3.03024" stroke-miterlimit="10"/>
<path d="M688.781 158.93L697.323 184.619" stroke="black" stroke-width="3.03024" stroke-miterlimit="10"/>
<path d="M706.205 163.896C709.514 153.919 716.441 140.591 735.604 136.06C754.766 131.529 780.52 127.967 783.619 107.934C785.102 112.116 783.019 117.029 783.019 117.029C787.937 113.473 789.361 102.929 789.361 102.929C791.212 106.999 789.729 112.695 789.729 112.695C791.773 111.708 793.711 104.688 793.711 104.688C793.817 120.782 776.955 148.52 751.141 162.263C724.338 176.527 708.532 171.772 708.532 171.772C708.532 171.772 706.957 168.163 706.205 163.896Z" fill="black" stroke="black" stroke-width="3.03024" stroke-miterlimit="10"/>
<path d="M708.313 158.424C713.119 157.178 713.336 157.936 711.959 161.472C711.919 161.577 711.971 161.703 712.083 161.736C713.078 162.025 713.784 162.157 716.698 160.55C718.003 160.056 719.203 161.94 717.957 163.442C717.581 163.895 717.43 164.495 717.627 165.048C717.859 165.668 718.537 166.128 719.631 165.39C720.857 164.568 723.619 164.245 722.783 166.583C721.945 168.921 716.092 169.808 708.036 170.04L706.316 164.469L708.313 158.424Z" fill="#F1F333"/>
<path d="M710.754 153.715C714.34 151.944 715.131 153.933 718.645 150.673C719.369 149.876 721.828 150.206 720.707 152.879C720.839 152.892 721.175 152.912 721.545 152.926C722.638 152.979 723.667 152.194 723.746 151.095C723.752 151.009 723.752 150.93 723.746 150.844C725.81 150.772 727.582 150.522 727.187 153.703C727.873 154.242 730.734 152.979 730.95 150.877C733.272 150.627 734.932 151.128 734.682 153.557C736.35 153.735 736.89 150.449 736.89 150.449C738.011 150.416 740.911 151.18 740.509 153.327C742.209 152.727 742.321 150.811 742.321 150.811C745.683 151.891 747.899 150.522 747.899 150.522C747.899 150.522 744.715 149.06 744.853 144.871C743.771 145.247 741.141 146.05 739.876 148.408C738.025 146.459 738.479 143.436 738.479 143.436C735.829 143.508 733.614 143.028 726.39 147.802C724.076 147.874 720.905 146.669 719.705 143.429C718.057 144.825 714.057 147.96 710.754 153.715Z" fill="#F1F333"/>
<path d="M728.691 165.727C729.316 164.993 729.497 164.121 729.095 163.778C728.694 163.437 727.86 163.755 727.235 164.489C726.61 165.224 726.429 166.096 726.832 166.437C727.233 166.78 728.067 166.461 728.691 165.727Z" fill="#F1F333"/>
<path d="M735.031 164.443C735.534 163.854 735.558 163.049 735.087 162.649C734.616 162.249 733.826 162.402 733.323 162.992C732.822 163.583 732.796 164.386 733.267 164.786C733.738 165.187 734.529 165.033 735.031 164.443Z" fill="#F1F333"/>
<path d="M769.659 133.463C770.491 132.79 770.909 131.929 770.594 131.539C770.277 131.148 769.347 131.377 768.515 132.05C767.682 132.722 767.264 133.584 767.58 133.974C767.896 134.364 768.826 134.135 769.659 133.463Z" fill="#F1F333"/>
<path d="M746.417 155.633C746.985 155.174 747.273 154.585 747.058 154.319C746.843 154.053 746.206 154.21 745.638 154.671C745.069 155.13 744.782 155.718 744.997 155.985C745.212 156.25 745.847 156.092 746.417 155.633Z" fill="#F1F333"/>
<path d="M778.602 134.291C778.919 133.803 779.002 133.294 778.787 133.156C778.574 133.018 778.143 133.302 777.828 133.791C777.512 134.28 777.428 134.788 777.642 134.926C777.857 135.064 778.286 134.78 778.602 134.291Z" fill="#F1F333"/>
<path d="M782.562 126.698C782.817 126.698 783.024 126.226 783.024 125.644C783.024 125.062 782.817 124.591 782.562 124.591C782.308 124.591 782.102 125.062 782.102 125.644C782.102 126.226 782.308 126.698 782.562 126.698Z" fill="#F1F333"/>
<path d="M545.717 165.069C549.237 158.833 553.911 156.159 559.27 156.165C573.712 156.184 580.7 169.27 585.913 189.915C591.128 210.56 598.234 259.272 599.499 271.146C600.422 279.791 601.451 287.16 597.324 299.086C591.701 315.372 581.623 341.094 567.233 361.806C562.888 368.048 557.629 378.814 553.126 389.246C548.625 399.678 562.92 554.84 562.92 554.84H426.559C426.559 554.84 436.385 407.6 436.068 394.455C415.305 384.795 411.659 371.492 403.413 358.348C395.166 345.203 385.898 308.951 385.898 308.951C367.263 329.564 357.02 304.493 353.908 288.345C350.671 271.527 345.444 239.325 347.634 217.678C349.815 196.033 380.045 194.577 384.125 206.029C385.008 189.526 392.114 172.523 398.739 170.205C405.555 167.822 427.895 170.713 436.576 173.057C440.189 165.714 444.262 160.531 447.947 158.78C455.06 155.395 487.485 155.902 494.162 163.646C496.753 159.701 499.72 156.574 502.97 155.066C514.122 149.896 540.226 154.545 545.717 165.069Z" fill="#FF7051"/>
<path d="M544.691 164.642C540.498 153.354 514.499 149.72 502.97 155.068C491.592 160.342 483.616 185.617 483.616 195.533C483.616 209.153 484.256 243.199 488.837 262.658C492.048 276.283 504.413 294.63 517.979 285.351C530.188 277.001 541.414 263.218 539.198 219.577C536.826 172.722 545.929 156.148 559.265 156.167C573.707 156.187 580.695 169.272 585.908 189.917C591.122 210.562 598.229 259.273 599.494 271.147C600.417 279.794 601.446 287.162 597.318 299.089C591.69 315.367 581.617 341.095 567.221 361.8C561.275 370.354 551.175 390.479 551.175 397.064C549.198 416.821 563.3 557.115 563.3 557.115L426.939 554.085L436.201 395.879C418.568 385.896 400.665 364.218 385.906 308.94" stroke="black" stroke-width="3.03024" stroke-miterlimit="10" stroke-linecap="round" stroke-linejoin="round"/>
<path d="M494.172 163.645C487.494 155.901 455.069 155.394 447.957 158.772C440.843 162.15 432.254 178.33 428.418 198.172C424.581 218.008 428.392 272.599 432.657 287.515C436.922 302.43 456.782 309.168 473.097 297.347C485.735 288.194 488.839 262.655 488.839 262.655" stroke="black" stroke-width="3.03024" stroke-miterlimit="10" stroke-linecap="round" stroke-linejoin="round"/>
<path d="M436.586 173.058C427.898 170.722 405.563 167.824 398.742 170.208C391.92 172.592 384.59 190.55 384.068 207.488C382.605 227.954 387.879 278.312 401.491 286.953C419.862 298.615 432.09 285.306 432.09 285.306" stroke="black" stroke-width="3.03024" stroke-miterlimit="10" stroke-linecap="round" stroke-linejoin="round"/>
<path d="M384.134 206.035C380.054 194.578 349.824 196.032 347.643 217.685C345.461 239.331 350.682 271.54 353.918 288.351C357.154 305.165 368.13 331.664 388.261 306.165C394.919 296.821 394.978 280.259 392.829 273.793" stroke="black" stroke-width="3.03024" stroke-miterlimit="10" stroke-linecap="round" stroke-linejoin="round"/>
<path d="M457.289 337.264C469.102 378.383 491.29 384.461 491.29 384.461" stroke="black" stroke-width="3.03024" stroke-miterlimit="10" stroke-linecap="round" stroke-linejoin="round"/>
<path d="M539.404 235.49C539.51 263.94 539.938 270.241 541.975 275.464C544.012 280.685 539.332 280.864 535.185 285.183C531.039 289.503 514.638 308.943 512.299 338.294" stroke="black" stroke-width="3.03024" stroke-miterlimit="10" stroke-linecap="round" stroke-linejoin="round"/>
<path d="M682.466 262.237L678.958 275.855C678.695 276.89 677.667 277.535 676.619 277.33L663.105 274.729L667.78 257.146L680.904 259.754C682.044 259.978 682.755 261.111 682.466 262.237Z" fill="#FF90E8" stroke="black" stroke-width="3.03024" stroke-miterlimit="10"/>
<path d="M667.781 257.146L663.106 274.729L654.84 273.141L658.381 255.282L667.781 257.146Z" fill="#D6D3D1" stroke="black" stroke-width="3.03024" stroke-miterlimit="10"/>
<path d="M658.381 255.285L654.84 273.144L649.402 272.097L651.769 253.967L658.381 255.285Z" fill="#D6D3D1" stroke="black" stroke-width="3.03024" stroke-miterlimit="10"/>
<path d="M651.77 253.963L649.404 272.091L639.727 270.235L644.11 252.441L651.77 253.963Z" fill="#D6D3D1" stroke="black" stroke-width="3.03024" stroke-miterlimit="10"/>
<path d="M204.35 168.361L201.311 178.273L184.864 170.707C182.702 169.711 183.572 166.452 185.944 166.677L204.35 168.361Z" fill="black" stroke="black" stroke-width="3.03024" stroke-miterlimit="10"/>
<path d="M598.743 262.364L639.724 270.24L644.108 252.446L595.85 242.865L598.743 262.364Z" fill="#E7E5E4" stroke="black" stroke-width="3.03024" stroke-miterlimit="10"/>
<path d="M230.947 170.802C230.947 170.802 233.749 176.688 234.776 179.916C231.85 180.014 227.638 180.463 227.638 180.463C227.638 180.463 229.727 184.426 232.846 185.725C230.143 186.909 224.684 189.023 224.684 189.023" stroke="black" stroke-width="3.03024" stroke-miterlimit="10" stroke-linecap="round" stroke-linejoin="round"/>
<path d="M383.644 221.401L231.493 192.162L201.309 178.275L204.346 168.363L230.946 170.807L383.908 201.179L383.644 221.401Z" fill="#E7E5E4" stroke="black" stroke-width="3.03024" stroke-miterlimit="10"/>
<path d="M133.592 156.981L-13.1285 126.273C-14.0184 126.089 -14.5919 125.213 -14.4007 124.324C-14.2096 123.435 -13.3394 122.862 -12.4496 123.053L-12.4364 123.06L133.968 155.242C134.449 155.348 134.752 155.822 134.647 156.303C134.541 156.777 134.073 157.08 133.592 156.981Z" fill="black"/>
<path d="M122.3 193.141L-12.9246 182.302C-13.8342 182.229 -14.5066 181.432 -14.4341 180.529C-14.3616 179.628 -13.564 178.949 -12.6609 179.022C-12.6543 179.022 -12.6477 179.022 -12.6411 179.022L122.445 191.514C122.893 191.553 123.23 191.955 123.19 192.403C123.144 192.852 122.748 193.18 122.3 193.141Z" fill="black"/>
<path d="M111.542 266.658L-12.5758 283.226C-13.4789 283.346 -14.3094 282.713 -14.4281 281.811C-14.5467 280.91 -13.9139 280.079 -13.0108 279.961C-13.0043 279.961 -12.9911 279.961 -12.9911 279.961L111.344 265.07C111.785 265.019 112.181 265.334 112.234 265.769C112.286 266.204 111.977 266.599 111.542 266.658Z" fill="black"/>
<path d="M190.638 316.378L-12.2717 382.968C-13.1353 383.251 -14.0647 382.784 -14.3548 381.921C-14.6382 381.059 -14.1702 380.13 -13.3067 379.841L-13.2935 379.834L190.144 314.877C190.559 314.745 191 314.975 191.132 315.39C191.271 315.798 191.047 316.239 190.638 316.378Z" fill="black"/>
<path d="M181.408 385.424L-7.10239 493.794C-7.90001 494.235 -8.90196 493.953 -9.34362 493.156C-9.78526 492.359 -9.50181 491.358 -8.70421 490.917L-8.69761 490.911L180.3 383.416C180.855 383.113 181.553 383.31 181.856 383.869C182.16 384.424 181.961 385.121 181.408 385.424Z" fill="black"/>
<path d="M332.432 360.08L125.344 557.252C124.672 557.866 123.63 557.813 123.017 557.134C122.404 556.463 122.457 555.422 123.136 554.81L123.149 554.796L331.601 359.152C331.858 358.927 332.254 358.947 332.478 359.205C332.702 359.461 332.682 359.85 332.432 360.08Z" fill="black"/>
<path d="M369.221 359.954L212.736 557.91C212.17 558.623 211.135 558.741 210.423 558.174C209.711 557.607 209.592 556.574 210.159 555.862C210.165 555.856 210.173 555.85 210.173 555.842L368.377 359.275C368.568 359.045 368.91 359.012 369.142 359.202C369.372 359.387 369.406 359.724 369.221 359.954Z" fill="black"/>
<path d="M376.191 401.076L281.971 557.473C281.489 558.244 280.474 558.48 279.702 558C278.931 557.518 278.693 556.505 279.175 555.735C279.181 555.727 279.189 555.715 279.195 555.702L374.972 400.291C375.188 399.956 375.643 399.864 375.979 400.081C376.303 400.299 376.402 400.74 376.191 401.076Z" fill="black"/>
<path d="M601.069 406.191L691.231 564.288C691.705 565.064 691.461 566.079 690.684 566.553C689.905 567.027 688.89 566.783 688.416 566.006C688.41 566 688.402 565.986 688.396 565.98L599.598 407.067C599.362 406.659 599.499 406.138 599.908 405.894C600.304 405.664 600.825 405.796 601.069 406.191Z" fill="black"/>
<path d="M644.466 382.346L799.833 554.268C800.452 554.933 800.419 555.973 799.754 556.592C799.087 557.212 798.046 557.179 797.427 556.514C797.427 556.508 797.413 556.5 797.413 556.494L643.28 383.438C642.983 383.11 643.003 382.602 643.333 382.299C643.662 382.004 644.169 382.023 644.466 382.346Z" fill="black"/>
<path d="M697.898 318.325L984.364 463.334C985.175 463.741 985.498 464.737 985.09 465.546C984.681 466.356 983.686 466.679 982.875 466.27L982.869 466.264L697.205 319.681C696.829 319.49 696.684 319.029 696.875 318.654C697.067 318.285 697.522 318.134 697.898 318.325Z" fill="black"/>
<path d="M841.586 264.006L983.733 273.416C984.642 273.476 985.327 274.26 985.268 275.169C985.209 276.077 984.424 276.762 983.515 276.703C983.509 276.703 983.501 276.703 983.495 276.703L841.468 265.614C841.025 265.58 840.689 265.192 840.73 264.744C840.762 264.309 841.151 263.98 841.586 264.006Z" fill="black"/>
<path d="M854.406 212.435L983.56 207.574C984.47 207.541 985.234 208.246 985.267 209.155C985.301 210.064 984.595 210.827 983.686 210.861C983.68 210.861 983.666 210.861 983.666 210.861L854.459 213.988C854.031 214.002 853.669 213.659 853.663 213.224C853.649 212.809 853.985 212.455 854.406 212.435Z" fill="black"/>
<path d="M918.915 149.134L983.35 137.761C984.247 137.603 985.103 138.202 985.262 139.098C985.42 139.993 984.82 140.849 983.924 141.007C983.911 141.007 983.891 141.014 983.877 141.014L919.133 150.484C918.757 150.536 918.413 150.28 918.354 149.904C918.303 149.535 918.553 149.193 918.915 149.134Z" fill="black"/>
<path d="M824.138 127.01L983.172 82.0061C984.048 81.7558 984.959 82.2694 985.209 83.1386C985.459 84.0145 984.945 84.9233 984.075 85.1736C984.068 85.1736 984.056 85.1801 984.056 85.1801L824.455 128.13C824.144 128.215 823.821 128.031 823.742 127.721C823.656 127.412 823.835 127.096 824.138 127.01Z" fill="black"/>
<path d="M809.545 96.8863L994.5 23.9556C995.344 23.6065 996.306 24.0083 996.655 24.8447C997.005 25.681 996.603 26.649 995.765 26.998C995.752 27.0046 995.74 27.0111 995.726 27.0111L810.171 98.4339C809.742 98.5986 809.254 98.3813 809.089 97.9531C808.918 97.5383 809.128 97.0576 809.545 96.8863Z" fill="black"/>
<path d="M672.684 120.353L882.566 -12.8228C883.363 -13.2574 884.366 -12.9676 884.801 -12.1708C885.236 -11.374 884.946 -10.373 884.148 -9.93839C884.142 -9.9318 884.128 -9.92523 884.122 -9.92523L673.337 121.571C672.995 121.749 672.579 121.617 672.401 121.275C672.229 120.952 672.355 120.537 672.684 120.353Z" fill="black"/>
<path d="M560.972 129.63L664.947 -12.0467C665.534 -12.7448 666.569 -12.8304 667.267 -12.2509C667.967 -11.6648 668.052 -10.6309 667.472 -9.93285C667.465 -9.92626 667.452 -9.91309 667.452 -9.9065L562.31 130.769C561.987 131.132 561.434 131.171 561.072 130.848C560.709 130.539 560.669 129.992 560.972 129.63Z" fill="black"/>
<path d="M514.125 128.699L557.234 -13.8506C557.512 -14.7133 558.44 -15.194 559.304 -14.9174C560.168 -14.6408 560.65 -13.7123 560.372 -12.8496C560.366 -12.8364 560.359 -12.8167 560.359 -12.8101L515.76 129.246C515.6 129.694 515.107 129.931 514.658 129.773C514.217 129.621 513.979 129.14 514.125 128.699Z" fill="black"/>
<path d="M487.276 127.796L483.979 -15.5337C483.953 -16.4425 484.672 -17.1999 485.581 -17.2261C486.491 -17.2525 487.249 -16.5348 487.276 -15.626C487.276 -15.6061 487.276 -15.5864 487.276 -15.5667L488.718 127.783C488.718 128.178 488.39 128.501 487.994 128.501C487.605 128.494 487.288 128.184 487.276 127.796Z" fill="black"/>
<path d="M458.121 125.577L428.12 -11.2958C427.903 -12.1783 428.45 -13.0673 429.333 -13.2846C430.217 -13.5019 431.106 -12.9553 431.324 -12.0729C431.324 -12.0597 431.33 -12.04 431.336 -12.0268L459.899 125.176C460.005 125.67 459.689 126.15 459.201 126.256C458.713 126.354 458.239 126.051 458.121 125.577Z" fill="black"/>
<path d="M429.499 139.2L308.891 -26.2061C308.357 -26.9436 308.529 -27.971 309.267 -28.5043C310.004 -29.0378 311.033 -28.8666 311.567 -28.129C311.574 -28.1224 311.58 -28.1092 311.588 -28.1027L430.876 138.232C431.14 138.614 431.041 139.134 430.658 139.397C430.276 139.661 429.762 139.568 429.499 139.2Z" fill="black"/>
<path d="M402.545 158.118L212.852 -8.24532C212.14 -8.81166 212.022 -9.84555 212.589 -10.5568C213.155 -11.268 214.19 -11.3865 214.902 -10.8202C214.91 -10.8136 214.922 -10.807 214.922 -10.8004L403.217 157.287C403.448 157.472 403.48 157.807 403.289 158.037C403.105 158.262 402.776 158.295 402.545 158.118Z" fill="black"/>
<path d="M329.506 158.186L-2.62112 -5.77C-3.46487 -6.11243 -3.86697 -7.07389 -3.52421 -7.91682C-3.18143 -8.75974 -2.21902 -9.16144 -1.37527 -8.81899L-1.36208 -8.81242L329.907 157.224C330.171 157.336 330.297 157.639 330.184 157.908C330.072 158.166 329.769 158.29 329.506 158.186Z" fill="black"/>
<path d="M-40.4876 3.34197L141.086 99.661L109.247 98.1202L146.273 117.461L127.618 118.297L167.176 142.545L59.4525 103.448L92.8334 107.412L59.4525 89.5723L79.6498 92.9374L-82.8994 3.26294L-40.4876 3.34197Z" fill="#FFC900" stroke="black" stroke-width="3.03024" stroke-miterlimit="10" stroke-linecap="round" stroke-linejoin="round"/>
<path d="M318.618 137.624L286.667 116.505L298.664 117.216L262.562 93.9633L276.339 93.2521L137.608 -15.5994H112.553L242.983 89.0375L231.559 88.1486L266.121 107.253L249.497 108.082L318.618 137.624Z" fill="#FFC900" stroke="black" stroke-width="3.03024" stroke-miterlimit="10" stroke-linecap="round" stroke-linejoin="round"/>
<path d="M589.828 151.846L675.641 92.315L641.318 98.8214C641.318 98.8214 741.605 -4.00415 766.706 -10.6751C758.605 -10.6751 709.51 -13.7053 709.51 -13.7053L616.841 93.7441L635.115 93.1118L604.126 119.308C604.126 119.308 632.465 111.88 623.988 119.466C616.353 126.295 589.828 151.846 589.828 151.846Z" fill="#FFC900" stroke="black" stroke-width="3.03024" stroke-miterlimit="10" stroke-linecap="round" stroke-linejoin="round"/>
<path d="M983.614 350.672C983.614 350.672 966.377 342.96 890.492 299.53L921.875 335.769L838.014 291.826C838.014 291.826 862.582 319.193 865.409 323.824C853.96 319.715 796.98 292.596 761.74 282.447C761.74 282.447 814.35 321.256 900.657 369.315C900.657 369.315 893.695 353.147 881.988 335.137C894.236 340.781 939.574 365.515 951.012 373.042C949.397 368.873 943.609 353.147 943.609 353.147C943.609 353.147 976.66 375.195 983.614 377.21C983.614 372.759 983.614 350.672 983.614 350.672Z" fill="#FFC900" stroke="black" stroke-width="3.03024" stroke-miterlimit="10" stroke-linecap="round" stroke-linejoin="round"/>
<path d="M952.688 562.797C952.688 562.797 786.202 439.753 748.24 393.234C747.548 396.137 753.896 414.412 751.919 418.699C745.399 412.1 708.432 363.362 708.432 363.362C708.432 363.362 713.746 378.548 712.044 385.449C707.364 380.886 674.518 352.977 674.518 352.977L719.374 410.941L718.63 392.463L761.258 447.471L761.154 431.33C761.154 431.33 924.099 552.741 935.047 562.797H952.688Z" fill="#FFC900" stroke="black" stroke-width="3.03024" stroke-miterlimit="10" stroke-linecap="round" stroke-linejoin="round"/>
<path d="M65.6343 557.116L261.65 404.376L215.738 414.979C215.738 414.979 256.218 383.29 269.125 374.828C261.834 376.303 235.638 381.618 235.638 381.618L263.219 357.706L193.681 396.77L234.953 389.19L171.012 429.341C171.012 429.341 196.146 419.206 210.425 419.009C199.687 427.965 31.8711 557.116 31.8711 557.116H65.6343Z" fill="#FFC900" stroke="black" stroke-width="3.03024" stroke-miterlimit="10" stroke-linecap="round" stroke-linejoin="round"/>
<path d="M102.671 356.448C102.671 356.448 55.0913 385.655 10.1153 407.294L30.3522 380.096L3.24663 395.467L8.21686 383.41L-13.0879 392.635V365.201L25.3819 353.024L5.14507 372.299L59.4748 357.166L43.0217 373.604L102.671 356.448Z" fill="#FFC900" stroke="black" stroke-width="3.03024" stroke-miterlimit="10" stroke-linecap="round" stroke-linejoin="round"/>
</g>
<defs>
<clipPath id="clip0_106_10033">
<rect width="969.677" height="545.443" fill="white" transform="translate(0.433594 0.966309)"/>
</clipPath>
</defs>
</svg>
