<svg width="280" height="280" viewBox="0 0 280 280" fill="none" xmlns="http://www.w3.org/2000/svg">
<g clip-path="url(#clip0_133_16617)">
<path d="M89.7678 195.884L90.5044 196.119L90.8292 196.223L91.0564 196.478C94.4572 200.288 99.0457 202.81 104.058 203.628L104.429 203.689L104.706 203.946C108.7 207.642 113.916 209.704 119.33 209.73M89.7678 195.884L226 225.799C226.004 229.572 224.521 233.187 221.881 235.848C219.24 238.51 215.659 240.002 211.926 240L177.625 239.978C162.342 239.968 154.122 233.138 149.907 227.481C149.1 226.39 148.366 225.247 147.711 224.059L147.482 223.644L147.037 223.486M89.7678 195.884L89.2721 195.725L89.7678 195.884ZM119.33 209.73C120.589 209.728 121.844 209.617 123.083 209.4M119.33 209.73L119.329 208.73C119.33 208.73 119.33 208.73 119.331 208.73M119.33 209.73L119.335 208.73C119.334 208.73 119.333 208.73 119.331 208.73M123.083 209.4L123.768 209.28L124.231 209.799M123.083 209.4L122.91 208.415L122.911 208.415M123.083 209.4L122.911 208.415M124.231 209.799L124.66 210.278C124.661 210.279 124.662 210.281 124.663 210.282C124.665 210.284 124.666 210.285 124.667 210.286C130.552 216.661 140.037 220.986 147.037 223.486M124.231 209.799L124.976 209.132L124.514 208.614L124.143 208.198L123.594 208.295L122.911 208.415M124.231 209.799L124.977 209.132L125.405 209.611L125.419 209.626M147.037 223.486L147.372 222.544L147.373 222.544M147.037 223.486L147.373 222.544M221.171 235.144C223.624 232.671 225.004 229.31 225 225.8L224.918 156.165V156.164V156.163V156.162C224.919 154.291 224.526 152.444 223.766 150.737C223.005 149.031 221.895 147.507 220.512 146.265L220.412 146.176C219.05 144.981 217.461 144.082 215.743 143.537C213.982 142.978 212.124 142.802 210.293 143.02L210.286 143.021L210.284 143.021L210.278 143.022C208.668 143.208 205.307 143.443 201.531 143.4C197.781 143.356 193.426 143.038 189.937 142.033L189.935 142.032L189.891 142.02L189.889 142.019C186.105 140.909 183.853 138.254 179.197 132.537L178.972 132.261V132.26C176.892 129.703 174.575 126.879 171.74 123.867L171.544 123.658C170.056 122.092 168.466 120.625 166.788 119.268C166.788 119.267 166.788 119.267 166.788 119.267L165.081 117.888L163.711 116.78L165.364 116.172L167.421 115.414C167.421 115.414 167.421 115.414 167.421 115.414C170.593 114.246 173.498 112.437 175.954 110.098L175.954 110.098C178.412 107.759 180.371 104.939 181.712 101.808L181.877 101.421L182.011 101.108L182.308 100.941L182.677 100.735L182.677 100.734C185.062 99.3984 187.212 97.6756 189.041 95.6344L189.118 95.5487L189.121 95.5464C190.849 93.6102 192.269 91.4143 193.33 89.0365L193.494 88.6691L193.626 88.3733L193.906 88.211L194.254 88.0094C197.665 86.0345 200.561 83.2734 202.71 79.9493C204.858 76.6254 206.196 72.8336 206.614 68.8834C207.029 64.933 206.514 60.938 205.106 57.2252L205.106 57.2249C203.699 53.5119 201.441 50.1868 198.519 47.5205C195.597 44.8544 192.092 42.9229 188.294 41.8818C184.497 40.8408 180.509 40.7198 176.66 41.5279C172.811 42.3361 169.205 44.0511 166.14 46.534L166.14 46.5341C163.073 49.0173 160.633 52.1985 159.02 55.8186L159.02 55.819L158.856 56.1865L158.724 56.4819L158.444 56.6442L158.097 56.846C153.435 59.5511 149.761 63.7017 147.624 68.6855L147.457 69.0738L147.323 69.3864L147.027 69.5525L146.658 69.7589C143.129 71.7336 140.13 74.545 137.918 77.9527C135.707 81.3601 134.351 85.2612 133.968 89.32C133.968 89.3202 133.968 89.3203 133.968 89.3204L133.929 89.7358L133.897 90.0705L133.67 90.3182L133.388 90.6254L133.388 90.6257L118.732 106.616L118.732 106.616L118.444 106.93L118.213 107.182L117.876 107.24L117.456 107.312C110.173 108.559 103.175 111.122 96.7987 114.879C93.312 116.976 89.9805 119.325 86.8304 121.907L86.8213 121.914L86.8213 121.914L86.808 121.925L86.8004 121.931L86.7872 121.941L86.7827 121.944C86.6083 122.08 86.4289 122.235 86.2158 122.426L86.2122 122.43L86.1976 122.443L86.1888 122.451L86.1798 122.458L86.165 122.471L86.1626 122.473C84.6651 123.737 83.2728 125.005 82.0443 126.254L82.0434 126.255L82.026 126.272L82.0246 126.274C75.0881 133.321 72.5593 140.105 73.691 146.485L73.691 146.485C73.6915 146.487 73.6919 146.49 73.6923 146.492C74.0129 148.296 74.6098 150.037 75.4615 151.656L74.6466 152.085L75.4615 151.656L75.8703 152.433L76.1982 153.056L75.7218 153.575L75.1287 154.221L75.1285 154.221L66.3627 163.759L66.317 163.809C65.3623 164.864 64.5821 166.07 64.0072 167.377L221.171 235.144ZM221.171 235.144C218.717 237.617 215.392 239.002 211.926 239L177.626 238.978C162.701 238.968 154.763 232.324 150.711 226.886M221.171 235.144L64.0065 167.378L56.1146 185.405C55.0183 187.909 54.7212 190.699 55.2656 193.386C55.8101 196.072 57.1686 198.522 59.1499 200.395L59.1501 200.395C61.1315 202.269 63.6375 203.475 66.3208 203.848L66.3215 203.848C68.9973 204.223 71.7214 203.752 74.12 202.502L74.1221 202.5L74.1395 202.491L74.1426 202.49L88.3477 195.08L88.3488 195.08L88.8085 194.839L89.1785 194.646L89.5763 194.773L90.072 194.931L90.0728 194.931L90.8088 195.167L90.8094 195.167L91.1336 195.271L91.3939 195.354L91.5757 195.558L91.8024 195.812C95.0515 199.452 99.4339 201.86 104.219 202.641L104.22 202.641L104.591 202.702L104.889 202.751L105.11 202.956L105.385 203.212L104.707 203.944L105.387 203.213C109.197 206.739 114.17 208.704 119.331 208.73M119.331 208.73C120.531 208.728 121.728 208.622 122.911 208.415M125.419 209.626C125.414 209.621 125.41 209.616 125.405 209.611C125.404 209.61 125.403 209.609 125.402 209.608L125.365 209.567L125.327 209.535C125.339 209.545 125.369 209.572 125.402 209.608C125.403 209.609 125.404 209.61 125.405 209.611C125.405 209.612 125.406 209.612 125.406 209.613C125.453 209.665 125.493 209.72 125.527 209.778L125.475 209.688L125.419 209.626ZM125.419 209.626C131.132 215.804 140.41 220.057 147.373 222.544M147.373 222.544L147.817 222.702L148.175 222.829L148.358 223.161L148.586 223.576C149.22 224.725 149.93 225.83 150.711 226.886M150.711 226.886C150.71 226.885 150.71 226.885 150.709 226.884L149.908 227.481L150.711 226.887C150.711 226.887 150.711 226.886 150.711 226.886ZM66.3624 163.759C66.36 163.761 66.3577 163.764 66.3554 163.766C66.3577 163.764 66.36 163.761 66.3624 163.759ZM66.3624 163.759C66.3647 163.756 66.367 163.754 66.3692 163.751L66.3631 163.758C66.3629 163.758 66.3626 163.758 66.3624 163.759ZM165.71 117.11L166.338 116.332L166.803 116.708L165.71 117.11ZM165.71 117.11L166.055 118.049L166.616 117.842L165.71 117.11ZM65.6666 164.082C65.6307 164.084 65.6143 164.082 65.6264 164.082H65.6666ZM190.213 141.072C193.572 142.039 197.819 142.357 201.543 142.4C205.285 142.443 208.607 142.209 210.17 142.028L190.213 141.072ZM175.783 209.989L175.588 209.117L174.7 209.213L172.236 209.48L171.344 209.576V210.474V210.491V210.496C171.344 210.665 171.344 211.057 171.463 211.525L171.677 212.364L172.538 212.272L174.992 212.01L175.854 211.918L175.885 211.052C175.899 210.66 175.854 210.305 175.783 209.989Z" fill="#F1F333" stroke="black" stroke-width="2"/>
<path d="M179.336 87.4699C180.388 86.3038 181.2 84.9386 181.724 83.4533C182.25 81.9679 182.478 80.3917 182.394 78.8163C184.741 78.7081 187.004 77.8994 188.894 76.4929C190.783 75.0863 192.215 73.1453 193.007 70.916C193.799 68.6865 193.915 66.2692 193.342 63.9702C192.768 61.6712 191.532 59.5943 189.787 58.0029C188.043 56.4113 185.869 55.3768 183.542 55.0304C181.216 54.6843 178.841 55.0418 176.72 56.0576C174.597 57.0736 172.823 58.7024 171.623 60.7372C170.422 62.7721 169.849 65.1215 169.975 67.4878C168.37 67.5566 166.796 67.9538 165.35 68.6553C163.903 69.3567 162.614 70.3478 161.561 71.5679C160.507 72.7882 159.712 74.2122 159.222 75.7532C158.733 77.2942 158.56 78.92 158.714 80.5318C156.321 80.542 153.989 81.2807 152.022 82.651C150.056 84.0213 148.547 85.9592 147.694 88.2106C146.842 90.4621 146.684 92.9218 147.243 95.2676C147.802 97.6133 149.051 99.7355 150.826 101.356C152.601 102.976 154.82 104.019 157.191 104.347C159.561 104.675 161.974 104.274 164.113 103.196C166.251 102.118 168.015 100.413 169.174 98.3052C170.332 96.1974 170.83 93.7849 170.603 91.384C172.25 91.3795 173.878 91.0288 175.381 90.3549C176.885 89.6811 178.232 88.6985 179.336 87.4699Z" fill="black" stroke="black" stroke-width="2" stroke-linecap="round" stroke-linejoin="round"/>
<path d="M141.113 122.253C149.184 123.699 156.593 127.699 162.262 133.674C171.623 143.628 175.443 152.304 186.36 155.452C197.279 158.6 211.829 156.866 211.829 156.866L211.91 226.52L177.609 226.496C159.425 226.484 158.366 212.882 158.366 212.882C158.366 212.882 141.736 208.685 134.966 201.349C128.197 194.012 125.075 184.062 112.596 178.291C100.116 172.522 93.8795 169.376 93.8752 165.709C93.8668 158.433 103.734 155.244 115.175 159.962C126.617 164.68 138.614 173.128 144.806 168.884C153.462 162.954 153.987 150.342 143.548 142.756C138.329 138.956 132.114 138.674 125.182 139.368" stroke="black" stroke-width="2" stroke-linecap="round" stroke-linejoin="round"/>
<path d="M156.338 104.456L107.553 157.495" stroke="black" stroke-width="2" stroke-linecap="round" stroke-linejoin="round"/>
<path d="M96.4817 170.436L85.5446 182.373L68.095 191.511L75.9882 173.482L147.315 95.6158" stroke="black" stroke-width="2" stroke-linecap="round" stroke-linejoin="round"/>
<path d="M124.306 120.498C116.99 121.032 109.893 123.237 103.553 126.945C94.3568 132.466 85.777 140.424 86.5983 144.913C87.3703 149.297 94.5816 151.552 99.767 147.394" stroke="black" stroke-width="2" stroke-linecap="round" stroke-linejoin="round"/>
<path d="M120.511 162.339C122.37 160.045 124.406 157.904 126.602 155.938C134.214 149.655 140.451 147.909 148.421 148.267" stroke="black" stroke-width="2" stroke-linecap="round" stroke-linejoin="round"/>
<path d="M89.2083 178.257C89.2083 178.257 92.5117 185.939 100.299 182.802C102.697 181.84 105.443 179.498 108.268 176.551" stroke="black" stroke-width="2" stroke-linecap="round" stroke-linejoin="round"/>
<path d="M132.504 167.713C139.044 162.327 144.563 160.302 151.035 160.035" stroke="black" stroke-width="2" stroke-linecap="round" stroke-linejoin="round"/>
<path d="M99.7876 185.071C99.7876 185.071 103.085 192.752 110.879 189.616C113.418 188.598 116.347 186.028 119.374 182.821" stroke="black" stroke-width="2" stroke-linecap="round" stroke-linejoin="round"/>
<path d="M111.831 190.928C111.831 190.928 115.128 198.609 122.922 195.474C124.72 194.654 126.376 193.548 127.826 192.2" stroke="black" stroke-width="2" stroke-linecap="round" stroke-linejoin="round"/>
<path d="M94.2166 164.467C94.2166 164.467 96.4619 159.059 102.705 162.205C107.069 164.408 109.117 168.143 108.776 170.412C108.435 172.681 106.529 174.43 103.583 173.728" stroke="black" stroke-width="2" stroke-linecap="round" stroke-linejoin="round"/>
<path d="M87.0869 142.99C87.0869 142.99 90.727 144.742 94.3611 141.251C97.995 137.761 94.8728 133.048 94.8728 133.048" stroke="black" stroke-width="2" stroke-linecap="round" stroke-linejoin="round"/>
<path d="M76.2153 173.482C76.2153 173.482 76.5082 177.488 79.7441 179.822C81.5117 181.163 83.5839 182.041 85.7717 182.372" stroke="black" stroke-width="2" stroke-linecap="round" stroke-linejoin="round"/>
<path d="M187.292 61.4387C186.229 60.4681 184.943 59.7785 183.55 59.4323C182.158 59.086 180.702 59.0938 179.315 59.4551" stroke="#F1F333" stroke-width="2" stroke-linecap="round" stroke-linejoin="round"/>
</g>
<defs>
<clipPath id="clip0_133_16617">
<rect width="172" height="200" fill="white" transform="translate(54 40)"/>
</clipPath>
</defs>
</svg>
