<svg width="250" height="148" viewBox="0 0 250 148" fill="none" xmlns="http://www.w3.org/2000/svg">
<g clip-path="url(#clip0_133_16635)">
<path d="M7.08499 18.2522C7.07545 14.8706 9.81041 12.1227 13.1946 12.1128L216.555 11.5204C218.987 11.5132 221.191 12.944 222.175 15.1669L249.477 76.9096C250.169 78.4744 250.175 80.2577 249.492 81.8272L222.533 143.728C221.562 145.956 219.364 147.4 216.932 147.407L13.5722 148C10.1891 148.01 7.43846 145.278 7.42861 141.896L7.08499 18.2522Z" fill="black"/>
<path d="M1.00002 6.72859L1.00002 6.72848C0.991841 3.90097 3.27973 1.6005 6.11241 1.59244L6.11248 1.59244L209.473 1.00002C211.507 0.994051 213.352 2.19124 214.175 4.05132L241.479 65.794C242.057 67.1028 242.061 68.5944 241.489 69.9071L214.531 131.809C214.531 131.809 214.531 131.809 214.531 131.809C213.718 133.673 211.879 134.881 209.845 134.887L6.48431 135.479C3.65292 135.487 1.35196 133.2 1.34364 130.373C1.34364 130.373 1.34364 130.373 1.34364 130.373L1.00002 6.72859Z" fill="#23A094" stroke="black" stroke-width="2" stroke-miterlimit="10"/>
<path d="M50.0555 13.3385C48.8823 13.3418 40.4556 13.22 39.4961 13.0767C38.771 21.2697 35.5415 48.6295 33.462 67.9435C31.1659 47.7656 27.8983 23.2028 26.6965 13.1135C25.7371 13.4093 16.5652 13.4354 15.9257 13.4384C15.3965 53.2231 14.8818 98.2741 14.2046 123.14L24.2303 123.111C24.3028 111.117 24.2563 94.4437 24.1063 78.9398C23.9688 67.8238 23.8235 53.7838 23.6832 41.4982L23.8959 41.3505C25.9885 65.3312 28.0888 91.6533 30.0695 113.732C31.6696 113.582 34.2294 113.574 36.149 113.715C37.7998 93.8191 39.5367 66.1707 41.7097 42.0307L41.9234 42.176C41.8521 54.9009 41.6809 70.2591 41.9202 79.6187C42.0823 99.3649 41.6815 108.873 41.614 123.061L51.7464 123.03C51.2512 98.0209 50.3822 54.1452 50.0555 13.3385ZM78.6699 109.35C74.7252 109.801 71.0995 109.957 68.007 109.966C67.8537 93.293 67.8026 75.1554 67.8624 58.0428C71.5952 58.0325 75.7551 58.1658 77.2486 58.3077L77.2109 44.5597C75.8239 44.7095 71.6646 44.722 67.932 44.8792C67.9144 38.2973 68.0033 32.1542 67.9862 26.1578C70.2268 26.2974 72.9998 26.289 77.907 26.5673L77.8698 13.2573L57.6053 13.3165C57.9187 49.1496 58.0519 97.1242 57.911 123.013L78.7081 122.953L78.6699 109.35ZM119.315 13.1365C118.141 13.14 109.716 13.0185 108.755 12.8749C108.031 21.0677 104.8 48.4285 102.721 67.7412C100.425 47.5633 97.1572 23.0008 95.9566 12.9122C94.9974 13.2076 85.8253 13.2344 85.1848 13.236C84.6557 53.0208 84.1409 98.0718 83.4636 122.938L93.4893 122.909C93.563 110.915 93.5165 94.2417 93.3665 78.7378C93.2288 67.623 93.0826 53.5815 92.9423 41.2959L93.1548 41.1495C95.2485 65.1305 97.3479 91.451 99.3295 113.532C100.929 113.38 103.488 113.373 105.409 113.514C107.06 93.6172 108.796 65.9684 110.969 41.8284L111.182 41.9737C111.111 54.6998 110.941 70.0571 111.18 79.418C111.341 99.1627 110.942 108.671 110.874 122.859L121.006 122.83C120.51 97.8198 119.641 53.9429 119.315 13.1365ZM127.065 123.397C143.595 122.909 153.481 111.034 153.412 86.1688C153.368 70.3722 150.14 59.7049 144.687 55.6252V55.1868C148.839 52.6874 152.557 47.2653 152.531 37.7582C152.483 20.3532 142.544 13.0689 126.757 12.6763C127.066 47.1928 127.175 86.2457 127.065 123.397ZM143.81 85.1729C143.843 97.1668 140.981 103.318 137.258 106.692C137.217 92.0671 137.069 77.0017 137.135 62.5214C140.871 63.8268 143.769 69.9621 143.81 85.1729ZM142.933 38.5174C142.953 45.6838 140.297 49.349 137.1 50.2357C137.079 42.4841 137.059 35.0246 137.039 28.1501C141.095 29.4548 142.917 32.9595 142.933 38.5174ZM179.122 109.057C175.178 109.508 171.552 109.664 168.459 109.674C168.306 93.0003 168.255 74.8628 168.315 57.75C172.048 57.7399 176.207 57.8731 177.7 58.015L177.662 44.2669C176.276 44.4171 172.116 44.4294 168.385 44.5865C168.366 38.0049 168.456 31.8615 168.439 25.8646C170.679 26.0045 173.452 25.9964 178.359 26.2747L178.322 12.9648L158.058 13.0237C158.37 48.8569 158.504 96.8315 158.362 122.72L179.16 122.66L179.122 109.057ZM203.649 123.466L214.1 122.558C211.499 107.793 206.507 76.7999 203.464 56.9166C207.294 53.2489 210.264 47.3899 210.24 38.6143C210.192 21.2089 200.996 12.8987 184.143 12.5089C184.682 52.8762 184.808 98.51 184.449 122.645L194.689 122.615C194.545 109.597 194.374 86.196 194.412 62.0626L194.733 61.9156C198.315 84.5757 202.011 109.722 203.649 123.466ZM200.214 38.7898C200.227 43.6163 197.893 47.5721 194.378 49.3375C194.358 42.1707 194.338 35.0039 194.319 28.1297C198.589 29.726 200.199 32.7928 200.214 38.7898Z" fill="#FF90E8" stroke="black" stroke-width="2"/>
</g>
<defs>
<clipPath id="clip0_133_16635">
<rect width="250" height="148" fill="white"/>
</clipPath>
</defs>
</svg>
